<svg width="24" height="24" viewBox="0 0 24 24" fill="none" xmlns="http://www.w3.org/2000/svg">
<path fill-rule="evenodd" clip-rule="evenodd" d="M10.8887 2V5.31578H12.8887V2H10.8887ZM17 20V13.5264C17 10.7649 14.7614 8.52637 12 8.52637C9.23858 8.52637 7 10.7649 7 13.5264V20H17ZM17.8617 22H22V20H19V13.5264C19 9.66037 15.866 6.52637 12 6.52637C8.13401 6.52637 5 9.66037 5 13.5264V20H2V22H6.13829L6.1462 22H17.8538L17.8617 22ZM8.6665 18.6842V14.2632H10.6665V18.6842H8.6665ZM21.0238 5.28698L18.6667 7.63159L17.2488 6.22112L19.6058 3.8765L21.0238 5.28698ZM3.11133 5.42114L5.46835 7.76576L6.88629 6.35528L4.52927 4.01067L3.11133 5.42114Z" fill="#273666"/>
</svg>
