<svg width="24" height="24" viewBox="0 0 24 24" fill="none" xmlns="http://www.w3.org/2000/svg">
<path fill-rule="evenodd" clip-rule="evenodd" d="M12.8139 4C8.57102 4 5.0855 7.1834 4.70037 11.25H6.29285L3.64642 15L1 11.25H2.65603C3.04669 6.07745 7.44526 2 12.8139 2C18.4395 2 23 6.47715 23 12C23 17.5229 18.4395 22 12.8139 22C9.79704 22 7.08545 20.7112 5.22175 18.6669C4.84657 18.2554 4.88224 17.6232 5.30142 17.2549C5.72061 16.8865 6.36457 16.9216 6.73975 17.3331C8.23331 18.9713 10.4006 20 12.8139 20C17.3144 20 20.9628 16.4183 20.9628 12C20.9628 7.58172 17.3144 4 12.8139 4ZM11.7953 8C11.7953 7.44772 12.2513 7 12.8139 7C13.3765 7 13.8325 7.44772 13.8325 8V12.1531C13.8325 12.422 13.9428 12.6795 14.1385 12.8677L16.6256 15.258C17.0506 15.6665 17.0543 16.3371 16.6337 16.75C16.2131 17.1629 15.5301 17.1594 15.1139 16.7421L12.3767 13.9973C12.004 13.6235 11.7952 13.1212 11.7953 12.5981L11.7953 8Z" fill="#273666"/>
</svg>
