<svg width="24" height="24" viewBox="0 0 24 24" fill="none" xmlns="http://www.w3.org/2000/svg">
<path d="M1 4H5V8H1V4ZM14 6H12V8H14V6ZM5 9H3V11H5V9ZM9 6H11V8H9V6ZM8 6H6V8H8V6ZM23 7C23 6.73478 22.8946 6.48043 22.7071 6.29289C22.5196 6.10536 22.2652 6 22 6H15V12H3V19C3 19.2652 3.10536 19.5196 3.29289 19.7071C3.48043 19.8947 3.73478 20 4 20H22C22.2652 20 22.5196 19.8947 22.7071 19.7071C22.8946 19.5196 23 19.2652 23 19V7ZM21 8V12H17V8H21ZM21 14V18H17V14H21ZM15 18H11V14H15V18ZM9 18H5V14H9V18Z" fill="#273666"/>
</svg>
