<svg width="24" height="24" viewBox="0 0 24 24" fill="none" xmlns="http://www.w3.org/2000/svg">
<path fill-rule="evenodd" clip-rule="evenodd" d="M6.39216 2.66669H8.27451V12.2667H6.39216V2.66669ZM10.7843 4.61263H12.6667V12.2667H10.7843V4.61263ZM2 6.55858H3.88235V12.2667H2V6.55858ZM21 7.33344C21.5523 7.33344 22 7.78115 22 8.33344V20.3334C22 20.8857 21.5523 21.3334 21 21.3334H3C2.44772 21.3334 2 20.8857 2 20.3334V13.3334H4H8H10H14V9.33344V7.33344H21ZM20 13.3334V9.33344H16V13.3334H20ZM20 19.3334V15.3334H16V19.3334H20ZM10 19.3334H14V15.3334H10V19.3334ZM4 19.3334H8V15.3334H4V19.3334Z" fill="#273666"/>
</svg>
