<svg width="24" height="24" viewBox="0 0 24 24" fill="none" xmlns="http://www.w3.org/2000/svg">
<path d="M2 2H4V11H2V2ZM7 3H5V5H7V3ZM7 6H5V8H7V6ZM11 9H13V11H11V9ZM10 6H8V8H10V6ZM8 9H10V11H8V9ZM7 9H5V11H7V9ZM22 7C22 6.73479 21.8946 6.48043 21.7071 6.2929C21.5196 6.10536 21.2652 6 21 6H14V12H2V19C2 19.2652 2.10536 19.5196 2.29289 19.7071C2.48043 19.8947 2.73478 20 3 20H21C21.2652 20 21.5196 19.8947 21.7071 19.7071C21.8946 19.5196 22 19.2652 22 19V7ZM20 8V12H16V8H20ZM20 14V18H16V14H20ZM14 18H10V14H14V18ZM8 18H4V14H8V18Z" fill="#273666"/>
</svg>
