<svg width="24" height="24" viewBox="0 0 24 24" fill="none" xmlns="http://www.w3.org/2000/svg">
<path fill-rule="evenodd" clip-rule="evenodd" d="M20 16H4.00004V5H20V16ZM13 20V18H21.008C21.545 18 22 17.549 22 16.993V4.007C22 3.449 21.556 3 21.008 3H2.99204C2.45504 3 2.00004 3.451 2.00004 4.007V16.993C1.99885 17.1243 2.02359 17.2546 2.07284 17.3763C2.12209 17.498 2.19488 17.6088 2.28703 17.7024C2.37919 17.7959 2.4889 17.8704 2.60988 17.9215C2.73086 17.9725 2.86073 17.9992 2.99204 18H11V20H7.00004V22H17V20H13ZM16 9.5H8V11.5H16V9.5Z" fill="#273666"/>
</svg>
