<svg width="24" height="24" viewBox="0 0 24 24" fill="none" xmlns="http://www.w3.org/2000/svg">
<path d="M12 18C10.4087 18 8.88256 17.3679 7.75735 16.2426C6.63213 15.1174 5.99999 13.5913 5.99999 12C5.99999 10.4087 6.63213 8.88257 7.75735 7.75735C8.88256 6.63213 10.4087 5.99999 12 5.99999C13.5913 5.99999 15.1174 6.63213 16.2426 7.75735C17.3678 8.88257 18 10.4087 18 12C18 13.5913 17.3678 15.1174 16.2426 16.2426C15.1174 17.3679 13.5913 18 12 18ZM12 16.0005C13.061 16.0005 14.0785 15.579 14.8288 14.8288C15.579 14.0785 16.0005 13.061 16.0005 12C16.0005 10.939 15.579 9.92145 14.8288 9.17121C14.0785 8.42097 13.061 7.99949 12 7.99949C10.939 7.99949 9.92144 8.42097 9.17121 9.17121C8.42097 9.92145 7.99949 10.939 7.99949 12C7.99949 13.061 8.42097 14.0785 9.17121 14.8288C9.92144 15.579 10.939 16.0005 12 16.0005ZM10.9995 1.00049H13.0005V4.00049H10.9995V1.00049ZM10.9995 20.001H13.0005V23.001H10.9995V20.001ZM3.51449 4.92899L4.92899 3.51599L7.04999 5.63699L5.63549 7.04999L3.51449 4.93049V4.92899ZM16.95 18.3645L18.3645 16.95L20.4855 19.071L19.071 20.4855L16.95 18.3645ZM19.071 3.51449L20.4855 4.92899L18.3645 7.04999L16.95 5.63699L19.071 3.51599V3.51449ZM5.63549 16.95L7.04999 18.3645L4.92899 20.4855L3.51449 19.071L5.63549 16.95ZM22.9995 11.001V13.0005H19.9995V11.001H22.9995ZM4.00049 11.001V13.0005H1.00049V11.001H4.00049Z" fill="#273666"/>
</svg>
