<svg width="24" height="24" viewBox="0 0 24 24" fill="none" xmlns="http://www.w3.org/2000/svg">
<path d="M8.82929 5C8.41746 3.83481 7.30622 3 6 3C4.34315 3 3 4.34315 3 6C3 7.30622 3.83481 8.41746 5 8.82929V17C5 18.1046 5.89543 19 7 19H15.1707C15.5825 20.1652 16.6938 21 18 21C19.6569 21 21 19.6569 21 18C21 16.6938 20.1652 15.5825 19 15.1707V7C19 5.89543 18.1046 5 17 5H8.82929ZM7 8.82929C7.85241 8.52801 8.52801 7.85241 8.82929 7H17V15.1707C16.1476 15.472 15.472 16.1476 15.1707 17H7V8.82929ZM5 6C5 5.44772 5.44772 5 6 5C6.55228 5 7 5.44772 7 6C7 6.55228 6.55228 7 6 7C5.44772 7 5 6.55228 5 6ZM17 18C17 17.4477 17.4477 17 18 17C18.5523 17 19 17.4477 19 18C19 18.5523 18.5523 19 18 19C17.4477 19 17 18.5523 17 18Z" fill="#273666"/>
</svg>
