<svg width="24" height="24" viewBox="0 0 24 24" fill="none" xmlns="http://www.w3.org/2000/svg">
<path fill-rule="evenodd" clip-rule="evenodd" d="M12.768 17.0485L17.19 12.7553C17.598 12.3592 17.598 11.7126 17.208 11.3107C16.794 10.9146 16.128 10.9146 15.72 11.3107L13.062 13.8913V4.4369C13.062 4.15146 12.948 3.90098 12.756 3.71457C12.564 3.53399 12.3 3.41748 12.012 3.41748C11.436 3.41748 10.962 3.87767 10.962 4.4369V13.8913L8.30401 11.3107C7.89001 10.9146 7.22401 10.9146 6.81601 11.3107C6.61201 11.5087 6.51001 11.7709 6.51001 12.033C6.51001 12.2952 6.61201 12.5573 6.81601 12.7553L11.238 17.0485L11.262 17.0718C11.424 17.2291 11.628 17.3282 11.844 17.3573C11.853 17.3573 11.862 17.3587 11.871 17.3602C11.88 17.3617 11.889 17.3631 11.898 17.3631L12 17.3689C12.036 17.3689 12.072 17.3689 12.108 17.3631C12.117 17.3631 12.126 17.3617 12.135 17.3602C12.144 17.3587 12.153 17.3573 12.162 17.3573C12.372 17.3282 12.582 17.2291 12.744 17.0718C12.7458 17.0701 12.7482 17.0683 12.7508 17.0664C12.7567 17.062 12.7638 17.0567 12.768 17.0485ZM21.5279 20.9515V16.8563C21.5279 16.6175 21.4259 16.3961 21.2699 16.233C21.1079 16.0757 20.8799 15.9767 20.6339 15.9767C20.1419 15.9767 19.7339 16.367 19.7339 16.8505V20.1301H4.27192V16.8505C4.27192 16.6117 4.16992 16.3903 4.00792 16.233C3.84592 16.0757 3.61792 15.9767 3.37192 15.9767C2.87992 15.9767 2.47192 16.367 2.47192 16.8505V20.9456C2.47192 21.0039 2.47192 21.0505 2.48392 21.1029C2.53192 21.5398 2.91592 21.8835 3.37792 21.8835H20.6159C21.0479 21.8835 21.4139 21.5806 21.4979 21.1787C21.5159 21.1088 21.5279 21.033 21.5279 20.9515Z" fill="#273666"/>
</svg>
