<svg width="24" height="24" viewBox="0 0 24 24" fill="none" xmlns="http://www.w3.org/2000/svg">
<path d="M19 10.5C19 11.3284 18.3284 12 17.5 12C16.6716 12 16 11.3284 16 10.5C16 9.67157 16.6716 9 17.5 9C18.3284 9 19 9.67157 19 10.5Z" fill="#273666"/>
<path d="M6.5 12C7.32843 12 8 11.3284 8 10.5C8 9.67157 7.32843 9 6.5 9C5.67157 9 5 9.67157 5 10.5C5 11.3284 5.67157 12 6.5 12Z" fill="#273666"/>
<path d="M8.36364 15.4286H15.6364L16.7181 17.4685C16.8916 17.7955 17.2314 18 17.6016 18H21C21.5523 18 22 17.5523 22 17V9.08905C22 8.76443 21.8424 8.46 21.5774 8.27257L18.6232 6.18352C18.4543 6.06412 18.2526 6 18.0458 6H5.95421C5.74741 6 5.54569 6.06412 5.37684 6.18352L2.42263 8.27257C2.15758 8.46 2 8.76443 2 9.08905V17C2 17.5523 2.44772 18 3 18H6.39839C6.76855 18 7.10843 17.7955 7.28185 17.4685L8.36364 15.4286ZM7.16042 13.4286L5.79679 16H4V9.60667L6.27206 8H17.7279L20 9.60667V16H18.2032L16.8396 13.4286H7.16042Z" fill="#273666"/>
</svg>
