<svg width="24" height="24" viewBox="0 0 24 24" fill="none" xmlns="http://www.w3.org/2000/svg">
<path d="M4.22171 11.2929L6.34303 9.17157L7.75725 10.5858L5.63593 12.7071C4.07383 14.2692 4.07383 16.8019 5.63593 18.364C7.19803 19.9261 9.73069 19.9261 11.2928 18.364L13.4141 16.2426L14.8283 17.6568L12.707 19.7782C10.3639 22.1213 6.56486 22.1213 4.22171 19.7782C1.87857 17.435 1.87857 13.636 4.22171 11.2929Z" fill="#273666"/>
<path d="M18.3638 11.2929L16.2425 13.4142L17.6567 14.8284L19.7781 12.7071C22.1212 10.364 22.1212 6.56497 19.7781 4.22182C17.4349 1.87868 13.6359 1.87868 11.2928 4.22182L9.17146 6.34314L10.5857 7.75736L12.707 5.63604C14.2691 4.07394 16.8018 4.07394 18.3638 5.63604C19.9259 7.19813 19.9259 9.73079 18.3638 11.2929Z" fill="#273666"/>
<path d="M14.1212 8.46446L8.46436 14.1213L9.87857 15.5355L15.5354 9.87868L14.1212 8.46446Z" fill="#273666"/>
</svg>
