<svg width="24" height="24" viewBox="0 0 24 24" fill="none" xmlns="http://www.w3.org/2000/svg">
<path d="M12 13L18 22H6.00002L12 13ZM12 16.6L9.74002 20H14.26L12 16.6ZM10.94 10.56C10.7889 10.4276 10.666 10.2663 10.5784 10.0855C10.4909 9.90475 10.4405 9.70825 10.4304 9.50766C10.4202 9.30707 10.4504 9.10648 10.5192 8.91779C10.588 8.7291 10.694 8.55615 10.8309 8.40919C10.9678 8.26224 11.1329 8.14427 11.3162 8.0623C11.4996 7.98032 11.6975 7.936 11.8983 7.93197C12.0991 7.92794 12.2987 7.96428 12.4852 8.03883C12.6717 8.11338 12.8413 8.22462 12.984 8.36596C13.261 8.64033 13.4203 9.01176 13.4281 9.40156C13.436 9.79136 13.2917 10.1689 13.0259 10.4542C12.7602 10.7394 12.3938 10.91 12.0044 10.9297C11.615 10.9495 11.2333 10.8169 10.94 10.56ZM5.28102 2.78296L6.69602 4.19796C5.28968 5.60446 4.49962 7.51198 4.49962 9.50096C4.49962 11.4899 5.28968 13.3975 6.69602 14.804L5.28102 16.219C4.39872 15.3368 3.69883 14.2895 3.22132 13.1368C2.74382 11.9841 2.49805 10.7486 2.49805 9.50096C2.49805 8.25329 2.74382 7.01783 3.22132 5.86515C3.69883 4.71247 4.39872 3.66513 5.28102 2.78296ZM18.717 2.78296C19.5993 3.66513 20.2992 4.71247 20.7767 5.86515C21.2542 7.01783 21.5 8.25329 21.5 9.50096C21.5 10.7486 21.2542 11.9841 20.7767 13.1368C20.2992 14.2895 19.5993 15.3368 18.717 16.219L17.302 14.804C18.7084 13.3975 19.4984 11.4899 19.4984 9.50096C19.4984 7.51198 18.7084 5.60446 17.302 4.19796L18.717 2.78296ZM8.11002 5.61096L9.52402 7.02496C9.19898 7.34997 8.94113 7.73582 8.76522 8.16049C8.58931 8.58515 8.49876 9.0403 8.49876 9.49996C8.49876 9.95962 8.58931 10.4148 8.76522 10.8394C8.94113 11.2641 9.19898 11.65 9.52402 11.975L8.11002 13.389C7.07862 12.3575 6.49919 10.9586 6.49919 9.49996C6.49919 8.04131 7.07862 6.6424 8.11002 5.61096ZM15.888 5.61096C16.9194 6.6424 17.4988 8.04131 17.4988 9.49996C17.4988 10.9586 16.9194 12.3575 15.888 13.389L14.474 11.975C14.7992 11.65 15.0571 11.2642 15.2331 10.8395C15.4091 10.4148 15.4997 9.95965 15.4997 9.49996C15.4997 9.04027 15.4091 8.58508 15.2331 8.16041C15.0571 7.73573 14.7992 7.3499 14.474 7.02496L15.888 5.61096Z" fill="#273666"/>
</svg>
