<svg width="24" height="24" viewBox="0 0 24 24" fill="none" xmlns="http://www.w3.org/2000/svg">
<path d="M15.6062 17.5396C15.573 17.5724 15.5475 17.6122 15.5313 17.6559C15.5151 17.6997 15.5087 17.7465 15.5125 17.793C15.5164 17.8396 15.5303 17.8847 15.5534 17.9253C15.5765 17.9658 15.6081 18.0009 15.6462 18.0279C16.3407 18.6784 16.7878 19.5499 16.911 20.4935C16.975 20.7283 17.1019 20.9412 17.2779 21.1092C17.454 21.2772 17.6726 21.394 17.9101 21.4469C18.1477 21.4998 18.3951 21.4869 18.6259 21.4095C18.8566 21.3321 19.0618 21.1933 19.2195 21.0078C19.3771 20.8224 19.4811 20.5975 19.5203 20.3573C19.5595 20.1171 19.5323 19.8708 19.4418 19.6449C19.3513 19.419 19.2009 19.222 19.0067 19.0753C18.8125 18.9286 18.582 18.8377 18.34 18.8124C17.4611 18.6481 16.6599 18.2011 16.0585 17.5396C15.9984 17.4797 15.9171 17.446 15.8323 17.446C15.7475 17.446 15.6662 17.4797 15.6062 17.5396Z" fill="#FB6500"/>
<path d="M21.0338 15.4222C20.8172 15.6383 20.6815 15.9224 20.6496 16.2267C20.4871 17.1065 20.0416 17.9091 19.3807 18.5122C19.3482 18.5433 19.3226 18.581 19.3056 18.6227C19.2886 18.6644 19.2806 18.7092 19.2822 18.7542C19.2837 18.7992 19.2947 18.8434 19.3144 18.8839C19.3342 18.9244 19.3622 18.9602 19.3968 18.9891C19.4313 19.018 19.4716 19.0393 19.5149 19.0515C19.5583 19.0638 19.6037 19.0668 19.6483 19.0603C19.6928 19.0539 19.7355 19.038 19.7736 19.0139C19.8116 18.9898 19.8441 18.958 19.869 18.9205C20.5193 18.2256 21.391 17.7785 22.3346 17.6556C22.5326 17.6021 22.7155 17.5037 22.8694 17.3681C23.0232 17.2325 23.1438 17.0634 23.2218 16.8737C23.2998 16.6841 23.3331 16.479 23.3192 16.2744C23.3053 16.0699 23.2445 15.8712 23.1415 15.6939C23.0386 15.5166 22.8962 15.3653 22.7254 15.2518C22.5546 15.1383 22.36 15.0656 22.1567 15.0393C21.9533 15.0131 21.7466 15.0339 21.5526 15.1003C21.3586 15.1667 21.1824 15.2768 21.0378 15.4222H21.0338Z" fill="#0082EF"/>
<path d="M17.2671 11.6518C17.089 11.8303 16.9651 12.0556 16.9095 12.3016C16.854 12.5475 16.8692 12.8042 16.9533 13.0419C17.0374 13.2797 17.1871 13.4888 17.385 13.6451C17.5829 13.8014 17.8209 13.8985 18.0717 13.9253C18.9515 14.0877 19.754 14.5333 20.3571 15.1941C20.3883 15.2266 20.4259 15.2522 20.4677 15.2692C20.5094 15.2862 20.5542 15.2942 20.5992 15.2927C20.6442 15.2911 20.6884 15.2801 20.7289 15.2604C20.7693 15.2406 20.8052 15.2126 20.8341 15.178C20.863 15.1435 20.8842 15.1032 20.8965 15.0599C20.9088 15.0166 20.9118 14.9711 20.9053 14.9266C20.8988 14.882 20.883 14.8393 20.8589 14.8013C20.8348 14.7632 20.8029 14.7307 20.7654 14.7058C20.0709 14.0553 19.6238 13.1838 19.5006 12.2402C19.4382 12.015 19.3178 11.8101 19.1516 11.6459C18.9853 11.4817 18.7788 11.364 18.5529 11.3045C18.3269 11.245 18.0893 11.2457 17.8637 11.3066C17.6381 11.3676 17.4324 11.4866 17.2671 11.6518Z" fill="#2DBC00"/>
<path d="M16.6108 13.7412L16.5868 13.7652C15.9342 14.484 15.0477 14.9478 14.0851 15.0741C13.8581 15.1339 13.6509 15.2528 13.4848 15.4186C13.3186 15.5845 13.1993 15.7915 13.1391 16.0184C13.0789 16.2454 13.08 16.4842 13.1421 16.7107C13.2042 16.9371 13.3252 17.143 13.4928 17.3075C13.6713 17.4856 13.8966 17.6096 14.1425 17.6651C14.3885 17.7206 14.6452 17.7055 14.8829 17.6213C15.1206 17.5372 15.3297 17.3876 15.486 17.1897C15.6423 16.9918 15.7395 16.7537 15.7662 16.503C15.93 15.6228 16.377 14.8202 17.0391 14.2175C17.1023 14.1607 17.1403 14.0811 17.1448 13.9963C17.1493 13.9115 17.1199 13.8284 17.0631 13.7652C17.0063 13.702 16.9268 13.664 16.8419 13.6595C16.7571 13.655 16.674 13.6844 16.6108 13.7412Z" fill="#FFCC00"/>
<path d="M8.53365 2.20166C6.13607 2.46582 3.96266 3.49049 2.40165 5.09153C1.78124 5.72395 1.27691 6.43641 0.904677 7.1969C0.32413 8.36548 0.0659153 9.6678 0.15668 10.9695C0.247445 12.2711 0.683901 13.525 1.42101 14.6017C1.84529 15.2421 2.54174 16.0427 3.17815 16.611L2.88997 18.8765L2.85794 18.9726C2.84993 19.0006 2.84993 19.0326 2.84594 19.0606L2.83793 19.1327L2.84594 19.2047C2.85653 19.3275 2.89809 19.4456 2.96672 19.5479C3.03536 19.6502 3.12883 19.7335 3.23839 19.7899C3.34796 19.8462 3.47003 19.8739 3.5932 19.8703C3.71637 19.8666 3.8366 19.8318 3.94265 19.7691H3.95465L3.99868 19.7371L4.68714 19.3928L6.74047 18.3602C7.71621 18.6407 8.72719 18.7795 9.74242 18.7724C10.9978 18.7753 12.2441 18.5586 13.4248 18.132C13.1372 18.0371 12.8905 17.847 12.7253 17.5931C12.5602 17.3391 12.4864 17.0365 12.5162 16.7351C11.2951 17.1277 10.0043 17.2559 8.72979 17.1114L8.52565 17.0833C8.06548 17.0232 7.61054 16.9283 7.16477 16.7992C7.04453 16.7618 6.91795 16.7493 6.79271 16.7623C6.66748 16.7754 6.54621 16.8138 6.43629 16.8752L6.38025 16.9032L4.69116 17.8959L4.61911 17.9399C4.57908 17.9639 4.55907 17.9719 4.53905 17.9719C4.50897 17.9699 4.48087 17.9562 4.4607 17.9338C4.44053 17.9114 4.42987 17.882 4.43098 17.8518L4.49502 17.5917L4.57109 17.3075L4.69116 16.8392L4.83126 16.3188C4.87678 16.1772 4.87653 16.0247 4.83055 15.8832C4.78456 15.7417 4.69518 15.6182 4.57507 15.5303C3.91124 15.0376 3.33486 14.4368 2.86998 13.7532C2.28726 12.9056 1.94143 11.9178 1.86825 10.8919C1.79507 9.86593 1.99718 8.83906 2.45369 7.91737C2.75789 7.30897 3.15816 6.74462 3.65447 6.23628C4.93531 4.91542 6.73648 4.07487 8.72979 3.85873C9.41881 3.78272 10.1141 3.78272 10.8031 3.85873C12.7844 4.08687 14.5776 4.93944 15.8504 6.25228C16.3427 6.76062 16.743 7.33299 17.0392 7.94139C17.4355 8.74993 17.6356 9.60648 17.6356 10.483C17.6356 10.5751 17.6276 10.6672 17.6236 10.7552C17.8789 10.598 18.1797 10.5314 18.4775 10.5663C18.7752 10.6012 19.0526 10.7354 19.2646 10.9473L19.3247 11.0194C19.4274 9.71208 19.1758 8.40125 18.5962 7.22493C18.2169 6.44932 17.717 5.73872 17.1152 5.11955C15.4769 3.47258 13.3184 2.44427 11.0072 2.20965C10.1855 2.11614 9.35597 2.11345 8.53365 2.20164V2.20166Z" fill="#0082EF"/>
</svg>
