<svg width="24" height="24" viewBox="0 0 24 24" fill="none" xmlns="http://www.w3.org/2000/svg">
<g clip-path="url(#clip0_3342_396)">
<path d="M9.01023 14.4749C9.46023 11.55 10.8102 9.82495 13.1352 8.77495C14.0352 8.39995 15.6852 7.79995 17.0352 8.17495C16.6602 4.64995 12.1602 2.09995 8.03523 2.17495L6.01023 2.62495C4.51023 2.99995 3.38523 3.67495 2.33523 4.49995C0.910233 5.62495 -0.589767 8.32495 0.235233 11.1C0.760233 12.9 1.96023 14.25 3.38523 15.15L2.56023 17.7L5.48523 16.2L6.76023 16.5C7.51023 16.7249 8.41023 16.725 9.23523 16.65C9.23523 16.05 8.86023 15.2999 9.01023 14.4749ZM10.5102 6.59995C10.6602 6.14995 11.1102 6.07495 11.6352 5.84995C13.0602 5.92495 13.1352 7.79995 11.8602 7.94995C11.0352 8.09995 10.2102 7.42495 10.5102 6.59995ZM5.93523 8.02495C5.11023 8.17495 4.28523 7.42495 4.58523 6.59995C4.81023 6.14995 5.18523 6.07495 5.71023 5.84995C7.13523 5.92495 7.21023 7.72495 5.93523 8.02495ZM23.3352 12.2249C22.0602 10.0499 19.8852 8.54995 16.4352 8.54995L15.0102 8.77495C13.8102 9.07495 12.7602 9.52495 11.8602 10.2C8.71023 12.5999 9.01023 17.2499 12.0852 19.5C12.9852 20.1749 15.1602 21.2249 16.9602 20.9249C17.3352 20.8499 19.2852 20.4749 19.3602 20.4749L21.6852 21.7499L21.0102 19.65C22.1352 18.375 23.2602 17.85 23.8602 15.9C24.2352 14.625 23.8602 13.1249 23.3352 12.2249ZM14.9352 13.575C13.8102 14.025 13.0602 12.6749 14.3352 12C15.4602 11.9249 15.9102 13.2 14.9352 13.575ZM19.5852 13.575C18.4602 14.025 17.7852 12.6749 18.9852 12C20.1852 11.9249 20.6352 13.2 19.5852 13.575Z" fill="#1AAD19"/>
</g>
<defs>
<clipPath id="clip0_3342_396">
<rect width="24" height="24" fill="white"/>
</clipPath>
</defs>
</svg>
