<svg width="24" height="24" viewBox="0 0 24 24" fill="none" xmlns="http://www.w3.org/2000/svg">
<path d="M10.9912 1.41648L4.0657 5.264C2.70352 6.02077 2.69174 7.97568 4.04471 8.7488L18.5063 17.0126L12.005 20.8369L7.27696 18.0001H8V16.0001H3V21.0001H5L5 18.9663L10.976 22.5519C11.604 22.9287 12.3878 22.9321 13.019 22.5608L19.5204 18.7365C20.8446 17.9575 20.8325 16.0383 19.4986 15.2761L5.03699 7.01232L11.9625 3.1648L16.3729 6.00006H15V8.00006H20V3.00006H18V4.66841L13.044 1.48244C12.4242 1.08396 11.6354 1.05861 10.9912 1.41648Z" fill="#273666"/>
</svg>
