<svg width="24" height="24" viewBox="0 0 24 24" fill="none" xmlns="http://www.w3.org/2000/svg">
<g clip-path="url(#clip0_3399_79)">
<path fill-rule="evenodd" clip-rule="evenodd" d="M15.1126 4.00003L17.422 0L19.154 0.999999L17.422 4.00003H18H20V6.00003H18H16.2673L12.2258 13H18H20V15H18H11.0711L9.91643 17H20V19H8.76173L6.73205 22.5155L5 21.5155L6.45233 19H4V17H7.60703L8.78808 14.9544C6.08683 14.6053 4 12.2964 4 9.50003C4 6.46247 6.46243 4.00003 9.5 4.00003H15.1126ZM13.9579 6.00003H9.5C7.567 6.00003 6 7.56704 6 9.50003C6 11.433 7.567 13 9.5 13H9.91643L13.9579 6.00003Z" fill="#273666"/>
</g>
<defs>
<clipPath id="clip0_3399_79">
<rect width="24" height="24" fill="white"/>
</clipPath>
</defs>
</svg>
