<svg width="24" height="24" viewBox="0 0 24 24" fill="none" xmlns="http://www.w3.org/2000/svg">
<path fill-rule="evenodd" clip-rule="evenodd" d="M3.5 18V14.3C3.5 13.9022 3.34196 13.5206 3.06066 13.2393C2.77936 12.958 2.39782 12.8 2 12.8H1.5V11.2H2C2.19698 11.2 2.39204 11.1612 2.57403 11.0858C2.75601 11.0104 2.92137 10.8999 3.06066 10.7607C3.19995 10.6214 3.31044 10.456 3.38582 10.274C3.4612 10.092 3.5 9.89698 3.5 9.7V6C3.5 5.20435 3.81607 4.44129 4.37868 3.87868C4.94129 3.31607 5.70435 3 6.5 3H7.5V5H6.5C6.23478 5 5.98043 5.10536 5.79289 5.29289C5.60536 5.48043 5.5 5.73478 5.5 6V10.1C5.5001 10.521 5.36735 10.9313 5.12064 11.2725C4.87393 11.6136 4.52586 11.8682 4.126 12C4.52586 12.1318 4.87393 12.3864 5.12064 12.7275C5.36735 13.0687 5.5001 13.479 5.5 13.9V18C5.5 18.2652 5.60536 18.5196 5.79289 18.7071C5.98043 18.8946 6.23478 19 6.5 19H7.5V21H6.5C5.70435 21 4.94129 20.6839 4.37868 20.1213C3.81607 19.5587 3.5 18.7956 3.5 18ZM20.5 14.3V18C20.5 18.7956 20.1839 19.5587 19.6213 20.1213C19.0587 20.6839 18.2956 21 17.5 21H16.5V19H17.5C17.7652 19 18.0196 18.8946 18.2071 18.7071C18.3946 18.5196 18.5 18.2652 18.5 18V13.9C18.4999 13.479 18.6327 13.0687 18.8794 12.7275C19.1261 12.3864 19.4741 12.1318 19.874 12C19.4741 11.8682 19.1261 11.6136 18.8794 11.2725C18.6327 10.9313 18.4999 10.521 18.5 10.1V6C18.5 5.73478 18.3946 5.48043 18.2071 5.29289C18.0196 5.10536 17.7652 5 17.5 5H16.5V3H17.5C18.2956 3 19.0587 3.31607 19.6213 3.87868C20.1839 4.44129 20.5 5.20435 20.5 6V9.7C20.5 10.0978 20.658 10.4794 20.9393 10.7607C21.2206 11.042 21.6022 11.2 22 11.2H22.5V12.8H22C21.6022 12.8 21.2206 12.958 20.9393 13.2393C20.658 13.5206 20.5 13.9022 20.5 14.3ZM10.5 15.5C10.5 16.3284 9.82843 17 9 17C8.17157 17 7.5 16.3284 7.5 15.5C7.5 14.6716 8.17157 14 9 14C9.82843 14 10.5 14.6716 10.5 15.5ZM12.864 8.208L12.732 6H13.836L13.704 8.208L15.72 7.392L16.068 8.424L13.944 9L15.396 10.644L14.544 11.316L13.284 9.48L12.012 11.316L11.16 10.644L12.612 9L10.5 8.424L10.848 7.392L12.864 8.208Z" fill="#273666"/>
</svg>
