<svg width="368" height="196" viewBox="0 0 368 196" fill="none" xmlns="http://www.w3.org/2000/svg">
<g opacity="0.8">
<path d="M242.134 124.253C248.058 127.684 248.098 133.23 242.209 136.649L192.43 165.573C186.535 169.003 176.946 169.003 171.023 165.573L120.918 136.649C114.989 133.218 114.954 127.672 120.849 124.248L170.628 95.3232C176.517 91.8928 186.1 91.8928 192.03 95.3232L242.134 124.253Z" fill="url(#paint0_linear_3430_522)"/>
<path d="M246.548 130.937C246.548 131.097 246.548 131.257 246.491 131.417C246.434 131.577 246.428 131.674 246.394 131.8C246.36 131.926 246.32 132.103 246.263 132.252C246.205 132.401 246.16 132.498 246.108 132.618C246.057 132.738 245.971 132.932 245.885 133.092C245.799 133.252 245.754 133.315 245.685 133.43C245.616 133.544 245.462 133.784 245.331 133.956C245.199 134.127 245.079 134.287 244.936 134.453L244.833 134.573C244.639 134.785 244.421 134.996 244.198 135.196C243.975 135.397 243.89 135.454 243.735 135.579C243.581 135.705 243.461 135.802 243.312 135.911C243.164 136.02 242.952 136.157 242.74 136.277C242.529 136.397 242.369 136.529 242.169 136.643L192.39 165.567C191.926 165.832 191.449 166.072 190.96 166.288L190.526 166.471C190.145 166.634 189.748 166.785 189.337 166.922L188.902 167.071C188.645 167.151 188.382 167.22 188.124 167.294L187.553 167.454C187.278 167.523 186.981 167.574 186.712 167.631L186.14 167.746C185.569 167.843 184.997 167.923 184.425 167.986L183.888 168.031C183.55 168.031 183.207 168.083 182.864 168.1H182.207H181.377H180.686L179.914 168.06L179.216 168.003L178.461 167.917L177.781 167.82L176.981 167.683L176.357 167.557C176.037 167.488 175.728 167.408 175.414 167.328L174.899 167.191C174.327 167.031 173.801 166.848 173.275 166.619C173.018 166.516 172.761 166.408 172.509 166.293L172.115 166.122C171.732 165.939 171.36 165.75 171.005 165.55L120.918 136.649C118.311 135.139 116.841 133.218 116.515 131.251C116.469 130.972 116.446 130.689 116.447 130.405L116.401 146.854C116.401 149.141 117.887 151.377 120.866 153.098L170.971 182.022C171.326 182.228 171.697 182.422 172.08 182.594L172.475 182.765C172.698 182.868 172.921 182.971 173.155 183.063H173.241C173.767 183.268 174.31 183.446 174.865 183.634L174.996 183.68L175.385 183.777C175.694 183.857 176.008 183.937 176.323 184.006L176.575 184.069L176.952 184.132L177.752 184.269L178.078 184.326L178.433 184.366L179.188 184.452L179.553 184.492H179.891L180.657 184.532H181.046H182.595H182.835C183.179 184.532 183.522 184.492 183.859 184.463H184.271H184.396C184.968 184.4 185.54 184.326 186.112 184.223H186.198L186.689 184.12C186.969 184.063 187.261 184.006 187.518 183.943L188.09 183.783C188.353 183.714 188.61 183.64 188.868 183.56L189.034 183.514L189.302 183.411C189.706 183.274 190.103 183.123 190.492 182.96L190.92 182.777C191.409 182.561 191.886 182.32 192.35 182.056L242.129 153.132L242.312 153.023C242.455 152.938 242.569 152.846 242.706 152.76C242.843 152.675 243.078 152.526 243.244 152.4C243.409 152.274 243.529 152.177 243.667 152.063C243.804 151.948 243.987 151.811 244.13 151.68L244.221 151.605C244.416 151.428 244.593 151.239 244.793 151.034L244.89 150.919C244.988 150.805 245.09 150.691 245.182 150.576C245.273 150.462 245.251 150.473 245.285 150.422C245.416 150.25 245.531 150.073 245.639 149.896C245.685 149.822 245.748 149.747 245.788 149.673C245.828 149.599 245.822 149.593 245.839 149.559C245.925 149.404 245.994 149.244 246.062 149.09C246.131 148.935 246.154 148.907 246.188 148.815C246.223 148.724 246.188 148.752 246.188 148.718C246.24 148.569 246.28 148.415 246.32 148.266C246.36 148.118 246.388 148.066 246.406 147.963C246.423 147.86 246.406 147.906 246.406 147.883C246.434 147.723 246.446 147.563 246.457 147.409C246.468 147.254 246.491 147.203 246.491 147.1C246.491 146.997 246.491 147.014 246.491 146.969L246.606 130.474C246.606 130.645 246.583 130.788 246.548 130.937Z" fill="url(#paint1_linear_3430_522)"/>
<path d="M246.548 138.937C246.548 139.097 246.548 139.257 246.491 139.417C246.434 139.577 246.428 139.674 246.394 139.8C246.36 139.926 246.32 140.103 246.263 140.252C246.205 140.401 246.16 140.498 246.108 140.618C246.057 140.738 245.971 140.932 245.885 141.092C245.799 141.252 245.754 141.315 245.685 141.43C245.616 141.544 245.462 141.784 245.331 141.956C245.199 142.127 245.079 142.287 244.936 142.453L244.833 142.573C244.639 142.785 244.421 142.996 244.198 143.196C243.975 143.397 243.89 143.454 243.735 143.579C243.581 143.705 243.461 143.802 243.312 143.911C243.164 144.02 242.952 144.157 242.74 144.277C242.529 144.397 242.369 144.529 242.169 144.643L192.39 173.567C191.926 173.832 191.449 174.072 190.96 174.288L190.526 174.471C190.145 174.634 189.748 174.785 189.337 174.922L188.902 175.071C188.645 175.151 188.382 175.22 188.124 175.294L187.553 175.454C187.278 175.523 186.981 175.574 186.712 175.631L186.14 175.746C185.569 175.843 184.997 175.923 184.425 175.986L183.888 176.031C183.55 176.031 183.207 176.083 182.864 176.1H182.207H181.377H180.686L179.914 176.06L179.216 176.003L178.461 175.917L177.781 175.82L176.981 175.683L176.357 175.557C176.037 175.488 175.728 175.408 175.414 175.328L174.899 175.191C174.327 175.031 173.801 174.848 173.275 174.619C173.018 174.516 172.761 174.408 172.509 174.293L172.115 174.122C171.732 173.939 171.36 173.75 171.005 173.55L120.918 144.649C118.311 143.139 116.841 141.218 116.515 139.251C116.469 138.972 116.446 138.689 116.447 138.405L116.401 139.854C116.401 142.141 117.887 144.377 120.866 146.098L170.971 175.022C171.326 175.228 171.697 175.422 172.08 175.594L172.475 175.765C172.698 175.868 172.921 175.971 173.155 176.063H173.241C173.767 176.268 174.31 176.446 174.865 176.634L174.996 176.68L175.385 176.777C175.694 176.857 176.008 176.937 176.323 177.006L176.575 177.069L176.952 177.132L177.752 177.269L178.078 177.326L178.433 177.366L179.188 177.452L179.553 177.492H179.891L180.657 177.532H181.046H182.595H182.835C183.179 177.532 183.522 177.492 183.859 177.463H184.271H184.396C184.968 177.4 185.54 177.326 186.112 177.223H186.198L186.689 177.12C186.969 177.063 187.261 177.006 187.518 176.943L188.09 176.783C188.353 176.714 188.61 176.64 188.868 176.56L189.034 176.514L189.302 176.411C189.706 176.274 190.103 176.123 190.492 175.96L190.92 175.777C191.409 175.561 191.886 175.32 192.35 175.056L242.129 146.132L242.312 146.023C242.455 145.938 242.569 145.846 242.706 145.76C242.843 145.675 243.078 145.526 243.244 145.4C243.409 145.274 243.529 145.177 243.667 145.063C243.804 144.948 243.987 144.811 244.13 144.68L244.221 144.605C244.416 144.428 244.593 144.239 244.793 144.034L244.89 143.919C244.988 143.805 245.09 143.691 245.182 143.576C245.273 143.462 245.251 143.473 245.285 143.422C245.416 143.25 245.531 143.073 245.639 142.896C245.685 142.822 245.748 142.747 245.788 142.673C245.828 142.599 245.822 142.593 245.839 142.559C245.925 142.404 245.994 142.244 246.062 142.09C246.131 141.935 246.154 141.907 246.188 141.815C246.223 141.724 246.188 141.752 246.188 141.718C246.24 141.569 246.28 141.415 246.32 141.266C246.36 141.118 246.388 141.066 246.406 140.963C246.423 140.86 246.406 140.906 246.406 140.883C246.434 140.723 246.446 140.563 246.457 140.409C246.468 140.254 246.491 140.203 246.491 140.1C246.491 139.997 246.491 140.014 246.491 139.969L246.606 138.474C246.606 138.645 246.583 138.788 246.548 138.937Z" fill="#7DACFA"/>
<path d="M181.744 163.097C178.616 163.097 175.631 162.411 173.55 161.205L123.445 132.275C121.959 131.417 121.501 130.611 121.501 130.417C121.501 130.222 121.947 129.445 123.388 128.61L173.167 99.6856C175.225 98.4906 178.193 97.8045 181.309 97.8045C184.425 97.8045 187.427 98.4963 189.508 99.697L239.613 128.627C241.1 129.485 241.557 130.291 241.557 130.491C241.557 130.691 241.111 131.463 239.676 132.298L189.897 161.222C187.839 162.411 184.865 163.097 181.744 163.097Z" fill="url(#paint2_linear_3430_522)"/>
<path d="M203.781 123.341C205.939 124.59 205.953 126.61 203.808 127.855L185.68 138.389C183.533 139.638 180.041 139.638 177.884 138.389L159.637 127.855C157.478 126.606 157.466 124.586 159.612 123.339L177.741 112.805C179.885 111.556 183.375 111.556 185.534 112.805L203.781 123.341Z" fill="url(#paint3_linear_3430_522)"/>
<path d="M205.388 125.775C205.388 125.833 205.388 125.892 205.367 125.95C205.346 126.008 205.344 126.044 205.331 126.089C205.319 126.135 205.304 126.2 205.284 126.254C205.263 126.308 205.246 126.343 205.227 126.387C205.209 126.431 205.177 126.502 205.146 126.56C205.115 126.618 205.098 126.641 205.073 126.683C205.048 126.725 204.992 126.812 204.944 126.874C204.896 126.937 204.853 126.995 204.801 127.056L204.763 127.099C204.692 127.176 204.613 127.253 204.532 127.326C204.451 127.399 204.419 127.42 204.363 127.466C204.307 127.512 204.263 127.547 204.209 127.587C204.155 127.626 204.078 127.676 204.001 127.72C203.924 127.763 203.866 127.811 203.793 127.853L185.665 138.387C185.496 138.483 185.322 138.57 185.144 138.649L184.986 138.716C184.847 138.775 184.702 138.83 184.553 138.88L184.394 138.934C184.301 138.963 184.205 138.988 184.111 139.015L183.903 139.074C183.803 139.099 183.695 139.117 183.597 139.138L183.389 139.18C183.18 139.215 182.972 139.244 182.764 139.267L182.568 139.284C182.445 139.284 182.32 139.303 182.195 139.309H181.956H181.654H181.402L181.121 139.294L180.867 139.274L180.592 139.242L180.344 139.207L180.053 139.157L179.826 139.111C179.709 139.086 179.597 139.057 179.482 139.028L179.295 138.978C179.087 138.92 178.895 138.853 178.703 138.77C178.61 138.732 178.516 138.693 178.424 138.651L178.281 138.589C178.141 138.522 178.006 138.453 177.877 138.38L159.636 127.855C158.687 127.305 158.152 126.606 158.033 125.89C158.016 125.788 158.008 125.685 158.008 125.581L157.991 129.878C157.991 130.711 158.533 131.525 159.617 132.152L177.864 142.685C177.993 142.76 178.129 142.831 178.268 142.894L178.412 142.956C178.493 142.994 178.574 143.031 178.66 143.064H178.691C178.883 143.139 179.08 143.204 179.282 143.273L179.33 143.289L179.472 143.325C179.584 143.354 179.699 143.383 179.813 143.408L179.905 143.431L180.042 143.454L180.334 143.504L180.453 143.525L180.582 143.539L180.857 143.57L180.99 143.585H181.113L181.392 143.6H181.533H182.098H182.185C182.31 143.6 182.435 143.585 182.558 143.575H182.708H182.753C182.962 143.552 183.17 143.525 183.378 143.487H183.409L183.588 143.45C183.691 143.429 183.797 143.408 183.89 143.385L184.099 143.327C184.194 143.302 184.288 143.275 184.382 143.246L184.442 143.229L184.54 143.191C184.687 143.141 184.832 143.087 184.973 143.027L185.129 142.96C185.307 142.882 185.481 142.794 185.65 142.698L203.778 132.164L203.845 132.125C203.897 132.094 203.938 132.06 203.988 132.029C204.038 131.998 204.124 131.944 204.184 131.898C204.245 131.852 204.288 131.817 204.338 131.775C204.388 131.733 204.455 131.683 204.507 131.636L204.54 131.609C204.611 131.544 204.676 131.475 204.748 131.4L204.784 131.359C204.819 131.317 204.857 131.275 204.89 131.234C204.923 131.192 204.915 131.196 204.928 131.178C204.975 131.115 205.017 131.05 205.057 130.986C205.073 130.959 205.096 130.932 205.111 130.905C205.125 130.878 205.123 130.876 205.13 130.863C205.161 130.807 205.186 130.749 205.211 130.692C205.236 130.636 205.244 130.626 205.257 130.592C205.269 130.559 205.257 130.57 205.257 130.557C205.275 130.503 205.29 130.447 205.304 130.393C205.319 130.338 205.329 130.32 205.336 130.282C205.342 130.245 205.336 130.261 205.336 130.253C205.346 130.195 205.35 130.136 205.354 130.08C205.359 130.024 205.367 130.005 205.367 129.968C205.367 129.93 205.367 129.937 205.367 129.92L205.409 125.606C205.409 125.669 205.4 125.721 205.388 125.775Z" fill="url(#paint4_linear_3430_522)"/>
<path d="M102.334 90.0649C107.061 92.8023 107.093 97.2278 102.394 99.9561L62.6714 123.037C57.9674 125.774 50.3158 125.774 45.5889 123.037L5.60654 99.9561C0.875085 97.2187 0.847709 92.7932 5.55179 90.0604L45.2741 66.9794C49.9736 64.242 57.6206 64.242 62.352 66.9794L102.334 90.0649Z" fill="url(#paint5_linear_3430_522)"/>
<path d="M105.855 95.3982C105.855 95.526 105.855 95.6537 105.809 95.7814C105.763 95.9092 105.759 95.9868 105.732 96.0871C105.704 96.1875 105.672 96.3289 105.627 96.4475C105.581 96.5662 105.544 96.6437 105.503 96.7395C105.462 96.8353 105.394 96.9905 105.325 97.1182C105.257 97.246 105.221 97.2961 105.166 97.3874C105.111 97.4786 104.988 97.6703 104.883 97.8071C104.778 97.944 104.682 98.0717 104.568 98.2041L104.486 98.2999C104.331 98.4687 104.157 98.6375 103.979 98.7972C103.802 98.9568 103.733 99.0025 103.61 99.1028C103.487 99.2032 103.391 99.2808 103.272 99.3675C103.154 99.4541 102.985 99.5636 102.816 99.6594C102.647 99.7553 102.519 99.8602 102.36 99.9514L62.6374 123.032C62.2673 123.243 61.8865 123.435 61.4968 123.607L61.15 123.753C60.8458 123.884 60.5295 124.004 60.201 124.114L59.8542 124.232C59.6489 124.296 59.439 124.351 59.2337 124.41L58.7774 124.538C58.5584 124.593 58.3212 124.634 58.1067 124.679L57.6505 124.771C57.1942 124.848 56.7379 124.912 56.2817 124.962L55.8528 124.999C55.5836 124.999 55.3098 125.04 55.0361 125.054H54.5114H53.8498H53.2977L52.6818 125.022L52.1251 124.976L51.5229 124.908L50.9799 124.83L50.3411 124.72L49.8438 124.62C49.5883 124.565 49.3419 124.501 49.091 124.438L48.6803 124.328C48.2241 124.2 47.8043 124.054 47.3845 123.872C47.1792 123.79 46.9739 123.703 46.7732 123.612L46.4583 123.475C46.1526 123.329 45.8561 123.178 45.5732 123.019L5.60448 99.956C3.52392 98.7515 2.35132 97.2186 2.09125 95.6491C2.05443 95.426 2.03612 95.2001 2.0365 94.9739L2 97.4968C2 99.3217 3.18629 101.106 5.56342 102.479L45.5458 125.56C45.8287 125.724 46.1253 125.879 46.431 126.016L46.7458 126.153C46.9237 126.235 47.1017 126.317 47.2887 126.39H47.3572C47.7769 126.554 48.2104 126.696 48.653 126.846L48.7579 126.883L49.0682 126.96C49.3145 127.024 49.5655 127.088 49.8164 127.143L50.0172 127.193L50.3183 127.243L50.9571 127.353L51.2172 127.398L51.5 127.43L52.1023 127.499L52.3943 127.531H52.6635L53.2749 127.563H53.5852H54.8216H55.0133C55.287 127.563 55.5608 127.531 55.83 127.508H56.1585H56.2589C56.7151 127.458 57.1714 127.398 57.6277 127.316H57.6961L58.0885 127.234C58.3121 127.189 58.5448 127.143 58.7501 127.093L59.2063 126.965C59.4162 126.91 59.6215 126.851 59.8269 126.787L59.9592 126.751L60.1736 126.668C60.496 126.559 60.8124 126.439 61.1226 126.308L61.4648 126.162C61.8546 125.99 62.2353 125.798 62.6055 125.587L102.328 102.506L102.474 102.42C102.588 102.351 102.679 102.278 102.789 102.21C102.898 102.141 103.085 102.023 103.218 101.922C103.35 101.822 103.446 101.744 103.555 101.653C103.665 101.562 103.811 101.452 103.925 101.347L103.998 101.288C104.153 101.147 104.294 100.996 104.454 100.832L104.532 100.741C104.609 100.649 104.691 100.558 104.764 100.467C104.837 100.376 104.819 100.385 104.846 100.344C104.951 100.207 105.043 100.065 105.129 99.9239C105.166 99.8646 105.216 99.8053 105.248 99.746C105.28 99.6867 105.275 99.6821 105.289 99.6548C105.357 99.5316 105.412 99.4038 105.467 99.2807C105.522 99.1575 105.54 99.1347 105.567 99.0617C105.595 98.9887 105.567 99.0115 105.567 98.9841C105.608 98.8655 105.64 98.7423 105.672 98.6237C105.704 98.505 105.727 98.464 105.741 98.3819C105.754 98.2997 105.741 98.3362 105.741 98.318C105.763 98.1902 105.773 98.0625 105.782 97.9393C105.791 97.8161 105.809 97.7751 105.809 97.693C105.809 97.6108 105.809 97.6245 105.809 97.588L105.9 95.0287C105.9 95.1655 105.882 95.2796 105.855 95.3982Z" fill="url(#paint6_linear_3430_522)"/>
<path d="M362.033 86.4496C366.76 89.187 366.792 93.6125 362.092 96.3408L322.37 119.422C317.666 122.159 310.014 122.159 305.287 119.422L265.305 96.3408C260.573 93.6033 260.546 89.1779 265.25 86.445L304.972 63.3641C309.672 60.6267 317.319 60.6267 322.05 63.3641L362.033 86.4496Z" fill="url(#paint7_linear_3430_522)"/>
<path d="M365.553 91.7829C365.553 91.9106 365.553 92.0384 365.507 92.1661C365.462 92.2939 365.457 92.3714 365.43 92.4718C365.402 92.5722 365.37 92.7136 365.325 92.8322C365.279 92.9509 365.243 93.0284 365.202 93.1242C365.161 93.22 365.092 93.3752 365.024 93.5029C364.955 93.6306 364.919 93.6808 364.864 93.7721C364.809 93.8633 364.686 94.0549 364.581 94.1918C364.476 94.3287 364.38 94.4564 364.266 94.5887L364.184 94.6846C364.029 94.8534 363.856 95.0222 363.678 95.1818C363.5 95.3415 363.431 95.3872 363.308 95.4875C363.185 95.5879 363.089 95.6655 362.971 95.7521C362.852 95.8388 362.683 95.9483 362.514 96.0441C362.345 96.1399 362.218 96.2449 362.058 96.3361L322.336 119.417C321.965 119.628 321.585 119.82 321.195 119.992L320.848 120.138C320.544 120.269 320.228 120.389 319.899 120.498L319.552 120.617C319.347 120.681 319.137 120.736 318.932 120.795L318.476 120.923C318.257 120.977 318.019 121.018 317.805 121.064L317.349 121.155C316.892 121.233 316.436 121.297 315.98 121.347L315.551 121.383C315.282 121.383 315.008 121.425 314.734 121.438H314.21H313.548H312.996L312.38 121.406L311.823 121.361L311.221 121.292L310.678 121.215L310.039 121.105L309.542 121.005C309.287 120.95 309.04 120.886 308.789 120.822L308.379 120.713C307.922 120.585 307.503 120.439 307.083 120.257C306.877 120.174 306.672 120.088 306.471 119.996L306.157 119.86C305.851 119.714 305.554 119.563 305.271 119.403L265.303 96.3407C263.222 95.1362 262.05 93.6033 261.789 92.0338C261.753 91.8106 261.734 91.5848 261.735 91.3586L261.698 93.8815C261.698 95.7064 262.885 97.4903 265.262 98.8636L305.244 121.945C305.527 122.109 305.823 122.264 306.129 122.401L306.444 122.538C306.622 122.62 306.8 122.702 306.987 122.775H307.055C307.475 122.939 307.909 123.081 308.351 123.231L308.456 123.268L308.766 123.345C309.013 123.409 309.264 123.473 309.515 123.528L309.715 123.578L310.017 123.628L310.655 123.738L310.915 123.783L311.198 123.815L311.801 123.884L312.093 123.915H312.362L312.973 123.947H313.283H314.52H314.712C314.985 123.947 315.259 123.915 315.528 123.893H315.857H315.957C316.413 123.842 316.87 123.783 317.326 123.701H317.394L317.787 123.619C318.01 123.573 318.243 123.528 318.448 123.477L318.905 123.35C319.114 123.295 319.32 123.236 319.525 123.172L319.657 123.135L319.872 123.053C320.194 122.944 320.511 122.824 320.821 122.693L321.163 122.547C321.553 122.375 321.934 122.183 322.304 121.972L362.026 98.8909L362.172 98.8042C362.286 98.7358 362.377 98.6628 362.487 98.5944C362.596 98.5259 362.783 98.4073 362.916 98.3069C363.048 98.2066 363.144 98.129 363.253 98.0378C363.363 97.9465 363.509 97.837 363.623 97.7321L363.696 97.6728C363.851 97.5313 363.993 97.3808 364.152 97.2165L364.23 97.1253C364.307 97.034 364.39 96.9428 364.463 96.8516C364.536 96.7603 364.517 96.7694 364.545 96.7284C364.65 96.5915 364.741 96.4501 364.828 96.3086C364.864 96.2493 364.914 96.19 364.946 96.1307C364.978 96.0714 364.974 96.0668 364.987 96.0395C365.056 95.9163 365.11 95.7885 365.165 95.6653C365.22 95.5422 365.238 95.5193 365.266 95.4463C365.293 95.3733 365.266 95.3962 365.266 95.3688C365.307 95.2502 365.339 95.127 365.37 95.0084C365.402 94.8897 365.425 94.8487 365.439 94.7666C365.453 94.6844 365.439 94.7209 365.439 94.7027C365.462 94.5749 365.471 94.4472 365.48 94.324C365.489 94.2008 365.507 94.1598 365.507 94.0776C365.507 93.9955 365.507 94.0092 365.507 93.9727L365.599 91.4133C365.599 91.5502 365.58 91.6643 365.553 91.7829Z" fill="url(#paint8_linear_3430_522)"/>
<path d="M362.033 86.5936C366.76 89.331 366.792 93.7565 362.092 96.4848L322.37 119.566C317.666 122.303 310.014 122.303 305.287 119.566L265.305 96.4848C260.573 93.7474 260.546 89.3219 265.25 86.5891L304.972 63.5081C309.672 60.7707 317.319 60.7707 322.05 63.5081L362.033 86.5936Z" fill="url(#paint9_linear_3430_522)"/>
<path d="M365.553 91.9269C365.553 92.0547 365.553 92.1824 365.507 92.3102C365.462 92.4379 365.457 92.5155 365.43 92.6159C365.402 92.7162 365.37 92.8577 365.325 92.9763C365.279 93.0949 365.243 93.1725 365.202 93.2683C365.161 93.3641 365.092 93.5192 365.024 93.6469C364.955 93.7747 364.919 93.8249 364.864 93.9161C364.809 94.0074 364.686 94.199 364.581 94.3359C364.476 94.4727 364.38 94.6005 364.266 94.7328L364.184 94.8286C364.029 94.9974 363.856 95.1662 363.678 95.3259C363.5 95.4856 363.431 95.5312 363.308 95.6316C363.185 95.7319 363.089 95.8095 362.971 95.8962C362.852 95.9829 362.683 96.0924 362.514 96.1882C362.345 96.284 362.218 96.3889 362.058 96.4802L322.336 119.561C321.965 119.772 321.585 119.964 321.195 120.136L320.848 120.282C320.544 120.413 320.228 120.533 319.899 120.642L319.552 120.761C319.347 120.825 319.137 120.88 318.932 120.939L318.476 121.067C318.257 121.121 318.019 121.163 317.805 121.208L317.349 121.299C316.892 121.377 316.436 121.441 315.98 121.491L315.551 121.527C315.282 121.527 315.008 121.569 314.734 121.582H314.21H313.548H312.996L312.38 121.55L311.823 121.505L311.221 121.436L310.678 121.359L310.039 121.249L309.542 121.149C309.287 121.094 309.04 121.03 308.789 120.966L308.379 120.857C307.922 120.729 307.503 120.583 307.083 120.401C306.877 120.318 306.672 120.232 306.471 120.141L306.157 120.004C305.851 119.858 305.554 119.707 305.271 119.547L265.303 96.4847C263.222 95.2803 262.05 93.7473 261.789 92.1779C261.753 91.9547 261.734 91.7288 261.735 91.5026L261.698 94.0255C261.698 95.8504 262.885 97.6343 265.262 99.0076L305.244 122.089C305.527 122.253 305.823 122.408 306.129 122.545L306.444 122.682C306.622 122.764 306.8 122.846 306.987 122.919H307.055C307.475 123.083 307.909 123.225 308.351 123.375L308.456 123.412L308.766 123.489C309.013 123.553 309.264 123.617 309.515 123.672L309.715 123.722L310.017 123.772L310.655 123.882L310.915 123.927L311.198 123.959L311.801 124.028L312.093 124.059H312.362L312.973 124.091H313.283H314.52H314.712C314.985 124.091 315.259 124.059 315.528 124.037H315.857H315.957C316.413 123.986 316.87 123.927 317.326 123.845H317.394L317.787 123.763C318.01 123.717 318.243 123.672 318.448 123.621L318.905 123.494C319.114 123.439 319.32 123.38 319.525 123.316L319.657 123.279L319.872 123.197C320.194 123.088 320.511 122.968 320.821 122.837L321.163 122.691C321.553 122.519 321.934 122.327 322.304 122.116L362.026 99.035L362.172 98.9483C362.286 98.8798 362.377 98.8068 362.487 98.7384C362.596 98.67 362.783 98.5514 362.916 98.451C363.048 98.3506 363.144 98.2731 363.253 98.1818C363.363 98.0906 363.509 97.9811 363.623 97.8761L363.696 97.8168C363.851 97.6754 363.993 97.5248 364.152 97.3606L364.23 97.2693C364.307 97.1781 364.39 97.0868 364.463 96.9956C364.536 96.9043 364.517 96.9135 364.545 96.8724C364.65 96.7355 364.741 96.5941 364.828 96.4527C364.864 96.3934 364.914 96.3341 364.946 96.2747C364.978 96.2154 364.974 96.2109 364.987 96.1835C365.056 96.0603 365.11 95.9326 365.165 95.8094C365.22 95.6862 365.238 95.6634 365.266 95.5904C365.293 95.5174 365.266 95.5402 365.266 95.5128C365.307 95.3942 365.339 95.271 365.37 95.1524C365.402 95.0338 365.425 94.9927 365.439 94.9106C365.453 94.8285 365.439 94.865 365.439 94.8467C365.462 94.719 365.471 94.5912 365.48 94.4681C365.489 94.3449 365.507 94.3038 365.507 94.2217C365.507 94.1396 365.507 94.1532 365.507 94.1167L365.599 91.5574C365.599 91.6943 365.58 91.8083 365.553 91.9269Z" fill="url(#paint10_linear_3430_522)"/>
<path d="M287.5 92.455V83.4551L315 97.2834V106.955L287.5 92.455Z" fill="#DBE5FF"/>
<path d="M337.5 86.955L315 97.2834V106.955L326.464 101.429L337.5 95.955V86.955Z" fill="#AACAFF"/>
<path d="M307.731 74.0141L287.5 83.4551L315 97.455L337.5 86.955L307.731 74.0141Z" fill="#BAD4FF"/>
<path d="M299.671 81.8793V77.3201L313.602 84.3253V89.2248L299.671 81.8793Z" fill="#DBE5FF"/>
<path d="M325 79.0931L313.602 84.3254V89.2249L319.409 86.4253L325 83.6524V79.0931Z" fill="#AACAFF"/>
<path d="M309.919 72.5374L299.671 77.3201L313.602 84.4123L325 79.0931L309.919 72.5374Z" fill="#BAD4FF"/>
<path d="M207.465 74.0357L226.557 84.7888C227.263 85.1863 227.228 86.2138 226.497 86.5626L183.97 106.86C182.327 107.644 180.417 107.64 178.777 106.848L136.799 86.5827C136.065 86.2282 136.04 85.1913 136.757 84.8029L153.679 75.6333" stroke="url(#paint11_angular_3430_522)"/>
<path d="M124.299 52.8909V49.9078L126.245 50.8157V53.669L124.299 52.8909Z" fill="#C8DCFE"/>
<path d="M128.45 49.9078L126.245 50.8157V53.669L128.45 52.7612V49.9078Z" fill="#78ABF9"/>
<path d="M126.245 49L124.299 49.9079L126.245 50.8158L128.45 49.9079L126.245 49Z" fill="#91BAFB"/>
<path d="M116.299 30.7664V27.1121L118.683 28.2243V31.7197L116.299 30.7664Z" fill="#C8DCFE"/>
<path d="M121.383 27.1121L118.682 28.2243V31.7197L121.383 30.6075V27.1121Z" fill="#78ABF9"/>
<path d="M118.683 26L116.299 27.1122L118.683 28.2243L121.384 27.1122L118.683 26Z" fill="#91BAFB"/>
<g opacity="0.5">
<path d="M134.299 14.8909V11.9079L136.245 12.8158V15.6691L134.299 14.8909Z" fill="#C8DCFE"/>
<path d="M138.45 11.9079L136.245 12.8158V15.6691L138.45 14.7612V11.9079Z" fill="#78ABF9"/>
<path d="M136.245 11L134.299 11.9079L136.245 12.8158L138.45 11.9079L136.245 11Z" fill="#91BAFB"/>
</g>
<path d="M178.299 21.8909V18.9079L180.245 19.8158V22.6691L178.299 21.8909Z" fill="#C8DCFE"/>
<path d="M182.45 18.9079L180.245 19.8158V22.6691L182.45 21.7612V18.9079Z" fill="#78ABF9"/>
<path d="M180.245 18L178.299 18.9079L180.245 19.8158L182.45 18.9079L180.245 18Z" fill="#91BAFB"/>
<path d="M229.299 31.6691V28.0895L231.926 29.1789V32.603L229.299 31.6691Z" fill="#C8DCFE"/>
<path d="M234.902 28.0895L231.926 29.1789V32.603L234.902 31.5135V28.0895Z" fill="#78ABF9"/>
<path d="M231.926 27L229.299 28.0895L231.926 29.1789L234.902 28.0895L231.926 27Z" fill="#91BAFB"/>
<g opacity="0.6">
<path d="M212.299 15.8909V12.9078L214.245 13.8157V16.6691L212.299 15.8909Z" fill="#C8DCFE"/>
<path d="M216.45 12.9078L214.245 13.8157V16.6691L216.45 15.7612V12.9078Z" fill="#78ABF9"/>
<path d="M214.245 12L212.299 12.9079L214.245 13.8158L216.45 12.9079L214.245 12Z" fill="#91BAFB"/>
</g>
<g opacity="0.3">
<path d="M230.299 52.8909V49.9078L232.245 50.8157V53.6691L230.299 52.8909Z" fill="#C8DCFE"/>
<path d="M234.45 49.9078L232.245 50.8157V53.6691L234.45 52.7612V49.9078Z" fill="#78ABF9"/>
<path d="M232.245 49L230.299 49.9079L232.245 50.8158L234.45 49.9079L232.245 49Z" fill="#91BAFB"/>
</g>
<path d="M234.625 72.3463V69.953L236.186 70.6814V72.9706L234.625 72.3463Z" fill="#79A5E5"/>
<path d="M237.955 69.953L236.186 70.6814V72.9706L237.955 72.2422V69.953Z" fill="#A5C5F5"/>
<path d="M236.186 69.2247L234.625 69.9531L236.186 70.6815L237.955 69.9531L236.186 69.2247Z" fill="#B4D2FA"/>
<path d="M107.88 162.437L80.6423 144.279C76.9722 141.832 77.1081 136.395 80.8957 134.134L138.768 99.5977" stroke="url(#paint12_linear_3430_522)"/>
<line x1="118.788" y1="169.464" x2="161.392" y2="195.026" stroke="url(#paint13_linear_3430_522)" stroke-dasharray="1 1"/>
<circle cx="110.543" cy="164.035" r="2.69524" stroke="#B6D1FD"/>
<path d="M261.252 115.574L288.49 133.733C292.16 136.179 292.024 141.617 288.237 143.877L230.365 178.414" stroke="url(#paint14_linear_3430_522)"/>
<line x1="250.344" y1="108.547" x2="207.741" y2="82.9851" stroke="url(#paint15_linear_3430_522)" stroke-dasharray="1 1"/>
<circle cx="258.589" cy="113.976" r="2.69524" transform="rotate(-180 258.589 113.976)" stroke="#B6D1FD"/>
</g>
<circle cx="182.62" cy="75.6024" r="46.8866" fill="url(#paint16_linear_3430_522)"/>
<ellipse cx="182.004" cy="77.1679" rx="66.7045" ry="22.1679" stroke="url(#paint17_angular_3430_522)"/>
<ellipse cx="181.636" cy="95.7812" rx="53.6644" ry="16.7514" stroke="url(#paint18_angular_3430_522)"/>
<g clip-path="url(#clip0_3430_522)">
<circle opacity="0.6" cx="187.299" cy="72" r="5" fill="#6CA4F9"/>
<circle opacity="0.3" cx="187.299" cy="72" r="2" fill="white"/>
<path fill-rule="evenodd" clip-rule="evenodd" d="M189.304 70.2718C191.326 69.4626 197.572 65.9143 197.363 59.8479C197.121 52.8084 190.811 46.218 186.683 46.0115C181.828 45.7688 178.866 49.3959 179.351 53.2797L184.741 61.0616L189.304 70.2718ZM191.389 60.739C192.315 60.215 192.306 57.6667 190.936 55.3691C189.566 53.0714 187.192 52.09 186.426 52.4185C185.699 52.7305 185.509 55.4908 186.88 57.7885C188.25 60.0861 190.511 61.144 191.389 60.739Z" fill="#75A9F9"/>
<path fill-rule="evenodd" clip-rule="evenodd" d="M187.362 71C190.113 70.3527 195.421 67.3588 195.615 62.504C196.1 56.4354 192.216 50.6096 188.575 48.6676C183.796 46.0942 179.351 47.4539 179.351 53.7652C179.351 57.8375 182.315 62.6627 185.015 67.0566C185.855 68.4248 186.67 69.7512 187.362 71ZM190.11 61.3197C191.617 60.4449 191.748 57.8558 190.402 55.5368C189.056 53.2178 186.743 52.047 185.236 52.9218C183.729 53.7966 183.598 56.3857 184.944 58.7048C186.29 61.0238 188.603 62.1945 190.11 61.3197Z" fill="#CFDCFC"/>
</g>
<g clip-path="url(#clip1_3430_522)">
<path d="M185.813 72.6738C178.471 62.101 160.79 39.9862 148.808 36.1095C136.825 32.2328 138.235 50.0597 140.438 59.4578" stroke="url(#paint19_angular_3430_522)"/>
<path d="M190.938 75.2144C202.098 71.3964 226.445 64.9059 234.551 69.4875C242.657 74.069 234.404 81.3819 229.264 84.4656" stroke="url(#paint20_angular_3430_522)"/>
</g>
<g clip-path="url(#clip2_3430_522)">
<path d="M35.4273 78.0741L41.3153 76.3695C41.095 75.8738 40.6708 74.4195 40.7369 72.5687C40.803 70.7179 41.857 68.2616 42.3803 67.4354C41.6642 67.215 39.6297 67.6279 37.1841 69.6769C34.7384 71.726 34.904 76.036 35.4273 78.0741Z" fill="#AACAFF"/>
<path d="M65.2763 65.2979L60.4841 67.694L65.3315 83.0018L70.1511 81.2444L65.2763 65.2979Z" fill="#AACAFF"/>
<path d="M49.0817 59.2663C53.6835 59.5141 59.7679 64.4992 62.0538 66.7851L58.253 70.8337C56.8208 69.4842 53.2955 66.3885 50.6515 64.8021C48.0076 63.2157 36.7356 66.2389 32.4116 66.5418C34.2292 63.5674 38.3405 58.6879 49.0817 59.2663Z" fill="#BAD4FF"/>
<path d="M60.6985 67.5508L65.3308 82.9921L52.3041 78.1046L55.3612 74.3865C55.3612 74.3865 51.2309 68.1804 44.6201 67.5508C35.973 66.7273 34.7879 74.1014 35.5314 78.1046L30.4088 76.7826C30.4089 72.7391 29.8303 62.3234 41.7283 62.3234C49.5519 62.3233 56.8096 67.5508 58.4681 70.2959L60.6985 67.5508Z" fill="#DBE5FF"/>
<path d="M66.1482 88.5163L71.79 86.0932L66.3096 83.5118L60.9084 86.5698L66.1482 88.5163Z" fill="#BAD4FF"/>
<path d="M68.6708 98.2999C71.9914 95.7762 72.1575 89.113 71.8254 86.0968L66.1003 88.5241L58.1934 102.627C60.0197 102.156 65.3502 100.824 68.6708 98.2999Z" fill="#AACAFF"/>
<path d="M47.3361 88.9192L49.6494 85.3459L43.6004 84.8515L38.9517 89.8323C40.8333 92.2675 45.7423 97.5527 50.3247 99.213C54.9071 100.873 61.0336 98.964 63.5241 97.8018L61.0336 88.006C61.089 89.8323 59.9212 93.6012 54.8075 94.0661C49.6938 94.531 47.6959 90.8286 47.3361 88.9192Z" fill="#AACAFF"/>
<path d="M49.6556 85.348L44.308 88.138L31.4043 81.5117L36.868 79.0704L49.6556 85.348Z" fill="#BAD4FF"/>
<path d="M55.0031 103.018C65.2336 103.018 66.6978 93.3636 66.1552 88.5198L60.9181 86.5632C60.9181 90.2076 61.9202 96.7224 55.0031 97.438C48.2606 98.1355 43.4556 93.0205 42.2156 90.8117L44.4814 88.145L31.1716 81.2791L37.333 97.438L39.6579 94.9967C40.5105 97.6318 47.7956 103.018 55.0031 103.018Z" fill="#DBE5FF"/>
</g>
<defs>
<linearGradient id="paint0_linear_3430_522" x1="116.452" y1="168.149" x2="246.606" y2="168.149" gradientUnits="userSpaceOnUse">
<stop stop-color="white"/>
<stop offset="0.33" stop-color="#F9F8FE"/>
<stop offset="0.81" stop-color="#E8EBF9"/>
<stop offset="1" stop-color="#F0F1FC"/>
</linearGradient>
<linearGradient id="paint1_linear_3430_522" x1="246.606" y1="130.432" x2="116.407" y2="130.432" gradientUnits="userSpaceOnUse">
<stop offset="0.12" stop-color="#E4E9F8"/>
<stop offset="0.56" stop-color="#EAECF9"/>
<stop offset="0.71" stop-color="#F1F3FC"/>
<stop offset="0.91" stop-color="#F3F3FC"/>
<stop offset="1" stop-color="#F3F3FC"/>
</linearGradient>
<linearGradient id="paint2_linear_3430_522" x1="241.557" y1="97.803" x2="121.496" y2="97.803" gradientUnits="userSpaceOnUse">
<stop offset="0.12" stop-color="#E8EEFD"/>
<stop offset="1" stop-color="#E4EBFD"/>
</linearGradient>
<linearGradient id="paint3_linear_3430_522" x1="205.408" y1="111.868" x2="158.008" y2="111.868" gradientUnits="userSpaceOnUse">
<stop offset="0.12" stop-color="#CDDAFB"/>
<stop offset="1" stop-color="#E4EBFD"/>
</linearGradient>
<linearGradient id="paint4_linear_3430_522" x1="205.409" y1="125.59" x2="157.993" y2="125.59" gradientUnits="userSpaceOnUse">
<stop offset="0.12" stop-color="#ACCBFC"/>
<stop offset="0.56" stop-color="#C8DCFE"/>
<stop offset="0.71" stop-color="#C8DCFE"/>
<stop offset="0.91" stop-color="#C8DCFE"/>
<stop offset="1" stop-color="#EBF1FF"/>
</linearGradient>
<linearGradient id="paint5_linear_3430_522" x1="105.899" y1="64.9249" x2="2.03583" y2="64.9249" gradientUnits="userSpaceOnUse">
<stop offset="0.12" stop-color="#E8EEFD"/>
<stop offset="1" stop-color="#F4F7FF"/>
</linearGradient>
<linearGradient id="paint6_linear_3430_522" x1="105.9" y1="94.9935" x2="2.00456" y2="94.9935" gradientUnits="userSpaceOnUse">
<stop offset="0.12" stop-color="#ACCBFC"/>
<stop offset="0.56" stop-color="#C8DCFE"/>
<stop offset="0.71" stop-color="#C8DCFE"/>
<stop offset="0.91" stop-color="#C8DCFE"/>
<stop offset="1" stop-color="#EBF1FF"/>
</linearGradient>
<linearGradient id="paint7_linear_3430_522" x1="365.597" y1="61.3096" x2="261.734" y2="61.3096" gradientUnits="userSpaceOnUse">
<stop offset="0.12" stop-color="#E8EEFD"/>
<stop offset="1" stop-color="#F4F7FF"/>
</linearGradient>
<linearGradient id="paint8_linear_3430_522" x1="365.599" y1="91.3782" x2="261.703" y2="91.3782" gradientUnits="userSpaceOnUse">
<stop offset="0.12" stop-color="#ACCBFC"/>
<stop offset="0.56" stop-color="#C8DCFE"/>
<stop offset="0.71" stop-color="#C8DCFE"/>
<stop offset="0.91" stop-color="#C8DCFE"/>
<stop offset="1" stop-color="#EBF1FF"/>
</linearGradient>
<linearGradient id="paint9_linear_3430_522" x1="365.597" y1="61.4536" x2="261.734" y2="61.4536" gradientUnits="userSpaceOnUse">
<stop offset="0.12" stop-color="#E8EEFD"/>
<stop offset="1" stop-color="#F4F7FF"/>
</linearGradient>
<linearGradient id="paint10_linear_3430_522" x1="365.599" y1="91.5223" x2="261.703" y2="91.5223" gradientUnits="userSpaceOnUse">
<stop offset="0.12" stop-color="#ACCBFC"/>
<stop offset="0.56" stop-color="#C8DCFE"/>
<stop offset="0.71" stop-color="#C8DCFE"/>
<stop offset="0.91" stop-color="#C8DCFE"/>
<stop offset="1" stop-color="#EBF1FF"/>
</linearGradient>
<radialGradient id="paint11_angular_3430_522" cx="0" cy="0" r="1" gradientUnits="userSpaceOnUse" gradientTransform="translate(181.903 86.7986) rotate(-0.690277) scale(44.2041 97.9204)">
<stop offset="0.0299247" stop-color="#85B3FA"/>
<stop offset="0.084643" stop-color="#679FF8"/>
<stop offset="0.258909" stop-color="#9DC1FB"/>
<stop offset="0.482972" stop-color="#95BCFB"/>
<stop offset="0.522727" stop-color="#86B3FA" stop-opacity="0"/>
<stop offset="0.981735" stop-color="#6DA4F9" stop-opacity="0"/>
</radialGradient>
<linearGradient id="paint12_linear_3430_522" x1="76.993" y1="134.745" x2="135.572" y2="99.0651" gradientUnits="userSpaceOnUse">
<stop stop-color="#B6D1FD"/>
<stop offset="1" stop-color="#B6D1FD" stop-opacity="0"/>
</linearGradient>
<linearGradient id="paint13_linear_3430_522" x1="139.79" y1="181.148" x2="159.399" y2="195.633" gradientUnits="userSpaceOnUse">
<stop stop-color="#B6D1FD"/>
<stop offset="1" stop-color="#B6D1FD" stop-opacity="0"/>
</linearGradient>
<linearGradient id="paint14_linear_3430_522" x1="292.139" y1="143.266" x2="233.56" y2="178.946" gradientUnits="userSpaceOnUse">
<stop stop-color="#B6D1FD"/>
<stop offset="1" stop-color="#B6D1FD" stop-opacity="0"/>
</linearGradient>
<linearGradient id="paint15_linear_3430_522" x1="229.343" y1="96.8632" x2="209.733" y2="82.378" gradientUnits="userSpaceOnUse">
<stop stop-color="#B6D1FD"/>
<stop offset="1" stop-color="#B6D1FD" stop-opacity="0"/>
</linearGradient>
<linearGradient id="paint16_linear_3430_522" x1="161.299" y1="66.0001" x2="239.156" y2="96.5722" gradientUnits="userSpaceOnUse">
<stop stop-color="#D9E7FF"/>
<stop offset="0.494667" stop-color="#A7C9FF"/>
<stop offset="1" stop-color="#5B99F7"/>
</linearGradient>
<radialGradient id="paint17_angular_3430_522" cx="0" cy="0" r="1" gradientUnits="userSpaceOnUse" gradientTransform="translate(182.385 71.6112) rotate(-0.627604) scale(63.2778 127.448)">
<stop offset="0.0299247" stop-color="#85B3FA"/>
<stop offset="0.084643" stop-color="#679FF8"/>
<stop offset="0.482972" stop-color="#95BCFB"/>
<stop offset="0.522727" stop-color="#86B3FA" stop-opacity="0"/>
<stop offset="0.981735" stop-color="#6DA4F9" stop-opacity="0"/>
</radialGradient>
<radialGradient id="paint18_angular_3430_522" cx="0" cy="0" r="1" gradientUnits="userSpaceOnUse" gradientTransform="translate(181.943 91.5822) rotate(-4.53125) scale(40.8011 77.1887)">
<stop offset="0.0299247" stop-color="#85B3FA"/>
<stop offset="0.0380008" stop-color="#81B0FA"/>
<stop offset="0.084643" stop-color="#679FF8"/>
<stop offset="0.482972" stop-color="#95BCFB"/>
<stop offset="0.522727" stop-color="#86B3FA" stop-opacity="0"/>
<stop offset="0.981735" stop-color="#6DA4F9" stop-opacity="0"/>
</radialGradient>
<radialGradient id="paint19_angular_3430_522" cx="0" cy="0" r="1" gradientUnits="userSpaceOnUse" gradientTransform="translate(148.455 60.5664) rotate(-142.224) scale(25.3032 117.457)">
<stop offset="0.0299247" stop-color="#85B3FA"/>
<stop offset="0.981735" stop-color="#6DA4F9" stop-opacity="0"/>
</radialGradient>
<radialGradient id="paint20_angular_3430_522" cx="0" cy="0" r="1" gradientUnits="userSpaceOnUse" gradientTransform="translate(246.455 72.5664) rotate(143.471) scale(16.8003 18.1776)">
<stop offset="0.0299247" stop-color="#71A9FF"/>
<stop offset="1" stop-color="#6DA4F9" stop-opacity="0"/>
</radialGradient>
<clipPath id="clip0_3430_522">
<rect width="18.0691" height="31" fill="white" transform="translate(179.299 46)"/>
</clipPath>
<clipPath id="clip1_3430_522">
<rect width="98.9999" height="48.8992" fill="white" transform="translate(138.955 35.5664)"/>
</clipPath>
<clipPath id="clip2_3430_522">
<rect width="41.5399" height="43.7989" fill="white" transform="translate(30.4043 59.2192)"/>
</clipPath>
</defs>
</svg>
