<svg width="24" height="24" viewBox="0 0 24 24" fill="none" xmlns="http://www.w3.org/2000/svg">
<path d="M20.0829 15.2L21.2849 15.921C21.359 15.9654 21.4204 16.0283 21.463 16.1034C21.5056 16.1786 21.528 16.2636 21.528 16.35C21.528 16.4364 21.5056 16.5214 21.463 16.5966C21.4204 16.6718 21.359 16.7346 21.2849 16.779L12.5149 22.041C12.3593 22.1345 12.1813 22.1838 11.9999 22.1838C11.8184 22.1838 11.6404 22.1345 11.4849 22.041L2.71485 16.779C2.6407 16.7346 2.57932 16.6718 2.5367 16.5966C2.49408 16.5214 2.47168 16.4364 2.47168 16.35C2.47168 16.2636 2.49408 16.1786 2.5367 16.1034C2.57932 16.0283 2.6407 15.9654 2.71485 15.921L3.91685 15.2L11.9999 20.05L20.0829 15.2ZM20.0829 10.5L21.2849 11.221C21.359 11.2654 21.4204 11.3283 21.463 11.4034C21.5056 11.4786 21.528 11.5636 21.528 11.65C21.528 11.7364 21.5056 11.8214 21.463 11.8966C21.4204 11.9718 21.359 12.0346 21.2849 12.079L11.9999 17.65L2.71485 12.079C2.6407 12.0346 2.57932 11.9718 2.5367 11.8966C2.49408 11.8214 2.47168 11.7364 2.47168 11.65C2.47168 11.5636 2.49408 11.4786 2.5367 11.4034C2.57932 11.3283 2.6407 11.2654 2.71485 11.221L3.91685 10.5L11.9999 15.35L20.0829 10.5ZM12.5139 1.30901L21.2849 6.57101C21.359 6.6154 21.4204 6.67826 21.463 6.75344C21.5056 6.82863 21.528 6.91358 21.528 7.00001C21.528 7.08643 21.5056 7.17139 21.463 7.24657C21.4204 7.32176 21.359 7.38462 21.2849 7.42901L11.9999 13L2.71485 7.42901C2.6407 7.38462 2.57932 7.32176 2.5367 7.24657C2.49408 7.17139 2.47168 7.08643 2.47168 7.00001C2.47168 6.91358 2.49408 6.82863 2.5367 6.75344C2.57932 6.67826 2.6407 6.6154 2.71485 6.57101L11.4849 1.30901C11.6404 1.21557 11.8184 1.1662 11.9999 1.1662C12.1813 1.1662 12.3593 1.21557 12.5149 1.30901H12.5139ZM11.9999 3.33201L5.88685 7.00001L11.9999 10.668L18.1129 7.00001L11.9999 3.33201Z" fill="#273666"/>
</svg>
