<svg width="24" height="24" viewBox="0 0 24 24" fill="none" xmlns="http://www.w3.org/2000/svg">
<path fill-rule="evenodd" clip-rule="evenodd" d="M3 21C3 21.5523 3.44772 22 4 22H20C20.5523 22 21 21.5523 21 21V3C21 2.44772 20.5523 2 20 2H4C3.44772 2 3 2.44772 3 3V21ZM5 10.6395V4H19V10.6395L11.8302 6.5C11.3519 6.22386 10.7403 6.38773 10.4642 6.86603L8.4642 10.3301L10.1963 11.3301L11.6962 8.73205L19 12.9489V20H5V12.9489L11.6603 16.7942C12.1385 17.0703 12.7501 16.9065 13.0263 16.4282L15.0263 12.9641L13.2942 11.9641L11.7942 14.5621L5 10.6395Z" fill="#273666"/>
</svg>
