<svg width="16" height="16" viewBox="0 0 16 16" fill="none" xmlns="http://www.w3.org/2000/svg">
<path d="M10.2469 11.5C10.5679 11.5 10.8189 11.4438 11 11.3315V10.4759C10.8765 10.5191 10.7695 10.5407 10.679 10.5407C10.5144 10.5407 10.4156 10.4802 10.3827 10.3593C10.358 10.2383 10.3457 10.0482 10.3457 9.78889V6.34074C10.3457 5.95186 10.2757 5.63642 10.1358 5.39445C9.99589 5.15247 9.8107 4.96667 9.58025 4.83704C9.34979 4.69877 9.09053 4.60803 8.80247 4.56482C8.52263 4.52161 8.23868 4.5 7.95062 4.5C7.58848 4.5 7.24691 4.53889 6.92593 4.61667C6.61317 4.69445 6.33333 4.82408 6.08642 5.00556C5.83951 5.1784 5.64198 5.40741 5.49383 5.6926C5.34568 5.97778 5.26337 6.32778 5.24691 6.7426H6.2963C6.32099 6.25 6.48148 5.91729 6.77778 5.74445C7.07407 5.56297 7.44444 5.47222 7.88889 5.47222C8.0535 5.47222 8.21811 5.48519 8.38272 5.51111C8.55556 5.53704 8.70782 5.58889 8.83951 5.66667C8.97942 5.74445 9.09053 5.85679 9.17284 6.00371C9.26337 6.15062 9.30864 6.34506 9.30864 6.58704C9.30864 6.79445 9.25103 6.95432 9.1358 7.06667C9.02058 7.17037 8.8642 7.25247 8.66667 7.31297C8.46914 7.36482 8.23868 7.40803 7.97531 7.4426C7.72016 7.46852 7.44856 7.51173 7.16049 7.57223C6.88889 7.62408 6.6214 7.68889 6.35803 7.76667C6.10288 7.84445 5.87243 7.96111 5.66667 8.11667C5.46914 8.26358 5.30864 8.45803 5.18519 8.7C5.06173 8.94198 5 9.25309 5 9.63334C5 9.97037 5.0535 10.2599 5.16049 10.5019C5.27572 10.7352 5.42798 10.9253 5.61728 11.0722C5.80658 11.2191 6.02881 11.3272 6.28395 11.3963C6.54732 11.4654 6.82305 11.5 7.11111 11.5C7.55556 11.5 7.96708 11.4222 8.34568 11.2667C8.73251 11.1025 9.06996 10.8389 9.35802 10.4759C9.35802 10.8389 9.43621 11.1025 9.59259 11.2667C9.7572 11.4222 9.97531 11.5 10.2469 11.5ZM8.77778 8.12963C8.99177 8.07778 9.16461 8 9.2963 7.8963V9.02408C9.2963 9.17963 9.25926 9.34815 9.18519 9.52963C9.11111 9.70247 8.99588 9.86667 8.83951 10.0222C8.68313 10.1691 8.48148 10.2944 8.23457 10.3982C7.98765 10.4932 7.69136 10.5407 7.34568 10.5407C7.18107 10.5407 7.02469 10.5235 6.87654 10.4889C6.7284 10.4543 6.59671 10.3982 6.48148 10.3204C6.37449 10.2426 6.28395 10.1432 6.20988 10.0222C6.14403 9.8926 6.11111 9.73704 6.11111 9.55556C6.11111 9.27902 6.16872 9.06297 6.28395 8.90741C6.40741 8.74321 6.56379 8.6179 6.75309 8.53148C6.94239 8.44507 7.15638 8.38457 7.39506 8.35C7.63374 8.30679 7.86831 8.27223 8.09876 8.2463C8.33745 8.21173 8.56379 8.17284 8.77778 8.12963Z" fill="#273666"/>
<path d="M3.5 2C2.67157 2 2 2.67157 2 3.5V12.5C2 13.3284 2.67157 14 3.5 14H12.5C13.3284 14 14 13.3284 14 12.5V3.5C14 2.67157 13.3284 2 12.5 2L3.5 2ZM3 3.5C3 3.22386 3.22386 3 3.5 3L12.5 3C12.7761 3 13 3.22386 13 3.5V12.5C13 12.7761 12.7761 13 12.5 13H3.5C3.22386 13 3 12.7761 3 12.5V3.5Z" fill="#273666"/>
</svg>
