<svg width="24" height="24" viewBox="0 0 24 24" fill="none" xmlns="http://www.w3.org/2000/svg">
<path d="M20 20H4V15H5.83261L7.29416 15.9865C7.78994 16.3212 8.37443 16.5 8.97258 16.5H15.0274C15.6256 16.5 16.2101 16.3212 16.7058 15.9865L18.1674 15H20V20ZM3 13C2.44772 13 2 13.4477 2 14V21C2 21.5523 2.44772 22 3 22H21C21.5523 22 22 21.5523 22 21V14C22 13.4477 21.5523 13 21 13H17.8615C17.6621 13 17.4673 13.0596 17.302 13.1712L15.5869 14.3288C15.4216 14.4404 15.2268 14.5 15.0274 14.5H8.97258C8.7732 14.5 8.57837 14.4404 8.41311 14.3288L6.698 13.1712C6.53274 13.0596 6.33791 13 6.13853 13H3Z" fill="#273666"/>
<path d="M20 3C20 2.44772 19.5523 2 19 2H5C4.44772 2 4 2.44772 4 3V12H6V4H18V12H20V3Z" fill="#273666"/>
<path d="M8 6H16V8H8V6Z" fill="#273666"/>
<path d="M16 10H8V12H16V10Z" fill="#273666"/>
</svg>
