<svg width="24" height="24" viewBox="0 0 24 24" fill="none" xmlns="http://www.w3.org/2000/svg">
<path d="M15.0013 6H17.0013C18.1059 6 19.0013 6.89543 19.0013 8V16.17C20.3794 16.6571 21.2062 18.0662 20.9591 19.5068C20.712 20.9474 19.4629 22.0005 18.0013 22.0005C16.5396 22.0005 15.2906 20.9474 15.0435 19.5068C14.7964 18.0662 15.6232 16.6571 17.0013 16.17V8H15.0013V11L10.5013 7L15.0013 3V6ZM5.00128 9.83C3.62315 9.34294 2.79639 7.93384 3.04347 6.49321C3.29056 5.05258 4.53962 3.99951 6.00128 3.99951C7.46294 3.99951 8.71201 5.05258 8.95909 6.49321C9.20618 7.93384 8.37941 9.34294 7.00128 9.83V16.17C8.37941 16.6571 9.20618 18.0662 8.95909 19.5068C8.71201 20.9474 7.46294 22.0005 6.00128 22.0005C4.53962 22.0005 3.29056 20.9474 3.04347 19.5068C2.79639 18.0662 3.62315 16.6571 5.00128 16.17V9.83ZM6.00128 8C6.55357 8 7.00128 7.55228 7.00128 7C7.00128 6.44772 6.55357 6 6.00128 6C5.449 6 5.00128 6.44772 5.00128 7C5.00128 7.55228 5.449 8 6.00128 8ZM6.00128 20C6.55357 20 7.00128 19.5523 7.00128 19C7.00128 18.4477 6.55357 18 6.00128 18C5.449 18 5.00128 18.4477 5.00128 19C5.00128 19.5523 5.449 20 6.00128 20ZM18.0013 20C18.5536 20 19.0013 19.5523 19.0013 19C19.0013 18.4477 18.5536 18 18.0013 18C17.449 18 17.0013 18.4477 17.0013 19C17.0013 19.5523 17.449 20 18.0013 20Z" fill="#273666"/>
</svg>
