<svg width="24" height="24" viewBox="0 0 24 24" fill="none" xmlns="http://www.w3.org/2000/svg">
<path d="M13 19.9C14.1292 19.6691 15.144 19.0554 15.8729 18.1625C16.6017 17.2697 16.9999 16.1526 17 15V12C17.0013 11.3118 16.86 10.6308 16.585 10H7.415C7.13996 10.6308 6.99866 11.3118 7 12V15C7.00014 16.1526 7.3983 17.2697 8.12714 18.1625C8.85599 19.0554 9.87081 19.6691 11 19.9V14H13V19.9ZM5.536 17.69C5.18115 16.8376 4.99897 15.9233 5 15H2V13H5V12C5 11.357 5.087 10.735 5.249 10.144L3.036 8.866L4.036 7.134L6.056 8.3C6.12 8.198 6.186 8.098 6.255 8H17.745C17.814 8.098 17.88 8.199 17.944 8.3L19.964 7.134L20.964 8.866L18.751 10.144C18.913 10.734 19 11.357 19 12V13H22V15H19C19.0015 15.9233 18.8193 16.8378 18.464 17.69L20.964 19.134L19.964 20.866L17.438 19.408C16.7824 20.2184 15.9538 20.8719 15.0128 21.3204C14.0718 21.7689 13.0424 22.0011 12 22C10.9576 22.001 9.92821 21.7688 8.98725 21.3203C8.04629 20.8718 7.21763 20.2184 6.562 19.408L4.036 20.866L3.036 19.134L5.536 17.691V17.69ZM8 6C8 4.93913 8.42143 3.92172 9.17157 3.17157C9.92172 2.42143 10.9391 2 12 2C13.0609 2 14.0783 2.42143 14.8284 3.17157C15.5786 3.92172 16 4.93913 16 6H8Z" fill="#273666"/>
</svg>
