<svg width="24" height="24" viewBox="0 0 24 24" fill="none" xmlns="http://www.w3.org/2000/svg">
<path d="M12.0002 3C17.3922 3 21.8782 6.88 22.8192 12C21.8792 17.12 17.3922 21 12.0002 21C6.60815 21 2.12215 17.12 1.18115 12C2.12115 6.88 6.60815 3 12.0002 3ZM12.0002 19C14.0396 18.9996 16.0185 18.3068 17.613 17.0352C19.2075 15.7635 20.3231 13.9883 20.7772 12C20.3214 10.0133 19.2051 8.24 17.6108 6.97003C16.0165 5.70005 14.0385 5.00853 12.0002 5.00853C9.96185 5.00853 7.98384 5.70005 6.38953 6.97003C4.79521 8.24 3.67892 10.0133 3.22315 12C3.67725 13.9883 4.79283 15.7635 6.3873 17.0352C7.98177 18.3068 9.96068 18.9996 12.0002 19ZM12.0002 16.5C10.8067 16.5 9.66209 16.0259 8.81817 15.182C7.97426 14.3381 7.50015 13.1935 7.50015 12C7.50015 10.8065 7.97426 9.66193 8.81817 8.81802C9.66209 7.97411 10.8067 7.5 12.0002 7.5C13.1936 7.5 14.3382 7.97411 15.1821 8.81802C16.026 9.66193 16.5002 10.8065 16.5002 12C16.5002 13.1935 16.026 14.3381 15.1821 15.182C14.3382 16.0259 13.1936 16.5 12.0002 16.5ZM12.0002 14.5C12.6632 14.5 13.2991 14.2366 13.7679 13.7678C14.2368 13.2989 14.5002 12.663 14.5002 12C14.5002 11.337 14.2368 10.7011 13.7679 10.2322C13.2991 9.76339 12.6632 9.5 12.0002 9.5C11.3371 9.5 10.7012 9.76339 10.2324 10.2322C9.76355 10.7011 9.50015 11.337 9.50015 12C9.50015 12.663 9.76355 13.2989 10.2324 13.7678C10.7012 14.2366 11.3371 14.5 12.0002 14.5Z" fill="#273666"/>
</svg>
