<svg width="24" height="24" viewBox="0 0 24 24" fill="none" xmlns="http://www.w3.org/2000/svg">
<path d="M10.0199 2.51922C10.009 2.23575 10.2358 2 10.5195 2H13.4803C13.764 2 13.9908 2.23575 13.9799 2.51922L13.5184 14.5192C13.5081 14.7877 13.2874 15 13.0188 15H10.9811C10.7124 15 10.4917 14.7877 10.4814 14.5192L10.0199 2.51922Z" fill="#273666"/>
<path d="M10 18.5C10 18.2239 10.2239 18 10.5 18H13.5C13.7761 18 14 18.2239 14 18.5V21.5C14 21.7761 13.7761 22 13.5 22H10.5C10.2239 22 10 21.7761 10 21.5V18.5Z" fill="#273666"/>
</svg>
