<svg width="24" height="24" viewBox="0 0 24 24" fill="none" xmlns="http://www.w3.org/2000/svg">
<path d="M9 9C7.89543 9 7 8.10457 7 7C7 5.89543 7.89543 5 9 5C10.1046 5 11 5.89543 11 7C11 8.10457 10.1046 9 9 9ZM9 11C11.2091 11 13 9.20914 13 7C13 4.79086 11.2091 3 9 3C6.79086 3 5 4.79086 5 7C5 9.20914 6.79086 11 9 11ZM5 15H13V19H5V15ZM5 13C3.89543 13 3 13.8954 3 15V20C3 20.5523 3.44772 21 4 21H14C14.5523 21 15 20.5523 15 20V15C15 13.8954 14.1046 13 13 13H5ZM21 4V8H19V4H21ZM19 10V14H21V10H19ZM21 16V20H19V16H21Z" fill="#273666"/>
</svg>
