<svg width="24" height="24" viewBox="0 0 24 24" fill="none" xmlns="http://www.w3.org/2000/svg">
<path d="M16 14.5C16 13.4 16.9 12.5 18 12.5C19.1 12.5 20 13.4 20 14.5C20 15.6 19.1 16.5 18 16.5C16.9 16.5 16 15.6 16 14.5ZM20.78 18.08C19.93 17.71 18.99 17.5 18 17.5C17.33 17.5 16.69 17.6 16.08 17.78C16.66 18.33 17 19.1 17 19.93V20.5H22V19.93C22 19.12 21.52 18.4 20.78 18.08ZM6 16.5C7.1 16.5 8 15.6 8 14.5C8 13.4 7.1 12.5 6 12.5C4.9 12.5 4 13.4 4 14.5C4 15.6 4.9 16.5 6 16.5ZM7.92 17.78C7.31 17.6 6.67 17.5 6 17.5C5.01 17.5 4.07 17.71 3.22 18.08C2.48 18.4 2 19.12 2 19.93V20.5H7V19.93C7 19.1 7.34 18.33 7.92 17.78ZM10 14.5C10 13.4 10.9 12.5 12 12.5C13.1 12.5 14 13.4 14 14.5C14 15.6 13.1 16.5 12 16.5C10.9 16.5 10 15.6 10 14.5ZM16 20.5H8V19.93C8 19.12 8.48 18.4 9.22 18.08C10.07 17.71 11.01 17.5 12 17.5C12.99 17.5 13.93 17.71 14.78 18.08C15.52 18.4 16 19.12 16 19.93V20.5ZM15 5C15 3.9 15.9 3 17 3C18.1 3 19 3.9 19 5C19 6.1 18.1 7 17 7C15.9 7 15 6.1 15 5ZM21 11H13V10.43C13 9.62 13.48 8.9 14.22 8.58C15.07 8.21 16.01 8 17 8C17.99 8 18.93 8.21 19.78 8.58C20.52 8.9 21 9.62 21 10.43V11ZM5 5C5 3.9 5.9 3 7 3C8.1 3 9 3.9 9 5C9 6.1 8.1 7 7 7C5.9 7 5 6.1 5 5ZM11 11H3V10.43C3 9.62 3.48 8.9 4.22 8.58C5.07 8.21 6.01 8 7 8C7.99 8 8.93 8.21 9.78 8.58C10.52 8.9 11 9.62 11 10.43V11Z" fill="#273666"/>
</svg>
