<svg width="24" height="24" viewBox="0 0 24 24" fill="none" xmlns="http://www.w3.org/2000/svg">
<path fill-rule="evenodd" clip-rule="evenodd" d="M20.4142 3.58579C20.7893 3.96086 21 4.46957 21 5V19C21 19.5304 20.7893 20.0391 20.4142 20.4142C20.0391 20.7893 19.5304 21 19 21H5C4.46957 21 3.96086 20.7893 3.58579 20.4142C3.21071 20.0391 3 19.5304 3 19V5C3 4.46957 3.21071 3.96086 3.58579 3.58579C3.96086 3.21071 4.46957 3 5 3H19C19.5304 3 20.0391 3.21071 20.4142 3.58579ZM19 5H5V19H19V5ZM10.1749 9.93701L5.3999 13.519L6.5999 15.119L9.8249 12.7L11.8249 15.2L16.0719 12.015L17.3659 13.733L17.9949 9.25801L13.5199 8.63L14.8679 10.417L12.1749 12.437L10.1749 9.93701Z" fill="#273666"/>
</svg>
