<svg width="24" height="24" viewBox="0 0 24 24" fill="none" xmlns="http://www.w3.org/2000/svg">
<path fill-rule="evenodd" clip-rule="evenodd" d="M20.543 20.9571L3.04295 3.45712L1.79297 4.70711L3.00003 5.91417V19.005C3.00003 20.1068 3.89322 21 4.99503 21H18.0859L19.293 22.2071L20.543 20.9571ZM5.00005 19V7.91419L11.1503 14.0644C9.14387 14.3386 7.33589 15.4742 6.22103 17.202C6.77039 17.586 7.35701 17.9136 7.97203 18.18C8.87203 16.864 10.387 16 12.102 16C12.4784 15.9997 12.8494 16.0417 13.209 16.1232L16.0859 19H5.00005Z" fill="#273666"/>
<path fill-rule="evenodd" clip-rule="evenodd" d="M5.41426 3H19.005C20.107 3 21 3.893 21 4.995V18.5858L19.0001 16.5858V5H7.41427L5.41426 3Z" fill="#273666"/>
<path fill-rule="evenodd" clip-rule="evenodd" d="M9.48257 7.06831L10.8973 8.48309C11.1714 8.18605 11.564 8.00001 12 8.00001C12.8285 8.00001 13.5 8.67158 13.5 9.50001C13.5 9.93604 13.314 10.3286 13.0169 10.6027L14.4316 12.0174C15.0904 11.3809 15.5 10.4883 15.5 9.5C15.5 7.567 13.933 6 12 6C11.0389 6 10.1338 6.39415 9.48257 7.06831Z" fill="#273666"/>
</svg>
