<svg width="24" height="24" viewBox="0 0 24 24" fill="none" xmlns="http://www.w3.org/2000/svg">
<g clip-path="url(#clip0_3342_408)">
<path d="M24 0.237427L18.0983 6.61391C18.0792 6.63604 18.065 6.66204 18.0568 6.69013C18.0486 6.71823 18.0466 6.74776 18.0509 6.77672C18.0921 6.96406 18.0851 7.15881 18.0306 7.34272C17.976 7.52662 17.8756 7.69366 17.7388 7.82816C17.6319 7.93873 17.5038 8.02667 17.3622 8.08672C17.2207 8.14678 17.0684 8.17772 16.9146 8.17772C16.7608 8.17772 16.6086 8.14678 16.467 8.08672C16.3254 8.02667 16.1973 7.93873 16.0904 7.82816L11.3962 12.5156L11.8575 18.7225L17.1351 24L24 0.237427Z" fill="#3388FF"/>
<path d="M23.9254 0.400269L18.0916 6.70213C18.0717 6.72509 18.0577 6.75247 18.0506 6.78198C18.0435 6.81148 18.0436 6.84226 18.0509 6.87172C18.0873 7.05705 18.0779 7.24847 18.0235 7.42934C17.9691 7.61021 17.8714 7.77507 17.7388 7.90959C17.6327 8.01789 17.5061 8.10393 17.3663 8.16266C17.2265 8.2214 17.0764 8.25165 16.9248 8.25165C16.7732 8.25165 16.6231 8.2214 16.4833 8.16266C16.3436 8.10393 16.2169 8.01789 16.1108 7.90959L11.4912 12.5292C11.4853 12.5407 11.4822 12.5535 11.4822 12.5665C11.4822 12.5794 11.4853 12.5922 11.4912 12.6038L11.9457 18.7089L23.6812 0.936164L23.9254 0.400269Z" fill="#005DE0"/>
<path d="M23.7422 0L17.3657 5.89486C17.3452 5.91636 17.3193 5.93207 17.2907 5.94041C17.2621 5.94874 17.2319 5.94941 17.2029 5.94234C17.015 5.90444 16.8206 5.91373 16.6371 5.96937C16.4536 6.02501 16.2868 6.12526 16.1515 6.26116C16.0411 6.36748 15.9533 6.49497 15.8933 6.636C15.8334 6.77703 15.8025 6.92871 15.8025 7.08197C15.8025 7.23522 15.8334 7.3869 15.8933 7.52793C15.9533 7.66897 16.0411 7.79645 16.1515 7.90277L11.4505 12.6037L5.27756 12.1425L0 6.86489L23.7422 0Z" fill="#46EBD5"/>
<path d="M23.5998 0.0678711L17.298 5.90846C17.275 5.9283 17.2476 5.94234 17.2181 5.94942C17.1886 5.95651 17.1578 5.95641 17.1284 5.94916C16.8855 5.89709 16.6323 5.92579 16.4072 6.03089C16.1822 6.13598 15.9976 6.31173 15.8817 6.53138C15.7657 6.75102 15.7247 7.00254 15.7648 7.24766C15.805 7.49277 15.9241 7.71806 16.1041 7.88924L11.4913 12.5088C11.4798 12.5147 11.467 12.5178 11.454 12.5178C11.441 12.5178 11.4282 12.5147 11.4167 12.5088L5.31152 12.0543L23.0639 0.31886L23.5998 0.0678711Z" fill="#00D0B6"/>
</g>
<defs>
<clipPath id="clip0_3342_408">
<rect width="24" height="24" fill="white"/>
</clipPath>
</defs>
</svg>
