<svg width="24" height="24" viewBox="0 0 24 24" fill="none" xmlns="http://www.w3.org/2000/svg">
<path d="M12 0.375C5.55005 0.375 0.300049 5.625 0.300049 12.075C0.300049 18.525 5.55005 23.775 12 23.775C18.4501 23.775 23.7001 18.525 23.7001 12.075C23.7001 5.625 18.4501 0.375 12 0.375ZM17.475 10.5C17.475 10.575 17.4001 10.725 17.3251 10.95C16.8001 12 15.5251 14.1 15.5251 14.1L15.1501 14.775H16.9501L13.5001 19.275L14.2501 16.125H12.8251L13.35 14.025C12.975 14.1 12.45 14.25 11.925 14.4C11.925 14.4 11.175 14.85 9.75005 13.575C9.75005 13.575 8.77505 12.75 9.37505 12.525C9.60005 12.45 10.5 12.3 11.25 12.225C12.225 12.075 12.8251 12 12.8251 12C12.8251 12 9.82505 12.075 9.15005 11.925C8.47505 11.85 7.57505 10.65 7.35005 9.6C7.35005 9.6 7.05005 9 8.02505 9.3C9.00005 9.6 12.8251 10.35 12.8251 10.35C12.8251 10.35 7.80005 8.775 7.42505 8.4C7.12505 8.025 6.45005 6.375 6.52505 5.325C6.52505 5.325 6.52505 5.1 6.82505 5.175C6.82505 5.175 10.575 6.9 13.05 7.8C15.5251 8.85 17.7001 9.3 17.475 10.5Z" fill="#3AA2EB"/>
</svg>
