<svg width="24" height="24" viewBox="0 0 24 24" fill="none" xmlns="http://www.w3.org/2000/svg">
<path d="M2 12C2 6.48 6.47 2 11.99 2C17.52 2 22 6.48 22 12C22 17.52 17.52 22 11.99 22C6.47 22 2 17.52 2 12ZM15.97 8H18.92C17.96 6.35 16.43 5.07 14.59 4.44C15.19 5.55 15.65 6.75 15.97 8ZM12 4.04C11.17 5.24 10.52 6.57 10.09 8H13.91C13.48 6.57 12.83 5.24 12 4.04ZM4 12C4 12.69 4.1 13.36 4.26 14H7.64C7.56 13.34 7.5 12.68 7.5 12C7.5 11.32 7.56 10.66 7.64 10H4.26C4.1 10.64 4 11.31 4 12ZM5.08002 16C6.04002 17.66 7.57002 18.93 9.41002 19.56C8.81002 18.45 8.35002 17.25 8.03002 16H5.08002ZM5.08002 8H8.03002C8.35002 6.75 8.81002 5.55 9.41002 4.44C7.57002 5.07 6.04002 6.34 5.08002 8ZM12 19.96C12.83 18.76 13.48 17.43 13.91 16H10.09C10.52 17.43 11.17 18.76 12 19.96ZM9.66 14H14.34C14.43 13.34 14.5 12.68 14.5 12C14.5 11.32 14.43 10.65 14.34 10H9.66C9.57 10.65 9.5 11.32 9.5 12C9.5 12.68 9.57 13.34 9.66 14ZM14.59 19.56C16.43 18.93 17.96 17.65 18.92 16H15.97C15.65 17.25 15.19 18.45 14.59 19.56ZM16.5 12C16.5 12.68 16.44 13.34 16.36 14H19.74C19.9 13.36 20 12.69 20 12C20 11.31 19.9 10.64 19.74 10H16.36C16.44 10.66 16.5 11.32 16.5 12Z" fill="#273666"/>
</svg>
