<svg width="24" height="24" viewBox="0 0 24 24" fill="none" xmlns="http://www.w3.org/2000/svg">
<path d="M4 3C3.44772 3 3 3.44772 3 4V6C3 6.55228 3.44772 7 4 7H6C6.55228 7 7 6.55228 7 6V4C7 3.44772 6.55228 3 6 3H4Z" fill="#273666"/>
<path d="M4 10C3.44772 10 3 10.4477 3 11V13C3 13.5523 3.44772 14 4 14H6C6.55228 14 7 13.5523 7 13V11C7 10.4477 6.55228 10 6 10H4Z" fill="#273666"/>
<path d="M3 18C3 17.4477 3.44772 17 4 17H6C6.55228 17 7 17.4477 7 18V20C7 20.5523 6.55228 21 6 21H4C3.44772 21 3 20.5523 3 20V18Z" fill="#273666"/>
<path d="M11 3C10.4477 3 10 3.44772 10 4V6C10 6.55228 10.4477 7 11 7H13C13.5523 7 14 6.55228 14 6V4C14 3.44772 13.5523 3 13 3H11Z" fill="#273666"/>
<path d="M10 11C10 10.4477 10.4477 10 11 10H13C13.5523 10 14 10.4477 14 11V13C14 13.5523 13.5523 14 13 14H11C10.4477 14 10 13.5523 10 13V11Z" fill="#273666"/>
<path d="M18 3C17.4477 3 17 3.44772 17 4V6C17 6.55228 17.4477 7 18 7H20C20.5523 7 21 6.55228 21 6V4C21 3.44772 20.5523 3 20 3H18Z" fill="#273666"/>
</svg>
