<svg width="16" height="16" viewBox="0 0 16 16" fill="none" xmlns="http://www.w3.org/2000/svg">
<path d="M8.00002 11.5H9.00002V4.49996H8.85842L6.50002 5.17965V5.99996H8.00002V11.5Z" fill="#273666"/>
<path d="M1.35365 7.01038C0.76786 7.59617 0.76786 8.54591 1.35365 9.1317L7.0105 14.7886C7.59629 15.3743 8.54603 15.3743 9.13182 14.7886L14.7887 9.1317C15.3745 8.54591 15.3745 7.59616 14.7887 7.01038L9.13182 1.35352C8.54603 0.767738 7.59629 0.767738 7.0105 1.35352L1.35365 7.01038ZM2.06075 8.42459C1.86549 8.22933 1.86549 7.91275 2.06075 7.71749L7.71761 2.06063C7.91287 1.86537 8.22945 1.86537 8.42471 2.06063L14.0816 7.71749C14.2768 7.91275 14.2768 8.22933 14.0816 8.42459L8.42471 14.0814C8.22945 14.2767 7.91287 14.2767 7.71761 14.0814L2.06075 8.42459Z" fill="#273666"/>
</svg>
