<svg width="24" height="24" viewBox="0 0 24 24" fill="none" xmlns="http://www.w3.org/2000/svg">
<path d="M5 11H19V13H5V11ZM12 8C11.6022 8 11.2206 7.84196 10.9393 7.56066C10.658 7.27936 10.5 6.89782 10.5 6.5C10.5 6.10218 10.658 5.72064 10.9393 5.43934C11.2206 5.15804 11.6022 5 12 5C12.3978 5 12.7794 5.15804 13.0607 5.43934C13.342 5.72064 13.5 6.10218 13.5 6.5C13.5 6.89782 13.342 7.27936 13.0607 7.56066C12.7794 7.84196 12.3978 8 12 8ZM12 19C11.6022 19 11.2206 18.842 10.9393 18.5607C10.658 18.2794 10.5 17.8978 10.5 17.5C10.5 17.1022 10.658 16.7206 10.9393 16.4393C11.2206 16.158 11.6022 16 12 16C12.3978 16 12.7794 16.158 13.0607 16.4393C13.342 16.7206 13.5 17.1022 13.5 17.5C13.5 17.8978 13.342 18.2794 13.0607 18.5607C12.7794 18.842 12.3978 19 12 19Z" fill="#273666"/>
</svg>
