<svg width="16" height="16" viewBox="0 0 16 16" fill="none" xmlns="http://www.w3.org/2000/svg">
<path fill-rule="evenodd" clip-rule="evenodd" d="M9 2C9 1.44772 9.44772 1 10 1H14C14.5523 1 15 1.44772 15 2V6C15 6.55228 14.5523 7 14 7H10C9.44772 7 9 6.55228 9 6V2ZM10 2.5C10 2.22386 10.2239 2 10.5 2H13.5C13.7761 2 14 2.22386 14 2.5V5.5C14 5.77614 13.7761 6 13.5 6H10.5C10.2239 6 10 5.77614 10 5.5V2.5Z" fill="#273666"/>
<path d="M8 3H4C3.44772 3 3 3.44772 3 4V8H4V4.5C4 4.22386 4.22386 4 4.5 4H8V3Z" fill="#273666"/>
<path d="M12 8V11.5C12 11.7761 11.7761 12 11.5 12H8V13H12C12.5523 13 13 12.5523 13 12V8H12Z" fill="#273666"/>
<path fill-rule="evenodd" clip-rule="evenodd" d="M2 9C1.44772 9 1 9.44772 1 10V14C1 14.5523 1.44772 15 2 15H6C6.55228 15 7 14.5523 7 14V10C7 9.44772 6.55228 9 6 9H2ZM2.5 10C2.22386 10 2 10.2239 2 10.5V13.5C2 13.7761 2.22386 14 2.5 14H5.5C5.77614 14 6 13.7761 6 13.5V10.5C6 10.2239 5.77614 10 5.5 10H2.5Z" fill="#273666"/>
</svg>
