<svg width="24" height="24" viewBox="0 0 24 24" fill="none" xmlns="http://www.w3.org/2000/svg">
<path d="M9.53602 13H7.32902C7.09312 13.6675 6.62883 14.2301 6.01822 14.5883C5.40761 14.9466 4.69 15.0775 3.99223 14.9578C3.29447 14.8381 2.66148 14.4756 2.20515 13.9344C1.74882 13.3931 1.49854 12.7079 1.49854 12C1.49854 11.292 1.74882 10.6069 2.20515 10.0656C2.66148 9.52435 3.29447 9.16184 3.99223 9.04217C4.69 8.92249 5.40761 9.05335 6.01822 9.41162C6.62883 9.76989 7.09312 10.3325 7.32902 11H9.53602L13 4.99998H16.17C16.4056 4.33237 16.8696 3.76954 17.48 3.41096C18.0905 3.05239 18.808 2.92117 19.5058 3.0405C20.2037 3.15983 20.8368 3.52201 21.2934 4.06305C21.75 4.60408 22.0007 5.28911 22.001 5.99706C22.0014 6.70502 21.7514 7.3903 21.2954 7.93179C20.8393 8.47328 20.2065 8.8361 19.5088 8.95612C18.8111 9.07615 18.0934 8.94564 17.4826 8.58768C16.8718 8.22972 16.4073 7.66735 16.171 6.99998H14.154L11.268 11.999L14.155 17H16.171C16.4069 16.3325 16.8712 15.7699 17.4818 15.4116C18.0924 15.0534 18.81 14.9225 19.5078 15.0422C20.2056 15.1618 20.8386 15.5243 21.2949 16.0656C21.7512 16.6069 22.0015 17.292 22.0015 18C22.0015 18.7079 21.7512 19.3931 21.2949 19.9344C20.8386 20.4756 20.2056 20.8381 19.5078 20.9578C18.81 21.0775 18.0924 20.9466 17.4818 20.5883C16.8712 20.2301 16.4069 19.6675 16.171 19H13L9.53602 13ZM19 17C18.7348 17 18.4805 17.1053 18.2929 17.2929C18.1054 17.4804 18 17.7348 18 18C18 18.2652 18.1054 18.5196 18.2929 18.7071C18.4805 18.8946 18.7348 19 19 19C19.2652 19 19.5196 18.8946 19.7071 18.7071C19.8947 18.5196 20 18.2652 20 18C20 17.7348 19.8947 17.4804 19.7071 17.2929C19.5196 17.1053 19.2652 17 19 17ZM4.50002 11C4.23481 11 3.98045 11.1053 3.79292 11.2929C3.60538 11.4804 3.50002 11.7348 3.50002 12C3.50002 12.2652 3.60538 12.5195 3.79292 12.7071C3.98045 12.8946 4.23481 13 4.50002 13C4.76524 13 5.01959 12.8946 5.20713 12.7071C5.39467 12.5195 5.50002 12.2652 5.50002 12C5.50002 11.7348 5.39467 11.4804 5.20713 11.2929C5.01959 11.1053 4.76524 11 4.50002 11ZM19 4.99998C18.7348 4.99998 18.4805 5.10534 18.2929 5.29287C18.1054 5.48041 18 5.73476 18 5.99998C18 6.2652 18.1054 6.51955 18.2929 6.70709C18.4805 6.89462 18.7348 6.99998 19 6.99998C19.2652 6.99998 19.5196 6.89462 19.7071 6.70709C19.8947 6.51955 20 6.2652 20 5.99998C20 5.73476 19.8947 5.48041 19.7071 5.29287C19.5196 5.10534 19.2652 4.99998 19 4.99998Z" fill="#273666"/>
</svg>
