<svg width="24" height="24" viewBox="0 0 24 24" fill="none" xmlns="http://www.w3.org/2000/svg">
<path d="M8.06641 13.0078C8.06641 12.7865 7.98828 12.6172 7.83203 12.5C7.67578 12.3802 7.39453 12.2552 6.98828 12.125C6.58203 11.9922 6.26042 11.862 6.02344 11.7344C5.3776 11.3854 5.05469 10.9154 5.05469 10.3242C5.05469 10.0169 5.14062 9.74349 5.3125 9.50391C5.48698 9.26172 5.73568 9.07292 6.05859 8.9375C6.38411 8.80208 6.7487 8.73438 7.15234 8.73438C7.55859 8.73438 7.92057 8.80859 8.23828 8.95703C8.55599 9.10286 8.80208 9.3099 8.97656 9.57812C9.15365 9.84635 9.24219 10.151 9.24219 10.4922H8.07031C8.07031 10.2318 7.98828 10.0299 7.82422 9.88672C7.66016 9.74089 7.42969 9.66797 7.13281 9.66797C6.84635 9.66797 6.6237 9.72917 6.46484 9.85156C6.30599 9.97135 6.22656 10.1302 6.22656 10.3281C6.22656 10.513 6.31901 10.668 6.50391 10.793C6.69141 10.918 6.96615 11.0352 7.32812 11.1445C7.99479 11.3451 8.48047 11.5938 8.78516 11.8906C9.08984 12.1875 9.24219 12.5573 9.24219 13C9.24219 13.4922 9.05599 13.8789 8.68359 14.1602C8.3112 14.4388 7.8099 14.5781 7.17969 14.5781C6.74219 14.5781 6.34375 14.4987 5.98438 14.3398C5.625 14.1784 5.35026 13.9583 5.16016 13.6797C4.97266 13.401 4.87891 13.0781 4.87891 12.7109H6.05469C6.05469 13.3385 6.42969 13.6523 7.17969 13.6523C7.45833 13.6523 7.67578 13.5964 7.83203 13.4844C7.98828 13.3698 8.06641 13.2109 8.06641 13.0078Z" fill="#273666"/>
<path fill-rule="evenodd" clip-rule="evenodd" d="M14.7031 11.7852C14.7031 12.3164 14.6172 12.7786 14.4453 13.1719C14.2734 13.5625 14.0352 13.8763 13.7305 14.1133L14.6758 14.8555L13.9297 15.5156L12.7188 14.543C12.5807 14.5664 12.4375 14.5781 12.2891 14.5781C11.8177 14.5781 11.3971 14.4648 11.0273 14.2383C10.6576 14.0117 10.3711 13.6888 10.168 13.2695C9.96484 12.8477 9.86198 12.3633 9.85938 11.8164V11.5352C9.85938 10.9753 9.95964 10.4831 10.1602 10.0586C10.3633 9.63151 10.6484 9.30469 11.0156 9.07812C11.3854 8.84896 11.8073 8.73438 12.2812 8.73438C12.7552 8.73438 13.1758 8.84896 13.543 9.07812C13.9128 9.30469 14.1979 9.63151 14.3984 10.0586C14.6016 10.4831 14.7031 10.974 14.7031 11.5312V11.7852ZM13.5156 11.5273C13.5156 10.931 13.4089 10.4779 13.1953 10.168C12.9818 9.85807 12.6771 9.70312 12.2812 9.70312C11.888 9.70312 11.5846 9.85677 11.3711 10.1641C11.1576 10.4688 11.0495 10.9167 11.0469 11.5078V11.7852C11.0469 12.3659 11.1536 12.8164 11.3672 13.1367C11.5807 13.457 11.888 13.6172 12.2891 13.6172C12.6823 13.6172 12.9844 13.4635 13.1953 13.1562C13.4062 12.8464 13.513 12.3958 13.5156 11.8047V11.5273Z" fill="#273666"/>
<path d="M19.2227 13.5586H16.7344V8.8125H15.5625V14.5H19.2227V13.5586Z" fill="#273666"/>
<path fill-rule="evenodd" clip-rule="evenodd" d="M3 3H21C21.2652 3 21.5196 3.10536 21.7071 3.29289C21.8946 3.48043 22 3.73478 22 4V20C22 20.2652 21.8946 20.5196 21.7071 20.7071C21.5196 20.8946 21.2652 21 21 21H3C2.73478 21 2.48043 20.8946 2.29289 20.7071C2.10536 20.5196 2 20.2652 2 20V4C2 3.73478 2.10536 3.48043 2.29289 3.29289C2.48043 3.10536 2.73478 3 3 3ZM4 5V19H20V5H4Z" fill="#273666"/>
</svg>
