<svg width="24" height="24" viewBox="0 0 24 24" fill="none" xmlns="http://www.w3.org/2000/svg">
<path fill-rule="evenodd" clip-rule="evenodd" d="M12.4999 1.2887C12.1905 1.11007 11.8093 1.11007 11.4999 1.2887L2.97363 6.21135C2.66423 6.38998 2.47363 6.72011 2.47363 7.07737V16.9227C2.47363 17.2799 2.66423 17.6101 2.97363 17.7887L11.4999 22.7113C11.8093 22.89 12.1905 22.89 12.4999 22.7113L21.0262 17.7887C21.3356 17.6101 21.5262 17.2799 21.5262 16.9227V7.07737C21.5262 6.72011 21.3356 6.38998 21.0262 6.21135L12.4999 1.2887ZM4.47363 16.3453V8.73298L11.9999 13.1602L19.5262 8.73298V16.3453L11.9999 20.6906L4.47363 16.3453Z" fill="#273666"/>
</svg>
