<svg width="24" height="24" viewBox="0 0 24 24" fill="none" xmlns="http://www.w3.org/2000/svg">
<path d="M16.622 15.1431L18.4314 17.4821H16.0877L15.1689 16.2985C14.4096 16.7156 13.5611 16.9219 12.6283 16.9219C11.0674 16.9219 9.76892 16.3828 8.73533 15.3071C7.70172 14.2313 7.18616 12.9469 7.18616 11.4586C7.18616 10.4649 7.42754 9.55079 7.90796 8.71879C8.38838 7.8868 9.04935 7.2258 9.89307 6.73594C10.7344 6.24614 11.6392 6 12.6048 6C14.0813 6 15.3469 6.53201 16.4064 7.59842C17.4658 8.6625 17.9955 9.96094 17.9955 11.4938C17.9955 12.9047 17.5362 14.1188 16.622 15.1431ZM16.0149 11.4798C16.0149 10.4954 15.6821 9.65869 15.0165 8.96955C14.3509 8.28286 13.547 7.93836 12.6025 7.93836C11.6299 7.93836 10.8166 8.2735 10.1603 8.94146C9.50407 9.61178 9.176 10.4602 9.176 11.4938C9.176 12.6445 9.58843 13.5539 10.4159 14.2219C11.0628 14.7445 11.7963 15.007 12.619 15.007C13.0901 15.007 13.5354 14.9156 13.9502 14.7305L12.0893 12.3351H14.4494L15.3869 13.5445C15.8064 12.9234 16.0149 12.2344 16.0149 11.4798Z" fill="#273666"/>
<path d="M6.35393 7.67804C5.80781 7.04054 5.29925 6.60231 4.83304 6.36556C4.36192 6.12418 3.86736 6.00461 3.34938 6.00461C2.54306 6.00461 1.86343 6.26244 1.31497 6.77811C0.764116 7.29369 0.489938 7.91256 0.489938 8.63436C0.489938 9.13363 0.654004 9.63518 0.984447 10.1367C1.31489 10.6383 2.0485 11.3508 3.1805 12.2743C3.77354 12.7595 4.15786 13.118 4.33364 13.3547C4.50943 13.5914 4.59615 13.8258 4.59615 14.0625C4.59615 14.3227 4.48131 14.5523 4.24926 14.7492C4.01726 14.9485 3.73128 15.0469 3.39143 15.0469C2.73984 15.0469 2.16329 14.5876 1.66407 13.6688L0 14.6719C0.39144 15.4501 0.862481 16.0195 1.41094 16.3828C1.96177 16.7461 2.60623 16.9266 3.34691 16.9266C4.29378 16.9266 5.06252 16.6476 5.65316 16.0922C6.24151 15.5367 6.53677 14.8313 6.53677 13.9782C6.53677 13.5398 6.45241 13.1366 6.28603 12.7663C6.1196 12.396 5.83373 12.0092 5.43291 11.6038C5.27347 11.4374 4.81414 11.039 4.05944 10.4085C3.25319 9.72648 2.76812 9.28114 2.60863 9.07253C2.48916 8.91787 2.4305 8.75144 2.4305 8.57802C2.4305 8.40215 2.51483 8.24521 2.67892 8.1069C2.8453 7.96859 3.05625 7.89829 3.31642 7.89829C3.85077 7.89829 4.3734 8.25462 4.88907 8.97177L6.35393 7.67804Z" fill="#273666"/>
<path d="M21.1148 6.26263H19.1367L19.1367 16.6596H24V14.7728H21.1148V6.26263Z" fill="#273666"/>
</svg>
