<svg width="24" height="24" viewBox="0 0 24 24" fill="none" xmlns="http://www.w3.org/2000/svg">
<path d="M5 15V17C5 18.054 5.95 19 7 19H10V21H7C5.93914 21 4.92172 20.5786 4.17157 19.8284C3.42143 19.0783 3 18.0609 3 17V15H5ZM17 3C18.0609 3 19.0783 3.42143 19.8284 4.17157C20.5786 4.92172 21 5.93913 21 7V9H19V7C19 6.46957 18.7893 5.96086 18.4142 5.58579C18.0391 5.21071 17.5304 5 17 5H14V3H17Z" fill="#273666"/>
<path d="M16.5 14.6126L18.7648 11H20.926L17.6694 15.9588L21 21H18.8166L16.5 17.3324L14.176 21H12L15.338 15.9588L12.074 11H14.2352L16.5 14.6126Z" fill="#273666"/>
<path d="M7.50366 7.73901L9.95288 3H12L8.43217 9.31868V13H6.57514V9.31868L3 3H5.05443L7.50366 7.73901Z" fill="#273666"/>
</svg>
