<svg width="24" height="24" viewBox="0 0 24 24" fill="none" xmlns="http://www.w3.org/2000/svg">
<path fill-rule="evenodd" clip-rule="evenodd" d="M17 8C17 10.7614 14.7614 13 12 13C9.23858 13 7 10.7614 7 8C7 5.23858 9.23858 3 12 3C14.7614 3 17 5.23858 17 8ZM15 8C15 9.65685 13.6569 11 12 11C10.3431 11 9 9.65685 9 8C9 6.34315 10.3431 5 12 5C13.6569 5 15 6.34315 15 8Z" fill="#273666"/>
<path fill-rule="evenodd" clip-rule="evenodd" d="M4 18C4 15.34 9.33 14 12 14C14.67 14 20 15.34 20 18V21H4V18ZM18.1 18C18.1 17.36 14.97 15.9 12 15.9C9.03 15.9 5.9 17.36 5.9 18V19.1H18.1V18Z" fill="#273666"/>
</svg>
