<svg width="16" height="16" viewBox="0 0 16 16" fill="none" xmlns="http://www.w3.org/2000/svg">
<path fill-rule="evenodd" clip-rule="evenodd" d="M7 3.5C7 4.88071 5.88071 6 4.5 6C3.11929 6 2 4.88071 2 3.5C2 2.11929 3.11929 1 4.5 1C5.88071 1 7 2.11929 7 3.5ZM3 3.5C3 4.32843 3.67157 5 4.5 5C5.32843 5 6 4.32843 6 3.5C6 2.67157 5.32843 2 4.5 2C3.67157 2 3 2.67157 3 3.5Z" fill="#273666"/>
<path fill-rule="evenodd" clip-rule="evenodd" d="M1 9C1 7.89543 1.89543 7 3 7H6C7.10457 7 8 7.89543 8 9V11H1V9ZM2 10H7V9C7 8.44772 6.55228 8 6 8H3C2.44772 8 2 8.44772 2 9V10Z" fill="#273666"/>
<path fill-rule="evenodd" clip-rule="evenodd" d="M11.5 10C12.8807 10 14 8.88071 14 7.5C14 6.11929 12.8807 5 11.5 5C10.1193 5 9 6.11929 9 7.5C9 8.88071 10.1193 10 11.5 10ZM11.5 9C10.6716 9 10 8.32843 10 7.5C10 6.67157 10.6716 6 11.5 6C12.3284 6 13 6.67157 13 7.5C13 8.32843 12.3284 9 11.5 9Z" fill="#273666"/>
<path fill-rule="evenodd" clip-rule="evenodd" d="M8 13C8 11.8954 8.89543 11 10 11H13C14.1046 11 15 11.8954 15 13V15H8V13ZM9 14H14V13C14 12.4477 13.5523 12 13 12H10C9.44772 12 9 12.4477 9 13V14Z" fill="#273666"/>
</svg>
