<svg width="24" height="24" viewBox="0 0 24 24" fill="none" xmlns="http://www.w3.org/2000/svg">
<path d="M8 2C6.34315 2 5 3.34315 5 5V8H7V5C7 4.44772 7.44772 4 8 4H20C20.5523 4 21 4.44772 21 5V19C21 19.5523 20.5523 20 20 20H13V22H20C21.6569 22 23 20.6569 23 19V5C23 3.34315 21.6569 2 20 2H8Z" fill="#273666"/>
<path d="M6 16C7.65685 16 9 14.6569 9 13C9 11.3431 7.65685 10 6 10C4.34315 10 3 11.3431 3 13C3 14.6569 4.34315 16 6 16Z" fill="#273666"/>
<path d="M5 17C2.79086 17 1 18.7909 1 21V22C1 22.5523 1.44772 23 2 23H10C10.5523 23 11 22.5523 11 22V21C11 18.7909 9.20914 17 7 17H5Z" fill="#273666"/>
<path d="M12 9C12 7.89543 12.8954 7 14 7C15.1046 7 16 7.89543 16 9C16 10.1046 15.1046 11 14 11C12.8954 11 12 10.1046 12 9Z" fill="#273666"/>
<path d="M11 14C11 12.8954 11.8954 12 13 12H15C16.1046 12 17 12.8954 17 14V15C17 15.5523 16.5523 16 16 16H12C11.4477 16 11 15.5523 11 15V14Z" fill="#273666"/>
</svg>
