<svg width="16" height="16" viewBox="0 0 16 16" fill="none" xmlns="http://www.w3.org/2000/svg">
<path d="M9 4H12V5H9V4Z" fill="#273666"/>
<path d="M12 7H9V8H12V7Z" fill="#273666"/>
<path d="M6 8C7.10457 8 8 7.10457 8 6C8 4.89543 7.10457 4 6 4C4.89543 4 4 4.89543 4 6C4 7.10457 4.89543 8 6 8ZM6 7C5.44772 7 5 6.55228 5 6C5 5.44772 5.44772 5 6 5C6.55228 5 7 5.44772 7 6C7 6.55228 6.55228 7 6 7Z" fill="#273666"/>
<path d="M3 11C3 9.89543 3.89543 9 5 9H7C8.10457 9 9 9.89543 9 11C9 11.5523 8.55228 12 8 12H4C3.44772 12 3 11.5523 3 11ZM4 11H8C8 10.4477 7.55228 10 7 10H5C4.44772 10 4 10.4477 4 11Z" fill="#273666"/>
<path d="M1 3C1 1.89543 1.89543 1 3 1H13C14.1046 1 15 1.89543 15 3V13C15 14.1046 14.1046 15 13 15H3C1.89543 15 1 14.1046 1 13V3ZM2 3V13C2 13.5523 2.44772 14 3 14H13C13.5523 14 14 13.5523 14 13V3C14 2.44772 13.5523 2 13 2H3C2.44772 2 2 2.44772 2 3Z" fill="#273666"/>
</svg>
