<svg width="24" height="24" viewBox="0 0 24 24" fill="none" xmlns="http://www.w3.org/2000/svg">
<path d="M8 2C6.34315 2 5 3.34315 5 5V8H7V5C7 4.44772 7.44772 4 8 4H20C20.5523 4 21 4.44772 21 5V19C21 19.5523 20.5523 20 20 20H13V22H20C21.6569 22 23 20.6569 23 19V5C23 3.34315 21.6569 2 20 2H8Z" fill="#273666"/>
<path d="M6 16C7.65685 16 9 14.6569 9 13C9 11.3431 7.65685 10 6 10C4.34315 10 3 11.3431 3 13C3 14.6569 4.34315 16 6 16Z" fill="#273666"/>
<path d="M5 17C2.79086 17 1 18.7909 1 21V22C1 22.5523 1.44772 23 2 23H10C10.5523 23 11 22.5523 11 22V21C11 18.7909 9.20914 17 7 17H5Z" fill="#273666"/>
<path d="M18 7H13V9H18V7Z" fill="#273666"/>
<path d="M13 11H18V13H13V11Z" fill="#273666"/>
<path d="M18 15H13V17H18V15Z" fill="#273666"/>
</svg>
