<svg width="24" height="24" viewBox="0 0 24 24" fill="none" xmlns="http://www.w3.org/2000/svg">
<path fill-rule="evenodd" clip-rule="evenodd" d="M3 4.995C3 3.893 3.893 3 4.995 3H19.005C20.107 3 21 3.893 21 4.995V19.005C21 20.1068 20.1068 21 19.005 21H4.995C3.89319 21 3 20.1068 3 19.005V4.995ZM5.00002 5V19H19V5H5.00002ZM7.972 18.18C7.35698 17.9136 6.77036 17.586 6.221 17.202C7.50981 15.2046 9.7249 13.9986 12.102 14C14.502 14 16.619 15.207 17.88 17.047C17.3412 17.4456 16.7636 17.789 16.156 18.072C15.2165 16.7696 13.7079 15.9985 12.102 16C10.387 16 8.872 16.864 7.972 18.18ZM12 13C10.7495 13 9.5941 12.3329 8.96889 11.25C8.34368 10.1671 8.34368 8.8329 8.96889 7.75C9.5941 6.6671 10.7495 6 12 6C13.933 6 15.5 7.567 15.5 9.5C15.5 11.433 13.933 13 12 13ZM12 11C12.8284 11 13.5 10.3284 13.5 9.50001C13.5 8.67158 12.8284 8.00001 12 8.00001C11.1716 8.00001 10.5 8.67158 10.5 9.50001C10.5 10.3284 11.1716 11 12 11Z" fill="#273666"/>
</svg>
