<svg width="24" height="24" viewBox="0 0 24 24" fill="none" xmlns="http://www.w3.org/2000/svg">
<path d="M13.0001 2.57728C12.3813 2.22001 11.6189 2.22001 11.0001 2.57728L4.33984 6.42257C3.72104 6.77984 3.33984 7.44009 3.33984 8.15463V15.8452C3.33984 16.5598 3.72104 17.22 4.33984 17.5773L11.0001 21.4226C11.6189 21.7798 12.3813 21.7798 13.0001 21.4226L19.6604 17.5773C20.2792 17.22 20.6604 16.5598 20.6604 15.8452V8.15463C20.6604 7.44009 20.2792 6.77984 19.6604 6.42257L13.0001 2.57728ZM12.0001 4.30933L17.6921 7.59562L12.0002 10.8482L6.30813 7.59558L12.0001 4.30933ZM5.33984 15.8452V9.34578L11.0001 12.5802V19.1132L5.33984 15.8452ZM13.0001 19.1132V12.5803L18.6604 9.34586V15.8452L13.0001 19.1132Z" fill="#747C94"/>
</svg>
