<svg width="24" height="24" viewBox="0 0 24 24" fill="none" xmlns="http://www.w3.org/2000/svg">
<path fill-rule="evenodd" clip-rule="evenodd" d="M5.44574 3.16559C5.78824 2.9658 6.21176 2.9658 6.55426 3.16559L9.45426 4.85726C9.7922 5.05439 10 5.41618 10 5.80741V9.19254C10 9.58378 9.7922 9.94557 9.45426 10.1427L6.55426 11.8344C6.21176 12.0342 5.78824 12.0342 5.44574 11.8344L2.54574 10.1427C2.2078 9.94556 2 9.58377 2 9.19254V5.80741C2 5.41618 2.2078 5.05439 2.54574 4.85726L5.44574 3.16559ZM6 5.15768L4 6.32435V8.67561L6 9.84227L8 8.67561V6.32435L6 5.15768Z" fill="#747C94"/>
<path fill-rule="evenodd" clip-rule="evenodd" d="M11.4457 13.1656C11.7882 12.9658 12.2118 12.9658 12.5543 13.1656L15.4543 14.8573C15.7922 15.0544 16 15.4162 16 15.8074V19.1925C16 19.5838 15.7922 19.9456 15.4543 20.1427L12.5543 21.8344C12.2118 22.0342 11.7882 22.0342 11.4457 21.8344L8.54574 20.1427C8.2078 19.9456 8 19.5838 8 19.1925V15.8074C8 15.4162 8.2078 15.0544 8.54574 14.8573L11.4457 13.1656ZM12 15.1577L10 16.3243V18.6756L12 19.8423L14 18.6756V16.3243L12 15.1577Z" fill="#747C94"/>
<path fill-rule="evenodd" clip-rule="evenodd" d="M18.5543 3.16559C18.2118 2.9658 17.7882 2.9658 17.4457 3.16559L14.5457 4.85726C14.2078 5.05439 14 5.41618 14 5.80741V9.19254C14 9.58377 14.2078 9.94556 14.5457 10.1427L17.4457 11.8344C17.7882 12.0342 18.2118 12.0342 18.5543 11.8344L21.4543 10.1427C21.7922 9.94557 22 9.58378 22 9.19254V5.80741C22 5.41618 21.7922 5.05439 21.4543 4.85726L18.5543 3.16559ZM16 6.32435L18 5.15768L20 6.32435V8.67561L18 9.84227L16 8.67561V6.32435Z" fill="#747C94"/>
</svg>
