<svg width="24" height="24" viewBox="0 0 24 24" fill="none" xmlns="http://www.w3.org/2000/svg">
<path fill-rule="evenodd" clip-rule="evenodd" d="M6 17V20H18V17H20V20C20 21.1046 19.1046 22 18 22H6C4.89543 22 4 21.1046 4 20V17H6Z" fill="#747C94"/>
<path fill-rule="evenodd" clip-rule="evenodd" d="M6.97487 4.01981C6.97487 2.9043 7.87627 2 8.98821 2H15.0282C16.1402 2 17.0416 2.9043 17.0416 4.01981V4.86719C17.0416 5.49639 16.7493 6.08965 16.251 6.4718L14.9753 7.45027L15.0202 11.3906L20.1796 13.2872C21.2673 13.658 22 14.6826 22 15.8365V16.9794C22 18.0949 21.0986 18.9992 19.9867 18.9993L4.01344 19C2.90146 19.0001 2 18.0957 2 16.9802V15.8374C2 14.6838 2.73232 13.6579 3.82089 13.287L8.98821 11.3928L8.98821 7.44594L7.74327 6.46329C7.25809 6.08033 6.97487 5.49523 6.97487 4.8759V4.01981ZM15.0282 4.01981H8.98821V4.8759L10.2331 5.85855C10.7183 6.24151 11.0016 6.82661 11.0016 7.44594V11.3928C11.0016 12.241 10.4733 12.9989 9.6792 13.29L4.48609 15.1936L4.47226 15.1982C4.19857 15.2896 4.01334 15.5471 4.01334 15.8374V16.9802L19.9867 16.9794V15.8365C19.9867 15.5469 19.802 15.2898 19.5277 15.1982L19.5135 15.1935L14.3275 13.2871C13.5422 12.9984 13.0166 12.2527 13.007 11.4137L12.962 7.47339C12.9548 6.8361 13.2478 6.23274 13.7525 5.84566L15.0282 4.86719V4.01981Z" fill="#747C94"/>
</svg>
