<svg width="16" height="16" viewBox="0 0 16 16" fill="none" xmlns="http://www.w3.org/2000/svg">
<path fill-rule="evenodd" clip-rule="evenodd" d="M6 3H3L3 5H4H5H6V3ZM3 6H4V8V9V12C4 12.5523 4.44772 13 5 13H8V14C8 14.5523 8.44772 15 9 15H12C12.5523 15 13 14.5523 13 14V12C13 11.4477 12.5523 11 12 11H9C8.44772 11 8 11.4477 8 12H5V9H8C8 9.55228 8.44772 10 9 10H12C12.5523 10 13 9.55228 13 9V7C13 6.44772 12.5523 6 12 6H9C8.44772 6 8 6.44772 8 7V8H5V6H6C6.55228 6 7 5.55228 7 5V3C7 2.44772 6.55228 2 6 2H3C2.44772 2 2 2.44772 2 3V5C2 5.55228 2.44772 6 3 6ZM9 8V9H12V7H9V8ZM9 14V13V12H12V14H9Z" fill="#747C94"/>
</svg>
