<svg width="24" height="24" viewBox="0 0 24 24" fill="none" xmlns="http://www.w3.org/2000/svg">
<path fill-rule="evenodd" clip-rule="evenodd" d="M5.63636 18.3636H2.90909C2.40701 18.3636 2 17.9566 2 17.4545V2.90909C2 2.40701 2.40701 2 2.90909 2H17.4545C17.9566 2 18.3636 2.40701 18.3636 2.90909V5.63636H21.0909C21.593 5.63636 22 6.04338 22 6.54545V21.0909C22 21.593 21.593 22 21.0909 22H6.54545C6.04338 22 5.63636 21.593 5.63636 21.0909V18.3636ZM3.81818 16.5455V3.81818H16.5455V5.63636H6.54545C6.04338 5.63636 5.63636 6.04338 5.63636 6.54545V16.5455H3.81818ZM8.36364 7.45455C7.86156 7.45455 7.45455 7.86156 7.45455 8.36364V20.1818H20.1818V7.45455H8.36364Z" fill="#747C94"/>
<path d="M11 10V14H9L13 18V10H11Z" fill="#747C94"/>
<path d="M17 18V14H19L15 10V18H17Z" fill="#747C94"/>
</svg>
