<svg width="28" height="29" viewBox="0 0 28 29" fill="none" xmlns="http://www.w3.org/2000/svg">
<circle cx="14" cy="14" r="14" fill="#B9BECF"/>
<path opacity="0.4" fill-rule="evenodd" clip-rule="evenodd" d="M9.1625 9.1875C7.72656 9.1875 6.5625 10.471 6.5625 12.0542V12.4075H17.829C19.2517 12.4075 20.405 13.5608 20.405 14.9835V26.7365C20.405 27.1956 20.2849 27.6267 20.0744 28H21.025C22.4609 28 23.625 26.7165 23.625 25.1333V12.0542C23.625 10.471 22.4609 9.1875 21.025 9.1875H9.1625Z" fill="white"/>
<path opacity="0.9" fill-rule="evenodd" clip-rule="evenodd" d="M6.076 12.4076C4.65331 12.4076 3.5 13.4716 3.5 14.7841V25.6271C3.5 26.9396 4.65331 28.0036 6.076 28.0036H17.829C19.2517 28.0036 20.405 26.9396 20.405 25.6271V14.7841C20.405 13.4716 19.2517 12.4076 17.829 12.4076H6.076ZM7.72632 18.4833C8.28205 18.4833 8.73257 18.03 8.73257 17.4707C8.73257 16.9115 8.28205 16.4581 7.72632 16.4581C7.17058 16.4581 6.72007 16.9115 6.72007 17.4707C6.72007 18.03 7.17058 18.4833 7.72632 18.4833ZM15.9775 17.4707C15.9775 18.03 15.527 18.4833 14.9712 18.4833C14.4155 18.4833 13.965 18.03 13.965 17.4707C13.965 16.9115 14.4155 16.4581 14.9712 16.4581C15.527 16.4581 15.9775 16.9115 15.9775 17.4707ZM15.2611 21.738C15.4912 21.465 15.4578 21.056 15.1865 20.8245C14.9153 20.593 14.5089 20.6266 14.2788 20.8996C13.1863 22.196 12.0843 22.411 11.1572 22.2402C10.1726 22.0588 9.2985 21.4217 8.80422 20.8803C8.56358 20.6168 8.15619 20.5994 7.89428 20.8416C7.63237 21.0837 7.61513 21.4937 7.85576 21.7573C8.47775 22.4385 9.58716 23.2686 10.9253 23.5151C12.3208 23.7722 13.8807 23.3759 15.2611 21.738Z" fill="white"/>
</svg>
