<svg width="64" height="67" viewBox="0 0 64 67" fill="none" xmlns="http://www.w3.org/2000/svg">
<circle cx="32" cy="32" r="32" fill="#B9BECF"/>
<path opacity="0.4" fill-rule="evenodd" clip-rule="evenodd" d="M20.9429 21C17.6607 21 15 23.9336 15 27.5524V28.3602H40.752C44.0039 28.3602 46.64 30.9963 46.64 34.2482V61.1122C46.64 62.1615 46.3655 63.1468 45.8844 64H48.0571C51.3393 64 54 61.0664 54 57.4476V27.5524C54 23.9336 51.3393 21 48.0571 21H20.9429Z" fill="white"/>
<path opacity="0.9" fill-rule="evenodd" clip-rule="evenodd" d="M13.888 28.3601C10.6361 28.3601 8 30.9963 8 34.2481V61.1121C8 64.364 10.6361 67.0001 13.888 67.0001H40.752C44.0039 67.0001 46.64 64.364 46.64 61.1121V34.2481C46.64 30.9963 44.0039 28.3601 40.752 28.3601H13.888ZM17.6602 42.1602C18.9304 42.1602 19.9602 41.1305 19.9602 39.8602C19.9602 38.59 18.9304 37.5602 17.6602 37.5602C16.3899 37.5602 15.3602 38.59 15.3602 39.8602C15.3602 41.1305 16.3899 42.1602 17.6602 42.1602ZM36.5199 39.8602C36.5199 41.1305 35.4902 42.1602 34.2199 42.1602C32.9497 42.1602 31.9199 41.1305 31.9199 39.8602C31.9199 38.59 32.9497 37.5602 34.2199 37.5602C35.4902 37.5602 36.5199 38.59 36.5199 39.8602ZM34.8826 49.5523C35.4084 48.9323 35.3321 48.0034 34.7121 47.4776C34.0921 46.9518 33.1632 47.0281 32.6374 47.6481C30.1401 50.5926 27.6213 51.0809 25.5022 50.693C23.2517 50.281 21.2537 48.834 20.1239 47.6043C19.5739 47.0057 18.6427 46.9662 18.0441 47.5163C17.4454 48.0663 17.406 48.9975 17.956 49.5961C19.3777 51.1435 21.9135 53.0289 24.972 53.5888C28.1619 54.1728 31.7274 53.2727 34.8826 49.5523Z" fill="white"/>
</svg>
