<svg width="24" height="24" viewBox="0 0 24 24" fill="none" xmlns="http://www.w3.org/2000/svg">
<path fill-rule="evenodd" clip-rule="evenodd" d="M3.03296 13.4795L12.0165 2.76004L21 13.4795L12.0165 20.866L3.03296 13.4795ZM16.0752 11.9217C16.3077 11.7697 16.5857 11.6812 16.8842 11.6812C17.7022 11.6812 18.3652 12.3442 18.365 13.1622C18.365 13.9801 17.702 14.6431 16.884 14.6431C16.4342 14.6431 16.0312 14.4425 15.7596 14.1259L13.1884 15.6619C13.3819 15.9123 13.4973 16.2262 13.4973 16.5672C13.4973 17.3851 12.8343 18.0481 12.0163 18.0481C11.1984 18.0481 10.5354 17.3851 10.5354 16.5672C10.5354 16.2262 10.6507 15.9123 10.8443 15.6619L8.27304 14.1259C8.00151 14.4425 7.59844 14.6431 7.14861 14.6431C6.33067 14.6431 5.66766 13.9801 5.66766 13.1622C5.66766 12.3442 6.33067 11.6812 7.14861 11.6812C7.4472 11.6812 7.72515 11.7697 7.9577 11.9217L10.9631 9.2156C10.6987 8.94808 10.5355 8.58051 10.5355 8.1747C10.5355 7.35676 11.1985 6.69375 12.0164 6.69375C12.8344 6.69375 13.4974 7.35676 13.4974 8.1747C13.4974 8.58051 13.3341 8.94808 13.0698 9.2156L16.0752 11.9217ZM11.3985 9.52094L8.33665 12.2779C8.52065 12.5246 8.62955 12.8307 8.62955 13.1623C8.62955 13.3443 8.59659 13.5186 8.53655 13.6796L11.2493 15.3001C11.4025 15.2071 11.5741 15.1412 11.7572 15.1088V9.6331C11.6315 9.61088 11.5112 9.57275 11.3985 9.52094ZM12.2756 15.1088C12.4588 15.1412 12.6303 15.2071 12.7836 15.3001L15.4963 13.6795C15.4362 13.5185 15.4033 13.3442 15.4033 13.1622C15.4033 12.8307 15.5122 12.5246 15.6962 12.2779L12.6344 9.52094C12.5217 9.57275 12.4014 9.61088 12.2756 9.6331V15.1088Z" fill="#0A0A0B"/>
</svg>
