<svg width="24" height="24" viewBox="0 0 24 24" fill="none" xmlns="http://www.w3.org/2000/svg">
<path d="M12.0165 2.76004L3.03296 13.4795L12.0165 20.866L21 13.4795L12.0165 2.76004Z" fill="#00ADEF"/>
<path d="M16.8843 11.6812C16.5857 11.6812 16.3078 11.7697 16.0752 11.9217L13.0698 9.21561C13.3342 8.94809 13.4974 8.58051 13.4974 8.1747C13.4974 7.35676 12.8344 6.69376 12.0165 6.69376C11.1986 6.69376 10.5355 7.35676 10.5355 8.1747C10.5355 8.58051 10.6988 8.94809 10.9632 9.21561L7.95776 11.9217C7.72521 11.7697 7.44726 11.6812 7.14867 11.6812C6.33073 11.6812 5.66772 12.3442 5.66772 13.1622C5.66772 13.9801 6.33073 14.6431 7.14867 14.6431C7.59851 14.6431 8.00158 14.4425 8.2731 14.1259L10.8444 15.6619C10.6508 15.9123 10.5354 16.2262 10.5354 16.5672C10.5354 17.3851 11.1984 18.0481 12.0164 18.0481C12.8343 18.0481 13.4973 17.3851 13.4973 16.5672C13.4973 16.2262 13.382 15.9123 13.1884 15.6619L15.7597 14.1259C16.0313 14.4425 16.4343 14.6431 16.8841 14.6431C17.702 14.6431 18.365 13.9801 18.365 13.1622C18.3653 12.3442 17.7023 11.6812 16.8843 11.6812ZM8.33672 12.2779L11.3986 9.52094C11.5113 9.57276 11.6315 9.61089 11.7573 9.63311V15.1089C11.5741 15.1412 11.4026 15.2071 11.2493 15.3001L8.53662 13.6796C8.59665 13.5186 8.62962 13.3443 8.62962 13.1623C8.62962 12.8307 8.52071 12.5247 8.33672 12.2779ZM12.7837 15.3001C12.6303 15.2071 12.4588 15.1412 12.2757 15.1089V9.63311C12.4014 9.61089 12.5217 9.57276 12.6344 9.52094L15.6963 12.2779C15.5123 12.5247 15.4034 12.8307 15.4034 13.1622C15.4034 13.3442 15.4362 13.5185 15.4964 13.6795L12.7837 15.3001Z" fill="white"/>
</svg>
