<svg width="24" height="24" viewBox="0 0 24 24" fill="none" xmlns="http://www.w3.org/2000/svg">
<path d="M2 21H22V22H2V21Z" fill="#747C94"/>
<path d="M7 14.5C7 15.8807 5.88071 17 4.5 17C3.11929 17 2 15.8807 2 14.5C2 13.1193 3.11929 12 4.5 12C5.88071 12 7 13.1193 7 14.5Z" fill="#747C94"/>
<path d="M22 15C22 16.1046 21.1046 17 20 17C18.8954 17 18 16.1046 18 15C18 13.8954 18.8954 13 20 13C21.1046 13 22 13.8954 22 15Z" fill="#747C94"/>
<path d="M8 7C8 8.10457 7.10457 9 6 9C4.89543 9 4 8.10457 4 7C4 5.89543 4.89543 5 6 5C7.10457 5 8 5.89543 8 7Z" fill="#747C94"/>
<path d="M12 3.5C12 4.32843 11.3284 5 10.5 5C9.67157 5 9 4.32843 9 3.5C9 2.67157 9.67157 2 10.5 2C11.3284 2 12 2.67157 12 3.5Z" fill="#747C94"/>
<path d="M20 6C20 6.55228 19.5523 7 19 7C18.4477 7 18 6.55228 18 6C18 5.44772 18.4477 5 19 5C19.5523 5 20 5.44772 20 6Z" fill="#747C94"/>
<path d="M15 11.5C15 13.433 13.433 15 11.5 15C9.567 15 8 13.433 8 11.5C8 9.567 9.567 8 11.5 8C13.433 8 15 9.567 15 11.5Z" fill="#747C94"/>
</svg>
