<svg width="24" height="24" viewBox="0 0 24 24" fill="none" xmlns="http://www.w3.org/2000/svg">
<path d="M14.7553 5.17967C14.9905 5.17962 15.2194 5.10347 15.4078 4.9626C15.5962 4.82173 15.7339 4.62369 15.8004 4.39807C15.867 4.17246 15.8587 3.93138 15.7769 3.71084C15.6951 3.4903 15.5441 3.30215 15.3466 3.17448C15.149 3.04682 14.9155 2.9865 14.6808 3.00254C14.4461 3.01857 14.2229 3.1101 14.0446 3.26345C13.8662 3.4168 13.7423 3.62373 13.6912 3.85335C13.6402 4.08296 13.6648 4.32293 13.7614 4.5374L11.1814 7.72408C10.9772 7.71271 10.7739 7.75931 10.595 7.85849L8.4081 6.31456C8.24832 6.65397 7.98776 6.93584 7.66193 7.12176L10.0327 8.79575V8.81246C10.0328 8.97682 10.0701 9.13902 10.1417 9.28694C10.2134 9.43485 10.3175 9.56465 10.4465 9.6666C10.5754 9.76856 10.7257 9.84004 10.8861 9.87569C11.0466 9.91135 11.213 9.91025 11.373 9.87248C11.5329 9.83471 11.6823 9.76126 11.8098 9.65761C11.9374 9.55396 12.0398 9.4228 12.1095 9.27395C12.1792 9.12511 12.2143 8.96242 12.2123 8.79808C12.2102 8.63373 12.171 8.47198 12.0976 8.32494L14.6478 5.17459C14.6834 5.17822 14.719 5.17967 14.7553 5.17967Z" fill="#747C94"/>
<path d="M6.76313 6.99607C7.14852 6.99607 7.51813 6.84298 7.79064 6.57047C8.06315 6.29795 8.21625 5.92835 8.21625 5.54296C8.21625 5.15756 8.06315 4.78796 7.79064 4.51545C7.51813 4.24293 7.14852 4.08984 6.76313 4.08984C6.37774 4.08984 6.00813 4.24293 5.73562 4.51545C5.46311 4.78796 5.31001 5.15756 5.31001 5.54296C5.31001 5.92835 5.46311 6.29795 5.73562 6.57047C6.00813 6.84298 6.37774 6.99607 6.76313 6.99607Z" fill="#747C94"/>
<path d="M4.22018 10.6289C4.22013 10.849 4.15343 11.0639 4.02885 11.2454C3.90426 11.4269 3.72764 11.5664 3.52224 11.6456C3.31684 11.7247 3.09228 11.7398 2.87813 11.6889C2.66397 11.6379 2.47027 11.5233 2.32251 11.3602C2.17475 11.197 2.07987 10.9929 2.05035 10.7748C2.02083 10.5566 2.05806 10.3347 2.15714 10.1381C2.25622 9.94152 2.4125 9.77957 2.60541 9.67354C2.79832 9.56751 3.01882 9.52239 3.23787 9.54411L5.45606 6.80498C5.71398 7.07163 6.05256 7.25981 6.43328 7.32956L4.12427 10.1813C4.18603 10.3179 4.22018 10.469 4.22018 10.6289Z" fill="#747C94"/>
<path fill-rule="evenodd" clip-rule="evenodd" d="M20.7346 7.07557C21.2791 7.07557 21.7206 7.51703 21.7206 8.0616V19.894C21.7206 20.4385 21.2791 20.88 20.7346 20.88H2.98603C2.44146 20.88 2 20.4385 2 19.894V12.9917H13.8324V7.07557H20.7346ZM19.7485 12.9917V9.04763H15.8044V12.9917H19.7485ZM19.7485 18.9079V14.9638H15.8044V18.9079H19.7485ZM9.88824 18.9079H13.8324V14.9638H9.88824V18.9079ZM3.97206 18.9079H7.91618V14.9638H3.97206V18.9079Z" fill="#747C94"/>
</svg>
