<svg width="24" height="24" viewBox="0 0 24 24" fill="none" xmlns="http://www.w3.org/2000/svg">
<path d="M15.5042 12.8212L21.9021 5.30875L20.3953 4L15.1474 10.1788L11.9579 8.04458C11.8493 8.73943 11.5364 9.36655 11.0824 9.86248L15.5042 12.8212Z" fill="#747C94"/>
<path d="M5.46766 9.249C5.80926 9.83998 6.31867 10.3218 6.93074 10.6293L3.55329 14.7528L2 13.5L5.46766 9.249Z" fill="#747C94"/>
<path d="M15.6744 17.5422L22 13.6873L20.9302 12L15.2264 15.4577L8.25215 14.4577L2.42468 18.3127L3.49449 20L8.70007 16.5422L15.6744 17.5422Z" fill="#747C94"/>
<path d="M8.5 10C9.88071 10 11 8.88071 11 7.5C11 6.11929 9.88071 5 8.5 5C7.11929 5 6 6.11929 6 7.5C6 8.88071 7.11929 10 8.5 10Z" fill="#747C94"/>
</svg>
