<svg width="24" height="24" viewBox="0 0 24 24" fill="none" xmlns="http://www.w3.org/2000/svg">
<path d="M11.25 4.03467C7.18341 4.41277 4 7.83461 4 12C4 16.4183 7.58172 20 12 20C14.7241 20 17.1301 18.6385 18.5748 16.5588L17.2601 15.8193C16.0785 17.4439 14.1626 18.5 12 18.5C8.41015 18.5 5.5 15.5898 5.5 12C5.5 8.66378 8.01342 5.91463 11.25 5.54278V4.03467Z" fill="#747C94"/>
<path d="M19.3113 15.2521C19.753 14.2607 19.9989 13.163 20 12.0079L20 11.9935C19.9983 9.83437 19.1412 7.87541 17.7494 6.43717C17.6965 6.38258 17.6429 6.32874 17.5886 6.27566C16.3143 5.0314 14.6261 4.20911 12.75 4.03467V11.5613L19.3113 15.2521Z" fill="#747C94"/>
</svg>
