<svg width="24" height="24" viewBox="0 0 24 24" fill="none" xmlns="http://www.w3.org/2000/svg">
<path fill-rule="evenodd" clip-rule="evenodd" d="M20 5V10L13.7 12L7.4 9L2 10V5L7.4 4L13.7 7L20 5ZM2 18V11.5L7.4 10.5L11 12V18H2ZM16.0914 14.6487C16.0914 16.026 15.349 16.8814 14.1331 16.8814C12.9173 16.8814 12.1641 16.026 12.1641 14.6487V14.6433C12.1641 13.266 12.9173 12.416 14.1331 12.416C15.349 12.416 16.0914 13.266 16.0914 14.6433V14.6487ZM20.8419 12.5344L15.6395 20.2977H14.2084L19.4055 12.5344H20.8419ZM13.4553 14.6487C13.4553 15.4611 13.6974 15.9022 14.1331 15.9022C14.5689 15.9022 14.8056 15.4611 14.8056 14.6487V14.6433C14.8056 13.8256 14.5689 13.3952 14.1331 13.3952C13.6974 13.3952 13.4553 13.8256 13.4553 14.6433V14.6487ZM22.8809 18.1833C22.8809 19.5606 22.1331 20.416 20.9173 20.416C19.7014 20.416 18.9536 19.5606 18.9536 18.1833V18.178C18.9536 16.8007 19.7014 15.9506 20.9173 15.9506C22.1331 15.9506 22.8809 16.8007 22.8809 18.178V18.1833ZM20.2448 18.1833C20.2448 19.0011 20.4869 19.4369 20.9173 19.4369C21.3584 19.4369 21.5951 19.0011 21.5951 18.1833V18.178C21.5951 17.3656 21.3584 16.9298 20.9173 16.9298C20.4869 16.9298 20.2448 17.3656 20.2448 18.178V18.1833Z" fill="#747C94"/>
</svg>
