<svg width="24" height="24" viewBox="0 0 24 24" fill="none" xmlns="http://www.w3.org/2000/svg">
<path d="M10.4996 1C10.7206 1 10.9326 1.08656 11.0889 1.24064C11.2451 1.39472 11.3329 1.6037 11.3329 1.8216V4.56027C11.3329 4.77818 11.2451 4.98715 11.0889 5.14123C10.9326 5.29531 10.7206 5.38188 10.4996 5.38188C10.2786 5.38188 10.0667 5.29531 9.91041 5.14123C9.75414 4.98715 9.66634 4.77818 9.66634 4.56027V1.8216C9.66634 1.6037 9.75414 1.39472 9.91041 1.24064C10.0667 1.08656 10.2786 1 10.4996 1ZM5.18878 3.15807C5.34503 3.00421 5.55682 2.91779 5.77764 2.91779C5.99847 2.91779 6.21026 3.00421 6.3665 3.15807L8.31085 5.07514C8.39272 5.15036 8.45839 5.24107 8.50394 5.34185C8.54948 5.44263 8.57397 5.55143 8.57594 5.66174C8.57792 5.77206 8.55734 5.88164 8.51543 5.98394C8.47352 6.08625 8.41114 6.17918 8.33201 6.2572C8.25288 6.33522 8.15862 6.39672 8.05486 6.43804C7.9511 6.47936 7.83997 6.49966 7.72808 6.49771C7.61619 6.49576 7.50585 6.47162 7.40363 6.42671C7.30142 6.38181 7.20942 6.31706 7.13313 6.23634L5.18878 4.31927C5.03273 4.16522 4.94508 3.9564 4.94508 3.73867C4.94508 3.52095 5.03273 3.31212 5.18878 3.15807ZM15.8105 3.15807C15.9665 3.31212 16.0542 3.52095 16.0542 3.73867C16.0542 3.9564 15.9665 4.16522 15.8105 4.31927L13.8661 6.23634C13.7899 6.31706 13.6979 6.38181 13.5956 6.42671C13.4934 6.47162 13.3831 6.49576 13.2712 6.49771C13.1593 6.49966 13.0482 6.47936 12.9444 6.43804C12.8407 6.39672 12.7464 6.33522 12.6673 6.2572C12.5881 6.17918 12.5258 6.08625 12.4838 5.98394C12.4419 5.88164 12.4214 5.77206 12.4233 5.66174C12.4253 5.55143 12.4498 5.44263 12.4953 5.34185C12.5409 5.24107 12.6066 5.15036 12.6884 5.07514L14.6328 3.15807C14.789 3.00421 15.0008 2.91779 15.2216 2.91779C15.4425 2.91779 15.6542 3.00421 15.8105 3.15807ZM3 8.39442C3 8.17651 3.08779 7.96754 3.24407 7.81346C3.40034 7.65938 3.61229 7.57281 3.83329 7.57281H6.61094C6.83194 7.57281 7.04389 7.65938 7.20016 7.81346C7.35644 7.96754 7.44423 8.17651 7.44423 8.39442C7.44423 8.61232 7.35644 8.8213 7.20016 8.97538C7.04389 9.12946 6.83194 9.21602 6.61094 9.21602H3.83329C3.61229 9.21602 3.40034 9.12946 3.24407 8.97538C3.08779 8.8213 3 8.61232 3 8.39442ZM12.0851 8.10521C11.1352 7.30114 9.66634 7.96718 9.66634 9.20178V21.5521C9.66634 22.8776 11.3274 23.5042 12.224 22.5161L15.1283 19.3141C15.435 18.9766 15.866 18.7773 16.3249 18.7586L20.5914 18.5899C21.9213 18.5374 22.4968 16.904 21.4858 16.0485L12.0862 8.10521H12.0851ZM11.3329 21.0328V9.63339L20.0125 16.9687L16.2571 17.1165C15.8074 17.1345 15.3659 17.2413 14.9588 17.4306C14.5517 17.6199 14.1873 17.8878 13.8873 18.2186L11.3329 21.0328Z" fill="#747C94"/>
</svg>
