<svg width="24" height="24" viewBox="0 0 24 24" fill="none" xmlns="http://www.w3.org/2000/svg">
<path d="M3 4.88532L6.6931 19.1147H8.22715L11.9392 4.88532H10.2726L7.46959 16.3624L4.66663 4.88532H3Z" fill="#747C94"/>
<path d="M16.6819 4.5C15.5835 4.5 14.6744 4.8578 13.9926 5.57339C13.254 6.28899 12.8941 7.22477 12.8941 8.43578C12.8941 9.64679 13.254 10.555 14.0115 11.2156C14.4661 11.656 15.2804 12.0688 16.4357 12.4817C17.4963 12.867 18.197 13.1697 18.519 13.3899C19.125 13.8303 19.447 14.4358 19.447 15.2339C19.447 16.8303 18.5569 17.656 16.8145 17.656C15.9812 17.656 15.3562 17.4358 14.9395 16.9954C14.5229 16.5 14.2388 15.7018 14.1252 14.5734H12.6479C12.8752 17.8486 14.2767 19.5 16.8524 19.5C19.6175 19.5 21 18.0138 21 15.0963C21 13.8578 20.6023 12.8945 19.8258 12.1789C19.3144 11.711 18.4811 11.2706 17.3069 10.8578C16.3221 10.4725 15.6403 10.1697 15.2804 9.92202C14.7123 9.50917 14.4471 8.98624 14.4471 8.38073C14.4471 7.7477 14.6554 7.25229 15.0721 6.89449C15.4509 6.50917 15.9812 6.34404 16.663 6.34404C17.4395 6.34404 18.0455 6.56422 18.4622 7.00459C18.841 7.38991 19.0872 8.05046 19.2197 8.93119H20.697C20.4318 5.95871 19.1061 4.5 16.6819 4.5Z" fill="#747C94"/>
</svg>
