<svg width="24" height="24" viewBox="0 0 24 24" fill="none" xmlns="http://www.w3.org/2000/svg">
<path d="M12 21.999C10.6868 21.999 9.38648 21.7404 8.17326 21.2378C6.96003 20.7353 5.85767 19.9987 4.9291 19.0701C4.00054 18.1416 3.26396 17.0392 2.76143 15.826C2.2589 14.6128 2.00024 13.3124 2.00024 11.9993C2.00024 10.6861 2.2589 9.38575 2.76143 8.17252C3.26396 6.9593 4.00054 5.85693 4.9291 4.92837C5.85767 3.99981 6.96003 3.26323 8.17326 2.7607C9.38648 2.25816 10.6868 1.99951 12 1.99951C14.6521 1.99951 17.1956 3.05305 19.0709 4.92837C20.9462 6.80369 21.9997 9.34716 21.9997 11.9993C21.9997 14.6514 20.9462 17.1948 19.0709 19.0701C17.1956 20.9455 14.6521 21.999 12 21.999ZM12 19.9995C14.1218 19.9995 16.1567 19.1566 17.657 17.6563C19.1574 16.1559 20.0002 14.1211 20.0002 11.9993C20.0002 9.87746 19.1574 7.84257 17.657 6.34223C16.1567 4.84189 14.1218 3.99901 12 3.99901C9.8782 3.99901 7.8433 4.84189 6.34296 6.34223C4.84263 7.84257 3.99974 9.87746 3.99974 11.9993C3.99974 14.1211 4.84263 16.1559 6.34296 17.6563C7.8433 19.1566 9.8782 19.9995 12 19.9995ZM12 7.05001L16.95 12L12 16.95L7.04999 12L12 7.05001ZM12 9.87901L9.87899 12L12 14.121L14.121 12L12 9.87901Z" fill="#747C94"/>
</svg>
