<svg width="24" height="24" viewBox="0 0 24 24" fill="none" xmlns="http://www.w3.org/2000/svg">
<path d="M19.9995 2.99992H13.9996C13.4474 2.99992 12.9997 3.44763 12.9997 3.9999V7.9998C12.9997 8.55207 13.4474 8.99977 13.9996 8.99977H19.9995C20.5518 8.99977 20.9995 8.55207 20.9995 7.9998V3.9999C20.9995 3.44763 20.5518 2.99992 19.9995 2.99992Z" fill="#7639F0" fill-opacity="0.3"/>
<path d="M2.99992 3.9999V11.9997C2.99992 12.552 3.44763 12.9997 3.9999 12.9997H9.99975C10.552 12.9997 10.9997 12.552 10.9997 11.9997V3.9999C10.9997 3.44763 10.552 2.99992 9.99975 2.99992H3.9999C3.44763 2.99992 2.99992 3.44763 2.99992 3.9999Z" fill="#7639F0"/>
<path d="M2.99992 15.9996V19.9995C2.99992 20.5518 3.44763 20.9995 3.9999 20.9995H9.99975C10.552 20.9995 10.9997 20.5518 10.9997 19.9995V15.9996C10.9997 15.4473 10.552 14.9996 9.99975 14.9996H3.9999C3.44763 14.9996 2.99992 15.4473 2.99992 15.9996Z" fill="#7639F0"/>
<path d="M13.9996 20.9995C13.4474 20.9995 12.9997 20.5518 12.9997 19.9995V11.9997C12.9997 11.4474 13.4474 10.9997 13.9996 10.9997H19.9995C20.5518 10.9997 20.9995 11.4474 20.9995 11.9997V19.9995C20.9995 20.5518 20.5518 20.9995 19.9995 20.9995H13.9996Z" fill="#7639F0"/>
</svg>
