<svg width="24" height="24" viewBox="0 0 24 24" fill="none" xmlns="http://www.w3.org/2000/svg">
<path d="M15.4958 18.15C15.9856 18.7833 16.5733 19.5 16.5733 19.5C20.1815 19.3833 21.5692 16.9667 21.5692 16.9667C21.5692 11.6001 19.2182 7.25012 19.2182 7.25012C16.8672 5.45014 14.6305 5.50014 14.6305 5.50014L14.4019 5.7668C17.1774 6.63346 18.4672 7.88345 18.4672 7.88345C16.7692 6.93346 15.104 6.4668 13.5529 6.28346C12.3775 6.15013 11.2509 6.18347 10.255 6.3168C10.1571 6.3168 10.0754 6.33346 9.97748 6.35013C9.40605 6.40013 8.01831 6.61679 6.27139 7.40012C5.66732 7.68345 5.30814 7.88345 5.30814 7.88345C5.30814 7.88345 6.66322 6.5668 9.60197 5.70014L9.43871 5.50014C9.43871 5.50014 7.20199 5.45014 4.851 7.25012C4.851 7.25012 2.5 11.6001 2.5 16.9667C2.5 16.9667 3.87141 19.3833 7.47954 19.5C7.47954 19.5 8.08362 18.75 8.57341 18.1167C6.49996 17.4834 5.7163 16.15 5.7163 16.15C5.7163 16.15 5.87956 16.2667 6.17343 16.4334C6.18976 16.45 6.20609 16.4667 6.23874 16.4834C6.28772 16.5167 6.3367 16.5334 6.38568 16.5667C6.79383 16.8 7.20199 16.9834 7.5775 17.1334C8.24688 17.4 9.04687 17.6667 9.97748 17.85C11.202 18.0833 12.6387 18.1667 14.206 17.8667C14.9733 17.7334 15.757 17.5 16.5733 17.15C17.1447 16.9334 17.7815 16.6167 18.4509 16.1667C18.4509 16.1667 17.6345 17.5334 15.4958 18.15Z" fill="#7289DA"/>
<path d="M8.9817 11.7168C8.05109 11.7168 7.31641 12.5502 7.31641 13.5668C7.31641 14.5835 8.06742 15.4168 8.9817 15.4168C9.9123 15.4168 10.647 14.5835 10.647 13.5668C10.6633 12.5502 9.9123 11.7168 8.9817 11.7168ZM14.9408 11.7168C14.0102 11.7168 13.2755 12.5502 13.2755 13.5668C13.2755 14.5835 14.0265 15.4168 14.9408 15.4168C15.8714 15.4168 16.6061 14.5835 16.6061 13.5668C16.6061 12.5502 15.8714 11.7168 14.9408 11.7168Z" fill="white"/>
</svg>
