<svg width="24" height="24" viewBox="0 0 24 24" fill="none" xmlns="http://www.w3.org/2000/svg">
<path d="M8.5 21C7.675 21 7 20.325 7 19.5C7 18.675 7.675 18 8.5 18C9.325 18 10 18.675 10 19.5C10 20.325 9.325 21 8.5 21Z" fill="#747C94"/>
<path d="M8.5 6C7.675 6 7 5.325 7 4.5C7 3.675 7.675 3 8.5 3C9.325 3 10 3.675 10 4.5C10 5.325 9.325 6 8.5 6Z" fill="#747C94"/>
<path d="M8.5 13.5C7.675 13.5 7 12.825 7 12C7 11.175 7.675 10.5 8.5 10.5C9.325 10.5 10 11.175 10 12C10 12.825 9.325 13.5 8.5 13.5Z" fill="#747C94"/>
<path d="M15.5 3C16.325 3 17 3.675 17 4.5C17 5.325 16.325 6 15.5 6C14.675 6 14 5.325 14 4.5C14 3.675 14.675 3 15.5 3Z" fill="#747C94"/>
<path d="M15.5 18C16.325 18 17 18.675 17 19.5C17 20.325 16.325 21 15.5 21C14.675 21 14 20.325 14 19.5C14 18.675 14.675 18 15.5 18Z" fill="#747C94"/>
<path d="M15.5 10.5C16.325 10.5 17 11.175 17 12C17 12.825 16.325 13.5 15.5 13.5C14.675 13.5 14 12.825 14 12C14 11.175 14.675 10.5 15.5 10.5Z" fill="#747C94"/>
</svg>
