<svg width="16" height="16" viewBox="0 0 16 16" fill="none" xmlns="http://www.w3.org/2000/svg">
<path d="M4.66716 9L3 4L8 5.66716L5.35776 6.35776L4.66716 9Z" fill="#747C94"/>
<path d="M12 5H9V6H12V5Z" fill="#747C94"/>
<path d="M9 8H12V9H9V8Z" fill="#747C94"/>
<path d="M12 12V11H4V12H12Z" fill="#747C94"/>
<path d="M1 3C1 1.89543 1.89543 1 3 1H13C14.1046 1 15 1.89543 15 3V13C15 14.1046 14.1046 15 13 15H3C1.89543 15 1 14.1046 1 13V3ZM2 3V13C2 13.5523 2.44772 14 3 14H13C13.5523 14 14 13.5523 14 13V3C14 2.44772 13.5523 2 13 2H3C2.44772 2 2 2.44772 2 3Z" fill="#747C94"/>
</svg>
