<svg width="24" height="24" viewBox="0 0 24 24" fill="none" xmlns="http://www.w3.org/2000/svg">
<path d="M3 4H21C21.2652 4 21.5196 4.10536 21.7071 4.29289C21.8946 4.48043 22 4.73478 22 5V19C22 19.2652 21.8946 19.5196 21.7071 19.7071C21.5196 19.8946 21.2652 20 21 20H3C2.73478 20 2.48043 19.8946 2.29289 19.7071C2.10536 19.5196 2 19.2652 2 19V5C2 4.73478 2.10536 4.48043 2.29289 4.29289C2.48043 4.10536 2.73478 4 3 4ZM20 8.238L12.072 13.338L4 8.216V18H20V8.238ZM4.511 6L12.061 10.662L19.502 6H4.511Z" fill="#747C94"/>
</svg>
