<svg width="24" height="24" viewBox="0 0 24 24" fill="none" xmlns="http://www.w3.org/2000/svg">
<path d="M13.2701 3.96304C13.2701 4.2278 13.3594 4.44953 13.538 4.62824C13.7166 4.80695 13.9416 4.8963 14.2128 4.8963L14.9471 4.8963L18.043 4.69774L15.602 7.03089L12.7938 9.81081C12.6086 9.98952 12.516 10.2146 12.516 10.4859C12.516 10.7772 12.6053 11.0154 12.7839 11.2008C12.9625 11.3927 13.1974 11.4887 13.4884 11.4887C13.6273 11.4887 13.753 11.4622 13.8655 11.4093C13.9846 11.3629 14.0904 11.2934 14.183 11.2008L16.9912 8.40099L19.3032 5.95863L19.1147 9.07612L19.1147 9.82074C19.1147 10.0987 19.2007 10.3271 19.3727 10.5058C19.5447 10.6911 19.7696 10.7838 20.0474 10.7838C20.3252 10.7838 20.5535 10.6911 20.7321 10.5058C20.9107 10.3271 21 10.0987 21 9.82074L21 4.61831C21 4.10204 20.8578 3.7016 20.5733 3.41699C20.2889 3.139 19.8953 3 19.3925 3L14.2128 3C13.9482 3 13.7233 3.08935 13.538 3.26806C13.3594 3.45339 13.2701 3.68505 13.2701 3.96304ZM3 14.1693L3 19.3817C3 19.898 3.14223 20.2951 3.42668 20.5731C3.70452 20.8577 4.09812 21 4.6075 21L9.77729 21C10.0485 21 10.2734 20.9073 10.452 20.722C10.6373 20.5433 10.7299 20.3149 10.7299 20.037C10.7299 19.7656 10.6406 19.5405 10.462 19.3618C10.2834 19.1831 10.0551 19.0938 9.77729 19.0938L9.043 19.0938L5.94708 19.3023L8.38809 16.9691L11.1963 14.1793C11.3881 14.0072 11.484 13.7854 11.484 13.5141C11.484 13.2228 11.3914 12.9812 11.2062 12.7893C11.0276 12.604 10.7927 12.5113 10.5017 12.5113C10.3693 12.5113 10.2437 12.5345 10.1246 12.5808C10.0055 12.6271 9.89967 12.6966 9.80706 12.7893L7.00882 15.599L4.68688 18.0414L4.87541 14.9239L4.87541 14.1693C4.87541 13.898 4.78941 13.6696 4.61742 13.4843C4.44542 13.3056 4.22381 13.2162 3.95259 13.2162C3.67475 13.2162 3.44653 13.3056 3.26792 13.4843C3.0893 13.6696 3 13.898 3 14.1693Z" fill="#747C94"/>
</svg>
