<svg width="24" height="24" viewBox="0 0 24 24" fill="none" xmlns="http://www.w3.org/2000/svg">
<path d="M17.6839 11.9294L17.3878 10.4268C16.8888 7.89548 14.6656 6 12 6C9.88581 6 8.04354 7.19801 7.12383 8.96387L6.62825 9.91538L5.56143 10.0288C3.55992 10.2416 2 11.9413 2 14C2 16.2054 3.79457 18 6 18H9V20H6C2.69 20 0 17.31 0 14C0 10.91 2.34 8.36 5.35 8.04C6.6 5.64 9.11 4 12 4C15.64 4 18.67 6.59 19.35 10.04C21.95 10.22 24 12.36 24 15C24 17.76 21.76 20 19 20H15V18H19C20.6554 18 22 16.6554 22 15C22 13.4313 20.7838 12.144 19.2119 12.0352L17.6839 11.9294Z" fill="#747C94"/>
<path d="M13 13H16L12 17L8 13H11V9H13V13Z" fill="#747C94"/>
</svg>
