<svg width="24" height="24" viewBox="0 0 24 24" fill="none" xmlns="http://www.w3.org/2000/svg">
<path d="M12.0001 14.4995C13.3806 14.4995 14.4997 13.3805 14.4997 12C14.4997 10.6196 13.3806 9.50049 12.0001 9.50049C10.6197 9.50049 9.50061 10.6196 9.50061 12C9.50061 13.3805 10.6197 14.4995 12.0001 14.4995Z" fill="#747C94"/>
<path d="M12.0002 3C17.3922 3 21.8782 6.88 22.8192 12C21.8792 17.12 17.3922 21 12.0002 21C6.60815 21 2.12215 17.12 1.18115 12C2.12115 6.88 6.60815 3 12.0002 3ZM16.4983 12C16.4983 9.51565 14.4844 7.50171 12.0001 7.50171C9.51577 7.50171 7.50183 9.51565 7.50183 12C7.50183 14.4843 9.51577 16.4982 12.0001 16.4982C14.4844 16.4982 16.4983 14.4843 16.4983 12Z" fill="#747C94"/>
</svg>
