<svg width="24" height="26" viewBox="0 0 24 26" fill="none" xmlns="http://www.w3.org/2000/svg">
<path d="M6.00012 0L4.26807 1L6.38365 4.66429C3.707 6.25671 1.76347 8.95261 1.18115 12.1244C2.12215 17.2444 6.60815 21.1244 12.0002 21.1244C13.2419 21.1244 14.4356 20.9186 15.5491 20.5393L18.2681 25.2487L20.0001 24.2487L6.00012 0ZM8.84157 8.92153L9.90418 10.762C9.64893 11.1539 9.50061 11.6218 9.50061 12.1244C9.50061 13.5049 10.6197 14.6239 12.0001 14.6239C12.0443 14.6239 12.0883 14.6228 12.1319 14.6205L13.1951 16.4621C12.8146 16.5667 12.4139 16.6226 12.0001 16.6226C9.51577 16.6226 7.50183 14.6087 7.50183 12.1244C7.50183 10.8709 8.01449 9.73724 8.84157 8.92153Z" fill="#747C94"/>
<path d="M16.4983 12.1244C16.4983 12.6769 16.3987 13.2062 16.2165 13.6952L19.0367 18.58C20.9723 16.9676 22.3457 14.7033 22.8192 12.1244C21.8782 7.00439 17.3922 3.12439 12.0002 3.12439C11.3865 3.12439 10.7845 3.17465 10.1982 3.27127L12.7482 7.68803C14.8765 8.04429 16.4983 9.89492 16.4983 12.1244Z" fill="#747C94"/>
</svg>
