<svg width="24" height="24" viewBox="0 0 24 24" fill="none" xmlns="http://www.w3.org/2000/svg">
<path fill-rule="evenodd" clip-rule="evenodd" d="M5 4H15V8H19V20H5V4ZM3.999 2C3.447 2 3 2.444 3 2.992V21.008C3.00209 21.2706 3.10742 21.5219 3.29322 21.7075C3.47902 21.8931 3.73038 21.9982 3.993 22H20.007C20.1383 21.9991 20.2682 21.9723 20.3892 21.9212C20.5101 21.8701 20.6199 21.7957 20.7121 21.7022C20.8043 21.6087 20.8772 21.4979 20.9266 21.3762C20.976 21.2545 21.0009 21.1243 21 20.993V7L16 2H3.999ZM14.1 16.5L12 14.4L9.9 16.5L8.5 15.1L10.6 13L8.5 10.9L9.9 9.5L12 11.6L14.1 9.5L15.5 10.9L13.4 13L15.5 15.1L14.1 16.5Z" fill="#747C94"/>
</svg>
