<svg width="24" height="24" viewBox="0 0 24 24" fill="none" xmlns="http://www.w3.org/2000/svg">
<path d="M4.99927 2.99936V20.0006H21V10.0006H18.9991V2.99936H4.99927ZM20 1C20.5523 1 21 1.44772 21 2V21C21 21.5523 20.5523 22 20 22H4C3.44772 22 3 21.5523 3 21V2C3 1.44772 3.44772 1 4 1H20ZM7.999 15.0014H9.99991V13.0086C9.99991 12.9988 9.99991 12.9988 9.99005 12.9988H7.999V14.9981V15.0014ZM7.00018 17.9996V11.9999H9.99005C10.5486 11.9999 11.0004 12.4435 11.0004 13.0103V14.9899C11.0014 15.1221 10.9764 15.2531 10.9266 15.3756C10.8768 15.498 10.8033 15.6094 10.7104 15.7033C10.6174 15.7972 10.5067 15.8718 10.3848 15.9228C10.2629 15.9737 10.1321 16.0001 9.99991 16.0003H7.999V17.9996H7.00018ZM16.9998 17.9996V11.9999H20.9984V13.0004H17.9986L17.9855 14.985L19.9995 14.9981V15.9986H17.9986V17.998H16.9998V17.9996ZM12.9996 17.0008H14.0001C14.557 17.0008 14.9989 16.5572 14.9989 16.0019V13.9976C14.9976 13.7333 14.8919 13.4801 14.7048 13.2934C14.5177 13.1066 14.2644 13.0013 14.0001 13.0004H12.9996V16.9991V17.0008ZM11.9992 17.9996V11.9999H14.0001C15.104 11.9999 15.9994 12.8986 15.9994 13.9976V16.0019C15.9998 16.2645 15.9484 16.5246 15.848 16.7673C15.7477 17.01 15.6004 17.2305 15.4147 17.4161C15.2289 17.6017 15.0083 17.7488 14.7656 17.8489C14.5228 17.9491 14.2627 18.0003 14.0001 17.9996H11.9992Z" fill="#747C94"/>
</svg>
