<svg width="24" height="24" viewBox="0 0 24 24" fill="none" xmlns="http://www.w3.org/2000/svg">
<path fill-rule="evenodd" clip-rule="evenodd" d="M12.7678 17.0485L17.1898 12.7553C17.5978 12.3592 17.5978 11.7126 17.2078 11.3107C16.7938 10.9146 16.1278 10.9146 15.7198 11.3107L13.0618 13.8913V4.4369C13.0618 4.15146 12.9478 3.90098 12.7558 3.71457C12.5638 3.53399 12.2998 3.41748 12.0118 3.41748C11.4358 3.41748 10.9618 3.87767 10.9618 4.4369V13.8913L8.30377 11.3107C7.88977 10.9146 7.22377 10.9146 6.81577 11.3107C6.61177 11.5087 6.50977 11.7709 6.50977 12.033C6.50977 12.2952 6.61177 12.5573 6.81577 12.7553L11.2378 17.0485L11.2618 17.0718C11.4238 17.2291 11.6278 17.3282 11.8438 17.3573C11.8528 17.3573 11.8618 17.3587 11.8708 17.3602C11.8798 17.3617 11.8888 17.3631 11.8978 17.3631L11.9998 17.3689C12.0358 17.3689 12.0718 17.3689 12.1078 17.3631C12.1168 17.3631 12.1258 17.3617 12.1348 17.3602C12.1438 17.3587 12.1528 17.3573 12.1618 17.3573C12.3718 17.3282 12.5818 17.2291 12.7438 17.0718C12.7456 17.0701 12.7479 17.0683 12.7505 17.0664C12.7565 17.062 12.7636 17.0567 12.7678 17.0485ZM21.5277 20.9515V16.8563C21.5277 16.6175 21.4257 16.3961 21.2697 16.233C21.1077 16.0757 20.8797 15.9767 20.6337 15.9767C20.1417 15.9767 19.7337 16.367 19.7337 16.8505V20.1301H4.27168V16.8505C4.27168 16.6117 4.16968 16.3903 4.00768 16.233C3.84568 16.0757 3.61768 15.9767 3.37168 15.9767C2.87968 15.9767 2.47168 16.367 2.47168 16.8505V20.9456C2.47168 21.0039 2.47168 21.0505 2.48368 21.1029C2.53168 21.5398 2.91568 21.8835 3.37768 21.8835H20.6157C21.0477 21.8835 21.4137 21.5806 21.4977 21.1787C21.5157 21.1088 21.5277 21.033 21.5277 20.9515Z" fill="#747C94"/>
</svg>
