<svg width="24" height="24" viewBox="0 0 24 24" fill="none" xmlns="http://www.w3.org/2000/svg">
<path fill-rule="evenodd" clip-rule="evenodd" d="M12 2C17.52 2 22 6.48 22 12C22 17.51 17.52 22 12 22C6.49 22 2 17.51 2 12C2 6.48 6.49 2 12 2ZM16.8799 8.27002C16.8799 7.99002 16.7498 7.72004 16.5298 7.54004C16.3198 7.36004 16.03 7.28961 15.75 7.34961L15.4399 7.40967C15.2299 7.43967 14.9399 7.47 14.6099 7.5C13.9199 7.55 13.2097 7.53988 12.7397 7.37988C12.0297 7.13988 11.3699 7 10.6899 7C10.0099 7 9.35965 7.13988 8.63965 7.37988C8.25965 7.50988 8 7.87002 8 8.27002V17.4297C8 17.7097 8.23 17.9297 8.5 17.9297C8.78 17.9297 9 17.7097 9 17.4297V14.5698C9.37 14.5398 9.73986 14.4299 10.1099 14.3999C10.7099 14.3499 11.47 14.35 12.21 14.54C13.63 14.9 15.1601 15.0797 16.3701 14.4697C16.6801 14.2997 16.8799 13.9799 16.8799 13.6299V8.27002Z" fill="#747C94"/>
</svg>
