<svg width="24" height="24" viewBox="0 0 24 24" fill="none" xmlns="http://www.w3.org/2000/svg">
<g clip-path="url(#clip0_5031_752)">
<path d="M18.0076 14C17.212 14 16.4489 13.6839 15.8863 13.1213C15.3237 12.5587 15.0076 11.7957 15.0076 11C15.0076 10.2044 15.3237 9.44129 15.8863 8.87868C16.4489 8.31607 17.212 8 18.0076 8C18.8033 8 19.5663 8.31607 20.129 8.87868C20.6916 9.44129 21.0076 10.2044 21.0076 11C21.0076 11.7957 20.6916 12.5587 20.129 13.1213C19.5663 13.6839 18.8033 14 18.0076 14ZM9.00763 11C8.48232 11 7.96214 10.8966 7.4768 10.6956C6.99146 10.4946 6.55047 10.2 6.17901 9.82854C5.80754 9.4571 5.51287 9.01613 5.31184 8.5308C5.1108 8.04548 5.00732 7.52531 5.00732 7C5.00732 6.47469 5.1108 5.95452 5.31184 5.4692C5.51287 4.98387 5.80754 4.5429 6.17901 4.17146C6.55047 3.80003 6.99146 3.50539 7.4768 3.30439C7.96214 3.10339 8.48232 2.99996 9.00763 3C10.0684 3.00008 11.0858 3.42154 11.8359 4.17168C12.5859 4.92182 13.0073 5.93919 13.0073 7C13.0073 8.06081 12.5859 9.07818 11.8359 9.82832C11.0858 10.5785 10.0684 10.9999 9.00763 11Z" fill="#202241"/>
<path d="M17.6086 15C21.0156 15.038 23.7966 16.76 24.0056 20.4C24.0146 20.547 24.0056 21 23.4636 21H19.6076C19.6076 18.75 18.8636 16.672 17.6086 15ZM0.0085796 20.2C0.39558 15.426 4.26758 13 8.99058 13C13.7786 13 17.7126 15.293 18.0056 20.2C18.0176 20.395 18.0056 21 17.2546 21H0.73458C0.48458 21 -0.0124204 20.46 0.0085796 20.2Z" fill="#ACAFBD"/>
</g>
<defs>
<clipPath id="clip0_5031_752">
<rect width="24" height="24" fill="white"/>
</clipPath>
</defs>
</svg>
