<svg width="16" height="16" viewBox="0 0 16 16" fill="none" xmlns="http://www.w3.org/2000/svg">
<path fill-rule="evenodd" clip-rule="evenodd" d="M7 4.5C7 5.88071 5.88071 7 4.5 7C3.11929 7 2 5.88071 2 4.5C2 3.11929 3.11929 2 4.5 2C5.88071 2 7 3.11929 7 4.5ZM3 4.5C3 5.32843 3.67157 6 4.5 6C5.32843 6 6 5.32843 6 4.5C6 3.67157 5.32843 3 4.5 3C3.67157 3 3 3.67157 3 4.5Z" fill="#747C94"/>
<path d="M1 10C1 8.89543 1.89543 8 3 8H6C7.10457 8 8 8.89543 8 10V13H7V10C7 9.44772 6.55228 9 6 9H3C2.44772 9 2 9.44772 2 10V13H1V10Z" fill="#747C94"/>
<path d="M13 10H12V8H10V7H12V5H13V7H15V8H13V10Z" fill="#747C94"/>
</svg>
