<svg width="24" height="24" viewBox="0 0 24 24" fill="none" xmlns="http://www.w3.org/2000/svg">
<path d="M4.25 15V12.75C4.25 8.46979 7.71979 5 12 5C16.2802 5 19.75 8.46979 19.75 12.75V15" stroke="#0A0A0B" stroke-width="2" stroke-linecap="round" stroke-linejoin="round"/>
<path d="M16.25 14C16.25 12.8954 17.1454 12 18.25 12C19.3546 12 20.25 12.8954 20.25 14V17C20.25 18.1046 19.3546 19 18.25 19C17.1454 19 16.25 18.1046 16.25 17V14Z" fill="#0A0A0B" stroke="#0A0A0B" stroke-linecap="round" stroke-linejoin="round"/>
<path d="M3.75 14C3.75 12.8954 4.64543 12 5.75 12C6.85457 12 7.75 12.8954 7.75 14V17C7.75 18.1046 6.85457 19 5.75 19C4.64543 19 3.75 18.1046 3.75 17V14Z" fill="#0A0A0B" stroke="#0A0A0B" stroke-linecap="round" stroke-linejoin="round"/>
</svg>
