<svg width="24" height="24" viewBox="0 0 24 24" fill="none" xmlns="http://www.w3.org/2000/svg">
<path d="M8.44743 8.10579C7.95345 7.8588 7.35278 8.05903 7.10579 8.55301C6.8588 9.04698 7.05903 9.64766 7.55301 9.89465L7.76415 10.0002L7.55301 10.1058C7.05903 10.3528 6.8588 10.9535 7.10579 11.4474C7.35278 11.9414 7.95345 12.1416 8.44743 11.8946L10.4474 10.8946C10.7862 10.7253 11.0002 10.379 11.0002 10.0002C11.0002 9.62145 10.7862 9.27518 10.4474 9.10579L8.44743 8.10579Z" fill="#222221"/>
<path d="M16.8944 8.55301C17.1414 9.04698 16.9412 9.64766 16.4472 9.89465L16.2361 10.0002L16.4472 10.1058C16.9412 10.3528 17.1414 10.9535 16.8944 11.4474C16.6474 11.9414 16.0468 12.1416 15.5528 11.8946L13.5528 10.8946C13.214 10.7253 13 10.379 13 10.0002C13 9.62145 13.214 9.27518 13.5528 9.10579L15.5528 8.10579C16.0468 7.8588 16.6474 8.05903 16.8944 8.55301Z" fill="#222221"/>
<path d="M7.48237 15.1824C7.1771 14.6079 7.63021 14 8.28078 14H15.7192C16.3698 14 16.8229 14.6079 16.5176 15.1824C15.8908 16.3621 14.5596 18 12 18C9.44035 18 8.10917 16.3621 7.48237 15.1824Z" fill="#222221"/>
<path fill-rule="evenodd" clip-rule="evenodd" d="M22 12C22 17.5228 17.5228 22 12 22C6.47715 22 2 17.5228 2 12C2 6.47715 6.47715 2 12 2C17.5228 2 22 6.47715 22 12ZM20 12C20 16.4183 16.4183 20 12 20C7.58172 20 4 16.4183 4 12C4 7.58172 7.58172 4 12 4C16.4183 4 20 7.58172 20 12Z" fill="#222221"/>
</svg>
