<svg width="24" height="24" viewBox="0 0 24 24" fill="none" xmlns="http://www.w3.org/2000/svg">
<path fill-rule="evenodd" clip-rule="evenodd" d="M8.09012 6.99996L12.0001 3.26352L15.9103 7.00017L12.0003 10.7366L8.09012 6.99996ZM5.19824 6.99996L6.64418 5.6182L10.5542 1.88176L12.0001 0.5L13.446 1.88176L17.3562 5.61841L18.8022 7.00017L17.3562 8.38193L16.186 9.5002L18.8017 11.9997L11.9999 18.4997L5.19824 12L7.81436 9.49996L6.64418 8.38172L5.19824 6.99996ZM9.2603 10.8817L8.09012 12L11.9999 15.7362L15.9098 11.9997L14.7401 10.882L13.4463 12.1184L12.0003 13.5001L10.5544 12.1184L9.2603 10.8817ZM7.81436 14.5001L5.19824 17.0001L12.0002 23.5002L18.802 17.0003L16.1855 14.5L11.9999 18.4998L7.81436 14.5001Z" fill="#222221"/>
</svg>
