<svg width="24" height="24" viewBox="0 0 24 24" fill="none" xmlns="http://www.w3.org/2000/svg">
<path d="M13 2H11V12H13V2Z" fill="#222221"/>
<path d="M7.62547 6.53509L8.40572 5.90962L7.15478 4.34912L6.37453 4.97459C4.31903 6.62234 3 9.15758 3 12.0002C3 16.9708 7.02944 21.0002 12 21.0002C16.9706 21.0002 21 16.9708 21 12.0002C21 9.15758 19.681 6.62234 17.6255 4.97459L16.8452 4.34912L15.5943 5.90962L16.3745 6.53509C17.9769 7.81958 19 9.79007 19 12.0002C19 15.8662 15.866 19.0002 12 19.0002C8.13401 19.0002 5 15.8662 5 12.0002C5 9.79007 6.02312 7.81958 7.62547 6.53509Z" fill="#222221"/>
</svg>
