<svg width="24" height="24" viewBox="0 0 24 24" fill="none" xmlns="http://www.w3.org/2000/svg">
<path fill-rule="evenodd" clip-rule="evenodd" d="M13.4013 12.6649C14.3847 11.7518 15 10.4478 15 9C15 6.23858 12.7614 4 10 4C7.23858 4 5 6.23858 5 9C5 10.4478 5.61532 11.7518 6.59872 12.6649C3.60905 13.8861 1.42316 16.6691 1.05496 20C1.01867 20.3283 1.00004 20.6618 1.00003 20.9997L1 22H19V21C19 20.662 18.9814 20.3283 18.9451 20C18.5769 16.6691 16.391 13.8861 13.4013 12.6649ZM10 12C11.6569 12 13 10.6569 13 9C13 7.34315 11.6569 6 10 6C8.34315 6 7 7.34315 7 9C7 10.6569 8.34315 12 10 12ZM10 14C13.5265 14 16.4439 16.6077 16.9291 20H3.07091C3.55614 16.6077 6.47355 14 10 14Z" fill="#222221"/>
<path fill-rule="evenodd" clip-rule="evenodd" d="M24 13L20.5 15L17 13V7H24V13ZM22 9H19V11.8394L20.5 12.6965L22 11.8394V9Z" fill="#222221"/>
</svg>
