<svg width="24" height="24" viewBox="0 0 24 24" fill="none" xmlns="http://www.w3.org/2000/svg">
<path fill-rule="evenodd" clip-rule="evenodd" d="M16 12C16 14.2091 14.2091 16 12 16C9.79086 16 8 14.2091 8 12C8 9.79086 9.79086 8 12 8C14.2091 8 16 9.79086 16 12ZM14 12C14 13.1046 13.1046 14 12 14C10.8954 14 10 13.1046 10 12C10 10.8954 10.8954 10 12 10C13.1046 10 14 10.8954 14 12Z" fill="#222221"/>
<path fill-rule="evenodd" clip-rule="evenodd" d="M15.0002 2H9.0002V4.58152C8.30535 4.86278 7.65902 5.23883 7.07724 5.69364L4.84004 4.40199L1.84004 9.59814L4.07666 10.8895C4.02625 11.2524 4.0002 11.6232 4.0002 12C4.0002 12.3768 4.02624 12.7475 4.07664 13.1104L1.83984 14.4019L4.83984 19.598L7.07715 18.3063C7.65896 18.7611 8.30532 19.1372 9.0002 19.4185V22H15.0002V19.4185C15.695 19.1372 16.3414 18.7612 16.9231 18.3064L19.1605 19.5981L22.1605 14.402L19.9237 13.1106C19.9741 12.7476 20.0002 12.3768 20.0002 12C20.0002 11.6231 19.9741 11.2523 19.9237 10.8893L22.1604 9.59801L19.1604 4.40186L16.9231 5.69356C16.3413 5.23879 15.695 4.86277 15.0002 4.58152V2ZM13.0002 4H11.0002V6.08296C9.54964 6.32632 8.27557 7.09015 7.37658 8.17585L5.57199 7.13397L4.57199 8.86603L6.37529 9.90716C6.13275 10.5588 6.0002 11.2639 6.0002 12C6.0002 12.736 6.13272 13.4411 6.37521 14.0926L4.57152 15.134L5.57152 16.866L7.37643 15.824C8.27542 16.9098 9.54956 17.6737 11.0002 17.917V20H13.0002V17.917C14.4508 17.6737 15.7248 16.9099 16.6238 15.8241L18.4284 16.866L19.4284 15.134L17.6251 14.0928C17.8676 13.4412 18.0002 12.7361 18.0002 12C18.0002 11.2638 17.8676 10.5586 17.625 9.90694L19.4279 8.86603L18.4279 7.13397L16.6237 8.17567C15.7247 7.09006 14.4507 6.3263 13.0002 6.08296V4Z" fill="#222221"/>
</svg>
