<svg width="24" height="24" viewBox="0 0 24 24" fill="none" xmlns="http://www.w3.org/2000/svg">
<path fill-rule="evenodd" clip-rule="evenodd" d="M13 6C13 6.55228 12.5523 7 12 7C11.4477 7 11 6.55228 11 6C11 5.44772 11.4477 5 12 5C12.5523 5 13 5.44772 13 6ZM13 8.82929C14.1652 8.41746 15 7.30622 15 6C15 4.34315 13.6569 3 12 3C10.3431 3 9 4.34315 9 6C9 7.30622 9.83481 8.41746 11 8.82929V10V12H3V15.1707C1.83481 15.5825 1 16.6938 1 18C1 19.6569 2.34315 21 4 21C5.65685 21 7 19.6569 7 18C7 16.6938 6.16519 15.5825 5 15.1707V14H11V15.1707C9.83481 15.5825 9 16.6938 9 18C9 19.6569 10.3431 21 12 21C13.6569 21 15 19.6569 15 18C15 16.6938 14.1652 15.5825 13 15.1707V14H19V15.1707C17.8348 15.5825 17 16.6938 17 18C17 19.6569 18.3431 21 20 21C21.6569 21 23 19.6569 23 18C23 16.6938 22.1652 15.5825 21 15.1707V12H13V10V8.82929ZM4 19C4.55228 19 5 18.5523 5 18C5 17.4477 4.55228 17 4 17C3.44772 17 3 17.4477 3 18C3 18.5523 3.44772 19 4 19ZM13 18C13 18.5523 12.5523 19 12 19C11.4477 19 11 18.5523 11 18C11 17.4477 11.4477 17 12 17C12.5523 17 13 17.4477 13 18ZM20 19C20.5523 19 21 18.5523 21 18C21 17.4477 20.5523 17 20 17C19.4477 17 19 17.4477 19 18C19 18.5523 19.4477 19 20 19Z" fill="#222221"/>
</svg>
