<svg width="24" height="24" viewBox="0 0 24 24" fill="none" xmlns="http://www.w3.org/2000/svg">
<path d="M10 15.5C10 16.3284 9.32843 17 8.5 17C7.67157 17 7 16.3284 7 15.5C7 14.6716 7.67157 14 8.5 14C9.32843 14 10 14.6716 10 15.5Z" fill="#222221"/>
<path d="M7.5 12C8.32843 12 9 11.3284 9 10.5C9 9.67157 8.32843 9 7.5 9C6.67157 9 6 9.67157 6 10.5C6 11.3284 6.67157 12 7.5 12Z" fill="#222221"/>
<path d="M13 7.5C13 8.32843 12.3284 9 11.5 9C10.6716 9 10 8.32843 10 7.5C10 6.67157 10.6716 6 11.5 6C12.3284 6 13 6.67157 13 7.5Z" fill="#222221"/>
<path d="M16.5 11C17.3284 11 18 10.3284 18 9.5C18 8.67157 17.3284 8 16.5 8C15.6716 8 15 8.67157 15 9.5C15 10.3284 15.6716 11 16.5 11Z" fill="#222221"/>
<path fill-rule="evenodd" clip-rule="evenodd" d="M2 12.5C2 6.70101 6.70101 2 12.5 2C18.299 2 23 6.70101 23 12.5L22 13.5C21.1057 13.5 19.7871 13.675 18.4735 14.0598C17.146 14.4486 15.943 15.0171 15.1844 15.7292C14.554 16.3208 14.1113 17.3331 13.8392 18.564C13.5729 19.7683 13.5 21.0409 13.5 22L12.5 23C6.70101 23 2 18.299 2 12.5ZM12.5 4C7.80558 4 4 7.80558 4 12.5C4 16.8651 7.29044 20.4618 11.5263 20.9448C11.5693 20.0852 11.6722 19.1007 11.8863 18.1322C12.1894 16.7618 12.7467 15.2741 13.8156 14.2708C14.9036 13.2498 16.4505 12.5683 17.9114 12.1404C18.9587 11.8336 20.0229 11.6396 20.9478 11.5529C20.4768 7.30422 16.8743 4 12.5 4Z" fill="#222221"/>
</svg>
