<svg width="24" height="24" viewBox="0 0 24 24" fill="none" xmlns="http://www.w3.org/2000/svg">
<path fill-rule="evenodd" clip-rule="evenodd" d="M14 2H10V4H8V5.00679C7.94327 5.00443 7.86789 5.00204 7.77641 5.00083C7.573 4.99812 7.28778 5.00116 6.94933 5.02349C6.27992 5.06767 5.36641 5.18954 4.45644 5.51381C3.54838 5.8374 2.57795 6.38666 1.89021 7.32759C1.18653 8.2903 0.859109 9.55322 1.0569 11.1348C1.20606 12.3274 1.66372 13.3084 2.37827 14.0752C3.08382 14.8324 3.99261 15.3307 4.97525 15.6494C5.90271 15.9502 6.93311 16.1028 8 16.1523V20H10V22H14V20H16V15.2045C16.5898 15.0655 17.1413 14.9236 17.6397 14.7881C18.4601 14.5651 19.1418 14.3578 19.6198 14.2058C19.8589 14.1298 20.0473 14.0675 20.177 14.0238C20.2418 14.002 20.292 13.9848 20.3265 13.9729L20.3663 13.9591L20.3772 13.9553L20.3819 13.9536C20.9027 13.7698 21.1759 13.1986 20.9921 12.6778C20.8083 12.1571 20.237 11.884 19.7163 12.0677L19.7148 12.0682L19.7072 12.0708L19.6741 12.0823C19.6442 12.0926 19.5988 12.1082 19.5389 12.1283C19.4191 12.1687 19.2413 12.2275 19.0137 12.2999C18.5581 12.4447 17.9039 12.6437 17.115 12.8582C16.7667 12.9529 16.3933 13.0503 16 13.1472V4H14V2ZM14 13.5921V6H10V14.1332C10.4304 14.107 10.8686 14.0677 11.3108 14.0172C12.2236 13.9128 13.1334 13.7631 14 13.5921ZM10 16.1367V18H14V15.6288C13.2036 15.778 12.3739 15.9087 11.5379 16.0042C11.031 16.0622 10.516 16.1079 10 16.1367ZM8 14.1499V7.00945C7.99277 7.00909 7.98552 7.00865 7.97826 7.00814L7.97136 7.00772C7.96322 7.00725 7.94916 7.00648 7.92959 7.0056C7.89042 7.00386 7.82938 7.00171 7.74983 7.00065C7.59032 6.99853 7.35862 7.00083 7.08104 7.01915C6.51839 7.05628 5.80345 7.15699 5.12779 7.39776C4.45022 7.63922 3.87786 7.99748 3.50487 8.50778C3.14781 8.99628 2.89658 9.72828 3.04144 10.8866C3.14241 11.6939 3.43485 12.2754 3.84146 12.7118C4.25707 13.1578 4.8405 13.5032 5.59226 13.747C6.29822 13.9759 7.11469 14.1033 8 14.1499Z" fill="#222221"/>
</svg>
