<svg width="24" height="24" viewBox="0 0 24 24" fill="none" xmlns="http://www.w3.org/2000/svg">
<path fill-rule="evenodd" clip-rule="evenodd" d="M12 0.5L5.19824 6.99987L7.81436 9.49986L6.64418 10.6181L5.19824 11.9999L6.64418 13.3816L7.81436 14.4999L5.19824 16.9999L11.9999 23.4996L18.8017 16.9997L16.186 14.5001L17.3562 13.3818L18.8022 12.0001L17.3562 10.6183L16.186 9.49996L18.802 7.00006L12 0.5ZM9.2603 10.8816L12.0002 13.4999L14.74 10.8817L15.9103 12.0001L12.0003 15.7365L8.09012 11.9999L9.2603 10.8816ZM8.09012 16.9999L9.2603 15.8816L10.5544 17.1183L12.0003 18.5L13.4463 17.1183L14.7401 15.8819L15.9098 16.9997L11.9999 20.7361L8.09012 16.9999Z" fill="#222221"/>
</svg>
