<svg width="24" height="24" viewBox="0 0 24 24" fill="none" xmlns="http://www.w3.org/2000/svg">
<path fill-rule="evenodd" clip-rule="evenodd" d="M7.37024 6.74974C8.60483 5.66007 10.2242 5 12.0002 5C15.4283 5 18.2809 7.46438 18.8831 10.7182L17.7592 9.80813L16.5005 11.3624L20.2529 14.401L23.2916 10.6487L21.7373 9.39001L20.8692 10.4619C20.1395 6.22411 16.4463 3 12.0002 3C9.71834 3 7.63272 3.85048 6.04678 5.25026L5.29704 5.91199L6.6205 7.41147L7.37024 6.74974ZM6.24136 14.1921L5.11726 13.2818C5.71939 16.5356 8.57198 19 12.0002 19C13.6565 19 15.1761 18.4259 16.3747 17.4651L17.1549 16.8397L18.4059 18.4001L17.6256 19.0256C16.085 20.2606 14.1276 21 12.0002 21C7.55411 21 3.86105 17.7761 3.13114 13.5385L2.26328 14.6102L0.708984 13.3516L3.74761 9.59916L7.5 12.6378L6.24136 14.1921Z" fill="#222221"/>
</svg>
