<svg width="24" height="24" viewBox="0 0 24 24" fill="none" xmlns="http://www.w3.org/2000/svg">
<path fill-rule="evenodd" clip-rule="evenodd" d="M16 12C16 14.2091 14.2091 16 12 16C9.79086 16 8 14.2091 8 12C8 9.79086 9.79086 8 12 8C14.2091 8 16 9.79086 16 12ZM14 12C14 13.1046 13.1046 14 12 14C10.8954 14 10 13.1046 10 12C10 10.8954 10.8954 10 12 10C13.1046 10 14 10.8954 14 12Z" fill="#222221"/>
<path fill-rule="evenodd" clip-rule="evenodd" d="M21.9189 11.6053L22.088 12L21.9192 12.3939L21.0001 12C21.9192 12.3939 21.9187 12.3952 21.9185 12.3955L21.9175 12.3978L21.9148 12.4043L21.9058 12.4247C21.8983 12.4415 21.8879 12.4649 21.8744 12.4944C21.8475 12.5533 21.8085 12.6365 21.7575 12.7406C21.6556 12.9488 21.5051 13.2412 21.3058 13.5899C20.9085 14.2851 20.3109 15.2157 19.5093 16.1508C17.9216 18.0031 15.4191 20 12.0001 20C8.58103 20 6.07855 18.0031 4.49082 16.1508C3.68927 15.2157 3.09161 14.2851 2.69433 13.5899C2.49507 13.2412 2.34457 12.9488 2.24264 12.7406C2.19164 12.6365 2.15268 12.5533 2.12576 12.4944C2.11229 12.4649 2.10183 12.4415 2.09436 12.4247L2.0854 12.4043L2.08261 12.3978L2.08093 12.3939L3.00008 12C2.08093 11.6061 2.08147 11.6048 2.08163 11.6045L2.08261 11.6022L2.0854 11.5957L2.09436 11.5753C2.10183 11.5585 2.11229 11.5351 2.12576 11.5056C2.15268 11.4467 2.19164 11.3635 2.24264 11.2594C2.34457 11.0512 2.49507 10.7588 2.69433 10.4101C3.09161 9.71488 3.68927 8.78435 4.49082 7.84921C6.07855 5.99685 8.58103 4 12.0001 4C15.4191 4 17.9216 5.99685 19.5093 7.84921C20.3109 8.78435 20.9085 9.71488 21.3058 10.4101C21.5051 10.7588 21.6556 11.0512 21.7575 11.2594C21.8085 11.3635 21.8475 11.4467 21.8744 11.5056C21.8879 11.5351 21.8983 11.5585 21.9058 11.5753L21.9148 11.5957L21.9175 11.6022L21.9189 11.6053ZM4.43082 12.5976C4.29723 12.3638 4.18964 12.1607 4.10812 12C4.18964 11.8393 4.29723 11.6362 4.43082 11.4024C4.78355 10.7851 5.31088 9.96565 6.00933 9.15079C7.4216 7.50315 9.41912 6 12.0001 6C14.581 6 16.5786 7.50315 17.9908 9.15079C18.6893 9.96565 19.2166 10.7851 19.5693 11.4024C19.7029 11.6362 19.8105 11.8393 19.892 12C19.8105 12.1607 19.7029 12.3638 19.5693 12.5976C19.2166 13.2149 18.6893 14.0343 17.9908 14.8492C16.5786 16.4969 14.581 18 12.0001 18C9.41912 18 7.4216 16.4969 6.00933 14.8492C5.31088 14.0343 4.78355 13.2149 4.43082 12.5976ZM21.0001 12C21.9192 11.6061 21.9191 11.6057 21.9189 11.6053L21.0001 12Z" fill="#222221"/>
<path d="M2.08093 11.6061L3.00008 12C2.08727 12.3912 2.08082 12.3935 2.08093 12.3939L1.91211 12L2.08093 11.6061Z" fill="#222221"/>
</svg>
