<svg width="24" height="24" viewBox="0 0 24 24" fill="none" xmlns="http://www.w3.org/2000/svg">
<path d="M13 16V18H11V16H13Z" fill="#222221"/>
<path d="M10.5087 8.66691C10.8764 8.25615 11.4075 8 11.9997 8C13.1043 8 13.9997 8.89543 13.9997 10C13.9997 11.1046 13.1043 12 11.9997 12H10.9997V14H11.9997C14.2089 14 15.9997 12.2091 15.9997 10C15.9997 7.79086 14.2089 6 11.9997 6C10.815 6 9.74947 6.51635 9.01848 7.33309L8.35156 8.07822L9.84183 9.41205L10.5087 8.66691Z" fill="#222221"/>
<path fill-rule="evenodd" clip-rule="evenodd" d="M12 22C17.5228 22 22 17.5228 22 12C22 6.47715 17.5228 2 12 2C6.47715 2 2 6.47715 2 12C2 17.5228 6.47715 22 12 22ZM12 20C16.4183 20 20 16.4183 20 12C20 7.58172 16.4183 4 12 4C7.58172 4 4 7.58172 4 12C4 16.4183 7.58172 20 12 20Z" fill="#222221"/>
</svg>
