<svg width="16" height="16" viewBox="0 0 16 16" fill="none" xmlns="http://www.w3.org/2000/svg">
<path d="M3.7957 11.15C3.65221 11.0672 3.60305 10.8837 3.68589 10.7402L5.53589 7.5359C5.67397 7.29676 5.97976 7.21482 6.21891 7.35289L8.817 8.8529L10.192 6.47132L8.75 5.63878L11.75 4.77275L12.5 7.80384L11.058 6.97132L9.43301 9.7859C9.29494 10.0251 8.98914 10.107 8.75 9.96892L6.15192 8.46891L4.55192 11.2402C4.46908 11.3837 4.2856 11.4328 4.14211 11.35L3.7957 11.15Z" fill="#747C94"/>
<path fill-rule="evenodd" clip-rule="evenodd" d="M3 1C1.89543 1 1 1.89543 1 3V13C1 14.1046 1.89543 15 3 15H13C14.1046 15 15 14.1046 15 13V3C15 1.89543 14.1046 1 13 1H3ZM2 13V3C2 2.44772 2.44772 2 3 2H13C13.5523 2 14 2.44772 14 3V13C14 13.5523 13.5523 14 13 14H3C2.44772 14 2 13.5523 2 13Z" fill="#747C94"/>
</svg>
