<svg width="24" height="24" viewBox="0 0 24 24" fill="none" xmlns="http://www.w3.org/2000/svg">
<path fill-rule="evenodd" clip-rule="evenodd" d="M3 4C2.99998 4.13133 3.02583 4.26139 3.07608 4.38273C3.12632 4.50407 3.19998 4.61433 3.29284 4.7072C3.3857 4.80008 3.49595 4.87375 3.61728 4.92402C3.73862 4.97428 3.86867 5.00015 4 5.00015C4.13134 5.00015 4.26138 4.97428 4.38272 4.92402C4.50406 4.87375 4.6143 4.80008 4.70716 4.7072C4.80002 4.61433 4.87368 4.50407 4.92393 4.38273C4.97417 4.26139 5.00002 4.13133 5 4C5.00002 3.86867 4.97417 3.73861 4.92393 3.61727C4.87368 3.49593 4.80002 3.38567 4.70716 3.29279C4.6143 3.19992 4.50406 3.12625 4.38272 3.07598C4.26138 3.02572 4.13134 2.99985 4 2.99985C3.86867 2.99985 3.73862 3.02572 3.61728 3.07598C3.49595 3.12625 3.3857 3.19992 3.29284 3.29279C3.19998 3.38567 3.12632 3.49593 3.07608 3.61727C3.02583 3.73861 2.99998 3.86867 3 4ZM6 3H21V5H6V3ZM10 8H21V10H10V8ZM15 13H21V15H15V13ZM6 18H21V20H6V18ZM7.07608 9.38273C7.02583 9.26138 6.99998 9.13133 7 9C6.99998 8.86866 7.02583 8.73861 7.07608 8.61727C7.12632 8.49593 7.19998 8.38567 7.29284 8.29279C7.3857 8.19992 7.49595 8.12625 7.61728 8.07598C7.73862 8.02572 7.86867 7.99985 8 7.99985C8.13134 7.99985 8.26138 8.02572 8.38272 8.07598C8.50405 8.12625 8.6143 8.19992 8.70716 8.29279C8.80002 8.38567 8.87368 8.49593 8.92392 8.61727C8.97417 8.73861 9.00002 8.86866 9 9C9.00002 9.13133 8.97417 9.26138 8.92392 9.38273C8.87368 9.50407 8.80002 9.61433 8.70716 9.7072C8.6143 9.80008 8.50405 9.87375 8.38272 9.92401C8.26138 9.97428 8.13134 10.0001 8 10.0001C7.86867 10.0001 7.73862 9.97428 7.61728 9.92401C7.49595 9.87375 7.3857 9.80008 7.29284 9.7072C7.19998 9.61433 7.12632 9.50407 7.07608 9.38273ZM12 14C12 14.1313 12.0258 14.2614 12.0761 14.3827C12.1263 14.5041 12.2 14.6143 12.2928 14.7072C12.3857 14.8001 12.4959 14.8738 12.6173 14.924C12.7386 14.9743 12.8687 15.0002 13 15.0002C13.1313 15.0002 13.2614 14.9743 13.3827 14.924C13.5041 14.8738 13.6143 14.8001 13.7072 14.7072C13.8 14.6143 13.8737 14.5041 13.9239 14.3827C13.9742 14.2614 14 14.1313 14 14C14 13.8687 13.9742 13.7386 13.9239 13.6173C13.8737 13.4959 13.8 13.3857 13.7072 13.2928C13.6143 13.1999 13.5041 13.1262 13.3827 13.076C13.2614 13.0257 13.1313 12.9998 13 12.9998C12.8687 12.9998 12.7386 13.0257 12.6173 13.076C12.4959 13.1262 12.3857 13.1999 12.2928 13.2928C12.2 13.3857 12.1263 13.4959 12.0761 13.6173C12.0258 13.7386 12 13.8687 12 14ZM3.07608 19.3827C3.02583 19.2614 2.99998 19.1313 3 19C2.99998 18.8687 3.02583 18.7386 3.07608 18.6173C3.12632 18.4959 3.19998 18.3857 3.29284 18.2928C3.3857 18.1999 3.49595 18.1262 3.61728 18.076C3.73862 18.0257 3.86867 17.9998 4 17.9998C4.13134 17.9998 4.26138 18.0257 4.38272 18.076C4.50406 18.1262 4.6143 18.1999 4.70716 18.2928C4.80002 18.3857 4.87368 18.4959 4.92393 18.6173C4.97417 18.7386 5.00002 18.8687 5 19C5.00002 19.1313 4.97417 19.2614 4.92393 19.3827C4.87368 19.5041 4.80002 19.6143 4.70716 19.7072C4.6143 19.8001 4.50406 19.8738 4.38272 19.924C4.26138 19.9743 4.13134 20.0001 4 20.0001C3.86867 20.0001 3.73862 19.9743 3.61728 19.924C3.49595 19.8738 3.3857 19.8001 3.29284 19.7072C3.19998 19.6143 3.12632 19.5041 3.07608 19.3827Z" fill="#747C94"/>
</svg>
