<svg width="24" height="24" viewBox="0 0 24 24" fill="none" xmlns="http://www.w3.org/2000/svg">
<path d="M7.93214 12.9645C7.93214 12.9645 9.40075 10.0174 15.5331 11.7191C15.5331 11.7191 16.4642 13.0182 20.4493 12.6156C20.4493 12.6156 18.4242 14.5508 17.0451 17.6885C17.0451 17.6885 15.7068 21.8945 7.85341 20.8262C7.85341 20.8262 1.36274 19.3258 2.3943 13.7161C2.3943 13.7161 3.44757 8.85785 9.16729 8.07947L9.80523 7.91305C9.80523 7.91305 7.7774 6.7911 3.75704 8.58944L2.58975 9.12626L0 8.88469C0 8.88469 1.03699 6.6569 3.5073 5.15381H3.75704L7.47065 2.92601L5.44554 4.75119L8.16288 3.57019C8.16288 3.57019 12.4113 2.46703 14.0129 2L8.79267 5.26117C8.79267 5.26117 11.4557 4.69751 12.718 4.67067L13.0058 5.26117C13.0058 5.26117 15.6878 5.18065 17.3057 6.01272C17.3057 6.01272 16.1819 8.45524 24 7.40844L23.5467 7.91305L20.6257 8.96522L19.567 9.28731L20.3 9.64161L20.6257 9.87781H16.3692C16.3692 9.87781 11.3064 6.33212 7.59552 11.032C7.59552 11.032 3.46929 15.7506 7.1639 19.1379C7.1639 19.1379 13.7577 22.4394 15.0227 14.4408C15.0227 14.4408 14.0075 10.3636 8.90397 13.0719C8.90397 13.0719 9.93281 14.3576 8.93112 14.787C8.93112 14.787 6.59382 15.3399 8.00814 13.0719" fill="#E41E26"/>
</svg>
