<svg width="24" height="24" viewBox="0 0 24 24" fill="none" xmlns="http://www.w3.org/2000/svg">
<path d="M13.1999 7.80005C10.6499 6.90005 6.7499 5.10005 6.7499 5.10005C6.4499 5.10005 6.4499 5.25005 6.4499 5.25005C6.4499 6.45005 7.0499 8.10005 7.3499 8.55005C7.7999 8.85005 12.8999 10.5 12.8999 10.5C12.8999 10.5 8.9999 9.75005 7.9499 9.45005C7.0499 9.15005 7.3499 9.75005 7.3499 9.75005C7.4999 10.8 8.3999 12 9.1499 12.15C9.8999 12.3 12.8999 12.15 12.8999 12.15C12.8999 12.15 12.2999 12.15 11.2499 12.3C10.6499 12.45 9.7499 12.6 9.4499 12.75C8.8499 12.9 9.8999 13.8 9.8999 13.8C11.3999 15.15 12.1499 14.7 12.1499 14.7C12.7499 14.55 13.1999 14.4 13.6499 14.25L13.1999 16.35H14.6999L13.7999 19.5L17.3999 14.85H15.5999L16.0499 14.25C16.0499 14.25 17.3999 12.15 17.8499 11.1C17.9999 10.95 17.9999 10.8 17.9999 10.65C18.1499 9.30005 15.8999 8.85005 13.1999 7.80005ZM12.1499 1.05005C5.8499 1.05005 0.899902 6.15005 0.899902 12.3C0.899902 18.45 5.9999 23.55 12.1499 23.55C18.4499 23.55 23.3999 18.45 23.3999 12.3C23.3999 6.15005 18.4499 1.05005 12.1499 1.05005ZM12.1499 22.8C6.2999 22.8 1.6499 18.15 1.6499 12.3C1.6499 6.45005 6.2999 1.80005 12.1499 1.80005C17.9999 1.80005 22.6499 6.45005 22.6499 12.3C22.6499 18.15 17.9999 22.8 12.1499 22.8Z" fill="#747C94"/>
</svg>
