<svg width="24" height="24" viewBox="0 0 24 24" fill="none" xmlns="http://www.w3.org/2000/svg">
<path d="M2.17276 0.0939941H21.5898C22.147 0.0956108 22.6809 0.317675 23.0749 0.711678C23.4689 1.10568 23.691 1.6396 23.6926 2.1968V6.73688C19.9659 6.70829 15.2303 7.62948 12.3998 8.71714C8.8468 10.0826 6.77922 11.3342 5.77531 12.6634C4.77241 13.992 6.7302 14.4567 8.62978 14.47C10.5294 14.4833 12.1465 13.0525 15.1047 11.3474C17.4133 10.0167 20.5716 8.78301 23.6926 7.76429V15.3396C22.1694 14.5614 20.33 14.0181 16.4722 14.2188C12.2543 14.4373 6.46876 15.504 2.94382 17.9331C7.17293 17.6028 12.2696 17.5537 15.912 17.6625C18.9319 17.7534 21.7302 18.9422 23.6926 18.8497V21.6133C23.691 22.1705 23.4689 22.7044 23.0749 23.0984C22.6809 23.4924 22.147 23.7145 21.5898 23.7161H2.17276C1.61555 23.7145 1.08163 23.4924 0.687631 23.0984C0.293627 22.7044 0.0715629 22.1705 0.0699463 21.6133V15.9636C1.64271 14.4332 3.27624 12.9713 4.83522 11.6181C7.5799 9.23646 11.3469 7.32105 12.1077 6.33348C12.8686 5.34591 10.5196 3.84514 8.81565 4.15867C7.11114 4.47272 5.62161 6.21195 3.02807 8.67629C2.07522 9.58165 1.03352 10.8174 0.0699463 12.192V2.1968C0.0715629 1.6396 0.293627 1.10568 0.687631 0.711678C1.08163 0.317675 1.61555 0.0956108 2.17276 0.0939941Z" fill="#E30016"/>
</svg>
