<svg width="24" height="24" viewBox="0 0 24 24" fill="none" xmlns="http://www.w3.org/2000/svg">
<path d="M16.8 0C20.7765 0 24 3.2235 24 7.2V16.8C24 20.7765 20.7765 24 16.8 24H7.2C3.2235 24 0 20.7765 0 16.8V7.2C0 3.2235 3.2235 0 7.2 0H16.8ZM12.4128 7.5123H5.358C5.34496 7.51242 5.33207 7.5151 5.32007 7.5202C5.30806 7.5253 5.29718 7.53272 5.28805 7.54202C5.27891 7.55132 5.27169 7.56234 5.26681 7.57443C5.26193 7.58652 5.25948 7.59946 5.2596 7.6125V16.3455C5.25952 16.3585 5.262 16.3714 5.26691 16.3834C5.27181 16.3955 5.27903 16.4064 5.28817 16.4157C5.29731 16.4249 5.30818 16.4323 5.32016 16.4373C5.33214 16.4424 5.345 16.445 5.358 16.4451H7.2426C7.2969 16.4451 7.341 16.4001 7.341 16.3446V9.4905C7.341 9.435 7.3851 9.3897 7.4394 9.3897H11.4918C12.2529 9.3897 12.87 10.0227 12.87 10.803V16.3446C12.87 16.4001 12.9141 16.4451 12.9681 16.4451H14.8251C14.8381 16.4449 14.8509 16.4422 14.8629 16.4371C14.8748 16.432 14.8857 16.4246 14.8948 16.4153C14.9038 16.406 14.911 16.395 14.9158 16.3829C14.9207 16.3708 14.9231 16.3579 14.9229 16.3449V10.0872C14.9229 8.6652 13.7994 7.5123 12.4131 7.5123H12.4128ZM11.019 10.992H9.135C9.12192 10.9922 9.109 10.9949 9.09698 11C9.08495 11.0052 9.07406 11.0127 9.06492 11.022C9.05578 11.0314 9.04858 11.0424 9.04372 11.0546C9.03886 11.0667 9.03644 11.0797 9.0366 11.0928V16.3449C9.0366 16.4007 9.0804 16.4454 9.135 16.4454H11.019C11.0451 16.4454 11.07 16.4349 11.0883 16.4163C11.1069 16.3972 11.1172 16.3716 11.1171 16.3449V11.0925C11.1172 11.0659 11.1069 11.0402 11.0883 11.0211C11.0793 11.0118 11.0685 11.0044 11.0566 10.9994C11.0447 10.9943 11.0319 10.9917 11.019 10.9917V10.992ZM18.5526 7.5129H16.6692C16.6146 7.5129 16.5702 7.5579 16.5702 7.6137V16.3449C16.5702 16.4007 16.6146 16.4454 16.6692 16.4454H18.5526C18.6072 16.4454 18.6513 16.4004 18.6513 16.3449V7.6134C18.6514 7.58675 18.6411 7.56112 18.6225 7.542C18.6134 7.53267 18.6025 7.52525 18.5905 7.5202C18.5785 7.51515 18.5656 7.51257 18.5526 7.5126V7.5129Z" fill="#FF6A00"/>
</svg>
