<svg width="24" height="24" viewBox="0 0 24 24" fill="none" xmlns="http://www.w3.org/2000/svg">
<rect width="24" height="24" fill="white"/>
<path d="M1.17973 1.62705C1.23208 1.59706 1.29956 1.59346 1.38649 1.56834C1.56799 1.51467 2.41654 1.50003 5.51578 1.50003C7.6621 1.50003 9.44541 1.51467 9.48171 1.53906C9.51801 1.56346 9.53162 1.62201 9.51347 1.67568C9.49986 1.72935 8.96895 2.29534 8.33821 2.93451C7.71201 3.57368 7.19472 4.11039 7.19472 4.12991C7.19472 4.14454 7.36715 4.31043 7.58042 4.49584C10.2531 6.81345 12.2633 10.4777 13.2934 14.9129C13.7426 16.8353 13.9513 18.504 14.0058 20.5239C14.0285 21.3827 14.0239 21.5486 13.9604 21.7096C13.847 21.9828 13.5974 22.256 13.3297 22.3829C13.1028 22.4951 13.0483 22.5 12.1181 22.5C11.197 22.5 11.1289 22.4951 10.9156 22.3878C10.6434 22.2512 10.421 22.0316 10.2894 21.7681C10.2168 21.6217 10.1896 21.4607 10.1805 21.1094C10.0898 18.3381 9.79481 16.3669 9.16407 14.2883C8.19301 11.1071 6.68196 8.6773 4.84874 7.3648L4.40404 7.04765L2.95199 8.57483C2.15335 9.41893 1.45001 10.1313 1.38649 10.1703C1.25489 10.2435 1.1233 10.1898 1.04616 10.0337C1.0144 9.97516 1.00078 8.5602 1.00078 5.89617C1.00078 2.25057 0.977895 1.74267 1.17973 1.62705ZM14.7138 1.72442C14.6775 1.67562 14.6638 1.60244 14.6775 1.5634C14.7002 1.50485 15.222 1.4951 18.7387 1.50485L22.7772 1.51949L22.8816 1.63171L22.986 1.74393L22.995 5.8522C23.0073 9.75034 23.0085 10.1374 22.8627 10.2043C22.8467 10.2117 22.8288 10.2152 22.809 10.2191C22.75 10.2337 22.3008 9.77993 21.2435 8.64797L19.7597 7.05736L19.4919 7.23301C17.5544 8.4772 15.8482 11.2486 14.868 14.7225L14.7138 15.2788L14.6684 15.0836C14.6412 14.9763 14.5549 14.6152 14.4778 14.2785C14.1965 13.0734 13.6565 11.4486 13.0983 10.1459C12.9577 9.81897 12.8442 9.52622 12.8442 9.50182C12.8442 9.37984 13.4931 8.22348 13.9242 7.57943C14.5958 6.57432 15.5895 5.44723 16.5061 4.65192C16.7875 4.40796 17.0144 4.19328 17.0098 4.17864C17.0008 4.16401 16.4971 3.62729 15.8845 2.98324C15.2719 2.33919 14.7455 1.77321 14.7138 1.72442Z" fill="#2E70E0"/>
</svg>
