<svg width="24" height="24" viewBox="0 0 24 24" fill="none" xmlns="http://www.w3.org/2000/svg">
<path d="M15.7291 8.20798C15.2561 8.17098 14.7481 8.28398 13.9701 8.58098C14.0361 8.55598 13.2281 8.87098 13.0021 8.95098C12.5001 9.12598 12.0871 9.22198 11.6241 9.22198C11.1661 9.22198 10.7441 9.12998 10.2581 8.96698C10.1031 8.91397 9.94706 8.85698 9.75306 8.78098C9.67106 8.74898 9.37106 8.62898 9.30506 8.60398C8.65706 8.34998 8.29206 8.25398 7.98906 8.26198C6.83706 8.27698 5.74606 8.94197 5.11306 10.044C3.82106 12.288 4.53606 16.343 6.42506 19.075C7.43106 20.519 7.98106 21.035 8.20306 21.028C8.42506 21.018 8.58806 20.971 8.98606 20.803L9.15306 20.732C10.1581 20.303 10.8631 20.114 11.9241 20.114C12.9451 20.114 13.6271 20.3 14.5921 20.716L14.7601 20.788C15.1581 20.958 15.3021 20.996 15.5521 20.99C15.9101 20.985 16.3511 20.573 17.3301 19.136C17.5981 18.745 17.8351 18.333 18.0401 17.916C17.9053 17.805 17.7746 17.6893 17.6481 17.569C16.3591 16.341 15.5621 14.685 15.5401 12.639C15.5185 11.1251 16.0161 9.64959 16.9501 8.45798C16.5581 8.31327 16.1464 8.22897 15.7291 8.20798ZM15.8841 6.21398C16.5921 6.26198 18.6201 6.47798 19.9401 8.40998C19.8321 8.46998 17.5161 9.81397 17.5401 12.622C17.5761 15.982 20.4801 17.098 20.5161 17.11C20.4921 17.194 20.0481 18.706 18.9801 20.266C18.0561 21.622 17.0961 22.966 15.5841 22.99C14.0961 23.026 13.6161 22.114 11.9241 22.114C10.2201 22.114 9.69206 22.966 8.28806 23.026C6.82406 23.074 5.72006 21.562 4.78406 20.218C2.87606 17.458 1.42406 12.442 3.38006 9.04597C4.35206 7.35397 6.08006 6.28598 7.96406 6.26198C9.39206 6.22598 10.7481 7.22198 11.6241 7.22198C12.4881 7.22198 14.0361 6.06998 15.8841 6.21398ZM14.7441 4.38998C13.9641 5.32598 12.6921 6.05798 11.4561 5.96198C11.2881 4.68998 11.9121 3.35798 12.6321 2.52998C13.4361 1.59398 14.7801 0.897976 15.8961 0.849976C16.0401 2.14598 15.5241 3.45398 14.7441 4.38998Z" fill="#747C94"/>
</svg>
