<svg width="24" height="24" viewBox="0 0 24 24" fill="none" xmlns="http://www.w3.org/2000/svg">
<path d="M19.1249 12.3001C19.1999 12.6001 19.2749 12.8251 19.3499 13.0501C19.5749 13.5751 19.8749 14.0251 20.2499 14.4001C20.3999 14.5501 20.3999 14.7001 20.3249 14.8501C20.1749 15.0001 20.0249 15.0001 19.8749 14.8501C19.4249 14.3251 18.8249 14.0251 18.1499 13.8001C17.9999 13.7251 17.8499 13.7251 17.6999 13.7251C17.3249 13.6501 17.0249 13.4251 16.8749 13.0501C16.6499 12.6001 16.7249 12.1501 17.0249 11.7751C17.3249 11.4001 17.7749 11.2501 18.2999 11.4001C18.7499 11.4751 18.9749 11.8501 19.1249 12.3001ZM12.7499 16.6501C12.7499 16.5001 12.6749 16.5001 12.5999 16.5001C11.0999 16.9501 9.5249 16.9501 7.9499 16.5001C7.6499 16.5001 7.3499 16.5001 7.0499 16.6501C6.5999 16.9501 6.0749 17.2501 5.5499 17.4751C5.4749 17.4751 5.3999 17.5501 5.3249 17.4751C5.2499 17.4001 5.3249 17.3251 5.3249 17.2501C5.3999 16.8751 5.5499 16.5001 5.6249 16.1251C5.7749 15.7501 5.6249 15.4501 5.3249 15.2251C5.0249 15.0001 4.7999 14.7751 4.5749 14.5501C3.5999 13.5751 3.0749 12.4501 2.9249 11.0251C2.8499 9.37506 3.4499 7.95006 4.5749 6.82506C5.9999 5.40006 7.7999 4.72506 9.7499 4.72506C11.6999 4.65006 13.4999 5.17506 15.0749 6.45006C16.0499 7.27506 16.7249 8.25006 17.0999 9.45006C17.2499 9.97506 17.2499 10.5001 17.2499 11.0251C17.8499 10.7251 18.2999 10.8001 18.8249 11.2501C18.8999 10.4251 18.8249 9.60006 18.5249 8.85006C17.8499 6.75006 16.4249 5.25006 14.5499 4.27506C12.4499 3.22506 10.1999 2.92506 7.8749 3.45006C5.6999 4.05006 3.7499 5.25006 2.4749 7.27506C1.2749 9.22506 1.1249 11.2501 1.9499 13.3501C2.3999 14.4751 3.1499 15.3751 4.0499 16.2001C4.1249 16.2751 4.1999 16.3501 4.1999 16.4251C4.1249 17.1001 4.0499 17.7001 3.8999 18.3751C3.8249 18.6751 3.8999 18.9001 4.1249 19.1251C4.3499 19.3501 4.6499 19.2751 4.8749 19.1251C5.6249 18.7501 6.4499 18.3751 7.1999 17.9251C7.4249 18.0001 7.4999 17.9251 7.5749 18.0001C8.1749 18.1501 8.7749 18.3001 9.3749 18.3001C10.7999 18.3751 12.1499 18.2251 13.4999 17.7751C13.0499 17.5501 12.7499 17.1751 12.7499 16.6501ZM21.3749 14.7751C20.7749 14.7001 20.1749 15.0751 20.0999 15.6751C19.9499 16.5001 19.5749 17.2501 18.8999 17.9251C18.7499 18.0751 18.7499 18.2251 18.8999 18.3751C19.0499 18.5251 19.1999 18.4501 19.3499 18.3001C19.9499 17.7001 20.6999 17.3251 21.5249 17.1751C22.0499 17.1001 22.4999 16.5751 22.4999 15.9751C22.4249 15.3751 21.9749 14.8501 21.3749 14.7751ZM18.1499 18.3001C17.4749 18.1501 16.8749 17.9251 16.3499 17.4751L15.9749 17.1001C15.8249 16.9501 15.5249 17.0251 15.5249 17.2501C15.5249 17.4001 15.5999 17.4751 15.6749 17.5501C16.2749 18.1501 16.6499 18.8251 16.7999 19.6501C16.8749 20.2501 17.3999 20.6251 17.9999 20.6251C18.5999 20.6251 19.1249 20.1751 19.1999 19.5001C19.1999 18.9751 18.7499 18.4501 18.1499 18.3001ZM15.6749 16.2001C15.8249 15.4501 16.1999 14.8501 16.7249 14.3251C16.8749 14.1751 16.8749 14.0251 16.7999 13.8751C16.6499 13.7251 16.4999 13.7251 16.3499 13.8751C15.7499 14.4751 14.9999 14.8501 14.1749 15.0001C13.5749 15.0751 13.1999 15.6001 13.1999 16.2001C13.1999 16.8001 13.6499 17.3251 14.2499 17.4001C14.8499 17.4751 15.3749 17.1001 15.5249 16.5001C15.5999 16.4251 15.5999 16.2751 15.6749 16.2001Z" fill="#747C94"/>
</svg>
