<svg width="24" height="24" viewBox="0 0 24 24" fill="none" xmlns="http://www.w3.org/2000/svg">
<path d="M21 12C21 16.9706 16.9706 21 12 21C10.854 21 9.75802 20.7858 8.74992 20.3953C8.50535 21.0523 8.09306 21.6277 7.56509 22.0694C8.92169 22.6677 10.422 23 12 23C18.0751 23 23 18.0751 23 12C23 10.422 22.6677 8.92169 22.0694 7.56509C21.6277 8.09306 21.0523 8.50535 20.3953 8.74992C20.7858 9.75802 21 10.854 21 12Z" fill="#747C94"/>
<path d="M3 12C3 13.146 3.21419 14.242 3.60473 15.2501C2.94771 15.4946 2.37232 15.9069 1.93062 16.4349C1.33226 15.0783 1 13.578 1 12C1 5.92487 5.92487 1 12 1C13.578 1 15.0783 1.33226 16.4349 1.93062C15.9069 2.37232 15.4946 2.94771 15.2501 3.60473C14.242 3.21419 13.146 3 12 3C7.02944 3 3 7.02944 3 12Z" fill="#747C94"/>
<path d="M18.0711 11L7.46449 7.46447L11 18.0711L13.1213 13.1213L18.0711 11Z" fill="#747C94"/>
<path d="M21 5C21 6.10457 20.1046 7 19 7C17.8954 7 17 6.10457 17 5C17 3.89543 17.8954 3 19 3C20.1046 3 21 3.89543 21 5Z" fill="#747C94"/>
<path d="M5 21C6.10457 21 7 20.1046 7 19C7 17.8954 6.10457 17 5 17C3.89543 17 3 17.8954 3 19C3 20.1046 3.89543 21 5 21Z" fill="#747C94"/>
</svg>
