<svg width="24" height="24" viewBox="0 0 24 24" fill="none" xmlns="http://www.w3.org/2000/svg">
<path d="M3 4H6V7H3V4Z" fill="#747C94"/>
<path d="M18 4H21V13H18V10.5953C16.9914 10.7394 16.4385 11.0224 16.0954 11.2718C15.5288 11.684 15.1802 12.2287 14.495 13.325C13.8649 14.3332 12.9612 15.7685 11.298 16.8474C9.91377 17.7453 8.19707 18.2834 6 18.4467V20H3V9H6V13.4275C7.34031 13.286 8.1032 12.9599 8.57702 12.6526C9.22628 12.2315 9.63514 11.6668 10.255 10.675C10.2952 10.6108 10.3367 10.5437 10.3797 10.4743C10.9424 9.56626 11.7651 8.23872 13.1546 7.22816C14.4292 6.30114 16.0015 5.74406 18 5.56421V4Z" fill="#747C94"/>
<path d="M18 20V15H21V20H18Z" fill="#747C94"/>
</svg>
