<svg width="24" height="24" viewBox="0 0 24 24" fill="none" xmlns="http://www.w3.org/2000/svg">
<path d="M5 5C5 3.34315 6.34315 2 8 2H20C21.6569 2 23 3.34315 23 5V19C23 20.6569 21.6569 22 20 22H13V20H20C20.5523 20 21 19.5523 21 19V5C21 4.44772 20.5523 4 20 4H8C7.44772 4 7 4.44772 7 5V8H5V5Z" fill="#747C94"/>
<path d="M9 13C9 14.6569 7.65685 16 6 16C4.34315 16 3 14.6569 3 13C3 11.3431 4.34315 10 6 10C7.65685 10 9 11.3431 9 13Z" fill="#747C94"/>
<path d="M1 21C1 18.7909 2.79086 17 5 17H7C9.20914 17 11 18.7909 11 21V22C11 22.5523 10.5523 23 10 23H2C1.44772 23 1 22.5523 1 22V21Z" fill="#747C94"/>
<path d="M13 8H15V16H13V8Z" fill="#747C94"/>
<path d="M19 12H17V16H19V12Z" fill="#747C94"/>
</svg>
