<svg width="24" height="24" viewBox="0 0 24 24" fill="none" xmlns="http://www.w3.org/2000/svg">
<path d="M22 2H2V5H22V2Z" fill="#747C94"/>
<path d="M18.8911 17.4769C20.561 15.1337 20.3449 11.8596 18.2426 9.75736C15.8995 7.41421 12.1005 7.41421 9.75736 9.75736C7.41421 12.1005 7.41421 15.8995 9.75736 18.2426C11.8596 20.3449 15.1337 20.561 17.4769 18.8911L20.364 21.7782L21.7782 20.364L18.8911 17.4769ZM16.8284 16.8284C15.2663 18.3905 12.7337 18.3905 11.1716 16.8284C9.60948 15.2663 9.60948 12.7337 11.1716 11.1716C12.7337 9.60948 15.2663 9.60948 16.8284 11.1716C18.3905 12.7337 18.3905 15.2663 16.8284 16.8284Z" fill="#747C94"/>
<path d="M2 12H6V14H2V12Z" fill="#747C94"/>
<path d="M6 16H2V18H6V16Z" fill="#747C94"/>
<path d="M2 20H6V22H2V20Z" fill="#747C94"/>
<path d="M6 8H2V10H6V8Z" fill="#747C94"/>
</svg>
