<svg width="16" height="16" viewBox="0 0 16 16" fill="none" xmlns="http://www.w3.org/2000/svg">
<path d="M7.99999 11.5H8.99999V4.49996H8.85839L6.49999 5.17965V5.99996H7.99999V11.5Z" fill="#747C94"/>
<path d="M1.35362 7.01038C0.767829 7.59617 0.76783 8.54591 1.35362 9.1317L7.01047 14.7886C7.59626 15.3743 8.546 15.3743 9.13179 14.7886L14.7886 9.1317C15.3744 8.54591 15.3744 7.59616 14.7886 7.01038L9.13179 1.35352C8.546 0.767738 7.59626 0.767738 7.01047 1.35352L1.35362 7.01038ZM2.06072 8.42459C1.86546 8.22933 1.86546 7.91275 2.06072 7.71749L7.71758 2.06063C7.91284 1.86537 8.22942 1.86537 8.42468 2.06063L14.0815 7.71749C14.2768 7.91275 14.2768 8.22933 14.0815 8.42459L8.42468 14.0814C8.22942 14.2767 7.91284 14.2767 7.71758 14.0814L2.06072 8.42459Z" fill="#747C94"/>
</svg>
