<svg width="24" height="24" viewBox="0 0 24 24" fill="none" xmlns="http://www.w3.org/2000/svg">
<path d="M16.9127 13.5695L11.4662 18.5053L7.58594 14.625L9.00015 13.2108L11.5341 15.7447L15.5696 12.0875L16.9127 13.5695Z" fill="#747C94"/>
<path fill-rule="evenodd" clip-rule="evenodd" d="M8 2V4H16V2H18V4H19.2C20.7701 4 22 5.29828 22 6.84615V19.1538C22 20.7017 20.7701 22 19.2 22H4.8C3.22989 22 2 20.7017 2 19.1538V6.84615C2 5.29828 3.22989 4 4.8 4H6V2H8ZM16 6V7H18V6H19.2C19.6181 6 20 6.35482 20 6.84615V9H4V6.84615C4 6.35482 4.38189 6 4.8 6H6V7H8V6H16ZM4 11V19.1538C4 19.6452 4.38189 20 4.8 20H19.2C19.6181 20 20 19.6452 20 19.1538V11H4Z" fill="#747C94"/>
</svg>
