<svg width="24" height="24" viewBox="0 0 24 24" fill="none" xmlns="http://www.w3.org/2000/svg">
<path fill-rule="evenodd" clip-rule="evenodd" d="M18.0058 3.04297L20.0487 1L21.463 2.41421L19.8015 4.07568C20.251 4.61318 20.5 5.29377 20.5 6.00004V9.70004C20.5 10.0979 20.658 10.4794 20.9393 10.7607C21.2206 11.042 21.6022 11.2 22 11.2H22.5V12.8H22C21.6022 12.8 21.2206 12.9581 20.9393 13.2394C20.658 13.5207 20.5 13.9022 20.5 14.3V18C20.5 18.7957 20.1839 19.5588 19.6213 20.1214C19.0587 20.684 18.2956 21 17.5 21H16.5V19H17.5C17.7652 19 18.0196 18.8947 18.2071 18.7071C18.3946 18.5196 18.5 18.2653 18.5 18V13.9C18.4999 13.479 18.6327 13.0687 18.8794 12.7276C19.1261 12.3864 19.4741 12.1318 19.874 12C19.4741 11.8683 19.1261 11.6137 18.8794 11.2725C18.6327 10.9314 18.4999 10.5211 18.5 10.1V6.00004C18.5 5.82574 18.4545 5.65614 18.3701 5.5071L15.9129 7.96423L16.068 8.42404L15.2243 8.65283L14.3816 9.49554L15.396 10.644L14.544 11.316L13.737 10.1402L9.7027 14.1745C10.177 14.4264 10.5 14.9255 10.5 15.5C10.5 16.3285 9.82843 17 9 17C8.42548 17 7.9264 16.677 7.67444 16.2027L5.55374 18.3234C5.60266 18.4666 5.6839 18.5982 5.79289 18.7071C5.98043 18.8947 6.23478 19 6.5 19H7.5V21H6.5C5.70435 21 4.94129 20.684 4.37868 20.1214C4.27381 20.0165 4.17751 19.9047 4.09022 19.787L1.41421 22.463L0 21.0487L3.5 17.5487V14.3C3.5 13.9022 3.34196 13.5207 3.06066 13.2394C2.77936 12.9581 2.39782 12.8 2 12.8H1.5V11.2H2C2.19698 11.2 2.39204 11.1612 2.57403 11.0859C2.75601 11.0105 2.92137 10.9 3.06066 10.7607C3.19995 10.6214 3.31044 10.4561 3.38582 10.2741C3.4612 10.0921 3.5 9.89702 3.5 9.70004V6.00004C3.5 5.20439 3.81607 4.44133 4.37868 3.87872C4.94129 3.31611 5.70435 3.00004 6.5 3.00004H7.5V5.00004H6.5C6.23478 5.00004 5.98043 5.1054 5.79289 5.29293C5.60536 5.48047 5.5 5.73482 5.5 6.00004V10.1C5.5001 10.5211 5.36735 10.9314 5.12064 11.2725C4.87393 11.6137 4.52586 11.8683 4.126 12C4.52586 12.1318 4.87393 12.3864 5.12064 12.7276C5.36735 13.0687 5.5001 13.479 5.5 13.9V15.5487L12.1694 8.87933L10.5 8.42404L10.848 7.39204L12.8474 8.20133L12.8627 8.18606L12.732 6.00004H13.836L13.7589 7.28985L16.5 4.54875V3.00004H17.5C17.6706 3.00004 17.8398 3.01458 18.0058 3.04297Z" fill="#747C94"/>
</svg>
