<svg width="24" height="24" viewBox="0 0 24 24" fill="none" xmlns="http://www.w3.org/2000/svg">
<path fill-rule="evenodd" clip-rule="evenodd" d="M9.4707 13.9355V19H7V5H12.4395C14.028 5 15.2878 5.41341 16.2188 6.24023C17.1562 7.06706 17.625 8.16081 17.625 9.52148C17.625 10.9147 17.166 11.9987 16.248 12.7734C15.3366 13.5482 14.0573 13.9355 12.4102 13.9355H9.4707ZM9.4707 11.9531H12.4395C13.3184 11.9531 13.9889 11.748 14.4512 11.3379C14.9134 10.9212 15.1445 10.3223 15.1445 9.54102C15.1445 8.77279 14.9102 8.16081 14.4414 7.70508C13.9727 7.24284 13.3281 7.00521 12.5078 6.99219H9.4707V11.9531Z" fill="#747C94"/>
<path d="M4 3V5H3V19H4V21H1V3H4Z" fill="#747C94"/>
<path d="M20 3H23V21H20V19H21V5H20V3Z" fill="#747C94"/>
</svg>
