<svg width="24" height="24" viewBox="0 0 24 24" fill="none" xmlns="http://www.w3.org/2000/svg">
<path d="M12.9999 1H10.9999V8H12.9999V1Z" fill="#747C94"/>
<path d="M6.99988 3H8.99988V6H6.99988V3Z" fill="#747C94"/>
<path d="M14.9999 3H16.9999V6H14.9999V3Z" fill="#747C94"/>
<path fill-rule="evenodd" clip-rule="evenodd" d="M3.55778 5.8741L2.97363 6.21136C2.66423 6.39 2.47363 6.72012 2.47363 7.07739V16.9227C2.47363 17.28 2.66423 17.6101 2.97363 17.7887L11.4999 22.7114C11.8093 22.89 12.1905 22.89 12.4999 22.7114L21.0262 17.7887C21.3356 17.6101 21.5262 17.28 21.5262 16.9227V7.07739C21.5262 6.72012 21.3356 6.39 21.0262 6.21136L20.442 5.87408L11.9998 10.8398L3.55778 5.8741ZM11.9998 13.1602L19.5262 8.7329V14.3453L11.9999 18.6906L4.47363 14.3453V8.73301L11.9998 13.1602Z" fill="#747C94"/>
</svg>
