<svg width="76" height="76" viewBox="0 0 76 76" fill="none" xmlns="http://www.w3.org/2000/svg">
<path opacity="0.3" d="M38.044 36.973L16.5856 49.7713L38.044 61.6216L59.036 49.7713L38.044 36.973Z" fill="url(#paint0_linear_4703_654)"/>
<path opacity="0.5" d="M38.044 30.1261L16.5856 42.9244L38.044 54.7747L59.036 42.9244L38.044 30.1261Z" fill="url(#paint1_linear_4703_654)"/>
<path opacity="0.5" d="M38.044 23.2793L16.5856 36.0776L38.044 47.9279L59.036 36.0776L38.044 23.2793Z" fill="url(#paint2_linear_4703_654)"/>
<path d="M7 18.4865V57.5135L38.4955 76V35.6036L7 18.4865Z" fill="url(#paint3_linear_4703_654)"/>
<path d="M69.3063 57.5135V18.4865L38.4955 35.6036V76L69.3063 57.5135Z" fill="url(#paint4_linear_4703_654)"/>
<path d="M38.4955 0L7 18.4865L38.4955 35.6036L69.3063 18.4865L38.4955 0Z" fill="url(#paint5_linear_4703_654)"/>
<defs>
<linearGradient id="paint0_linear_4703_654" x1="37.8108" y1="36.973" x2="37.8108" y2="61.6216" gradientUnits="userSpaceOnUse">
<stop stop-color="#C1D7FC"/>
<stop offset="1" stop-color="#4388F6"/>
</linearGradient>
<linearGradient id="paint1_linear_4703_654" x1="37.8108" y1="30.1261" x2="37.8108" y2="54.7747" gradientUnits="userSpaceOnUse">
<stop stop-color="#C1D7FC"/>
<stop offset="1" stop-color="#4388F6"/>
</linearGradient>
<linearGradient id="paint2_linear_4703_654" x1="37.8108" y1="23.2793" x2="37.8108" y2="47.9279" gradientUnits="userSpaceOnUse">
<stop stop-color="#C1D7FC"/>
<stop offset="1" stop-color="#4388F6"/>
</linearGradient>
<linearGradient id="paint3_linear_4703_654" x1="37.1261" y1="61.6216" x2="9.73874" y2="39.0271" gradientUnits="userSpaceOnUse">
<stop stop-color="#D2E4FF"/>
<stop offset="1" stop-color="#D2E4FF" stop-opacity="0.15"/>
</linearGradient>
<linearGradient id="paint4_linear_4703_654" x1="67.9667" y1="61.6216" x2="40.6998" y2="39.6155" gradientUnits="userSpaceOnUse">
<stop stop-color="#CADEFF"/>
<stop offset="1" stop-color="#ADCCFD" stop-opacity="0.15"/>
</linearGradient>
<linearGradient id="paint5_linear_4703_654" x1="38.1532" y1="0" x2="38.1532" y2="44.3484" gradientUnits="userSpaceOnUse">
<stop stop-color="#F3F8FF"/>
<stop offset="1" stop-color="#C7DCFF" stop-opacity="0.69"/>
</linearGradient>
</defs>
</svg>
