<svg width="76" height="76" viewBox="0 0 76 76" fill="none" xmlns="http://www.w3.org/2000/svg">
<g clip-path="url(#clip0_4703_656)">
<path d="M38.4955 76L7 57.5135L38.4955 39.7117L69.3063 57.5135L38.4955 76Z" fill="url(#paint0_linear_4703_656)"/>
<path d="M7 18.4865V57.5135L38.4955 39.7117V0L7 18.4865Z" fill="url(#paint1_linear_4703_656)"/>
<path d="M69.3064 18.4865L38.4956 0V39.7117L69.3064 57.5135V18.4865Z" fill="url(#paint2_linear_4703_656)"/>
<path d="M23.5894 39.1535C23.5666 35.3803 23.4424 13.4466 23.5681 3.07009C23.5774 2.30494 24.4091 1.84842 25.069 2.23577L54.5946 19.566C54.9005 19.7456 55.0884 20.0737 55.0884 20.4285L55.0881 56.4141C55.0881 57.1953 54.2391 57.6797 53.5709 57.2751C43.9907 51.4752 27.1636 41.7686 24.084 39.9945C23.7759 39.8171 23.5915 39.509 23.5894 39.1535Z" fill="url(#paint3_linear_4703_656)"/>
<path d="M16.6568 25.4577C16.6249 23.3315 16.5244 15.4634 16.639 7.18911C16.6496 6.42397 17.4819 5.95651 18.1419 6.34386L47.6675 23.6741C47.9734 23.8537 48.1613 24.1818 48.1613 24.5366L48.161 42.7204C48.161 43.5016 47.312 43.986 46.6438 43.5814C37.056 37.7769 20.2099 28.0595 17.1496 26.2966C16.845 26.1211 16.6621 25.8092 16.6568 25.4577Z" fill="url(#paint4_linear_4703_656)"/>
<path d="M19.4291 22.8471C19.4291 22.8471 19.3738 14.0318 19.4291 10.8747L29.0825 16.5408L29.0825 28.5133C25.9863 26.619 19.4291 22.8471 19.4291 22.8471Z" fill="#D2E3FF"/>
<path d="M32.3981 20.7115C32.3981 20.7115 32.3428 22.8511 32.3981 19.694L42.0515 25.3602L42.0515 26.3777C38.9553 24.4834 32.3981 20.7115 32.3981 20.7115Z" fill="#D2E3FF"/>
<path d="M32.3981 23.4329C32.3981 23.4329 32.3428 25.5725 32.3981 22.4154L42.0515 28.0815L42.0515 29.099C38.9553 27.2048 32.3981 23.4329 32.3981 23.4329Z" fill="#D2E3FF"/>
<path d="M32.3981 26.7747C32.3981 26.7747 32.3428 28.9143 32.3981 25.7573L36.6217 28.0642L36.6216 29.0817C33.5254 27.1874 32.3981 26.7747 32.3981 26.7747Z" fill="#D2E3FF"/>
</g>
<defs>
<linearGradient id="paint0_linear_4703_656" x1="19.3243" y1="50.6667" x2="38.5034" y2="74.6244" gradientUnits="userSpaceOnUse">
<stop stop-color="#BDD7FF"/>
<stop offset="1" stop-color="#E4EEFE"/>
</linearGradient>
<linearGradient id="paint1_linear_4703_656" x1="37.1261" y1="43.1351" x2="9.73874" y2="20.5405" gradientUnits="userSpaceOnUse">
<stop stop-color="#D2E4FF"/>
<stop offset="1" stop-color="#D2E4FF" stop-opacity="0.15"/>
</linearGradient>
<linearGradient id="paint2_linear_4703_656" x1="67.9668" y1="43.1351" x2="40.6999" y2="21.129" gradientUnits="userSpaceOnUse">
<stop stop-color="#CADEFF"/>
<stop offset="1" stop-color="#ADCCFD" stop-opacity="0.15"/>
</linearGradient>
<linearGradient id="paint3_linear_4703_656" x1="39.3006" y1="1.36938" x2="39.3006" y2="49.982" gradientUnits="userSpaceOnUse">
<stop stop-color="#EFF5FF"/>
<stop offset="1" stop-color="#97BFFF"/>
</linearGradient>
<linearGradient id="paint4_linear_4703_656" x1="32.3734" y1="5.47748" x2="32.3734" y2="54.0901" gradientUnits="userSpaceOnUse">
<stop stop-color="#F3F8FF"/>
<stop offset="1" stop-color="#C7DCFF"/>
</linearGradient>
<clipPath id="clip0_4703_656">
<rect width="76" height="76" fill="white"/>
</clipPath>
</defs>
</svg>
