<svg width="368" height="196" viewBox="0 0 368 196" fill="none" xmlns="http://www.w3.org/2000/svg">
<g opacity="0.8">
<g clip-path="url(#clip0_3430_213)">
<path d="M242.135 124.708C248.058 128.139 248.098 133.685 242.209 137.104L192.43 166.028C186.535 169.458 176.946 169.458 171.023 166.028L120.918 137.104C114.989 133.673 114.954 128.127 120.849 124.702L170.628 95.7781C176.518 92.3477 186.101 92.3477 192.03 95.7781L242.135 124.708Z" fill="url(#paint0_linear_3430_213)"/>
<path d="M246.549 131.392C246.549 131.552 246.549 131.712 246.491 131.872C246.434 132.032 246.428 132.129 246.394 132.255C246.36 132.381 246.32 132.558 246.263 132.707C246.206 132.855 246.16 132.953 246.108 133.073C246.057 133.193 245.971 133.387 245.885 133.547C245.8 133.707 245.754 133.77 245.685 133.885C245.617 133.999 245.462 134.239 245.331 134.411C245.199 134.582 245.079 134.742 244.936 134.908L244.833 135.028C244.639 135.24 244.422 135.451 244.199 135.651C243.976 135.851 243.89 135.909 243.735 136.034C243.581 136.16 243.461 136.257 243.312 136.366C243.164 136.475 242.952 136.612 242.741 136.732C242.529 136.852 242.369 136.983 242.169 137.098L192.39 166.022C191.926 166.286 191.449 166.527 190.961 166.743L190.526 166.926C190.145 167.089 189.748 167.24 189.337 167.377L188.902 167.526C188.645 167.606 188.382 167.674 188.125 167.749L187.553 167.909C187.278 167.978 186.981 168.029 186.712 168.086L186.14 168.2C185.569 168.298 184.997 168.378 184.425 168.441L183.888 168.486C183.55 168.486 183.207 168.538 182.864 168.555H182.207H181.378H180.686L179.914 168.515L179.216 168.458L178.462 168.372L177.781 168.275L176.981 168.138L176.357 168.012C176.037 167.943 175.728 167.863 175.414 167.783L174.899 167.646C174.328 167.486 173.802 167.303 173.276 167.074C173.018 166.971 172.761 166.863 172.509 166.748L172.115 166.577C171.732 166.394 171.36 166.205 171.006 166.005L120.918 137.104C118.311 135.594 116.841 133.673 116.515 131.706C116.469 131.427 116.446 131.144 116.447 130.86L116.401 147.309C116.401 149.596 117.888 151.832 120.867 153.552L170.971 182.477C171.326 182.683 171.697 182.877 172.081 183.049L172.475 183.22C172.698 183.323 172.921 183.426 173.155 183.517H173.241C173.767 183.723 174.31 183.9 174.865 184.089L174.997 184.135L175.385 184.232C175.694 184.312 176.009 184.392 176.323 184.461L176.575 184.524L176.952 184.587L177.753 184.724L178.078 184.781L178.433 184.821L179.188 184.907L179.554 184.947H179.891L180.657 184.987H181.046H182.595H182.836C183.179 184.987 183.522 184.947 183.859 184.918H184.271H184.397C184.968 184.855 185.54 184.781 186.112 184.678H186.198L186.689 184.575C186.97 184.518 187.261 184.461 187.518 184.398L188.09 184.238C188.353 184.169 188.611 184.095 188.868 184.015L189.034 183.969L189.302 183.866C189.706 183.729 190.103 183.578 190.492 183.414L190.921 183.232C191.409 183.016 191.886 182.775 192.35 182.511L242.129 153.587L242.312 153.478C242.455 153.392 242.569 153.301 242.706 153.215C242.843 153.129 243.078 152.981 243.244 152.855C243.41 152.729 243.53 152.632 243.667 152.518C243.804 152.403 243.987 152.266 244.13 152.135L244.221 152.06C244.416 151.883 244.593 151.694 244.793 151.489L244.89 151.374C244.988 151.26 245.091 151.145 245.182 151.031C245.274 150.917 245.251 150.928 245.285 150.877C245.416 150.705 245.531 150.528 245.639 150.351C245.685 150.276 245.748 150.202 245.788 150.128C245.828 150.053 245.822 150.048 245.84 150.013C245.925 149.859 245.994 149.699 246.063 149.545C246.131 149.39 246.154 149.362 246.188 149.27C246.223 149.179 246.188 149.207 246.188 149.173C246.24 149.024 246.28 148.87 246.32 148.721C246.36 148.573 246.388 148.521 246.406 148.418C246.423 148.315 246.406 148.361 246.406 148.338C246.434 148.178 246.446 148.018 246.457 147.864C246.469 147.709 246.491 147.658 246.491 147.555C246.491 147.452 246.491 147.469 246.491 147.423L246.606 130.929C246.606 131.1 246.583 131.243 246.549 131.392Z" fill="url(#paint1_linear_3430_213)"/>
<path d="M246.549 139.392C246.549 139.552 246.549 139.712 246.491 139.872C246.434 140.032 246.428 140.129 246.394 140.255C246.36 140.381 246.32 140.558 246.263 140.707C246.206 140.855 246.16 140.953 246.108 141.073C246.057 141.193 245.971 141.387 245.885 141.547C245.8 141.707 245.754 141.77 245.685 141.885C245.617 141.999 245.462 142.239 245.331 142.411C245.199 142.582 245.079 142.742 244.936 142.908L244.833 143.028C244.639 143.24 244.422 143.451 244.199 143.651C243.976 143.851 243.89 143.909 243.735 144.034C243.581 144.16 243.461 144.257 243.312 144.366C243.164 144.475 242.952 144.612 242.741 144.732C242.529 144.852 242.369 144.983 242.169 145.098L192.39 174.022C191.926 174.286 191.449 174.527 190.961 174.743L190.526 174.926C190.145 175.089 189.748 175.24 189.337 175.377L188.902 175.526C188.645 175.606 188.382 175.674 188.125 175.749L187.553 175.909C187.278 175.978 186.981 176.029 186.712 176.086L186.14 176.2C185.569 176.298 184.997 176.378 184.425 176.441L183.888 176.486C183.55 176.486 183.207 176.538 182.864 176.555H182.207H181.378H180.686L179.914 176.515L179.216 176.458L178.462 176.372L177.781 176.275L176.981 176.138L176.357 176.012C176.037 175.943 175.728 175.863 175.414 175.783L174.899 175.646C174.328 175.486 173.802 175.303 173.276 175.074C173.018 174.971 172.761 174.863 172.509 174.748L172.115 174.577C171.732 174.394 171.36 174.205 171.006 174.005L120.918 145.104C118.311 143.594 116.841 141.673 116.515 139.706C116.469 139.427 116.446 139.144 116.447 138.86L116.401 140.309C116.401 142.596 117.888 144.832 120.867 146.552L170.971 175.477C171.326 175.683 171.697 175.877 172.081 176.049L172.475 176.22C172.698 176.323 172.921 176.426 173.155 176.517H173.241C173.767 176.723 174.31 176.9 174.865 177.089L174.997 177.135L175.385 177.232C175.694 177.312 176.009 177.392 176.323 177.461L176.575 177.524L176.952 177.587L177.753 177.724L178.078 177.781L178.433 177.821L179.188 177.907L179.554 177.947H179.891L180.657 177.987H181.046H182.595H182.836C183.179 177.987 183.522 177.947 183.859 177.918H184.271H184.397C184.968 177.855 185.54 177.781 186.112 177.678H186.198L186.689 177.575C186.97 177.518 187.261 177.461 187.518 177.398L188.09 177.238C188.353 177.169 188.611 177.095 188.868 177.015L189.034 176.969L189.302 176.866C189.706 176.729 190.103 176.578 190.492 176.415L190.921 176.232C191.409 176.016 191.886 175.775 192.35 175.511L242.129 146.587L242.312 146.478C242.455 146.392 242.569 146.301 242.706 146.215C242.843 146.129 243.078 145.981 243.244 145.855C243.41 145.729 243.53 145.632 243.667 145.518C243.804 145.403 243.987 145.266 244.13 145.135L244.221 145.06C244.416 144.883 244.593 144.694 244.793 144.489L244.89 144.374C244.988 144.26 245.091 144.145 245.182 144.031C245.274 143.917 245.251 143.928 245.285 143.877C245.416 143.705 245.531 143.528 245.639 143.351C245.685 143.276 245.748 143.202 245.788 143.128C245.828 143.053 245.822 143.048 245.84 143.013C245.925 142.859 245.994 142.699 246.063 142.545C246.131 142.39 246.154 142.362 246.188 142.27C246.223 142.179 246.188 142.207 246.188 142.173C246.24 142.024 246.28 141.87 246.32 141.721C246.36 141.573 246.388 141.521 246.406 141.418C246.423 141.315 246.406 141.361 246.406 141.338C246.434 141.178 246.446 141.018 246.457 140.864C246.469 140.709 246.491 140.658 246.491 140.555C246.491 140.452 246.491 140.469 246.491 140.423L246.606 138.929C246.606 139.1 246.583 139.243 246.549 139.392Z" fill="#7DACFA"/>
<path d="M181.744 163.552C178.616 163.552 175.631 162.866 173.55 161.66L123.445 132.73C121.959 131.872 121.501 131.066 121.501 130.872C121.501 130.677 121.947 129.9 123.388 129.065L173.167 100.14C175.225 98.9455 178.193 98.2594 181.309 98.2594C184.425 98.2594 187.427 98.9512 189.508 100.152L239.613 129.082C241.1 129.94 241.557 130.746 241.557 130.946C241.557 131.146 241.111 131.918 239.676 132.753L189.897 161.677C187.839 162.866 184.866 163.552 181.744 163.552Z" fill="url(#paint2_linear_3430_213)"/>
</g>
<g clip-path="url(#clip1_3430_213)">
<path d="M203.781 123.796C205.939 125.045 205.953 127.065 203.808 128.31L185.68 138.844C183.533 140.093 180.041 140.093 177.884 138.844L159.637 128.31C157.478 127.061 157.466 125.041 159.612 123.794L177.741 113.26C179.885 112.011 183.375 112.011 185.534 113.26L203.781 123.796Z" fill="url(#paint3_linear_3430_213)"/>
<path d="M205.388 126.23C205.388 126.288 205.388 126.347 205.367 126.405C205.346 126.463 205.344 126.499 205.331 126.544C205.319 126.59 205.304 126.655 205.284 126.709C205.263 126.763 205.246 126.798 205.227 126.842C205.209 126.886 205.177 126.957 205.146 127.015C205.115 127.073 205.098 127.096 205.073 127.138C205.048 127.179 204.992 127.267 204.944 127.329C204.896 127.392 204.853 127.45 204.801 127.51L204.763 127.554C204.692 127.631 204.613 127.708 204.532 127.781C204.451 127.854 204.419 127.875 204.363 127.921C204.307 127.966 204.263 128.002 204.209 128.041C204.155 128.081 204.078 128.131 204.001 128.175C203.924 128.218 203.866 128.266 203.793 128.308L185.665 138.841C185.496 138.938 185.322 139.025 185.144 139.104L184.986 139.17C184.847 139.23 184.702 139.285 184.553 139.335L184.394 139.389C184.301 139.418 184.205 139.443 184.111 139.47L183.903 139.529C183.803 139.554 183.695 139.572 183.597 139.593L183.389 139.635C183.18 139.67 182.972 139.699 182.764 139.722L182.568 139.739C182.445 139.739 182.32 139.758 182.195 139.764H181.956H181.654H181.402L181.121 139.749L180.867 139.728L180.592 139.697L180.344 139.662L180.053 139.612L179.826 139.566C179.709 139.541 179.597 139.512 179.482 139.483L179.295 139.433C179.087 139.374 178.895 139.308 178.703 139.225C178.61 139.187 178.516 139.148 178.424 139.106L178.281 139.043C178.141 138.977 178.006 138.908 177.877 138.835L159.636 128.31C158.687 127.76 158.152 127.061 158.033 126.344C158.016 126.243 158.008 126.14 158.008 126.036L157.991 130.333C157.991 131.166 158.533 131.98 159.617 132.607L177.864 143.14C177.993 143.215 178.129 143.286 178.268 143.349L178.412 143.411C178.493 143.449 178.574 143.486 178.66 143.519H178.691C178.883 143.594 179.08 143.659 179.282 143.728L179.33 143.744L179.472 143.78C179.584 143.809 179.699 143.838 179.813 143.863L179.905 143.886L180.042 143.909L180.334 143.959L180.453 143.979L180.582 143.994L180.857 144.025L180.99 144.04H181.113L181.392 144.054H181.533H182.098H182.185C182.31 144.054 182.435 144.04 182.558 144.029H182.708H182.753C182.962 144.007 183.17 143.979 183.378 143.942H183.409L183.588 143.905C183.691 143.884 183.797 143.863 183.89 143.84L184.099 143.782C184.194 143.757 184.288 143.73 184.382 143.7L184.442 143.684L184.54 143.646C184.687 143.596 184.832 143.542 184.973 143.482L185.129 143.415C185.307 143.337 185.481 143.249 185.65 143.153L203.778 132.619L203.845 132.58C203.897 132.549 203.938 132.515 203.988 132.484C204.038 132.453 204.124 132.399 204.184 132.353C204.245 132.307 204.288 132.272 204.338 132.23C204.388 132.188 204.455 132.138 204.507 132.09L204.54 132.063C204.611 131.999 204.676 131.93 204.748 131.855L204.784 131.814C204.819 131.772 204.857 131.73 204.89 131.689C204.923 131.647 204.915 131.651 204.928 131.632C204.975 131.57 205.017 131.505 205.057 131.441C205.073 131.414 205.096 131.387 205.111 131.36C205.125 131.333 205.123 131.331 205.13 131.318C205.161 131.262 205.186 131.203 205.211 131.147C205.236 131.091 205.244 131.081 205.257 131.047C205.269 131.014 205.257 131.024 205.257 131.012C205.275 130.958 205.29 130.902 205.304 130.847C205.319 130.793 205.329 130.775 205.336 130.737C205.342 130.7 205.336 130.716 205.336 130.708C205.346 130.65 205.35 130.591 205.354 130.535C205.359 130.479 205.367 130.46 205.367 130.423C205.367 130.385 205.367 130.391 205.367 130.375L205.409 126.061C205.409 126.124 205.4 126.176 205.388 126.23Z" fill="url(#paint4_linear_3430_213)"/>
</g>
<g clip-path="url(#clip2_3430_213)">
<path d="M102.334 90.5198C107.061 93.2572 107.093 97.6827 102.394 100.411L62.6714 123.492C57.9674 126.229 50.3158 126.229 45.5889 123.492L5.60654 100.411C0.875085 97.6736 0.847709 93.2481 5.55179 90.5153L45.2741 67.4343C49.9736 64.6969 57.6206 64.6969 62.352 67.4343L102.334 90.5198Z" fill="url(#paint5_linear_3430_213)"/>
<path d="M105.855 95.8531C105.855 95.9809 105.855 96.1086 105.809 96.2364C105.763 96.3641 105.759 96.4417 105.732 96.542C105.704 96.6424 105.672 96.7838 105.627 96.9025C105.581 97.0211 105.544 97.0986 105.503 97.1944C105.462 97.2903 105.394 97.4454 105.325 97.5731C105.257 97.7009 105.221 97.7511 105.166 97.8423C105.111 97.9335 104.988 98.1252 104.883 98.262C104.778 98.3989 104.682 98.5267 104.568 98.659L104.486 98.7548C104.331 98.9236 104.157 99.0924 103.979 99.2521C103.802 99.4117 103.733 99.4574 103.61 99.5577C103.487 99.6581 103.391 99.7357 103.272 99.8224C103.154 99.909 102.985 100.019 102.816 100.114C102.647 100.21 102.519 100.315 102.36 100.406L62.6374 123.487C62.2673 123.698 61.8865 123.89 61.4968 124.062L61.15 124.208C60.8458 124.339 60.5295 124.459 60.201 124.569L59.8542 124.687C59.6489 124.751 59.439 124.806 59.2337 124.865L58.7774 124.993C58.5584 125.048 58.3212 125.089 58.1067 125.134L57.6505 125.226C57.1942 125.303 56.7379 125.367 56.2817 125.417L55.8528 125.454C55.5836 125.454 55.3098 125.495 55.0361 125.508H54.5114H53.8498H53.2977L52.6818 125.476L52.1251 125.431L51.5229 125.362L50.9799 125.285L50.3411 125.175L49.8438 125.075C49.5883 125.02 49.3419 124.956 49.091 124.893L48.6803 124.783C48.2241 124.655 47.8043 124.509 47.3845 124.327C47.1792 124.245 46.9739 124.158 46.7732 124.067L46.4583 123.93C46.1526 123.784 45.8561 123.633 45.5732 123.474L5.60448 100.411C3.52392 99.2064 2.35132 97.6735 2.09125 96.104C2.05443 95.8809 2.03612 95.655 2.0365 95.4288L2 97.9517C2 99.7766 3.18629 101.56 5.56342 102.934L45.5458 126.015C45.8287 126.179 46.1253 126.334 46.431 126.471L46.7458 126.608C46.9237 126.69 47.1017 126.772 47.2887 126.845H47.3572C47.7769 127.009 48.2104 127.151 48.653 127.301L48.7579 127.338L49.0682 127.415C49.3145 127.479 49.5655 127.543 49.8164 127.598L50.0172 127.648L50.3183 127.698L50.9571 127.808L51.2172 127.853L51.5 127.885L52.1023 127.954L52.3943 127.986H52.6635L53.2749 128.018H53.5852H54.8216H55.0133C55.287 128.018 55.5608 127.986 55.83 127.963H56.1585H56.2589C56.7151 127.913 57.1714 127.853 57.6277 127.771H57.6961L58.0885 127.689C58.3121 127.643 58.5448 127.598 58.7501 127.548L59.2063 127.42C59.4162 127.365 59.6215 127.306 59.8269 127.242L59.9592 127.205L60.1736 127.123C60.496 127.014 60.8124 126.894 61.1226 126.763L61.4648 126.617C61.8546 126.445 62.2353 126.253 62.6055 126.042L102.328 102.961L102.474 102.874C102.588 102.806 102.679 102.733 102.789 102.665C102.898 102.596 103.085 102.478 103.218 102.377C103.35 102.277 103.446 102.199 103.555 102.108C103.665 102.017 103.811 101.907 103.925 101.802L103.998 101.743C104.153 101.602 104.294 101.451 104.454 101.287L104.532 101.196C104.609 101.104 104.691 101.013 104.764 100.922C104.837 100.831 104.819 100.84 104.846 100.799C104.951 100.662 105.043 100.52 105.129 100.379C105.166 100.32 105.216 100.26 105.248 100.201C105.28 100.142 105.275 100.137 105.289 100.11C105.357 99.9865 105.412 99.8587 105.467 99.7356C105.522 99.6124 105.54 99.5896 105.567 99.5166C105.595 99.4436 105.567 99.4664 105.567 99.439C105.608 99.3204 105.64 99.1972 105.672 99.0786C105.704 98.96 105.727 98.9189 105.741 98.8368C105.754 98.7547 105.741 98.7912 105.741 98.7729C105.763 98.6452 105.773 98.5174 105.782 98.3942C105.791 98.271 105.809 98.23 105.809 98.1479C105.809 98.0657 105.809 98.0794 105.809 98.0429L105.9 95.4836C105.9 95.6204 105.882 95.7345 105.855 95.8531Z" fill="url(#paint6_linear_3430_213)"/>
<path d="M27.4677 97.9099V70.2578L47.6983 79.6988V109.37L27.4677 97.9099Z" fill="#ADCCFD"/>
<path d="M70.6259 70.2578L47.6979 79.6988V109.37L70.6259 99.9294V70.2578Z" fill="#CFDCFC"/>
<path d="M47.6983 60.8176L27.4677 70.2586L47.6983 79.6996L70.6264 70.2586L47.6983 60.8176Z" fill="#DEE7FD"/>
<path d="M58 105.185V93.0519L66.8764 97.1942V110.213L58 105.185Z" fill="#ADCCFD"/>
<path d="M76.9362 93.0519L66.8762 97.1942V110.213L76.8169 104.716L76.9362 93.0519Z" fill="#CFDCFC"/>
<path d="M66.8764 88.9099L58 93.0522L66.8764 97.1946L76.9364 93.0522L66.8764 88.9099Z" fill="#DEE7FD"/>
</g>
<g clip-path="url(#clip3_3430_213)">
<path d="M362.033 86.9045C366.76 89.6419 366.792 94.0674 362.092 96.7957L322.37 119.877C317.666 122.614 310.014 122.614 305.287 119.877L265.305 96.7957C260.573 94.0583 260.546 89.6328 265.25 86.8999L304.972 63.819C309.672 61.0816 317.319 61.0816 322.05 63.819L362.033 86.9045Z" fill="url(#paint7_linear_3430_213)"/>
<path d="M365.553 92.2378C365.553 92.3655 365.553 92.4933 365.507 92.621C365.462 92.7488 365.457 92.8263 365.43 92.9267C365.402 93.0271 365.37 93.1685 365.325 93.2871C365.279 93.4058 365.243 93.4833 365.202 93.5791C365.161 93.6749 365.092 93.8301 365.024 93.9578C364.955 94.0856 364.919 94.1357 364.864 94.227C364.809 94.3182 364.686 94.5098 364.581 94.6467C364.476 94.7836 364.38 94.9113 364.266 95.0436L364.184 95.1395C364.029 95.3083 363.856 95.4771 363.678 95.6368C363.5 95.7964 363.431 95.8421 363.308 95.9424C363.185 96.0428 363.089 96.1204 362.971 96.207C362.852 96.2937 362.683 96.4032 362.514 96.499C362.345 96.5948 362.218 96.6998 362.058 96.791L322.336 119.872C321.965 120.083 321.585 120.275 321.195 120.447L320.848 120.593C320.544 120.724 320.228 120.844 319.899 120.953L319.552 121.072C319.347 121.136 319.137 121.191 318.932 121.25L318.476 121.378C318.257 121.432 318.019 121.473 317.805 121.519L317.349 121.61C316.892 121.688 316.436 121.752 315.98 121.802L315.551 121.838C315.282 121.838 315.008 121.879 314.734 121.893H314.21H313.548H312.996L312.38 121.861L311.823 121.816L311.221 121.747L310.678 121.67L310.039 121.56L309.542 121.46C309.287 121.405 309.04 121.341 308.789 121.277L308.379 121.168C307.922 121.04 307.503 120.894 307.083 120.711C306.877 120.629 306.672 120.543 306.471 120.451L306.157 120.315C305.851 120.169 305.554 120.018 305.271 119.858L265.303 96.7956C263.222 95.5911 262.05 94.0582 261.789 92.4887C261.753 92.2655 261.734 92.0397 261.735 91.8135L261.698 94.3364C261.698 96.1613 262.885 97.9452 265.262 99.3185L305.244 122.399C305.527 122.564 305.823 122.719 306.129 122.856L306.444 122.993C306.622 123.075 306.8 123.157 306.987 123.23H307.055C307.475 123.394 307.909 123.535 308.351 123.686L308.456 123.722L308.766 123.8C309.013 123.864 309.264 123.928 309.515 123.983L309.715 124.033L310.017 124.083L310.655 124.192L310.915 124.238L311.198 124.27L311.801 124.338L312.093 124.37H312.362L312.973 124.402H313.283H314.52H314.712C314.985 124.402 315.259 124.37 315.528 124.348H315.857H315.957C316.413 124.297 316.87 124.238 317.326 124.156H317.394L317.787 124.074C318.01 124.028 318.243 123.983 318.448 123.932L318.905 123.805C319.114 123.75 319.32 123.691 319.525 123.627L319.657 123.59L319.872 123.508C320.194 123.399 320.511 123.278 320.821 123.148L321.163 123.002C321.553 122.83 321.934 122.638 322.304 122.427L362.026 99.3458L362.172 99.2591C362.286 99.1907 362.377 99.1177 362.487 99.0493C362.596 98.9808 362.783 98.8622 362.916 98.7618C363.048 98.6615 363.144 98.5839 363.253 98.4927C363.363 98.4014 363.509 98.2919 363.623 98.187L363.696 98.1277C363.851 97.9862 363.993 97.8357 364.152 97.6714L364.23 97.5802C364.307 97.4889 364.39 97.3977 364.463 97.3065C364.536 97.2152 364.517 97.2243 364.545 97.1833C364.65 97.0464 364.741 96.905 364.828 96.7635C364.864 96.7042 364.914 96.6449 364.946 96.5856C364.978 96.5263 364.974 96.5217 364.987 96.4944C365.056 96.3712 365.11 96.2434 365.165 96.1202C365.22 95.9971 365.238 95.9742 365.266 95.9012C365.293 95.8282 365.266 95.8511 365.266 95.8237C365.307 95.7051 365.339 95.5819 365.37 95.4633C365.402 95.3446 365.425 95.3036 365.439 95.2215C365.453 95.1393 365.439 95.1758 365.439 95.1576C365.462 95.0298 365.471 94.9021 365.48 94.7789C365.489 94.6557 365.507 94.6147 365.507 94.5325C365.507 94.4504 365.507 94.4641 365.507 94.4276L365.599 91.8682C365.599 92.0051 365.58 92.1192 365.553 92.2378Z" fill="url(#paint8_linear_3430_213)"/>
<path d="M362.033 87.0485C366.76 89.7859 366.792 94.2114 362.092 96.9397L322.37 120.021C317.666 122.758 310.014 122.758 305.287 120.021L265.305 96.9397C260.573 94.2023 260.546 89.7768 265.25 87.044L304.972 63.963C309.672 61.2256 317.319 61.2256 322.05 63.963L362.033 87.0485Z" fill="url(#paint9_linear_3430_213)"/>
<path d="M365.553 92.3818C365.553 92.5096 365.553 92.6373 365.507 92.7651C365.462 92.8928 365.457 92.9704 365.43 93.0708C365.402 93.1711 365.37 93.3126 365.325 93.4312C365.279 93.5498 365.243 93.6274 365.202 93.7232C365.161 93.819 365.092 93.9741 365.024 94.1018C364.955 94.2296 364.919 94.2798 364.864 94.371C364.809 94.4623 364.686 94.6539 364.581 94.7908C364.476 94.9276 364.38 95.0554 364.266 95.1877L364.184 95.2835C364.029 95.4523 363.856 95.6211 363.678 95.7808C363.5 95.9405 363.431 95.9861 363.308 96.0865C363.185 96.1868 363.089 96.2644 362.971 96.3511C362.852 96.4378 362.683 96.5473 362.514 96.6431C362.345 96.7389 362.218 96.8438 362.058 96.9351L322.336 120.016C321.965 120.227 321.585 120.419 321.195 120.591L320.848 120.737C320.544 120.868 320.228 120.988 319.899 121.097L319.552 121.216C319.347 121.28 319.137 121.335 318.932 121.394L318.476 121.522C318.257 121.576 318.019 121.617 317.805 121.663L317.349 121.754C316.892 121.832 316.436 121.896 315.98 121.946L315.551 121.982C315.282 121.982 315.008 122.023 314.734 122.037H314.21H313.548H312.996L312.38 122.005L311.823 121.96L311.221 121.891L310.678 121.814L310.039 121.704L309.542 121.604C309.287 121.549 309.04 121.485 308.789 121.421L308.379 121.312C307.922 121.184 307.503 121.038 307.083 120.855C306.877 120.773 306.672 120.687 306.471 120.595L306.157 120.459C305.851 120.313 305.554 120.162 305.271 120.002L265.303 96.9396C263.222 95.7352 262.05 94.2022 261.789 92.6328C261.753 92.4096 261.734 92.1837 261.735 91.9575L261.698 94.4804C261.698 96.3053 262.885 98.0892 265.262 99.4625L305.244 122.543C305.527 122.708 305.823 122.863 306.129 123L306.444 123.137C306.622 123.219 306.8 123.301 306.987 123.374H307.055C307.475 123.538 307.909 123.679 308.351 123.83L308.456 123.867L308.766 123.944C309.013 124.008 309.264 124.072 309.515 124.127L309.715 124.177L310.017 124.227L310.655 124.336L310.915 124.382L311.198 124.414L311.801 124.482L312.093 124.514H312.362L312.973 124.546H313.283H314.52H314.712C314.985 124.546 315.259 124.514 315.528 124.492H315.857H315.957C316.413 124.441 316.87 124.382 317.326 124.3H317.394L317.787 124.218C318.01 124.172 318.243 124.127 318.448 124.076L318.905 123.949C319.114 123.894 319.32 123.835 319.525 123.771L319.657 123.734L319.872 123.652C320.194 123.543 320.511 123.422 320.821 123.292L321.163 123.146C321.553 122.974 321.934 122.782 322.304 122.571L362.026 99.4899L362.172 99.4032C362.286 99.3347 362.377 99.2618 362.487 99.1933C362.596 99.1249 362.783 99.0063 362.916 98.9059C363.048 98.8055 363.144 98.728 363.253 98.6367C363.363 98.5455 363.509 98.436 363.623 98.331L363.696 98.2717C363.851 98.1303 363.993 97.9797 364.152 97.8155L364.23 97.7242C364.307 97.633 364.39 97.5417 364.463 97.4505C364.536 97.3592 364.517 97.3684 364.545 97.3273C364.65 97.1904 364.741 97.049 364.828 96.9076C364.864 96.8483 364.914 96.789 364.946 96.7296C364.978 96.6703 364.974 96.6658 364.987 96.6384C365.056 96.5152 365.11 96.3875 365.165 96.2643C365.22 96.1411 365.238 96.1183 365.266 96.0453C365.293 95.9723 365.266 95.9951 365.266 95.9677C365.307 95.8491 365.339 95.7259 365.37 95.6073C365.402 95.4887 365.425 95.4476 365.439 95.3655C365.453 95.2834 365.439 95.3199 365.439 95.3016C365.462 95.1739 365.471 95.0461 365.48 94.923C365.489 94.7998 365.507 94.7587 365.507 94.6766C365.507 94.5945 365.507 94.6081 365.507 94.5717L365.599 92.0123C365.599 92.1492 365.58 92.2632 365.553 92.3818Z" fill="url(#paint10_linear_3430_213)"/>
<path d="M287.5 92.9099V83.91L315 97.7383V107.41L287.5 92.9099Z" fill="#ADCCFD"/>
<path d="M337.5 87.4099L315 97.7383V107.41L326.464 101.884L337.5 96.4099V87.4099Z" fill="#CFDCFC"/>
<path d="M307.731 74.469L287.5 83.91L315 97.9099L337.5 87.4099L307.731 74.469Z" fill="#DEE7FD"/>
<path d="M307.731 65.9099L288.5 76.4099L315.231 88.2328L338.159 78.7919L307.731 65.9099Z" fill="url(#paint11_linear_3430_213)"/>
</g>
<g clip-path="url(#clip4_3430_213)">
<path d="M180.774 127.146L210.694 74.5263L180.774 88.279V127.146Z" fill="url(#paint12_linear_3430_213)"/>
<path d="M151.58 73.68L180.781 127.155V87.9936L151.58 73.68Z" fill="url(#paint13_linear_3430_213)"/>
<path d="M180.781 88.2834L151.574 73.6793L180.781 61.249L210.695 74.5262L180.781 88.2834Z" fill="url(#paint14_linear_3430_213)"/>
</g>
<g clip-path="url(#clip5_3430_213)">
<path d="M180.551 79.7755L150.785 65.8293L180.551 10.0351V79.7755Z" fill="url(#paint15_linear_3430_213)"/>
<path d="M180.551 79.7714L211.202 66.1485L180.551 10.3595V79.7714Z" fill="url(#paint16_linear_3430_213)"/>
</g>
<path d="M207.465 74.4906L226.557 85.2438C227.263 85.6412 227.228 86.6687 226.497 87.0175L183.97 107.315C182.327 108.099 180.417 108.095 178.777 107.303L136.799 87.0376C136.065 86.6831 136.04 85.6462 136.757 85.2578L153.679 76.0882" stroke="url(#paint17_angular_3430_213)"/>
<g clip-path="url(#clip6_3430_213)">
<path d="M121.726 54.3839V51.4008L123.672 52.3087V55.1621L121.726 54.3839Z" fill="#79A5E5"/>
<path d="M125.877 51.4008L123.672 52.3087V55.1621L125.877 54.2542V51.4008Z" fill="#A5C5F5"/>
<path d="M123.672 50.493L121.726 51.4009L123.672 52.3088L125.877 51.4009L123.672 50.493Z" fill="#B4D2FA"/>
<path d="M125.462 10.4355V6.78129L127.845 7.89345V11.3888L125.462 10.4355Z" fill="#629DF8"/>
<path d="M130.546 6.78129L127.845 7.89345V11.3888L130.546 10.2767V6.78129Z" fill="#A5C6FB"/>
<path d="M127.845 5.66916L125.462 6.78133L127.845 7.89349L130.546 6.78133L127.845 5.66916Z" fill="#91B7F1"/>
<g opacity="0.5">
<path d="M135.734 18.8985V15.9154L137.679 16.8233V19.6767L135.734 18.8985Z" fill="#79A5E5"/>
<path d="M139.884 15.9154L137.679 16.8233V19.6767L139.884 18.7688V15.9154Z" fill="#A5C5F5"/>
<path d="M137.679 15.0075L135.734 15.9154L137.679 16.8233L139.884 15.9154L137.679 15.0075Z" fill="#B4D2FA"/>
</g>
<path d="M160.947 4.89094V1.90787L162.893 2.81576V5.66913L160.947 4.89094Z" fill="#79A5E5"/>
<path d="M165.097 1.90787L162.893 2.81576V5.66913L165.097 4.76124V1.90787Z" fill="#A5C5F5"/>
<path d="M162.893 1L160.947 1.90789L162.893 2.81578L165.098 1.90789L162.893 1Z" fill="#B4D2FA"/>
<path d="M216.043 32.7503V29.1706L218.67 30.2601V33.6841L216.043 32.7503Z" fill="#629DF8"/>
<path d="M221.646 29.1706L218.67 30.2601V33.6841L221.646 32.5947V29.1706Z" fill="#A5C6FB"/>
<path d="M218.67 28.0811L216.043 29.1706L218.67 30.2601L221.646 29.1706L218.67 28.0811Z" fill="#91B7F1"/>
<g opacity="0.6">
<path d="M242.191 35.7073V32.7243L244.136 33.6322V36.4855L242.191 35.7073Z" fill="#79A5E5"/>
<path d="M246.341 32.7243L244.136 33.6322V36.4855L246.341 35.5776V32.7243Z" fill="#A5C5F5"/>
<path d="M244.136 31.8165L242.191 32.7244L244.136 33.6322L246.341 32.7244L244.136 31.8165Z" fill="#B4D2FA"/>
</g>
<g opacity="0.3">
<path d="M242.191 57.1854V54.2024L244.136 55.1102V57.9636L242.191 57.1854Z" fill="#79A5E5"/>
<path d="M246.341 54.2024L244.136 55.1102V57.9636L246.341 57.0557V54.2024Z" fill="#A5C5F5"/>
<path d="M244.136 53.2946L242.191 54.2024L244.136 55.1103L246.341 54.2024L244.136 53.2946Z" fill="#B4D2FA"/>
</g>
<path d="M234.625 72.8012V70.4079L236.186 71.1363V73.4255L234.625 72.8012Z" fill="#79A5E5"/>
<path d="M237.955 70.4079L236.186 71.1363V73.4255L237.955 72.6971V70.4079Z" fill="#A5C5F5"/>
<path d="M236.186 69.6796L234.625 70.408L236.186 71.1364L237.955 70.408L236.186 69.6796Z" fill="#B4D2FA"/>
</g>
<g clip-path="url(#clip7_3430_213)">
<path d="M107.88 162.892L80.6421 144.734C76.9721 142.287 77.1079 136.849 80.8956 134.589L138.768 100.053" stroke="url(#paint18_linear_3430_213)"/>
<line x1="118.788" y1="169.919" x2="161.392" y2="195.481" stroke="url(#paint19_linear_3430_213)" stroke-dasharray="1 1"/>
<circle cx="110.543" cy="164.49" r="2.69524" stroke="#B6D1FD"/>
<path d="M261.252 116.029L288.49 134.188C292.16 136.634 292.025 142.072 288.237 144.332L230.365 178.869" stroke="url(#paint20_linear_3430_213)"/>
<line x1="250.344" y1="109.002" x2="207.741" y2="83.44" stroke="url(#paint21_linear_3430_213)" stroke-dasharray="1 1"/>
<circle cx="258.589" cy="114.431" r="2.69524" transform="rotate(-180 258.589 114.431)" stroke="#B6D1FD"/>
</g>
</g>
<defs>
<linearGradient id="paint0_linear_3430_213" x1="116.453" y1="168.604" x2="246.606" y2="168.604" gradientUnits="userSpaceOnUse">
<stop stop-color="white"/>
<stop offset="0.33" stop-color="#F9F8FE"/>
<stop offset="0.81" stop-color="#E8EBF9"/>
<stop offset="1" stop-color="#F0F1FC"/>
</linearGradient>
<linearGradient id="paint1_linear_3430_213" x1="246.606" y1="130.887" x2="116.407" y2="130.887" gradientUnits="userSpaceOnUse">
<stop offset="0.12" stop-color="#E4E9F8"/>
<stop offset="0.56" stop-color="#EAECF9"/>
<stop offset="0.71" stop-color="#F1F3FC"/>
<stop offset="0.91" stop-color="#F3F3FC"/>
<stop offset="1" stop-color="#F3F3FC"/>
</linearGradient>
<linearGradient id="paint2_linear_3430_213" x1="241.557" y1="98.2579" x2="121.496" y2="98.2579" gradientUnits="userSpaceOnUse">
<stop offset="0.12" stop-color="#E8EEFD"/>
<stop offset="1" stop-color="#E4EBFD"/>
</linearGradient>
<linearGradient id="paint3_linear_3430_213" x1="205.408" y1="112.323" x2="158.008" y2="112.323" gradientUnits="userSpaceOnUse">
<stop offset="0.12" stop-color="#CDDAFB"/>
<stop offset="1" stop-color="#E4EBFD"/>
</linearGradient>
<linearGradient id="paint4_linear_3430_213" x1="205.409" y1="126.045" x2="157.993" y2="126.045" gradientUnits="userSpaceOnUse">
<stop offset="0.12" stop-color="#ACCBFC"/>
<stop offset="0.56" stop-color="#C8DCFE"/>
<stop offset="0.71" stop-color="#C8DCFE"/>
<stop offset="0.91" stop-color="#C8DCFE"/>
<stop offset="1" stop-color="#EBF1FF"/>
</linearGradient>
<linearGradient id="paint5_linear_3430_213" x1="105.899" y1="65.3798" x2="2.03583" y2="65.3798" gradientUnits="userSpaceOnUse">
<stop offset="0.12" stop-color="#E8EEFD"/>
<stop offset="1" stop-color="#F4F7FF"/>
</linearGradient>
<linearGradient id="paint6_linear_3430_213" x1="105.9" y1="95.4484" x2="2.00456" y2="95.4484" gradientUnits="userSpaceOnUse">
<stop offset="0.12" stop-color="#ACCBFC"/>
<stop offset="0.56" stop-color="#C8DCFE"/>
<stop offset="0.71" stop-color="#C8DCFE"/>
<stop offset="0.91" stop-color="#C8DCFE"/>
<stop offset="1" stop-color="#EBF1FF"/>
</linearGradient>
<linearGradient id="paint7_linear_3430_213" x1="365.597" y1="61.7645" x2="261.734" y2="61.7645" gradientUnits="userSpaceOnUse">
<stop offset="0.12" stop-color="#E8EEFD"/>
<stop offset="1" stop-color="#F4F7FF"/>
</linearGradient>
<linearGradient id="paint8_linear_3430_213" x1="365.599" y1="91.8331" x2="261.703" y2="91.8331" gradientUnits="userSpaceOnUse">
<stop offset="0.12" stop-color="#ACCBFC"/>
<stop offset="0.56" stop-color="#C8DCFE"/>
<stop offset="0.71" stop-color="#C8DCFE"/>
<stop offset="0.91" stop-color="#C8DCFE"/>
<stop offset="1" stop-color="#EBF1FF"/>
</linearGradient>
<linearGradient id="paint9_linear_3430_213" x1="365.597" y1="61.9085" x2="261.734" y2="61.9085" gradientUnits="userSpaceOnUse">
<stop offset="0.12" stop-color="#E8EEFD"/>
<stop offset="1" stop-color="#F4F7FF"/>
</linearGradient>
<linearGradient id="paint10_linear_3430_213" x1="365.599" y1="91.9772" x2="261.703" y2="91.9772" gradientUnits="userSpaceOnUse">
<stop offset="0.12" stop-color="#ACCBFC"/>
<stop offset="0.56" stop-color="#C8DCFE"/>
<stop offset="0.71" stop-color="#C8DCFE"/>
<stop offset="0.91" stop-color="#C8DCFE"/>
<stop offset="1" stop-color="#EBF1FF"/>
</linearGradient>
<linearGradient id="paint11_linear_3430_213" x1="333.5" y1="74.9099" x2="291.5" y2="71.4099" gradientUnits="userSpaceOnUse">
<stop stop-color="#ADCCFD"/>
<stop offset="1" stop-color="#ADCCFD" stop-opacity="0"/>
</linearGradient>
<linearGradient id="paint12_linear_3430_213" x1="184.086" y1="98.0728" x2="210.18" y2="80.499" gradientUnits="userSpaceOnUse">
<stop stop-color="#C7DBFD"/>
<stop offset="1" stop-color="#5B99F7"/>
</linearGradient>
<linearGradient id="paint13_linear_3430_213" x1="166.18" y1="73.68" x2="166.18" y2="127.155" gradientUnits="userSpaceOnUse">
<stop stop-color="#CADCFD"/>
<stop offset="1" stop-color="#5090F7"/>
</linearGradient>
<linearGradient id="paint14_linear_3430_213" x1="181.134" y1="61.249" x2="181.134" y2="88.2834" gradientUnits="userSpaceOnUse">
<stop stop-color="#C1D7FC"/>
<stop offset="1" stop-color="#4388F6"/>
</linearGradient>
<linearGradient id="paint15_linear_3430_213" x1="165.668" y1="10.0351" x2="165.668" y2="79.7755" gradientUnits="userSpaceOnUse">
<stop stop-color="#EBF0FE"/>
<stop offset="1" stop-color="#4088F5"/>
</linearGradient>
<linearGradient id="paint16_linear_3430_213" x1="180.551" y1="75.7613" x2="180.551" y2="17.4219" gradientUnits="userSpaceOnUse">
<stop stop-color="#EBF0FE"/>
<stop offset="1" stop-color="#4088F5"/>
</linearGradient>
<radialGradient id="paint17_angular_3430_213" cx="0" cy="0" r="1" gradientUnits="userSpaceOnUse" gradientTransform="translate(181.903 87.2535) rotate(-0.690277) scale(44.2041 97.9204)">
<stop offset="0.0299247" stop-color="#85B3FA"/>
<stop offset="0.084643" stop-color="#679FF8"/>
<stop offset="0.258909" stop-color="#9DC1FB"/>
<stop offset="0.482972" stop-color="#95BCFB"/>
<stop offset="0.522727" stop-color="#86B3FA" stop-opacity="0"/>
<stop offset="0.981735" stop-color="#6DA4F9" stop-opacity="0"/>
</radialGradient>
<linearGradient id="paint18_linear_3430_213" x1="76.9929" y1="135.2" x2="135.572" y2="99.52" gradientUnits="userSpaceOnUse">
<stop stop-color="#B6D1FD"/>
<stop offset="1" stop-color="#B6D1FD" stop-opacity="0"/>
</linearGradient>
<linearGradient id="paint19_linear_3430_213" x1="139.79" y1="181.603" x2="159.399" y2="196.088" gradientUnits="userSpaceOnUse">
<stop stop-color="#B6D1FD"/>
<stop offset="1" stop-color="#B6D1FD" stop-opacity="0"/>
</linearGradient>
<linearGradient id="paint20_linear_3430_213" x1="292.14" y1="143.721" x2="233.56" y2="179.401" gradientUnits="userSpaceOnUse">
<stop stop-color="#B6D1FD"/>
<stop offset="1" stop-color="#B6D1FD" stop-opacity="0"/>
</linearGradient>
<linearGradient id="paint21_linear_3430_213" x1="229.343" y1="97.3181" x2="209.733" y2="82.8329" gradientUnits="userSpaceOnUse">
<stop stop-color="#B6D1FD"/>
<stop offset="1" stop-color="#B6D1FD" stop-opacity="0"/>
</linearGradient>
<clipPath id="clip0_3430_213">
<rect width="130.205" height="91.7815" fill="white" transform="translate(116.401 93.2053)"/>
</clipPath>
<clipPath id="clip1_3430_213">
<rect width="47.4173" height="31.731" fill="white" transform="translate(157.991 112.323)"/>
</clipPath>
<clipPath id="clip2_3430_213">
<rect width="103.9" height="67.2" fill="white" transform="translate(2 60.8176)"/>
</clipPath>
<clipPath id="clip3_3430_213">
<rect width="103.9" height="62.7804" fill="white" transform="translate(261.698 61.7659)"/>
</clipPath>
<clipPath id="clip4_3430_213">
<rect width="59.1204" height="65.9063" fill="white" transform="translate(151.574 61.249)"/>
</clipPath>
<clipPath id="clip5_3430_213">
<rect width="60.4172" height="69.7404" fill="white" transform="translate(150.785 10.0351)"/>
</clipPath>
<clipPath id="clip6_3430_213">
<rect width="124.615" height="72.4255" fill="white" transform="translate(121.726 1)"/>
</clipPath>
<clipPath id="clip7_3430_213">
<rect width="223.667" height="112.899" fill="white" transform="translate(72.7325 83.0113)"/>
</clipPath>
</defs>
</svg>
