<svg width="64" height="64" viewBox="0 0 64 64" fill="none" xmlns="http://www.w3.org/2000/svg">
<circle cx="32" cy="32" r="32" fill="#B9BECF"/>
<mask id="mask0_5160_641" style="mask-type:alpha" maskUnits="userSpaceOnUse" x="0" y="0" width="64" height="64">
<circle cx="32" cy="32" r="32" fill="#7DB4FF"/>
</mask>
<g mask="url(#mask0_5160_641)">
<path opacity="0.92" d="M28.6314 39.1531L14.3953 30.3403C12.3744 29.0892 12.3744 26.1496 14.3953 24.8986L28.6314 16.0857C30.6955 14.808 33.3047 14.808 35.3688 16.0857L49.6049 24.8986C51.6258 26.1496 51.6258 29.0892 49.6049 30.3403L35.3688 39.1531C33.3047 40.4308 30.6955 40.4308 28.6314 39.1531Z" fill="white"/>
<path opacity="0.4" fill-rule="evenodd" clip-rule="evenodd" d="M18.2499 32.7266L28.6314 39.1532C30.6955 40.4309 33.3047 40.4309 35.3688 39.1532L45.7503 32.7266L49.6049 35.1127C51.6258 36.3638 51.6258 39.3034 49.6049 40.5544L35.3688 49.3673C33.3047 50.645 30.6955 50.645 28.6314 49.3673L14.3953 40.5544C12.3744 39.3034 12.3744 36.3638 14.3953 35.1127L18.2499 32.7266Z" fill="white"/>
</g>
</svg>
