<svg width="368" height="196" viewBox="0 0 368 196" fill="none" xmlns="http://www.w3.org/2000/svg">
<g opacity="0.8" clip-path="url(#clip0_3430_220)">
<path d="M242.835 123.708C248.759 127.139 248.799 132.684 242.91 136.104L193.131 165.028C187.236 168.458 177.647 168.458 171.723 165.028L121.619 136.104C115.689 132.673 115.655 127.127 121.55 123.702L171.329 94.7781C177.218 91.3477 186.801 91.3477 192.731 94.7781L242.835 123.708Z" fill="url(#paint0_linear_3430_220)"/>
<path d="M247.249 130.392C247.249 130.552 247.249 130.712 247.192 130.872C247.135 131.032 247.129 131.129 247.095 131.255C247.061 131.381 247.021 131.558 246.963 131.707C246.906 131.855 246.86 131.953 246.809 132.073C246.758 132.193 246.672 132.387 246.586 132.547C246.5 132.707 246.454 132.77 246.386 132.885C246.317 132.999 246.163 133.239 246.031 133.411C245.9 133.582 245.78 133.742 245.637 133.908L245.534 134.028C245.34 134.24 245.122 134.451 244.899 134.651C244.676 134.851 244.59 134.909 244.436 135.034C244.282 135.16 244.162 135.257 244.013 135.366C243.864 135.475 243.653 135.612 243.441 135.732C243.23 135.852 243.07 135.983 242.869 136.098L193.091 165.022C192.627 165.286 192.15 165.527 191.661 165.743L191.227 165.925C190.845 166.089 190.449 166.24 190.037 166.377L189.603 166.526C189.346 166.606 189.083 166.674 188.825 166.749L188.253 166.909C187.979 166.977 187.682 167.029 187.413 167.086L186.841 167.2C186.269 167.298 185.698 167.378 185.126 167.441L184.588 167.486C184.251 167.486 183.908 167.538 183.565 167.555H182.907H182.078H181.386L180.615 167.515L179.917 167.458L179.162 167.372L178.482 167.275L177.681 167.138L177.058 167.012C176.738 166.943 176.429 166.863 176.115 166.783L175.6 166.646C175.028 166.486 174.502 166.303 173.976 166.074C173.719 165.971 173.462 165.863 173.21 165.748L172.816 165.577C172.432 165.394 172.061 165.205 171.706 165.005L121.619 136.104C119.011 134.594 117.542 132.673 117.216 130.706C117.17 130.427 117.147 130.144 117.147 129.86L117.102 146.309C117.102 148.596 118.588 150.832 121.567 152.552L171.672 181.477C172.026 181.683 172.398 181.877 172.781 182.049L173.176 182.22C173.399 182.323 173.622 182.426 173.856 182.517H173.942C174.468 182.723 175.011 182.9 175.566 183.089L175.697 183.135L176.086 183.232C176.395 183.312 176.709 183.392 177.024 183.461L177.275 183.524L177.653 183.587L178.453 183.724L178.779 183.781L179.134 183.821L179.888 183.907L180.254 183.947H180.592L181.358 183.987H181.747H183.296H183.536C183.879 183.987 184.222 183.947 184.56 183.918H184.971H185.097C185.669 183.855 186.241 183.781 186.813 183.678H186.898L187.39 183.575C187.67 183.518 187.962 183.461 188.219 183.398L188.791 183.238C189.054 183.169 189.311 183.095 189.569 183.015L189.734 182.969L190.003 182.866C190.407 182.729 190.804 182.578 191.192 182.414L191.621 182.232C192.11 182.016 192.587 181.775 193.051 181.511L242.829 152.587L243.012 152.478C243.155 152.392 243.27 152.301 243.407 152.215C243.544 152.129 243.779 151.981 243.944 151.855C244.11 151.729 244.23 151.632 244.368 151.518C244.505 151.403 244.688 151.266 244.831 151.135L244.922 151.06C245.117 150.883 245.294 150.694 245.494 150.489L245.591 150.374C245.688 150.26 245.791 150.145 245.883 150.031C245.974 149.917 245.951 149.928 245.986 149.877C246.117 149.705 246.231 149.528 246.34 149.351C246.386 149.276 246.449 149.202 246.489 149.128C246.529 149.053 246.523 149.048 246.54 149.013C246.626 148.859 246.695 148.699 246.763 148.545C246.832 148.39 246.855 148.362 246.889 148.27C246.923 148.179 246.889 148.207 246.889 148.173C246.94 148.024 246.981 147.87 247.021 147.721C247.061 147.573 247.089 147.521 247.106 147.418C247.123 147.315 247.106 147.361 247.106 147.338C247.135 147.178 247.146 147.018 247.158 146.864C247.169 146.709 247.192 146.658 247.192 146.555C247.192 146.452 247.192 146.469 247.192 146.423L247.306 129.929C247.306 130.1 247.284 130.243 247.249 130.392Z" fill="url(#paint1_linear_3430_220)"/>
<path d="M247.249 138.392C247.249 138.552 247.249 138.712 247.192 138.872C247.135 139.032 247.129 139.129 247.095 139.255C247.061 139.381 247.021 139.558 246.963 139.707C246.906 139.855 246.86 139.953 246.809 140.073C246.758 140.193 246.672 140.387 246.586 140.547C246.5 140.707 246.454 140.77 246.386 140.885C246.317 140.999 246.163 141.239 246.031 141.411C245.9 141.582 245.78 141.742 245.637 141.908L245.534 142.028C245.34 142.24 245.122 142.451 244.899 142.651C244.676 142.851 244.59 142.909 244.436 143.034C244.282 143.16 244.162 143.257 244.013 143.366C243.864 143.475 243.653 143.612 243.441 143.732C243.23 143.852 243.07 143.983 242.869 144.098L193.091 173.022C192.627 173.286 192.15 173.527 191.661 173.743L191.227 173.925C190.845 174.089 190.449 174.24 190.037 174.377L189.603 174.526C189.346 174.606 189.083 174.674 188.825 174.749L188.253 174.909C187.979 174.977 187.682 175.029 187.413 175.086L186.841 175.2C186.269 175.298 185.698 175.378 185.126 175.441L184.588 175.486C184.251 175.486 183.908 175.538 183.565 175.555H182.907H182.078H181.386L180.615 175.515L179.917 175.458L179.162 175.372L178.482 175.275L177.681 175.138L177.058 175.012C176.738 174.943 176.429 174.863 176.115 174.783L175.6 174.646C175.028 174.486 174.502 174.303 173.976 174.074C173.719 173.971 173.462 173.863 173.21 173.748L172.816 173.577C172.432 173.394 172.061 173.205 171.706 173.005L121.619 144.104C119.011 142.594 117.542 140.673 117.216 138.706C117.17 138.427 117.147 138.144 117.147 137.86L117.102 139.309C117.102 141.596 118.588 143.832 121.567 145.552L171.672 174.477C172.026 174.683 172.398 174.877 172.781 175.049L173.176 175.22C173.399 175.323 173.622 175.426 173.856 175.517H173.942C174.468 175.723 175.011 175.9 175.566 176.089L175.697 176.135L176.086 176.232C176.395 176.312 176.709 176.392 177.024 176.461L177.275 176.524L177.653 176.587L178.453 176.724L178.779 176.781L179.134 176.821L179.888 176.907L180.254 176.947H180.592L181.358 176.987H181.747H183.296H183.536C183.879 176.987 184.222 176.947 184.56 176.918H184.971H185.097C185.669 176.855 186.241 176.781 186.813 176.678H186.898L187.39 176.575C187.67 176.518 187.962 176.461 188.219 176.398L188.791 176.238C189.054 176.169 189.311 176.095 189.569 176.015L189.734 175.969L190.003 175.866C190.407 175.729 190.804 175.578 191.192 175.414L191.621 175.232C192.11 175.016 192.587 174.775 193.051 174.511L242.829 145.587L243.012 145.478C243.155 145.392 243.27 145.301 243.407 145.215C243.544 145.129 243.779 144.981 243.944 144.855C244.11 144.729 244.23 144.632 244.368 144.518C244.505 144.403 244.688 144.266 244.831 144.135L244.922 144.06C245.117 143.883 245.294 143.694 245.494 143.489L245.591 143.374C245.688 143.26 245.791 143.145 245.883 143.031C245.974 142.917 245.951 142.928 245.986 142.877C246.117 142.705 246.231 142.528 246.34 142.351C246.386 142.276 246.449 142.202 246.489 142.128C246.529 142.053 246.523 142.048 246.54 142.013C246.626 141.859 246.695 141.699 246.763 141.545C246.832 141.39 246.855 141.362 246.889 141.27C246.923 141.179 246.889 141.207 246.889 141.173C246.94 141.024 246.981 140.87 247.021 140.721C247.061 140.573 247.089 140.521 247.106 140.418C247.123 140.315 247.106 140.361 247.106 140.338C247.135 140.178 247.146 140.018 247.158 139.864C247.169 139.709 247.192 139.658 247.192 139.555C247.192 139.452 247.192 139.469 247.192 139.423L247.306 137.929C247.306 138.1 247.284 138.243 247.249 138.392Z" fill="#7DACFA"/>
<path d="M182.444 162.552C179.317 162.552 176.332 161.866 174.251 160.66L124.146 131.73C122.659 130.872 122.202 130.066 122.202 129.872C122.202 129.677 122.648 128.9 124.089 128.065L173.868 99.1405C175.926 97.9455 178.894 97.2594 182.01 97.2594C185.126 97.2594 188.128 97.9513 190.209 99.1519L240.314 128.082C241.8 128.94 242.258 129.746 242.258 129.946C242.258 130.146 241.812 130.918 240.377 131.753L190.598 160.677C188.539 161.866 185.566 162.552 182.444 162.552Z" fill="url(#paint2_linear_3430_220)"/>
<path d="M204.482 122.796C206.639 124.045 206.654 126.065 204.509 127.31L186.381 137.844C184.234 139.093 180.742 139.093 178.585 137.844L160.338 127.31C158.179 126.061 158.166 124.041 160.313 122.794L178.441 112.26C180.586 111.011 184.076 111.011 186.235 112.26L204.482 122.796Z" fill="url(#paint3_linear_3430_220)"/>
<path d="M206.088 125.23C206.088 125.288 206.088 125.347 206.068 125.405C206.047 125.463 206.045 125.499 206.032 125.544C206.02 125.59 206.005 125.655 205.984 125.709C205.963 125.763 205.947 125.798 205.928 125.842C205.909 125.886 205.878 125.957 205.847 126.015C205.816 126.073 205.799 126.096 205.774 126.138C205.749 126.179 205.693 126.267 205.645 126.329C205.597 126.392 205.553 126.45 205.501 126.51L205.464 126.554C205.393 126.631 205.314 126.708 205.233 126.781C205.151 126.854 205.12 126.875 205.064 126.921C205.008 126.966 204.964 127.002 204.91 127.041C204.856 127.081 204.779 127.131 204.702 127.175C204.625 127.218 204.566 127.266 204.493 127.308L186.365 137.841C186.196 137.938 186.022 138.025 185.845 138.104L185.686 138.17C185.548 138.23 185.403 138.285 185.253 138.335L185.095 138.389C185.001 138.418 184.906 138.443 184.812 138.47L184.604 138.529C184.504 138.554 184.395 138.572 184.297 138.593L184.089 138.635C183.881 138.67 183.673 138.699 183.465 138.722L183.269 138.739C183.146 138.739 183.021 138.758 182.896 138.764H182.657H182.355H182.103L181.822 138.749L181.568 138.728L181.293 138.697L181.045 138.662L180.753 138.612L180.527 138.566C180.41 138.541 180.297 138.512 180.183 138.483L179.996 138.433C179.787 138.375 179.596 138.308 179.404 138.225C179.31 138.187 179.217 138.148 179.125 138.106L178.981 138.043C178.842 137.977 178.707 137.908 178.578 137.835L160.337 127.31C159.387 126.76 158.852 126.061 158.734 125.345C158.717 125.243 158.708 125.14 158.709 125.036L158.692 129.333C158.692 130.166 159.233 130.98 160.318 131.607L178.565 142.14C178.694 142.215 178.829 142.286 178.969 142.349L179.113 142.411C179.194 142.449 179.275 142.486 179.36 142.519H179.392C179.583 142.594 179.781 142.659 179.983 142.728L180.031 142.744L180.173 142.78C180.285 142.809 180.399 142.838 180.514 142.863L180.606 142.886L180.743 142.909L181.035 142.959L181.153 142.979L181.282 142.994L181.557 143.025L181.691 143.04H181.813L182.092 143.054H182.234H182.798H182.886C183.011 143.054 183.136 143.04 183.258 143.029H183.408H183.454C183.662 143.007 183.871 142.979 184.079 142.942H184.11L184.289 142.905C184.391 142.884 184.497 142.863 184.591 142.84L184.799 142.782C184.895 142.757 184.989 142.73 185.083 142.7L185.143 142.684L185.241 142.646C185.388 142.596 185.532 142.542 185.674 142.482L185.83 142.415C186.008 142.337 186.182 142.249 186.351 142.153L204.479 131.619L204.545 131.58C204.597 131.549 204.639 131.515 204.689 131.484C204.739 131.453 204.824 131.399 204.885 131.353C204.945 131.307 204.989 131.272 205.039 131.23C205.089 131.188 205.156 131.138 205.208 131.09L205.241 131.063C205.312 130.999 205.376 130.93 205.449 130.855L205.485 130.814C205.52 130.772 205.557 130.73 205.591 130.689C205.624 130.647 205.616 130.651 205.628 130.632C205.676 130.57 205.718 130.505 205.757 130.441C205.774 130.414 205.797 130.387 205.811 130.36C205.826 130.333 205.824 130.331 205.83 130.318C205.861 130.262 205.886 130.204 205.911 130.147C205.936 130.091 205.945 130.081 205.957 130.047C205.97 130.014 205.957 130.024 205.957 130.012C205.976 129.958 205.991 129.902 206.005 129.847C206.02 129.793 206.03 129.775 206.036 129.737C206.043 129.7 206.036 129.716 206.036 129.708C206.047 129.65 206.051 129.591 206.055 129.535C206.059 129.479 206.068 129.46 206.068 129.423C206.068 129.385 206.068 129.391 206.068 129.375L206.109 125.061C206.109 125.124 206.101 125.176 206.088 125.23Z" fill="url(#paint4_linear_3430_220)"/>
<path d="M102.334 89.5937C107.061 92.3311 107.093 96.7566 102.394 99.4848L62.6714 122.566C57.9674 125.303 50.3158 125.303 45.5889 122.566L5.60654 99.4848C0.875085 96.7474 0.847709 92.322 5.55179 89.5891L45.2741 66.5082C49.9736 63.7707 57.6206 63.7707 62.352 66.5082L102.334 89.5937Z" fill="url(#paint5_linear_3430_220)"/>
<path d="M105.855 94.927C105.855 95.0547 105.855 95.1824 105.809 95.3102C105.763 95.4379 105.759 95.5155 105.732 95.6159C105.704 95.7162 105.672 95.8577 105.627 95.9763C105.581 96.0949 105.544 96.1725 105.503 96.2683C105.462 96.3641 105.394 96.5192 105.325 96.647C105.257 96.7747 105.221 96.8249 105.166 96.9161C105.111 97.0074 104.988 97.199 104.883 97.3359C104.778 97.4727 104.682 97.6005 104.568 97.7328L104.486 97.8286C104.331 97.9974 104.157 98.1662 103.979 98.3259C103.802 98.4856 103.733 98.5312 103.61 98.6316C103.487 98.732 103.391 98.8095 103.272 98.8962C103.154 98.9829 102.985 99.0924 102.816 99.1882C102.647 99.284 102.519 99.3889 102.36 99.4802L62.6374 122.561C62.2673 122.772 61.8865 122.964 61.4968 123.136L61.15 123.282C60.8458 123.413 60.5295 123.533 60.201 123.642L59.8542 123.761C59.6489 123.825 59.439 123.88 59.2337 123.939L58.7774 124.067C58.5584 124.121 58.3212 124.163 58.1067 124.208L57.6505 124.299C57.1942 124.377 56.7379 124.441 56.2817 124.491L55.8528 124.528C55.5836 124.528 55.3098 124.569 55.0361 124.582H54.5114H53.8498H53.2977L52.6818 124.55L52.1251 124.505L51.5229 124.436L50.9799 124.359L50.3411 124.249L49.8438 124.149C49.5883 124.094 49.3419 124.03 49.091 123.966L48.6803 123.857C48.2241 123.729 47.8043 123.583 47.3845 123.401C47.1792 123.318 46.9739 123.232 46.7732 123.141L46.4583 123.004C46.1526 122.858 45.8561 122.707 45.5732 122.547L5.60448 99.4847C3.52392 98.2803 2.35132 96.7473 2.09125 95.1779C2.05443 94.9547 2.03612 94.7289 2.0365 94.5027L2 97.0255C2 98.8505 3.18629 100.634 5.56342 102.008L45.5458 125.089C45.8287 125.253 46.1253 125.408 46.431 125.545L46.7458 125.682C46.9237 125.764 47.1017 125.846 47.2887 125.919H47.3572C47.7769 126.083 48.2104 126.225 48.653 126.375L48.7579 126.412L49.0682 126.489C49.3145 126.553 49.5655 126.617 49.8164 126.672L50.0172 126.722L50.3183 126.772L50.9571 126.882L51.2172 126.927L51.5 126.959L52.1023 127.028L52.3943 127.059H52.6635L53.2749 127.091H53.5852H54.8216H55.0133C55.287 127.091 55.5608 127.06 55.83 127.037H56.1585H56.2589C56.7151 126.987 57.1714 126.927 57.6277 126.845H57.6961L58.0885 126.763C58.3121 126.717 58.5448 126.672 58.7501 126.622L59.2063 126.494C59.4162 126.439 59.6215 126.38 59.8269 126.316L59.9592 126.279L60.1736 126.197C60.496 126.088 60.8124 125.968 61.1226 125.837L61.4648 125.691C61.8546 125.519 62.2353 125.327 62.6055 125.116L102.328 102.035L102.474 101.948C102.588 101.88 102.679 101.807 102.789 101.738C102.898 101.67 103.085 101.551 103.218 101.451C103.35 101.351 103.446 101.273 103.555 101.182C103.665 101.091 103.811 100.981 103.925 100.876L103.998 100.817C104.153 100.675 104.294 100.525 104.454 100.361L104.532 100.269C104.609 100.178 104.691 100.087 104.764 99.9956C104.837 99.9044 104.819 99.9135 104.846 99.8724C104.951 99.7356 105.043 99.5941 105.129 99.4527C105.166 99.3934 105.216 99.3341 105.248 99.2748C105.28 99.2154 105.275 99.2109 105.289 99.1835C105.357 99.0603 105.412 98.9326 105.467 98.8094C105.522 98.6862 105.54 98.6634 105.567 98.5904C105.595 98.5174 105.567 98.5402 105.567 98.5128C105.608 98.3942 105.64 98.271 105.672 98.1524C105.704 98.0338 105.727 97.9927 105.741 97.9106C105.754 97.8285 105.741 97.865 105.741 97.8467C105.763 97.719 105.773 97.5912 105.782 97.4681C105.791 97.3449 105.809 97.3038 105.809 97.2217C105.809 97.1396 105.809 97.1533 105.809 97.1168L105.9 94.5574C105.9 94.6943 105.882 94.8083 105.855 94.927Z" fill="url(#paint6_linear_3430_220)"/>
<path d="M57 88.9614V55.9105L66.5482 60.3664V94.3704L57 88.9614Z" fill="#DBE5FF"/>
<path d="M77.3693 55.9105L66.548 60.3664V94.3704L77.3693 89.9146V55.9105Z" fill="#AACAFF"/>
<path d="M66.5482 51.4551L57 55.9109L66.5482 60.3667L77.3695 55.9109L66.5482 51.4551Z" fill="#BAD4FF"/>
<path d="M42 95.9614V72.9105L51.5482 77.3664V101.37L42 95.9614Z" fill="#DBE5FF"/>
<path d="M62.3693 72.9105L51.548 77.3664V101.37L62.3693 96.9146V72.9105Z" fill="#AACAFF"/>
<path d="M51.5482 68.4551L42 72.9109L51.5482 77.3667L62.3695 72.9109L51.5482 68.4551Z" fill="#BAD4FF"/>
<path d="M27.4678 103.035V89.9843L37.016 94.4401V108.444L27.4678 103.035Z" fill="#DBE5FF"/>
<path d="M47.837 89.9843L37.0157 94.4401V108.444L47.837 103.988V89.9843Z" fill="#AACAFF"/>
<path d="M37.016 85.5288L27.4678 89.9846L37.016 94.4405L47.8373 89.9846L37.016 85.5288Z" fill="#BAD4FF"/>
<path d="M362.733 85.9045C367.46 88.6419 367.492 93.0674 362.793 95.7957L323.07 118.877C318.366 121.614 310.715 121.614 305.988 118.877L266.005 95.7957C261.274 93.0582 261.247 88.6328 265.951 85.8999L305.673 62.819C310.373 60.0815 318.02 60.0815 322.751 62.819L362.733 85.9045Z" fill="url(#paint7_linear_3430_220)"/>
<path d="M366.254 91.2378C366.254 91.3655 366.254 91.4933 366.208 91.621C366.162 91.7488 366.158 91.8263 366.13 91.9267C366.103 92.0271 366.071 92.1685 366.026 92.2871C365.98 92.4058 365.943 92.4833 365.902 92.5791C365.861 92.6749 365.793 92.8301 365.724 92.9578C365.656 93.0855 365.619 93.1357 365.565 93.227C365.51 93.3182 365.387 93.5098 365.282 93.6467C365.177 93.7836 365.081 93.9113 364.967 94.0436L364.885 94.1394C364.73 94.3083 364.556 94.4771 364.378 94.6367C364.2 94.7964 364.132 94.8421 364.009 94.9424C363.886 95.0428 363.79 95.1204 363.671 95.207C363.553 95.2937 363.384 95.4032 363.215 95.499C363.046 95.5948 362.918 95.6998 362.759 95.791L323.036 118.872C322.666 119.083 322.285 119.275 321.896 119.447L321.549 119.593C321.245 119.724 320.928 119.844 320.6 119.953L320.253 120.072C320.048 120.136 319.838 120.19 319.633 120.25L319.176 120.378C318.957 120.432 318.72 120.473 318.506 120.519L318.049 120.61C317.593 120.688 317.137 120.752 316.681 120.802L316.252 120.838C315.983 120.838 315.709 120.879 315.435 120.893H314.91H314.249H313.697L313.081 120.861L312.524 120.816L311.922 120.747L311.379 120.67L310.74 120.56L310.243 120.46C309.987 120.405 309.741 120.341 309.49 120.277L309.079 120.168C308.623 120.04 308.203 119.894 307.783 119.711C307.578 119.629 307.373 119.543 307.172 119.451L306.857 119.315C306.552 119.169 306.255 119.018 305.972 118.858L266.003 95.7956C263.923 94.5911 262.75 93.0582 262.49 91.4887C262.453 91.2655 262.435 91.0397 262.435 90.8135L262.399 93.3364C262.399 95.1613 263.585 96.9452 265.962 98.3184L305.945 121.399C306.228 121.564 306.524 121.719 306.83 121.856L307.145 121.993C307.323 122.075 307.501 122.157 307.688 122.23H307.756C308.176 122.394 308.609 122.535 309.052 122.686L309.157 122.722L309.467 122.8C309.713 122.864 309.964 122.928 310.215 122.983L310.416 123.033L310.717 123.083L311.356 123.192L311.616 123.238L311.899 123.27L312.501 123.338L312.793 123.37H313.062L313.674 123.402H313.984H315.221H315.412C315.686 123.402 315.96 123.37 316.229 123.348H316.557H316.658C317.114 123.297 317.57 123.238 318.027 123.156H318.095L318.487 123.074C318.711 123.028 318.944 122.983 319.149 122.932L319.605 122.805C319.815 122.75 320.02 122.691 320.226 122.627L320.358 122.59L320.573 122.508C320.895 122.399 321.211 122.278 321.522 122.148L321.864 122.002C322.253 121.829 322.634 121.638 323.004 121.427L362.727 98.3458L362.873 98.2591C362.987 98.1907 363.078 98.1177 363.188 98.0493C363.297 97.9808 363.484 97.8622 363.616 97.7618C363.749 97.6615 363.845 97.5839 363.954 97.4927C364.064 97.4014 364.21 97.2919 364.324 97.187L364.397 97.1277C364.552 96.9862 364.693 96.8357 364.853 96.6714L364.93 96.5802C365.008 96.4889 365.09 96.3977 365.163 96.3064C365.236 96.2152 365.218 96.2243 365.245 96.1833C365.35 96.0464 365.441 95.905 365.528 95.7635C365.565 95.7042 365.615 95.6449 365.647 95.5856C365.679 95.5263 365.674 95.5217 365.688 95.4943C365.756 95.3712 365.811 95.2434 365.866 95.1202C365.921 94.9971 365.939 94.9742 365.966 94.9012C365.994 94.8282 365.966 94.8511 365.966 94.8237C366.007 94.7051 366.039 94.5819 366.071 94.4633C366.103 94.3446 366.126 94.3036 366.14 94.2215C366.153 94.1393 366.14 94.1758 366.14 94.1576C366.162 94.0298 366.172 93.9021 366.181 93.7789C366.19 93.6557 366.208 93.6147 366.208 93.5325C366.208 93.4504 366.208 93.4641 366.208 93.4276L366.299 90.8682C366.299 91.0051 366.281 91.1192 366.254 91.2378Z" fill="url(#paint8_linear_3430_220)"/>
<path d="M362.733 86.0485C367.46 88.7859 367.492 93.2114 362.793 95.9397L323.07 119.021C318.366 121.758 310.715 121.758 305.988 119.021L266.005 95.9397C261.274 93.2023 261.247 88.7768 265.951 86.044L305.673 62.963C310.373 60.2256 318.02 60.2256 322.751 62.963L362.733 86.0485Z" fill="url(#paint9_linear_3430_220)"/>
<path d="M366.254 91.3818C366.254 91.5096 366.254 91.6373 366.208 91.7651C366.162 91.8928 366.158 91.9704 366.13 92.0707C366.103 92.1711 366.071 92.3126 366.026 92.4312C365.98 92.5498 365.943 92.6274 365.902 92.7232C365.861 92.819 365.793 92.9741 365.724 93.1018C365.656 93.2296 365.619 93.2798 365.565 93.371C365.51 93.4623 365.387 93.6539 365.282 93.7908C365.177 93.9276 365.081 94.0554 364.967 94.1877L364.885 94.2835C364.73 94.4523 364.556 94.6211 364.378 94.7808C364.2 94.9405 364.132 94.9861 364.009 95.0865C363.886 95.1868 363.79 95.2644 363.671 95.3511C363.553 95.4378 363.384 95.5473 363.215 95.6431C363.046 95.7389 362.918 95.8438 362.759 95.9351L323.036 119.016C322.666 119.227 322.285 119.419 321.896 119.591L321.549 119.737C321.245 119.868 320.928 119.988 320.6 120.097L320.253 120.216C320.048 120.28 319.838 120.335 319.633 120.394L319.176 120.522C318.957 120.576 318.72 120.617 318.506 120.663L318.049 120.754C317.593 120.832 317.137 120.896 316.681 120.946L316.252 120.982C315.983 120.982 315.709 121.023 315.435 121.037H314.91H314.249H313.697L313.081 121.005L312.524 120.96L311.922 120.891L311.379 120.814L310.74 120.704L310.243 120.604C309.987 120.549 309.741 120.485 309.49 120.421L309.079 120.312C308.623 120.184 308.203 120.038 307.783 119.855C307.578 119.773 307.373 119.687 307.172 119.595L306.857 119.459C306.552 119.313 306.255 119.162 305.972 119.002L266.003 95.9396C263.923 94.7352 262.75 93.2022 262.49 91.6328C262.453 91.4096 262.435 91.1837 262.435 90.9575L262.399 93.4804C262.399 95.3053 263.585 97.0892 265.962 98.4625L305.945 121.543C306.228 121.708 306.524 121.863 306.83 122L307.145 122.137C307.323 122.219 307.501 122.301 307.688 122.374H307.756C308.176 122.538 308.609 122.679 309.052 122.83L309.157 122.867L309.467 122.944C309.713 123.008 309.964 123.072 310.215 123.127L310.416 123.177L310.717 123.227L311.356 123.336L311.616 123.382L311.899 123.414L312.501 123.482L312.793 123.514H313.062L313.674 123.546H313.984H315.221H315.412C315.686 123.546 315.96 123.514 316.229 123.492H316.557H316.658C317.114 123.441 317.57 123.382 318.027 123.3H318.095L318.487 123.218C318.711 123.172 318.944 123.127 319.149 123.076L319.605 122.949C319.815 122.894 320.02 122.835 320.226 122.771L320.358 122.734L320.573 122.652C320.895 122.543 321.211 122.422 321.522 122.292L321.864 122.146C322.253 121.974 322.634 121.782 323.004 121.571L362.727 98.4899L362.873 98.4032C362.987 98.3347 363.078 98.2617 363.188 98.1933C363.297 98.1249 363.484 98.0063 363.616 97.9059C363.749 97.8055 363.845 97.7279 363.954 97.6367C364.064 97.5455 364.21 97.436 364.324 97.331L364.397 97.2717C364.552 97.1303 364.693 96.9797 364.853 96.8155L364.93 96.7242C365.008 96.633 365.09 96.5417 365.163 96.4505C365.236 96.3592 365.218 96.3684 365.245 96.3273C365.35 96.1904 365.441 96.049 365.528 95.9076C365.565 95.8483 365.615 95.7889 365.647 95.7296C365.679 95.6703 365.674 95.6658 365.688 95.6384C365.756 95.5152 365.811 95.3875 365.866 95.2643C365.921 95.1411 365.939 95.1183 365.966 95.0453C365.994 94.9723 365.966 94.9951 365.966 94.9677C366.007 94.8491 366.039 94.7259 366.071 94.6073C366.103 94.4887 366.126 94.4476 366.14 94.3655C366.153 94.2834 366.14 94.3199 366.14 94.3016C366.162 94.1739 366.172 94.0461 366.181 93.9229C366.19 93.7998 366.208 93.7587 366.208 93.6766C366.208 93.5945 366.208 93.6081 366.208 93.5716L366.299 91.0123C366.299 91.1492 366.281 91.2632 366.254 91.3818Z" fill="url(#paint10_linear_3430_220)"/>
<path d="M108.581 161.892L81.3428 143.734C77.6728 141.287 77.8086 135.849 81.5963 133.589L139.468 99.0526" stroke="url(#paint11_linear_3430_220)"/>
<line x1="119.489" y1="168.919" x2="162.092" y2="194.481" stroke="url(#paint12_linear_3430_220)" stroke-dasharray="1 1"/>
<circle cx="111.244" cy="163.49" r="2.69524" stroke="#B6D1FD"/>
<path d="M261.953 115.029L289.191 133.188C292.861 135.634 292.725 141.072 288.938 143.332L231.066 177.869" stroke="url(#paint13_linear_3430_220)"/>
<line x1="251.045" y1="108.002" x2="208.441" y2="82.44" stroke="url(#paint14_linear_3430_220)" stroke-dasharray="1 1"/>
<circle cx="259.29" cy="113.431" r="2.69524" transform="rotate(-180 259.29 113.431)" stroke="#B6D1FD"/>
</g>
<g clip-path="url(#clip1_3430_220)">
<path d="M142 99.5237V42.4258L213.894 75.5078V135.345L142 99.5237Z" fill="url(#paint15_linear_3430_220)"/>
<path d="M223 71.8864L213.894 74.8204V135.934L223 133V71.8864Z" fill="url(#paint16_linear_3430_220)"/>
<path d="M149 38L142 42.346L213.216 75.6599L223 72L149 38Z" fill="url(#paint17_linear_3430_220)"/>
</g>
<g clip-path="url(#clip2_3430_220)">
<path d="M134 79.5743V58.6239L160.379 70.7623V92.7178L134 79.5743Z" fill="url(#paint18_linear_3430_220)"/>
<path d="M163.72 69.4336L160.379 70.5102V92.9339L163.72 91.8574V69.4336Z" fill="url(#paint19_linear_3430_220)"/>
<path d="M136.568 57L134 58.5946L160.13 70.8181L163.72 69.4753L136.568 57Z" fill="url(#paint20_linear_3430_220)"/>
</g>
<g clip-path="url(#clip3_3430_220)">
<path d="M182 88.5L173 97.125L170 92.25L182 79.875L191 99L201.875 88.125L206 93L190.625 108L182 88.5Z" fill="url(#paint21_linear_3430_220)"/>
<path d="M176.375 95.625L173 97.125L181.625 87L183.125 89.625L176.375 95.625Z" fill="url(#paint22_linear_3430_220)"/>
<path d="M209.375 91.125L206 93L190.625 108L194 106.5L209.375 91.125Z" fill="url(#paint23_linear_3430_220)"/>
<path d="M185.375 78L182 79.875L191 99L194 96L185.375 78Z" fill="url(#paint24_linear_3430_220)"/>
<path d="M206 93L201.875 88.125L205.25 86.25L209.375 91.125L206 93Z" fill="url(#paint25_linear_3430_220)"/>
</g>
<path fill-rule="evenodd" clip-rule="evenodd" d="M315 100C328.807 100 340 94.6274 340 88L340 81.5L336.018 81.5C331.567 78.1907 323.817 76 315 76C306.183 76 298.433 78.1907 293.982 81.5001L290 81.5001V88V88.5001L290.021 88.4998C290.567 94.8955 301.542 100 315 100Z" fill="url(#paint26_linear_3430_220)"/>
<ellipse cx="315" cy="81.5" rx="25" ry="11.5" fill="#DBE5FF"/>
<ellipse cx="315" cy="81.5" rx="8" ry="3.5" fill="#ACCBFF"/>
<path d="M321 76.9999L321 73.9998C321 73.9998 317.565 72.4191 310 73.5C303 74.5001 301.5 79 303 81C303 80.3333 304.3 78.5999 309.5 76.9999C314.7 75.3999 319.333 76.3333 321 76.9999Z" fill="url(#paint27_linear_3430_220)"/>
<path d="M291.5 75.0001C287 81.0001 293 85 296 86.0001L305.5 82.5C301 81.5 302.676 76.5296 306.5 75.0001C312.5 72.5 317.667 73.5001 321 74.0001L325.5 69.5C320 67.4999 317.5 67 310 67C304.5 67 296.079 68.8944 291.5 75.0001Z" fill="url(#paint28_linear_3430_220)"/>
<path d="M296 86V89.5L305.5 86V82.5L296 86Z" fill="url(#paint29_linear_3430_220)"/>
<path d="M321 77L325.5 72V69.5L321 74V77Z" fill="url(#paint30_linear_3430_220)"/>
<path d="M296 86L296 89.5C295.333 89 293.6 88.6 292 87C289.5 85 290 81.6667 290 80.5C290.167 81 290.8 82.3 292 83.5C293.2 84.7 295.167 85.6667 296 86Z" fill="url(#paint31_linear_3430_220)"/>
<path d="M238 38.8908V35.9078L239.945 36.8157V39.669L238 38.8908Z" fill="#C8DCFE"/>
<path d="M242.15 35.9078L239.946 36.8157V39.669L242.15 38.7611V35.9078Z" fill="#78ABF9"/>
<path d="M239.945 35L238 35.9079L239.945 36.8158L242.15 35.9079L239.945 35Z" fill="#91BAFB"/>
<path d="M143 29.7664V26.1121L145.383 27.2243V30.7197L143 29.7664Z" fill="#C8DCFE"/>
<path d="M148.084 26.1121L145.383 27.2243V30.7197L148.084 29.6075V26.1121Z" fill="#78ABF9"/>
<path d="M145.383 25L143 26.1122L145.383 27.2243L148.084 26.1122L145.383 25Z" fill="#91BAFB"/>
<g opacity="0.5">
<path d="M214 50.8909V47.9079L215.945 48.8158V51.6691L214 50.8909Z" fill="#C8DCFE"/>
<path d="M218.15 47.9079L215.946 48.8158V51.6691L218.15 50.7612V47.9079Z" fill="#78ABF9"/>
<path d="M215.945 47L214 47.9079L215.945 48.8158L218.15 47.9079L215.945 47Z" fill="#91BAFB"/>
</g>
<path d="M128 51.8909V48.9079L129.945 49.8158V52.6691L128 51.8909Z" fill="#C8DCFE"/>
<path d="M132.15 48.9079L129.945 49.8158V52.6691L132.15 51.7612V48.9079Z" fill="#78ABF9"/>
<path d="M129.945 48L128 48.9079L129.945 49.8158L132.15 48.9079L129.945 48Z" fill="#91BAFB"/>
<path d="M244 56.6691V53.0895L246.626 54.1789V57.603L244 56.6691Z" fill="#C8DCFE"/>
<path d="M249.603 53.0894L246.626 54.1789V57.603L249.603 56.5135V53.0894Z" fill="#78ABF9"/>
<path d="M246.626 52L244 53.0895L246.626 54.1789L249.603 53.0895L246.626 52Z" fill="#91BAFB"/>
<g opacity="0.6">
<path d="M169 36.8909V33.9078L170.945 34.8157V37.6691L169 36.8909Z" fill="#C8DCFE"/>
<path d="M173.15 33.9078L170.945 34.8157V37.6691L173.15 36.7612V33.9078Z" fill="#78ABF9"/>
<path d="M170.945 33L169 33.9079L170.945 34.8158L173.15 33.9079L170.945 33Z" fill="#91BAFB"/>
</g>
<g opacity="0.3">
<path d="M178 22.8909V19.9078L179.945 20.8157V23.6691L178 22.8909Z" fill="#C8DCFE"/>
<path d="M182.15 19.9078L179.945 20.8157V23.6691L182.15 22.7612V19.9078Z" fill="#78ABF9"/>
<path d="M179.945 19L178 19.9079L179.945 20.8158L182.15 19.9079L179.945 19Z" fill="#91BAFB"/>
</g>
<path d="M228 67.1216V64.7283L229.561 65.4567V67.7459L228 67.1216Z" fill="#79A5E5"/>
<path d="M231.33 64.7283L229.561 65.4567V67.7459L231.33 67.0175V64.7283Z" fill="#A5C5F5"/>
<path d="M229.561 64L228 64.7284L229.561 65.4568L231.33 64.7284L229.561 64Z" fill="#B4D2FA"/>
<defs>
<linearGradient id="paint0_linear_3430_220" x1="117.153" y1="167.604" x2="247.307" y2="167.604" gradientUnits="userSpaceOnUse">
<stop stop-color="white"/>
<stop offset="0.33" stop-color="#F9F8FE"/>
<stop offset="0.81" stop-color="#E8EBF9"/>
<stop offset="1" stop-color="#F0F1FC"/>
</linearGradient>
<linearGradient id="paint1_linear_3430_220" x1="247.306" y1="129.887" x2="117.107" y2="129.887" gradientUnits="userSpaceOnUse">
<stop offset="0.12" stop-color="#E4E9F8"/>
<stop offset="0.56" stop-color="#EAECF9"/>
<stop offset="0.71" stop-color="#F1F3FC"/>
<stop offset="0.91" stop-color="#F3F3FC"/>
<stop offset="1" stop-color="#F3F3FC"/>
</linearGradient>
<linearGradient id="paint2_linear_3430_220" x1="242.258" y1="97.2579" x2="122.196" y2="97.2579" gradientUnits="userSpaceOnUse">
<stop offset="0.12" stop-color="#E8EEFD"/>
<stop offset="1" stop-color="#E4EBFD"/>
</linearGradient>
<linearGradient id="paint3_linear_3430_220" x1="206.109" y1="111.323" x2="158.708" y2="111.323" gradientUnits="userSpaceOnUse">
<stop offset="0.12" stop-color="#CDDAFB"/>
<stop offset="1" stop-color="#E4EBFD"/>
</linearGradient>
<linearGradient id="paint4_linear_3430_220" x1="206.109" y1="125.045" x2="158.694" y2="125.045" gradientUnits="userSpaceOnUse">
<stop offset="0.12" stop-color="#ACCBFC"/>
<stop offset="0.56" stop-color="#C8DCFE"/>
<stop offset="0.71" stop-color="#C8DCFE"/>
<stop offset="0.91" stop-color="#C8DCFE"/>
<stop offset="1" stop-color="#EBF1FF"/>
</linearGradient>
<linearGradient id="paint5_linear_3430_220" x1="105.899" y1="64.4537" x2="2.03583" y2="64.4537" gradientUnits="userSpaceOnUse">
<stop offset="0.12" stop-color="#E8EEFD"/>
<stop offset="1" stop-color="#F4F7FF"/>
</linearGradient>
<linearGradient id="paint6_linear_3430_220" x1="105.9" y1="94.5223" x2="2.00456" y2="94.5223" gradientUnits="userSpaceOnUse">
<stop offset="0.12" stop-color="#ACCBFC"/>
<stop offset="0.56" stop-color="#C8DCFE"/>
<stop offset="0.71" stop-color="#C8DCFE"/>
<stop offset="0.91" stop-color="#C8DCFE"/>
<stop offset="1" stop-color="#EBF1FF"/>
</linearGradient>
<linearGradient id="paint7_linear_3430_220" x1="366.298" y1="60.7645" x2="262.435" y2="60.7645" gradientUnits="userSpaceOnUse">
<stop offset="0.12" stop-color="#E8EEFD"/>
<stop offset="1" stop-color="#F4F7FF"/>
</linearGradient>
<linearGradient id="paint8_linear_3430_220" x1="366.299" y1="90.8331" x2="262.403" y2="90.8331" gradientUnits="userSpaceOnUse">
<stop offset="0.12" stop-color="#ACCBFC"/>
<stop offset="0.56" stop-color="#C8DCFE"/>
<stop offset="0.71" stop-color="#C8DCFE"/>
<stop offset="0.91" stop-color="#C8DCFE"/>
<stop offset="1" stop-color="#EBF1FF"/>
</linearGradient>
<linearGradient id="paint9_linear_3430_220" x1="366.298" y1="60.9085" x2="262.435" y2="60.9085" gradientUnits="userSpaceOnUse">
<stop offset="0.12" stop-color="#E8EEFD"/>
<stop offset="1" stop-color="#F4F7FF"/>
</linearGradient>
<linearGradient id="paint10_linear_3430_220" x1="366.299" y1="90.9772" x2="262.403" y2="90.9772" gradientUnits="userSpaceOnUse">
<stop offset="0.12" stop-color="#ACCBFC"/>
<stop offset="0.56" stop-color="#C8DCFE"/>
<stop offset="0.71" stop-color="#C8DCFE"/>
<stop offset="0.91" stop-color="#C8DCFE"/>
<stop offset="1" stop-color="#EBF1FF"/>
</linearGradient>
<linearGradient id="paint11_linear_3430_220" x1="77.6936" y1="134.2" x2="136.273" y2="98.52" gradientUnits="userSpaceOnUse">
<stop stop-color="#B6D1FD"/>
<stop offset="1" stop-color="#B6D1FD" stop-opacity="0"/>
</linearGradient>
<linearGradient id="paint12_linear_3430_220" x1="140.49" y1="180.603" x2="160.1" y2="195.088" gradientUnits="userSpaceOnUse">
<stop stop-color="#B6D1FD"/>
<stop offset="1" stop-color="#B6D1FD" stop-opacity="0"/>
</linearGradient>
<linearGradient id="paint13_linear_3430_220" x1="292.84" y1="142.721" x2="234.261" y2="178.401" gradientUnits="userSpaceOnUse">
<stop stop-color="#B6D1FD"/>
<stop offset="1" stop-color="#B6D1FD" stop-opacity="0"/>
</linearGradient>
<linearGradient id="paint14_linear_3430_220" x1="230.043" y1="96.3181" x2="210.434" y2="81.8329" gradientUnits="userSpaceOnUse">
<stop stop-color="#B6D1FD"/>
<stop offset="1" stop-color="#B6D1FD" stop-opacity="0"/>
</linearGradient>
<linearGradient id="paint15_linear_3430_220" x1="147" y1="51.5" x2="212.86" y2="129.3" gradientUnits="userSpaceOnUse">
<stop stop-color="#E6EFFF"/>
<stop offset="1" stop-color="#B6D2FF"/>
</linearGradient>
<linearGradient id="paint16_linear_3430_220" x1="214" y1="65.9999" x2="214" y2="136" gradientUnits="userSpaceOnUse">
<stop stop-color="#C7DBFD"/>
<stop offset="1" stop-color="#71A6F8"/>
</linearGradient>
<linearGradient id="paint17_linear_3430_220" x1="182.5" y1="38" x2="188.291" y2="78.0594" gradientUnits="userSpaceOnUse">
<stop stop-color="#CADCFD"/>
<stop offset="1" stop-color="#B5D1FF"/>
</linearGradient>
<linearGradient id="paint18_linear_3430_220" x1="135.835" y1="61.9534" x2="160" y2="90.4999" gradientUnits="userSpaceOnUse">
<stop stop-color="#DEEAFF"/>
<stop offset="1" stop-color="#B6D2FF"/>
</linearGradient>
<linearGradient id="paint19_linear_3430_220" x1="165.555" y1="91.4905" x2="159.666" y2="91.3797" gradientUnits="userSpaceOnUse">
<stop stop-color="#CADCFD"/>
<stop offset="1" stop-color="#8AB7FF"/>
</linearGradient>
<linearGradient id="paint20_linear_3430_220" x1="148.86" y1="57" x2="150.985" y2="71.6986" gradientUnits="userSpaceOnUse">
<stop stop-color="#CADCFD"/>
<stop offset="1" stop-color="#B5D1FF"/>
</linearGradient>
<linearGradient id="paint21_linear_3430_220" x1="167" y1="97.5" x2="193.808" y2="120.05" gradientUnits="userSpaceOnUse">
<stop stop-color="#DFEBFF"/>
<stop offset="1" stop-color="#9DC3FF"/>
</linearGradient>
<linearGradient id="paint22_linear_3430_220" x1="178.062" y1="87" x2="178.062" y2="97.125" gradientUnits="userSpaceOnUse">
<stop stop-color="#CADCFD"/>
<stop offset="1" stop-color="#5090F7"/>
</linearGradient>
<linearGradient id="paint23_linear_3430_220" x1="200" y1="91.125" x2="200" y2="108" gradientUnits="userSpaceOnUse">
<stop stop-color="#CADCFD"/>
<stop offset="1" stop-color="#5090F7"/>
</linearGradient>
<linearGradient id="paint24_linear_3430_220" x1="195.688" y1="78" x2="195.688" y2="99" gradientUnits="userSpaceOnUse">
<stop stop-color="#CADCFD"/>
<stop offset="1" stop-color="#5090F7"/>
</linearGradient>
<linearGradient id="paint25_linear_3430_220" x1="195.688" y1="78" x2="195.688" y2="99" gradientUnits="userSpaceOnUse">
<stop stop-color="#CADCFD"/>
<stop offset="1" stop-color="#5090F7"/>
</linearGradient>
<linearGradient id="paint26_linear_3430_220" x1="367.454" y1="98.5259" x2="285.521" y2="75.9508" gradientUnits="userSpaceOnUse">
<stop stop-color="#CADCFD"/>
<stop offset="1" stop-color="#8AB7FF"/>
</linearGradient>
<linearGradient id="paint27_linear_3430_220" x1="331.141" y1="80.0712" x2="302.132" y2="69.9208" gradientUnits="userSpaceOnUse">
<stop stop-color="#CADCFD"/>
<stop offset="1" stop-color="#8AB7FF"/>
</linearGradient>
<linearGradient id="paint28_linear_3430_220" x1="322.159" y1="74.6603" x2="291.973" y2="72.5406" gradientUnits="userSpaceOnUse">
<stop stop-color="#ADCCFD"/>
<stop offset="1" stop-color="#ADCCFD" stop-opacity="0"/>
</linearGradient>
<linearGradient id="paint29_linear_3430_220" x1="310.716" y1="89.07" x2="294.49" y2="86.1576" gradientUnits="userSpaceOnUse">
<stop stop-color="#CADCFD"/>
<stop offset="1" stop-color="#8AB7FF"/>
</linearGradient>
<linearGradient id="paint30_linear_3430_220" x1="327.971" y1="76.5086" x2="320.081" y2="75.9217" gradientUnits="userSpaceOnUse">
<stop stop-color="#CADCFD"/>
<stop offset="1" stop-color="#8AB7FF"/>
</linearGradient>
<linearGradient id="paint31_linear_3430_220" x1="299.294" y1="88.9472" x2="288.798" y2="88.0217" gradientUnits="userSpaceOnUse">
<stop stop-color="#CADCFD"/>
<stop offset="1" stop-color="#8AB7FF"/>
</linearGradient>
<clipPath id="clip0_3430_220">
<rect width="364.299" height="143.455" fill="white" transform="translate(2 51.4551)"/>
</clipPath>
<clipPath id="clip1_3430_220">
<rect width="81" height="97.9339" fill="white" transform="translate(142 38)"/>
</clipPath>
<clipPath id="clip2_3430_220">
<rect width="29.7205" height="35.9339" fill="white" transform="translate(134 57)"/>
</clipPath>
<clipPath id="clip3_3430_220">
<rect width="39.375" height="30" fill="white" transform="translate(170 78)"/>
</clipPath>
</defs>
</svg>
