<svg width="368" height="196" viewBox="0 0 368 196" fill="none" xmlns="http://www.w3.org/2000/svg">
<g opacity="0.8" clip-path="url(#clip0_3430_526)">
<path d="M241.835 124.708C247.759 128.139 247.799 133.685 241.91 137.104L192.131 166.028C186.236 169.458 176.647 169.458 170.723 166.028L120.619 137.104C114.689 133.673 114.655 128.127 120.55 124.702L170.329 95.7781C176.218 92.3477 185.801 92.3477 191.731 95.7781L241.835 124.708Z" fill="url(#paint0_linear_3430_526)"/>
<path d="M246.249 131.392C246.249 131.552 246.249 131.712 246.192 131.872C246.135 132.032 246.129 132.129 246.095 132.255C246.061 132.381 246.021 132.558 245.963 132.707C245.906 132.855 245.86 132.953 245.809 133.073C245.758 133.193 245.672 133.387 245.586 133.547C245.5 133.707 245.454 133.77 245.386 133.885C245.317 133.999 245.163 134.239 245.031 134.411C244.9 134.582 244.78 134.742 244.637 134.908L244.534 135.028C244.34 135.24 244.122 135.451 243.899 135.651C243.676 135.851 243.59 135.909 243.436 136.034C243.282 136.16 243.162 136.257 243.013 136.366C242.864 136.475 242.653 136.612 242.441 136.732C242.23 136.852 242.07 136.983 241.869 137.098L192.091 166.022C191.627 166.286 191.15 166.527 190.661 166.743L190.227 166.925C189.845 167.089 189.449 167.24 189.037 167.377L188.603 167.526C188.346 167.606 188.083 167.674 187.825 167.749L187.253 167.909C186.979 167.977 186.682 168.029 186.413 168.086L185.841 168.2C185.269 168.298 184.698 168.378 184.126 168.441L183.588 168.486C183.251 168.486 182.908 168.538 182.565 168.555H181.907H181.078H180.386L179.615 168.515L178.917 168.458L178.162 168.372L177.482 168.275L176.681 168.138L176.058 168.012C175.738 167.943 175.429 167.863 175.115 167.783L174.6 167.646C174.028 167.486 173.502 167.303 172.976 167.074C172.719 166.971 172.462 166.863 172.21 166.748L171.816 166.577C171.432 166.394 171.061 166.205 170.706 166.005L120.619 137.104C118.011 135.594 116.542 133.673 116.216 131.706C116.17 131.427 116.147 131.144 116.147 130.86L116.102 147.309C116.102 149.596 117.588 151.832 120.567 153.552L170.672 182.477C171.026 182.683 171.398 182.877 171.781 183.049L172.176 183.22C172.399 183.323 172.622 183.426 172.856 183.517H172.942C173.468 183.723 174.011 183.9 174.566 184.089L174.697 184.135L175.086 184.232C175.395 184.312 175.709 184.392 176.024 184.461L176.275 184.524L176.653 184.587L177.453 184.724L177.779 184.781L178.134 184.821L178.888 184.907L179.254 184.947H179.592L180.358 184.987H180.747H182.296H182.536C182.879 184.987 183.222 184.947 183.56 184.918H183.971H184.097C184.669 184.855 185.241 184.781 185.813 184.678H185.898L186.39 184.575C186.67 184.518 186.962 184.461 187.219 184.398L187.791 184.238C188.054 184.169 188.311 184.095 188.569 184.015L188.734 183.969L189.003 183.866C189.407 183.729 189.804 183.578 190.192 183.414L190.621 183.232C191.11 183.016 191.587 182.775 192.051 182.511L241.829 153.587L242.012 153.478C242.155 153.392 242.27 153.301 242.407 153.215C242.544 153.129 242.779 152.981 242.944 152.855C243.11 152.729 243.23 152.632 243.368 152.518C243.505 152.403 243.688 152.266 243.831 152.135L243.922 152.06C244.117 151.883 244.294 151.694 244.494 151.489L244.591 151.374C244.688 151.26 244.791 151.145 244.883 151.031C244.974 150.917 244.951 150.928 244.986 150.877C245.117 150.705 245.231 150.528 245.34 150.351C245.386 150.276 245.449 150.202 245.489 150.128C245.529 150.053 245.523 150.048 245.54 150.013C245.626 149.859 245.695 149.699 245.763 149.545C245.832 149.39 245.855 149.362 245.889 149.27C245.923 149.179 245.889 149.207 245.889 149.173C245.94 149.024 245.981 148.87 246.021 148.721C246.061 148.573 246.089 148.521 246.106 148.418C246.123 148.315 246.106 148.361 246.106 148.338C246.135 148.178 246.146 148.018 246.158 147.864C246.169 147.709 246.192 147.658 246.192 147.555C246.192 147.452 246.192 147.469 246.192 147.423L246.306 130.929C246.306 131.1 246.284 131.243 246.249 131.392Z" fill="url(#paint1_linear_3430_526)"/>
<path d="M246.249 139.392C246.249 139.552 246.249 139.712 246.192 139.872C246.135 140.032 246.129 140.129 246.095 140.255C246.061 140.381 246.021 140.558 245.963 140.707C245.906 140.855 245.86 140.953 245.809 141.073C245.758 141.193 245.672 141.387 245.586 141.547C245.5 141.707 245.454 141.77 245.386 141.885C245.317 141.999 245.163 142.239 245.031 142.411C244.9 142.582 244.78 142.742 244.637 142.908L244.534 143.028C244.34 143.24 244.122 143.451 243.899 143.651C243.676 143.851 243.59 143.909 243.436 144.034C243.282 144.16 243.162 144.257 243.013 144.366C242.864 144.475 242.653 144.612 242.441 144.732C242.23 144.852 242.07 144.983 241.869 145.098L192.091 174.022C191.627 174.286 191.15 174.527 190.661 174.743L190.227 174.925C189.845 175.089 189.449 175.24 189.037 175.377L188.603 175.526C188.346 175.606 188.083 175.674 187.825 175.749L187.253 175.909C186.979 175.977 186.682 176.029 186.413 176.086L185.841 176.2C185.269 176.298 184.698 176.378 184.126 176.441L183.588 176.486C183.251 176.486 182.908 176.538 182.565 176.555H181.907H181.078H180.386L179.615 176.515L178.917 176.458L178.162 176.372L177.482 176.275L176.681 176.138L176.058 176.012C175.738 175.943 175.429 175.863 175.115 175.783L174.6 175.646C174.028 175.486 173.502 175.303 172.976 175.074C172.719 174.971 172.462 174.863 172.21 174.748L171.816 174.577C171.432 174.394 171.061 174.205 170.706 174.005L120.619 145.104C118.011 143.594 116.542 141.673 116.216 139.706C116.17 139.427 116.147 139.144 116.147 138.86L116.102 140.309C116.102 142.596 117.588 144.832 120.567 146.552L170.672 175.477C171.026 175.683 171.398 175.877 171.781 176.049L172.176 176.22C172.399 176.323 172.622 176.426 172.856 176.517H172.942C173.468 176.723 174.011 176.9 174.566 177.089L174.697 177.135L175.086 177.232C175.395 177.312 175.709 177.392 176.024 177.461L176.275 177.524L176.653 177.587L177.453 177.724L177.779 177.781L178.134 177.821L178.888 177.907L179.254 177.947H179.592L180.358 177.987H180.747H182.296H182.536C182.879 177.987 183.222 177.947 183.56 177.918H183.971H184.097C184.669 177.855 185.241 177.781 185.813 177.678H185.898L186.39 177.575C186.67 177.518 186.962 177.461 187.219 177.398L187.791 177.238C188.054 177.169 188.311 177.095 188.569 177.015L188.734 176.969L189.003 176.866C189.407 176.729 189.804 176.578 190.192 176.414L190.621 176.232C191.11 176.016 191.587 175.775 192.051 175.511L241.829 146.587L242.012 146.478C242.155 146.392 242.27 146.301 242.407 146.215C242.544 146.129 242.779 145.981 242.944 145.855C243.11 145.729 243.23 145.632 243.368 145.518C243.505 145.403 243.688 145.266 243.831 145.135L243.922 145.06C244.117 144.883 244.294 144.694 244.494 144.489L244.591 144.374C244.688 144.26 244.791 144.145 244.883 144.031C244.974 143.917 244.951 143.928 244.986 143.877C245.117 143.705 245.231 143.528 245.34 143.351C245.386 143.276 245.449 143.202 245.489 143.128C245.529 143.053 245.523 143.048 245.54 143.013C245.626 142.859 245.695 142.699 245.763 142.545C245.832 142.39 245.855 142.362 245.889 142.27C245.923 142.179 245.889 142.207 245.889 142.173C245.94 142.024 245.981 141.87 246.021 141.721C246.061 141.573 246.089 141.521 246.106 141.418C246.123 141.315 246.106 141.361 246.106 141.338C246.135 141.178 246.146 141.018 246.158 140.864C246.169 140.709 246.192 140.658 246.192 140.555C246.192 140.452 246.192 140.469 246.192 140.423L246.306 138.929C246.306 139.1 246.284 139.243 246.249 139.392Z" fill="#7DACFA"/>
<path d="M181.444 163.552C178.317 163.552 175.332 162.866 173.251 161.66L123.146 132.73C121.659 131.872 121.202 131.066 121.202 130.872C121.202 130.677 121.648 129.9 123.089 129.065L172.868 100.14C174.926 98.9455 177.894 98.2595 181.01 98.2595C184.126 98.2595 187.128 98.9513 189.209 100.152L239.314 129.082C240.8 129.94 241.258 130.746 241.258 130.946C241.258 131.146 240.812 131.918 239.377 132.753L189.598 161.677C187.539 162.866 184.566 163.552 181.444 163.552Z" fill="url(#paint2_linear_3430_526)"/>
<path d="M203.482 123.796C205.639 125.045 205.654 127.065 203.509 128.31L185.381 138.844C183.234 140.093 179.742 140.093 177.585 138.844L159.338 128.31C157.179 127.061 157.166 125.041 159.313 123.794L177.441 113.26C179.586 112.011 183.076 112.011 185.235 113.26L203.482 123.796Z" fill="url(#paint3_linear_3430_526)"/>
<path d="M205.088 126.23C205.088 126.288 205.088 126.347 205.068 126.405C205.047 126.463 205.045 126.499 205.032 126.544C205.02 126.59 205.005 126.655 204.984 126.709C204.963 126.763 204.947 126.798 204.928 126.842C204.909 126.886 204.878 126.957 204.847 127.015C204.816 127.073 204.799 127.096 204.774 127.138C204.749 127.179 204.693 127.267 204.645 127.329C204.597 127.392 204.553 127.45 204.501 127.51L204.464 127.554C204.393 127.631 204.314 127.708 204.233 127.781C204.151 127.854 204.12 127.875 204.064 127.921C204.008 127.966 203.964 128.002 203.91 128.041C203.856 128.081 203.779 128.131 203.702 128.175C203.625 128.218 203.566 128.266 203.493 128.308L185.365 138.841C185.196 138.938 185.022 139.025 184.845 139.104L184.686 139.17C184.548 139.23 184.403 139.285 184.253 139.335L184.095 139.389C184.001 139.418 183.906 139.443 183.812 139.47L183.604 139.529C183.504 139.554 183.395 139.572 183.297 139.593L183.089 139.635C182.881 139.67 182.673 139.699 182.465 139.722L182.269 139.739C182.146 139.739 182.021 139.758 181.896 139.764H181.657H181.355H181.103L180.822 139.749L180.568 139.728L180.293 139.697L180.045 139.662L179.753 139.612L179.527 139.566C179.41 139.541 179.297 139.512 179.183 139.483L178.996 139.433C178.787 139.375 178.596 139.308 178.404 139.225C178.31 139.187 178.217 139.148 178.125 139.106L177.981 139.043C177.842 138.977 177.707 138.908 177.578 138.835L159.337 128.31C158.387 127.76 157.852 127.061 157.734 126.345C157.717 126.243 157.708 126.14 157.709 126.036L157.692 130.333C157.692 131.166 158.233 131.98 159.318 132.607L177.565 143.14C177.694 143.215 177.829 143.286 177.969 143.349L178.113 143.411C178.194 143.449 178.275 143.486 178.36 143.519H178.392C178.583 143.594 178.781 143.659 178.983 143.728L179.031 143.744L179.173 143.78C179.285 143.809 179.399 143.838 179.514 143.863L179.606 143.886L179.743 143.909L180.035 143.959L180.153 143.979L180.282 143.994L180.557 144.025L180.691 144.04H180.813L181.092 144.054H181.234H181.798H181.886C182.011 144.054 182.136 144.04 182.258 144.029H182.408H182.454C182.662 144.007 182.871 143.979 183.079 143.942H183.11L183.289 143.905C183.391 143.884 183.497 143.863 183.591 143.84L183.799 143.782C183.895 143.757 183.989 143.73 184.083 143.7L184.143 143.684L184.241 143.646C184.388 143.596 184.532 143.542 184.674 143.482L184.83 143.415C185.008 143.337 185.182 143.249 185.351 143.153L203.479 132.619L203.545 132.58C203.597 132.549 203.639 132.515 203.689 132.484C203.739 132.453 203.824 132.399 203.885 132.353C203.945 132.307 203.989 132.272 204.039 132.23C204.089 132.188 204.156 132.138 204.208 132.09L204.241 132.063C204.312 131.999 204.376 131.93 204.449 131.855L204.485 131.814C204.52 131.772 204.557 131.73 204.591 131.689C204.624 131.647 204.616 131.651 204.628 131.632C204.676 131.57 204.718 131.505 204.757 131.441C204.774 131.414 204.797 131.387 204.811 131.36C204.826 131.333 204.824 131.331 204.83 131.318C204.861 131.262 204.886 131.204 204.911 131.147C204.936 131.091 204.945 131.081 204.957 131.047C204.97 131.014 204.957 131.024 204.957 131.012C204.976 130.958 204.991 130.902 205.005 130.847C205.02 130.793 205.03 130.775 205.036 130.737C205.043 130.7 205.036 130.716 205.036 130.708C205.047 130.65 205.051 130.591 205.055 130.535C205.059 130.479 205.068 130.46 205.068 130.423C205.068 130.385 205.068 130.391 205.068 130.375L205.109 126.061C205.109 126.124 205.101 126.176 205.088 126.23Z" fill="url(#paint4_linear_3430_526)"/>
<path d="M101.334 90.1386C106.061 92.876 106.093 97.3015 101.394 100.03L61.6714 123.111C56.9674 125.848 49.3158 125.848 44.5889 123.111L4.60654 100.03C-0.124915 97.2923 -0.152291 92.8669 4.55179 90.134L44.2741 67.0531C48.9736 64.3156 56.6206 64.3156 61.352 67.0531L101.334 90.1386Z" fill="url(#paint5_linear_3430_526)"/>
<path d="M104.855 95.4719C104.855 95.5996 104.855 95.7274 104.809 95.8551C104.763 95.9829 104.759 96.0604 104.732 96.1608C104.704 96.2612 104.672 96.4026 104.627 96.5212C104.581 96.6398 104.544 96.7174 104.503 96.8132C104.462 96.909 104.394 97.0641 104.325 97.1919C104.257 97.3196 104.221 97.3698 104.166 97.4611C104.111 97.5523 103.988 97.7439 103.883 97.8808C103.778 98.0177 103.682 98.1454 103.568 98.2777L103.486 98.3735C103.331 98.5423 103.157 98.7111 102.979 98.8708C102.802 99.0305 102.733 99.0761 102.61 99.1765C102.487 99.2769 102.391 99.3544 102.272 99.4411C102.154 99.5278 101.985 99.6373 101.816 99.7331C101.647 99.8289 101.519 99.9339 101.36 100.025L61.6374 123.106C61.2673 123.317 60.8865 123.509 60.4968 123.681L60.15 123.827C59.8458 123.958 59.5295 124.078 59.201 124.187L58.8542 124.306C58.6489 124.37 58.439 124.425 58.2337 124.484L57.7774 124.612C57.5584 124.666 57.3212 124.707 57.1067 124.753L56.6505 124.844C56.1942 124.922 55.7379 124.986 55.2817 125.036L54.8528 125.072C54.5836 125.072 54.3098 125.113 54.0361 125.127H53.5114H52.8498H52.2977L51.6818 125.095L51.1251 125.05L50.5229 124.981L49.9799 124.904L49.3411 124.794L48.8438 124.694C48.5883 124.639 48.3419 124.575 48.091 124.511L47.6803 124.402C47.2241 124.274 46.8043 124.128 46.3845 123.946C46.1792 123.863 45.9739 123.777 45.7732 123.685L45.4583 123.549C45.1526 123.403 44.8561 123.252 44.5732 123.092L4.60448 100.03C2.52392 98.8252 1.35132 97.2923 1.09125 95.7228C1.05443 95.4996 1.03612 95.2738 1.0365 95.0476L1 97.5704C1 99.3954 2.18629 101.179 4.56342 102.553L44.5458 125.633C44.8287 125.798 45.1253 125.953 45.431 126.09L45.7458 126.227C45.9237 126.309 46.1017 126.391 46.2887 126.464H46.3572C46.7769 126.628 47.2104 126.77 47.653 126.92L47.7579 126.957L48.0682 127.034C48.3145 127.098 48.5655 127.162 48.8164 127.217L49.0172 127.267L49.3183 127.317L49.9571 127.426L50.2172 127.472L50.5 127.504L51.1023 127.572L51.3943 127.604H51.6635L52.2749 127.636H52.5852H53.8216H54.0133C54.287 127.636 54.5608 127.604 54.83 127.582H55.1585H55.2589C55.7151 127.531 56.1714 127.472 56.6277 127.39H56.6961L57.0885 127.308C57.3121 127.262 57.5448 127.217 57.7501 127.166L58.2063 127.039C58.4162 126.984 58.6215 126.925 58.8269 126.861L58.9592 126.824L59.1736 126.742C59.496 126.633 59.8124 126.512 60.1226 126.382L60.4648 126.236C60.8546 126.064 61.2353 125.872 61.6055 125.661L101.328 102.58L101.474 102.493C101.588 102.425 101.679 102.352 101.789 102.283C101.898 102.215 102.085 102.096 102.218 101.996C102.35 101.896 102.446 101.818 102.555 101.727C102.665 101.635 102.811 101.526 102.925 101.421L102.998 101.362C103.153 101.22 103.294 101.07 103.454 100.906L103.532 100.814C103.609 100.723 103.691 100.632 103.764 100.541C103.837 100.449 103.819 100.458 103.846 100.417C103.951 100.28 104.043 100.139 104.129 99.9976C104.166 99.9383 104.216 99.879 104.248 99.8197C104.28 99.7604 104.275 99.7558 104.289 99.7284C104.357 99.6052 104.412 99.4775 104.467 99.3543C104.522 99.2311 104.54 99.2083 104.567 99.1353C104.595 99.0623 104.567 99.0851 104.567 99.0578C104.608 98.9391 104.64 98.816 104.672 98.6973C104.704 98.5787 104.727 98.5377 104.741 98.4555C104.754 98.3734 104.741 98.4099 104.741 98.3917C104.763 98.2639 104.773 98.1362 104.782 98.013C104.791 97.8898 104.809 97.8487 104.809 97.7666C104.809 97.6845 104.809 97.6982 104.809 97.6617L104.9 95.1023C104.9 95.2392 104.882 95.3533 104.855 95.4719Z" fill="url(#paint6_linear_3430_526)"/>
<path d="M35 101.441V96.441L54 105.828V111.5L35 101.441Z" fill="#DBE5FF"/>
<path d="M82.5 93L54 106.269V111.5L82.5 97.5V93Z" fill="#AACAFF"/>
<path d="M62.5 83L35 96.441L54 106.5L82.5 93L62.5 83Z" fill="#BAD4FF"/>
<path d="M28 77.947V73.8943L43.4 81.5027V86.0997L28 77.947Z" fill="#DBE5FF"/>
<path d="M66.4999 71.1054L43.3999 81.8601V86.1001L66.4999 74.7527V71.1054Z" fill="#AACAFF"/>
<path d="M50.2895 63L28 73.8943L43.4 82.0474L66.5 71.1053L50.2895 63Z" fill="#BAD4FF"/>
<path d="M361.733 86.9045C366.46 89.6419 366.492 94.0674 361.793 96.7957L322.07 119.877C317.366 122.614 309.715 122.614 304.988 119.877L265.005 96.7957C260.274 94.0583 260.247 89.6328 264.951 86.8999L304.673 63.819C309.373 61.0816 317.02 61.0816 321.751 63.819L361.733 86.9045Z" fill="url(#paint7_linear_3430_526)"/>
<path d="M365.254 92.2378C365.254 92.3656 365.254 92.4933 365.208 92.621C365.162 92.7488 365.158 92.8263 365.13 92.9267C365.103 93.0271 365.071 93.1685 365.026 93.2871C364.98 93.4058 364.943 93.4833 364.902 93.5791C364.861 93.6749 364.793 93.8301 364.724 93.9578C364.656 94.0856 364.619 94.1357 364.565 94.227C364.51 94.3182 364.387 94.5099 364.282 94.6467C364.177 94.7836 364.081 94.9113 363.967 95.0437L363.885 95.1395C363.73 95.3083 363.556 95.4771 363.378 95.6368C363.2 95.7964 363.132 95.8421 363.009 95.9424C362.886 96.0428 362.79 96.1204 362.671 96.2071C362.553 96.2937 362.384 96.4032 362.215 96.499C362.046 96.5949 361.918 96.6998 361.759 96.791L322.036 119.872C321.666 120.083 321.285 120.275 320.896 120.447L320.549 120.593C320.245 120.724 319.928 120.844 319.6 120.953L319.253 121.072C319.048 121.136 318.838 121.191 318.633 121.25L318.176 121.378C317.957 121.432 317.72 121.473 317.506 121.519L317.049 121.61C316.593 121.688 316.137 121.752 315.681 121.802L315.252 121.838C314.983 121.838 314.709 121.879 314.435 121.893H313.91H313.249H312.697L312.081 121.861L311.524 121.816L310.922 121.747L310.379 121.67L309.74 121.56L309.243 121.46C308.987 121.405 308.741 121.341 308.49 121.277L308.079 121.168C307.623 121.04 307.203 120.894 306.783 120.711C306.578 120.629 306.373 120.543 306.172 120.451L305.857 120.315C305.552 120.169 305.255 120.018 304.972 119.858L265.003 96.7956C262.923 95.5911 261.75 94.0582 261.49 92.4887C261.453 92.2656 261.435 92.0397 261.435 91.8135L261.399 94.3364C261.399 96.1613 262.585 97.9452 264.962 99.3185L304.945 122.399C305.228 122.564 305.524 122.719 305.83 122.856L306.145 122.993C306.323 123.075 306.501 123.157 306.688 123.23H306.756C307.176 123.394 307.609 123.535 308.052 123.686L308.157 123.722L308.467 123.8C308.713 123.864 308.964 123.928 309.215 123.983L309.416 124.033L309.717 124.083L310.356 124.192L310.616 124.238L310.899 124.27L311.501 124.338L311.793 124.37H312.062L312.674 124.402H312.984H314.221H314.412C314.686 124.402 314.96 124.37 315.229 124.348H315.557H315.658C316.114 124.297 316.57 124.238 317.027 124.156H317.095L317.487 124.074C317.711 124.028 317.944 123.983 318.149 123.932L318.605 123.805C318.815 123.75 319.02 123.691 319.226 123.627L319.358 123.59L319.573 123.508C319.895 123.399 320.211 123.278 320.522 123.148L320.864 123.002C321.253 122.83 321.634 122.638 322.004 122.427L361.727 99.3458L361.873 99.2592C361.987 99.1907 362.078 99.1177 362.188 99.0493C362.297 98.9808 362.484 98.8622 362.616 98.7619C362.749 98.6615 362.845 98.5839 362.954 98.4927C363.064 98.4014 363.21 98.2919 363.324 98.187L363.397 98.1277C363.552 97.9863 363.693 97.8357 363.853 97.6715L363.93 97.5802C364.008 97.489 364.09 97.3977 364.163 97.3065C364.236 97.2152 364.218 97.2243 364.245 97.1833C364.35 97.0464 364.441 96.905 364.528 96.7635C364.565 96.7042 364.615 96.6449 364.647 96.5856C364.679 96.5263 364.674 96.5217 364.688 96.4944C364.756 96.3712 364.811 96.2434 364.866 96.1202C364.921 95.9971 364.939 95.9743 364.966 95.9013C364.994 95.8283 364.966 95.8511 364.966 95.8237C365.007 95.7051 365.039 95.5819 365.071 95.4633C365.103 95.3446 365.126 95.3036 365.14 95.2215C365.153 95.1393 365.14 95.1758 365.14 95.1576C365.162 95.0298 365.172 94.9021 365.181 94.7789C365.19 94.6557 365.208 94.6147 365.208 94.5326C365.208 94.4504 365.208 94.4641 365.208 94.4276L365.299 91.8683C365.299 92.0051 365.281 92.1192 365.254 92.2378Z" fill="url(#paint8_linear_3430_526)"/>
<path d="M361.733 87.0485C366.46 89.786 366.492 94.2114 361.793 96.9397L322.07 120.021C317.366 122.758 309.715 122.758 304.988 120.021L265.005 96.9397C260.274 94.2023 260.247 89.7768 264.951 87.044L304.673 63.963C309.373 61.2256 317.02 61.2256 321.751 63.963L361.733 87.0485Z" fill="url(#paint9_linear_3430_526)"/>
<path d="M365.254 92.3818C365.254 92.5096 365.254 92.6373 365.208 92.7651C365.162 92.8928 365.158 92.9704 365.13 93.0708C365.103 93.1711 365.071 93.3126 365.026 93.4312C364.98 93.5498 364.943 93.6274 364.902 93.7232C364.861 93.819 364.793 93.9741 364.724 94.1019C364.656 94.2296 364.619 94.2798 364.565 94.371C364.51 94.4623 364.387 94.6539 364.282 94.7908C364.177 94.9276 364.081 95.0554 363.967 95.1877L363.885 95.2835C363.73 95.4523 363.556 95.6211 363.378 95.7808C363.2 95.9405 363.132 95.9861 363.009 96.0865C362.886 96.1869 362.79 96.2644 362.671 96.3511C362.553 96.4378 362.384 96.5473 362.215 96.6431C362.046 96.7389 361.918 96.8438 361.759 96.9351L322.036 120.016C321.666 120.227 321.285 120.419 320.896 120.591L320.549 120.737C320.245 120.868 319.928 120.988 319.6 121.097L319.253 121.216C319.048 121.28 318.838 121.335 318.633 121.394L318.176 121.522C317.957 121.576 317.72 121.617 317.506 121.663L317.049 121.754C316.593 121.832 316.137 121.896 315.681 121.946L315.252 121.982C314.983 121.982 314.709 122.023 314.435 122.037H313.91H313.249H312.697L312.081 122.005L311.524 121.96L310.922 121.891L310.379 121.814L309.74 121.704L309.243 121.604C308.987 121.549 308.741 121.485 308.49 121.421L308.079 121.312C307.623 121.184 307.203 121.038 306.783 120.856C306.578 120.773 306.373 120.687 306.172 120.595L305.857 120.459C305.552 120.313 305.255 120.162 304.972 120.002L265.003 96.9396C262.923 95.7352 261.75 94.2022 261.49 92.6328C261.453 92.4096 261.435 92.1838 261.435 91.9576L261.399 94.4804C261.399 96.3054 262.585 98.0892 264.962 99.4625L304.945 122.543C305.228 122.708 305.524 122.863 305.83 123L306.145 123.137C306.323 123.219 306.501 123.301 306.688 123.374H306.756C307.176 123.538 307.609 123.679 308.052 123.83L308.157 123.867L308.467 123.944C308.713 124.008 308.964 124.072 309.215 124.127L309.416 124.177L309.717 124.227L310.356 124.336L310.616 124.382L310.899 124.414L311.501 124.482L311.793 124.514H312.062L312.674 124.546H312.984H314.221H314.412C314.686 124.546 314.96 124.514 315.229 124.492H315.557H315.658C316.114 124.441 316.57 124.382 317.027 124.3H317.095L317.487 124.218C317.711 124.172 317.944 124.127 318.149 124.076L318.605 123.949C318.815 123.894 319.02 123.835 319.226 123.771L319.358 123.734L319.573 123.652C319.895 123.543 320.211 123.422 320.522 123.292L320.864 123.146C321.253 122.974 321.634 122.782 322.004 122.571L361.727 99.4899L361.873 99.4032C361.987 99.3348 362.078 99.2618 362.188 99.1933C362.297 99.1249 362.484 99.0063 362.616 98.9059C362.749 98.8055 362.845 98.728 362.954 98.6367C363.064 98.5455 363.21 98.436 363.324 98.331L363.397 98.2717C363.552 98.1303 363.693 97.9797 363.853 97.8155L363.93 97.7242C364.008 97.633 364.09 97.5418 364.163 97.4505C364.236 97.3593 364.218 97.3684 364.245 97.3273C364.35 97.1905 364.441 97.049 364.528 96.9076C364.565 96.8483 364.615 96.789 364.647 96.7297C364.679 96.6703 364.674 96.6658 364.688 96.6384C364.756 96.5152 364.811 96.3875 364.866 96.2643C364.921 96.1411 364.939 96.1183 364.966 96.0453C364.994 95.9723 364.966 95.9951 364.966 95.9677C365.007 95.8491 365.039 95.7259 365.071 95.6073C365.103 95.4887 365.126 95.4476 365.14 95.3655C365.153 95.2834 365.14 95.3199 365.14 95.3016C365.162 95.1739 365.172 95.0461 365.181 94.923C365.19 94.7998 365.208 94.7587 365.208 94.6766C365.208 94.5945 365.208 94.6082 365.208 94.5717L365.299 92.0123C365.299 92.1492 365.281 92.2632 365.254 92.3818Z" fill="url(#paint10_linear_3430_526)"/>
<path d="M284 93.4412V88.4412L311.5 102.27V107.941L284 93.4412Z" fill="#DBE5FF"/>
<path d="M332 93.0007L311.5 102.27V107.941L332 98.0007V93.0007Z" fill="#AACAFF"/>
<path d="M304.231 79.0002L284 88.4412L311.5 102.441L332 93.0002L304.231 79.0002Z" fill="#BAD4FF"/>
<path d="M302 72.2785V68.7985L321.8 78.7549V82.7184L302 72.2785Z" fill="#DBE5FF"/>
<path d="M338 71.3177L321.8 78.7541V82.7177L338 74.7977V71.3177Z" fill="#AACAFF"/>
<path d="M316.566 62.0003L302 68.7978L321.8 78.8777L338 71.3177L316.566 62.0003Z" fill="#BAD4FF"/>
<path d="M107.581 162.892L80.3428 144.734C76.6728 142.287 76.8086 136.85 80.5963 134.589L138.468 100.053" stroke="url(#paint11_linear_3430_526)"/>
<line x1="118.489" y1="169.919" x2="161.092" y2="195.481" stroke="url(#paint12_linear_3430_526)" stroke-dasharray="1 1"/>
<circle cx="110.244" cy="164.49" r="2.69524" stroke="#B6D1FD"/>
<path d="M260.953 116.029L288.191 134.188C291.861 136.634 291.725 142.072 287.938 144.332L230.066 178.869" stroke="url(#paint13_linear_3430_526)"/>
<line x1="250.045" y1="109.002" x2="207.441" y2="83.44" stroke="url(#paint14_linear_3430_526)" stroke-dasharray="1 1"/>
<circle cx="258.29" cy="114.431" r="2.69524" transform="rotate(-180 258.29 114.431)" stroke="#B6D1FD"/>
</g>
<g clip-path="url(#clip1_3430_526)">
<path d="M225 34.8908V31.9078L226.945 32.8157V35.669L225 34.8908Z" fill="#C8DCFE"/>
<path d="M229.15 31.9078L226.946 32.8157V35.669L229.15 34.7611V31.9078Z" fill="#78ABF9"/>
<path d="M226.945 31L225 31.9079L226.945 32.8158L229.15 31.9079L226.945 31Z" fill="#91BAFB"/>
<path d="M131 27.7664V24.1121L133.383 25.2243V28.7197L131 27.7664Z" fill="#C8DCFE"/>
<path d="M136.084 24.1121L133.383 25.2243V28.7197L136.084 27.6075V24.1121Z" fill="#78ABF9"/>
<path d="M133.383 23L131 24.1122L133.383 25.2243L136.084 24.1122L133.383 23Z" fill="#91BAFB"/>
<g opacity="0.5">
<path d="M213 51.8909V48.9079L214.945 49.8158V52.6691L213 51.8909Z" fill="#C8DCFE"/>
<path d="M217.15 48.9079L214.945 49.8158V52.6691L217.15 51.7612V48.9079Z" fill="#78ABF9"/>
<path d="M214.945 48L213 48.9079L214.945 49.8158L217.15 48.9079L214.945 48Z" fill="#91BAFB"/>
</g>
<path d="M127 52.8909V49.9079L128.945 50.8158V53.6691L127 52.8909Z" fill="#C8DCFE"/>
<path d="M131.15 49.9079L128.945 50.8158V53.6691L131.15 52.7612V49.9079Z" fill="#78ABF9"/>
<path d="M128.945 49L127 49.9079L128.945 50.8158L131.15 49.9079L128.945 49Z" fill="#91BAFB"/>
<path d="M233 58.6691V55.0894L235.626 56.1789V59.603L233 58.6691Z" fill="#C8DCFE"/>
<path d="M238.603 55.0894L235.626 56.1789V59.603L238.603 58.5135V55.0894Z" fill="#78ABF9"/>
<path d="M235.626 54L233 55.0895L235.626 56.1789L238.603 55.0895L235.626 54Z" fill="#91BAFB"/>
<g opacity="0.6">
<path d="M153 18.8909V15.9078L154.945 16.8157V19.6691L153 18.8909Z" fill="#C8DCFE"/>
<path d="M157.15 15.9078L154.945 16.8157V19.6691L157.15 18.7612V15.9078Z" fill="#78ABF9"/>
<path d="M154.945 15L153 15.9079L154.945 16.8158L157.15 15.9079L154.945 15Z" fill="#91BAFB"/>
</g>
<g opacity="0.3">
<path d="M143 3.89088V0.907806L144.945 1.8157V4.66907L143 3.89088Z" fill="#C8DCFE"/>
<path d="M147.15 0.907806L144.945 1.8157V4.66907L147.15 3.76118V0.907806Z" fill="#78ABF9"/>
<path d="M144.945 0L143 0.907891L144.945 1.81578L147.15 0.907891L144.945 0Z" fill="#91BAFB"/>
</g>
<path d="M228 85.1216V82.7283L229.561 83.4567V85.7459L228 85.1216Z" fill="#79A5E5"/>
<path d="M231.33 82.7283L229.561 83.4567V85.7459L231.33 85.0175V82.7283Z" fill="#A5C5F5"/>
<path d="M229.561 82L228 82.7284L229.561 83.4568L231.33 82.7284L229.561 82Z" fill="#B4D2FA"/>
</g>
<g clip-path="url(#clip2_3430_526)">
<path fill-rule="evenodd" clip-rule="evenodd" d="M221.461 137.308C218.37 135.867 215.112 133.996 212.041 132.233C210.187 131.168 208.402 130.143 206.762 129.275C190.763 120.775 172.199 110.31 156.762 96.2755C147.905 88.2238 142.939 72.7168 145.254 63.065L143.688 65C142.354 64.5 139.988 63.2 141.188 62C142.236 60.9518 147.176 57.1565 150.741 55.2135C157.291 50.8145 163.727 54.4098 168.553 57.1056C168.968 57.3375 169.371 57.5627 169.762 57.7756C182.262 48.7754 193.262 53.2754 204.762 64.7756C217.271 77.2859 221.762 95.7756 222.262 102.276C236.881 114.679 239.344 130.64 235.133 137.035C234.411 138.257 233.692 138.896 231.687 140.5C229.187 142.5 223.687 145.5 222.187 145.5C221.279 145.5 221.268 141.106 221.461 137.308Z" fill="url(#paint15_linear_3430_526)"/>
<path d="M223.687 145C218.187 148.5 205.688 140.5 197.188 136C181.188 127.5 162.624 117.035 147.187 103C136.187 93 131.188 71.5 138.688 64C146.632 56.0547 154.687 61.5001 160.187 64.5003C172.687 55.5 183.687 60 195.187 71.5003C207.697 84.0105 212.187 102.5 212.687 109C229.187 123 230.277 140.807 223.687 145Z" fill="url(#paint16_linear_3430_526)"/>
<path d="M131 111.803V98.5309L140.71 103.062V117.303L131 111.803Z" fill="#DBE5FF"/>
<path d="M151.714 98.5309L140.71 103.062V117.303L151.714 112.772V98.5309Z" fill="#AACAFF"/>
<path d="M140.71 94L131 98.5312L140.71 103.062L151.714 98.5312L140.71 94Z" fill="#BAD4FF"/>
<path d="M203.113 71.9353V63.0377L209.622 66.0755V75.6229L203.113 71.9353Z" fill="#DBE5FF"/>
<path d="M217 63.0377L209.623 66.0755V75.6229L217 72.5851V63.0377Z" fill="#AACAFF"/>
<path d="M209.622 60L203.113 63.0378L209.622 66.0757L217 63.0378L209.622 60Z" fill="#BAD4FF"/>
<path d="M148.113 42.454V35.4062L153.269 37.8125V45.375L148.113 42.454Z" fill="#DBE5FF"/>
<path d="M159.113 35.4062L153.269 37.8125V45.375L159.113 42.9687V35.4062Z" fill="#AACAFF"/>
<path d="M153.269 33L148.113 35.4062L153.269 37.8125L159.113 35.4062L153.269 33Z" fill="#BAD4FF"/>
<path fill-rule="evenodd" clip-rule="evenodd" d="M192.611 98.1072L180.086 73.0576L161 82.6005L175.911 86.7755L175.314 108.843L177.774 110.249L178.297 116.001L183.664 113.615H183.664L184.261 98.1077L187.243 100.493L192.611 98.1077L192.611 98.1072Z" fill="url(#paint17_linear_3430_526)"/>
<path d="M187.243 100.493L175.314 75.443L161 82.6002L170.543 89.1609L169.946 111.229L178.296 116L178.893 94.5288L187.243 100.493Z" fill="url(#paint18_linear_3430_526)"/>
</g>
<defs>
<linearGradient id="paint0_linear_3430_526" x1="116.153" y1="168.604" x2="246.307" y2="168.604" gradientUnits="userSpaceOnUse">
<stop stop-color="white"/>
<stop offset="0.33" stop-color="#F9F8FE"/>
<stop offset="0.81" stop-color="#E8EBF9"/>
<stop offset="1" stop-color="#F0F1FC"/>
</linearGradient>
<linearGradient id="paint1_linear_3430_526" x1="246.306" y1="130.887" x2="116.107" y2="130.887" gradientUnits="userSpaceOnUse">
<stop offset="0.12" stop-color="#E4E9F8"/>
<stop offset="0.56" stop-color="#EAECF9"/>
<stop offset="0.71" stop-color="#F1F3FC"/>
<stop offset="0.91" stop-color="#F3F3FC"/>
<stop offset="1" stop-color="#F3F3FC"/>
</linearGradient>
<linearGradient id="paint2_linear_3430_526" x1="241.258" y1="98.2579" x2="121.196" y2="98.2579" gradientUnits="userSpaceOnUse">
<stop offset="0.12" stop-color="#E8EEFD"/>
<stop offset="1" stop-color="#E4EBFD"/>
</linearGradient>
<linearGradient id="paint3_linear_3430_526" x1="205.109" y1="112.323" x2="157.708" y2="112.323" gradientUnits="userSpaceOnUse">
<stop offset="0.12" stop-color="#CDDAFB"/>
<stop offset="1" stop-color="#E4EBFD"/>
</linearGradient>
<linearGradient id="paint4_linear_3430_526" x1="205.109" y1="126.045" x2="157.694" y2="126.045" gradientUnits="userSpaceOnUse">
<stop offset="0.12" stop-color="#ACCBFC"/>
<stop offset="0.56" stop-color="#C8DCFE"/>
<stop offset="0.71" stop-color="#C8DCFE"/>
<stop offset="0.91" stop-color="#C8DCFE"/>
<stop offset="1" stop-color="#EBF1FF"/>
</linearGradient>
<linearGradient id="paint5_linear_3430_526" x1="104.899" y1="64.9986" x2="1.03583" y2="64.9986" gradientUnits="userSpaceOnUse">
<stop offset="0.12" stop-color="#E8EEFD"/>
<stop offset="1" stop-color="#F4F7FF"/>
</linearGradient>
<linearGradient id="paint6_linear_3430_526" x1="104.9" y1="95.0672" x2="1.00456" y2="95.0672" gradientUnits="userSpaceOnUse">
<stop offset="0.12" stop-color="#ACCBFC"/>
<stop offset="0.56" stop-color="#C8DCFE"/>
<stop offset="0.71" stop-color="#C8DCFE"/>
<stop offset="0.91" stop-color="#C8DCFE"/>
<stop offset="1" stop-color="#EBF1FF"/>
</linearGradient>
<linearGradient id="paint7_linear_3430_526" x1="365.298" y1="61.7645" x2="261.435" y2="61.7645" gradientUnits="userSpaceOnUse">
<stop offset="0.12" stop-color="#E8EEFD"/>
<stop offset="1" stop-color="#F4F7FF"/>
</linearGradient>
<linearGradient id="paint8_linear_3430_526" x1="365.299" y1="91.8331" x2="261.403" y2="91.8331" gradientUnits="userSpaceOnUse">
<stop offset="0.12" stop-color="#ACCBFC"/>
<stop offset="0.56" stop-color="#C8DCFE"/>
<stop offset="0.71" stop-color="#C8DCFE"/>
<stop offset="0.91" stop-color="#C8DCFE"/>
<stop offset="1" stop-color="#EBF1FF"/>
</linearGradient>
<linearGradient id="paint9_linear_3430_526" x1="365.298" y1="61.9085" x2="261.435" y2="61.9085" gradientUnits="userSpaceOnUse">
<stop offset="0.12" stop-color="#E8EEFD"/>
<stop offset="1" stop-color="#F4F7FF"/>
</linearGradient>
<linearGradient id="paint10_linear_3430_526" x1="365.299" y1="91.9772" x2="261.403" y2="91.9772" gradientUnits="userSpaceOnUse">
<stop offset="0.12" stop-color="#ACCBFC"/>
<stop offset="0.56" stop-color="#C8DCFE"/>
<stop offset="0.71" stop-color="#C8DCFE"/>
<stop offset="0.91" stop-color="#C8DCFE"/>
<stop offset="1" stop-color="#EBF1FF"/>
</linearGradient>
<linearGradient id="paint11_linear_3430_526" x1="76.6936" y1="135.2" x2="135.273" y2="99.5201" gradientUnits="userSpaceOnUse">
<stop stop-color="#B6D1FD"/>
<stop offset="1" stop-color="#B6D1FD" stop-opacity="0"/>
</linearGradient>
<linearGradient id="paint12_linear_3430_526" x1="139.49" y1="181.603" x2="159.1" y2="196.088" gradientUnits="userSpaceOnUse">
<stop stop-color="#B6D1FD"/>
<stop offset="1" stop-color="#B6D1FD" stop-opacity="0"/>
</linearGradient>
<linearGradient id="paint13_linear_3430_526" x1="291.84" y1="143.721" x2="233.261" y2="179.401" gradientUnits="userSpaceOnUse">
<stop stop-color="#B6D1FD"/>
<stop offset="1" stop-color="#B6D1FD" stop-opacity="0"/>
</linearGradient>
<linearGradient id="paint14_linear_3430_526" x1="229.043" y1="97.3181" x2="209.434" y2="82.8329" gradientUnits="userSpaceOnUse">
<stop stop-color="#B6D1FD"/>
<stop offset="1" stop-color="#B6D1FD" stop-opacity="0"/>
</linearGradient>
<linearGradient id="paint15_linear_3430_526" x1="141.979" y1="44.4985" x2="141.979" y2="145.595" gradientUnits="userSpaceOnUse">
<stop stop-color="#C7DBFD"/>
<stop offset="1" stop-color="#71A6F8"/>
</linearGradient>
<linearGradient id="paint16_linear_3430_526" x1="141.535" y1="68.1365" x2="196.614" y2="158.291" gradientUnits="userSpaceOnUse">
<stop stop-color="#E6EFFF"/>
<stop offset="1" stop-color="#B6D2FF"/>
</linearGradient>
<linearGradient id="paint17_linear_3430_526" x1="176.805" y1="73.0576" x2="176.805" y2="116.001" gradientUnits="userSpaceOnUse">
<stop stop-color="#CADCFD"/>
<stop offset="1" stop-color="#5090F7"/>
</linearGradient>
<linearGradient id="paint18_linear_3430_526" x1="156.229" y1="71.8644" x2="187.571" y2="112.822" gradientUnits="userSpaceOnUse">
<stop stop-color="#DFEBFF"/>
<stop offset="0.447917" stop-color="#BBD5FF"/>
<stop offset="1" stop-color="#9DC3FF"/>
</linearGradient>
<clipPath id="clip0_3430_526">
<rect width="364.299" height="134.144" fill="white" transform="translate(1 61.7659)"/>
</clipPath>
<clipPath id="clip1_3430_526">
<rect width="111.603" height="85.7459" fill="white" transform="translate(127)"/>
</clipPath>
<clipPath id="clip2_3430_526">
<rect width="105.98" height="112.862" fill="white" transform="translate(131 33)"/>
</clipPath>
</defs>
</svg>
