<svg width="368" height="196" viewBox="0 0 368 196" fill="none" xmlns="http://www.w3.org/2000/svg">
<g opacity="0.8" clip-path="url(#clip0_3430_524)">
<path d="M242.835 123.486C248.759 126.916 248.799 132.462 242.909 135.881L193.131 164.805C187.236 168.236 177.647 168.236 171.723 164.805L121.619 135.881C115.689 132.451 115.655 126.905 121.55 123.48L171.329 94.5557C177.218 91.1253 186.801 91.1253 192.73 94.5557L242.835 123.486Z" fill="url(#paint0_linear_3430_524)"/>
<path d="M247.249 130.169C247.249 130.33 247.249 130.49 247.192 130.65C247.135 130.81 247.129 130.907 247.095 131.033C247.06 131.159 247.02 131.336 246.963 131.484C246.906 131.633 246.86 131.73 246.809 131.85C246.757 131.97 246.672 132.165 246.586 132.325C246.5 132.485 246.454 132.548 246.386 132.662C246.317 132.777 246.163 133.017 246.031 133.188C245.9 133.36 245.78 133.52 245.637 133.686L245.534 133.806C245.339 134.017 245.122 134.229 244.899 134.429C244.676 134.629 244.59 134.686 244.436 134.812C244.282 134.938 244.162 135.035 244.013 135.144C243.864 135.252 243.653 135.389 243.441 135.51C243.23 135.63 243.069 135.761 242.869 135.875L193.091 164.8C192.627 165.064 192.15 165.305 191.661 165.52L191.227 165.703C190.845 165.867 190.449 166.018 190.037 166.155L189.603 166.303C189.345 166.384 189.082 166.452 188.825 166.526L188.253 166.687C187.979 166.755 187.682 166.807 187.413 166.864L186.841 166.978C186.269 167.075 185.697 167.155 185.126 167.218L184.588 167.264C184.251 167.264 183.908 167.315 183.565 167.333H182.907H182.078H181.386L180.614 167.293L179.917 167.235L179.162 167.15L178.482 167.052L177.681 166.915L177.058 166.789C176.738 166.721 176.429 166.641 176.115 166.561L175.6 166.424C175.028 166.263 174.502 166.08 173.976 165.852C173.719 165.749 173.461 165.64 173.21 165.526L172.815 165.354C172.432 165.171 172.061 164.983 171.706 164.783L121.619 135.881C119.011 134.372 117.542 132.451 117.216 130.484C117.17 130.204 117.147 129.921 117.147 129.638L117.102 146.087C117.102 148.374 118.588 150.609 121.567 152.33L171.672 181.254C172.026 181.46 172.398 181.655 172.781 181.826L173.176 181.998C173.399 182.101 173.622 182.204 173.856 182.295H173.942C174.468 182.501 175.011 182.678 175.566 182.867L175.697 182.913L176.086 183.01C176.395 183.09 176.709 183.17 177.024 183.238L177.275 183.301L177.653 183.364L178.453 183.501L178.779 183.559L179.134 183.599L179.888 183.684L180.254 183.724H180.592L181.358 183.764H181.747H183.296H183.536C183.879 183.764 184.222 183.724 184.56 183.696H184.971H185.097C185.669 183.633 186.241 183.559 186.812 183.456H186.898L187.39 183.353C187.67 183.296 187.962 183.238 188.219 183.176L188.791 183.015C189.054 182.947 189.311 182.873 189.568 182.792L189.734 182.747L190.003 182.644C190.407 182.507 190.803 182.356 191.192 182.192L191.621 182.009C192.109 181.793 192.587 181.553 193.051 181.289L242.829 152.364L243.012 152.256C243.155 152.17 243.27 152.079 243.407 151.993C243.544 151.907 243.778 151.758 243.944 151.633C244.11 151.507 244.23 151.41 244.367 151.295C244.505 151.181 244.688 151.044 244.831 150.912L244.922 150.838C245.116 150.661 245.294 150.472 245.494 150.266L245.591 150.152C245.688 150.037 245.791 149.923 245.883 149.809C245.974 149.694 245.951 149.706 245.986 149.654C246.117 149.483 246.231 149.306 246.34 149.128C246.386 149.054 246.449 148.98 246.489 148.905C246.529 148.831 246.523 148.825 246.54 148.791C246.626 148.637 246.695 148.477 246.763 148.322C246.832 148.168 246.855 148.139 246.889 148.048C246.923 147.956 246.889 147.985 246.889 147.951C246.94 147.802 246.98 147.648 247.02 147.499C247.06 147.35 247.089 147.299 247.106 147.196C247.123 147.093 247.106 147.139 247.106 147.116C247.135 146.956 247.146 146.796 247.158 146.641C247.169 146.487 247.192 146.435 247.192 146.333C247.192 146.23 247.192 146.247 247.192 146.201L247.306 129.706C247.306 129.878 247.283 130.021 247.249 130.169Z" fill="url(#paint1_linear_3430_524)"/>
<path d="M247.249 138.169C247.249 138.33 247.249 138.49 247.192 138.65C247.135 138.81 247.129 138.907 247.095 139.033C247.06 139.159 247.02 139.336 246.963 139.484C246.906 139.633 246.86 139.73 246.809 139.85C246.757 139.97 246.672 140.165 246.586 140.325C246.5 140.485 246.454 140.548 246.386 140.662C246.317 140.777 246.163 141.017 246.031 141.188C245.9 141.36 245.78 141.52 245.637 141.686L245.534 141.806C245.339 142.017 245.122 142.229 244.899 142.429C244.676 142.629 244.59 142.686 244.436 142.812C244.282 142.938 244.162 143.035 244.013 143.144C243.864 143.252 243.653 143.389 243.441 143.51C243.23 143.63 243.069 143.761 242.869 143.875L193.091 172.8C192.627 173.064 192.15 173.305 191.661 173.52L191.227 173.703C190.845 173.867 190.449 174.018 190.037 174.155L189.603 174.303C189.345 174.384 189.082 174.452 188.825 174.526L188.253 174.687C187.979 174.755 187.682 174.807 187.413 174.864L186.841 174.978C186.269 175.075 185.697 175.155 185.126 175.218L184.588 175.264C184.251 175.264 183.908 175.315 183.565 175.333H182.907H182.078H181.386L180.614 175.293L179.917 175.235L179.162 175.15L178.482 175.052L177.681 174.915L177.058 174.789C176.738 174.721 176.429 174.641 176.115 174.561L175.6 174.424C175.028 174.263 174.502 174.08 173.976 173.852C173.719 173.749 173.461 173.64 173.21 173.526L172.815 173.354C172.432 173.171 172.061 172.983 171.706 172.783L121.619 143.881C119.011 142.372 117.542 140.451 117.216 138.484C117.17 138.204 117.147 137.921 117.147 137.638L117.102 139.087C117.102 141.374 118.588 143.609 121.567 145.33L171.672 174.254C172.026 174.46 172.398 174.655 172.781 174.826L173.176 174.998C173.399 175.101 173.622 175.204 173.856 175.295H173.942C174.468 175.501 175.011 175.678 175.566 175.867L175.697 175.913L176.086 176.01C176.395 176.09 176.709 176.17 177.024 176.238L177.275 176.301L177.653 176.364L178.453 176.501L178.779 176.559L179.134 176.599L179.888 176.684L180.254 176.724H180.592L181.358 176.764H181.747H183.296H183.536C183.879 176.764 184.222 176.724 184.56 176.696H184.971H185.097C185.669 176.633 186.241 176.559 186.812 176.456H186.898L187.39 176.353C187.67 176.296 187.962 176.238 188.219 176.176L188.791 176.015C189.054 175.947 189.311 175.873 189.568 175.792L189.734 175.747L190.003 175.644C190.407 175.507 190.803 175.356 191.192 175.192L191.621 175.009C192.109 174.793 192.587 174.553 193.051 174.289L242.829 145.364L243.012 145.256C243.155 145.17 243.27 145.079 243.407 144.993C243.544 144.907 243.778 144.758 243.944 144.633C244.11 144.507 244.23 144.41 244.367 144.295C244.505 144.181 244.688 144.044 244.831 143.912L244.922 143.838C245.116 143.661 245.294 143.472 245.494 143.266L245.591 143.152C245.688 143.037 245.791 142.923 245.883 142.809C245.974 142.694 245.951 142.706 245.986 142.654C246.117 142.483 246.231 142.306 246.34 142.128C246.386 142.054 246.449 141.98 246.489 141.905C246.529 141.831 246.523 141.825 246.54 141.791C246.626 141.637 246.695 141.477 246.763 141.322C246.832 141.168 246.855 141.139 246.889 141.048C246.923 140.956 246.889 140.985 246.889 140.951C246.94 140.802 246.98 140.648 247.02 140.499C247.06 140.35 247.089 140.299 247.106 140.196C247.123 140.093 247.106 140.139 247.106 140.116C247.135 139.956 247.146 139.796 247.158 139.641C247.169 139.487 247.192 139.435 247.192 139.333C247.192 139.23 247.192 139.247 247.192 139.201L247.306 137.706C247.306 137.878 247.283 138.021 247.249 138.169Z" fill="#7DACFA"/>
<path d="M182.444 162.33C179.317 162.33 176.332 161.644 174.251 160.437L124.146 131.507C122.659 130.65 122.202 129.844 122.202 129.649C122.202 129.455 122.648 128.677 124.089 127.842L173.868 98.9181C175.926 97.7232 178.893 97.0371 182.01 97.0371C185.126 97.0371 188.128 97.7289 190.209 98.9295L240.314 127.86C241.8 128.717 242.258 129.523 242.258 129.723C242.258 129.924 241.812 130.695 240.377 131.53L190.598 160.455C188.539 161.644 185.566 162.33 182.444 162.33Z" fill="url(#paint2_linear_3430_524)"/>
<path d="M204.482 122.574C206.639 123.823 206.654 125.843 204.509 127.088L186.381 137.621C184.234 138.871 180.742 138.871 178.585 137.621L160.338 127.088C158.179 125.838 158.166 123.819 160.313 122.572L178.441 112.038C180.586 110.789 184.076 110.789 186.235 112.038L204.482 122.574Z" fill="url(#paint3_linear_3430_524)"/>
<path d="M206.088 125.008C206.088 125.066 206.088 125.124 206.068 125.183C206.047 125.241 206.045 125.276 206.032 125.322C206.02 125.368 206.005 125.432 205.984 125.487C205.963 125.541 205.947 125.576 205.928 125.62C205.909 125.664 205.878 125.734 205.847 125.793C205.816 125.851 205.799 125.874 205.774 125.915C205.749 125.957 205.693 126.045 205.645 126.107C205.597 126.169 205.553 126.228 205.501 126.288L205.464 126.332C205.393 126.409 205.314 126.486 205.233 126.559C205.151 126.632 205.12 126.653 205.064 126.698C205.008 126.744 204.964 126.78 204.91 126.819C204.856 126.859 204.779 126.909 204.702 126.952C204.625 126.996 204.566 127.044 204.493 127.086L186.365 137.619C186.196 137.715 186.022 137.803 185.845 137.881L185.686 137.948C185.548 138.008 185.403 138.063 185.253 138.113L185.095 138.167C185.001 138.196 184.906 138.221 184.812 138.248L184.604 138.306C184.504 138.331 184.395 138.35 184.297 138.371L184.089 138.412C183.881 138.448 183.673 138.477 183.465 138.5L183.269 138.517C183.146 138.517 183.021 138.535 182.896 138.542H182.657H182.355H182.103L181.822 138.527L181.568 138.506L181.293 138.475L181.045 138.439L180.753 138.39L180.527 138.344C180.41 138.319 180.297 138.29 180.183 138.26L179.996 138.21C179.787 138.152 179.596 138.086 179.404 138.002C179.31 137.965 179.217 137.925 179.125 137.884L178.981 137.821C178.842 137.754 178.707 137.686 178.578 137.613L160.337 127.088C159.387 126.538 158.852 125.838 158.734 125.122C158.717 125.02 158.708 124.917 158.709 124.814L158.692 129.111C158.692 129.944 159.233 130.758 160.318 131.385L178.565 141.918C178.694 141.993 178.829 142.064 178.969 142.126L179.113 142.189C179.194 142.226 179.275 142.264 179.36 142.297H179.392C179.583 142.372 179.781 142.436 179.983 142.505L180.031 142.522L180.173 142.557C180.285 142.586 180.399 142.616 180.514 142.641L180.606 142.663L180.743 142.686L181.035 142.736L181.153 142.757L181.282 142.772L181.557 142.803L181.691 142.818H181.813L182.092 142.832H182.234H182.798H182.886C183.011 142.832 183.136 142.818 183.258 142.807H183.408H183.454C183.662 142.784 183.871 142.757 184.079 142.72H184.11L184.289 142.682C184.391 142.661 184.497 142.641 184.591 142.618L184.799 142.559C184.895 142.534 184.989 142.507 185.083 142.478L185.143 142.461L185.241 142.424C185.388 142.374 185.532 142.319 185.674 142.26L185.83 142.193C186.008 142.114 186.182 142.027 186.351 141.931L204.479 131.397L204.545 131.357C204.597 131.326 204.639 131.293 204.689 131.262C204.739 131.23 204.824 131.176 204.885 131.13C204.945 131.085 204.989 131.049 205.039 131.008C205.089 130.966 205.156 130.916 205.208 130.868L205.241 130.841C205.312 130.777 205.376 130.708 205.449 130.633L205.485 130.591C205.52 130.55 205.557 130.508 205.591 130.466C205.624 130.425 205.616 130.429 205.628 130.41C205.676 130.348 205.718 130.283 205.757 130.219C205.774 130.191 205.797 130.164 205.811 130.137C205.826 130.11 205.824 130.108 205.83 130.096C205.861 130.039 205.886 129.981 205.911 129.925C205.936 129.869 205.945 129.858 205.957 129.825C205.97 129.792 205.957 129.802 205.957 129.79C205.976 129.735 205.991 129.679 206.005 129.625C206.02 129.571 206.03 129.552 206.036 129.515C206.043 129.477 206.036 129.494 206.036 129.486C206.047 129.427 206.051 129.369 206.055 129.313C206.059 129.257 206.068 129.238 206.068 129.2C206.068 129.163 206.068 129.169 206.068 129.152L206.109 124.839C206.109 124.901 206.101 124.953 206.088 125.008Z" fill="url(#paint4_linear_3430_524)"/>
<path d="M102.334 89.6816C107.061 92.419 107.093 96.8445 102.394 99.5727L62.6714 122.654C57.9674 125.391 50.3158 125.391 45.5889 122.654L5.60654 99.5727C0.875085 96.8353 0.847709 92.4098 5.55179 89.677L45.2741 66.596C49.9736 63.8586 57.6206 63.8586 62.352 66.596L102.334 89.6816Z" fill="url(#paint5_linear_3430_524)"/>
<path d="M105.855 95.0148C105.855 95.1426 105.855 95.2703 105.809 95.3981C105.763 95.5258 105.759 95.6034 105.732 95.7038C105.704 95.8041 105.672 95.9456 105.627 96.0642C105.581 96.1828 105.544 96.2604 105.503 96.3562C105.462 96.452 105.394 96.6071 105.325 96.7349C105.257 96.8626 105.221 96.9128 105.166 97.004C105.111 97.0953 104.988 97.2869 104.883 97.4238C104.778 97.5606 104.682 97.6884 104.568 97.8207L104.486 97.9165C104.331 98.0853 104.157 98.2541 103.979 98.4138C103.802 98.5735 103.733 98.6191 103.61 98.7195C103.487 98.8198 103.391 98.8974 103.272 98.9841C103.154 99.0708 102.985 99.1803 102.816 99.2761C102.647 99.3719 102.519 99.4768 102.36 99.5681L62.6374 122.649C62.2673 122.86 61.8865 123.052 61.4968 123.224L61.15 123.37C60.8458 123.501 60.5295 123.621 60.201 123.73L59.8542 123.849C59.6489 123.913 59.439 123.968 59.2337 124.027L58.7774 124.155C58.5584 124.209 58.3212 124.25 58.1067 124.296L57.6505 124.387C57.1942 124.465 56.7379 124.529 56.2817 124.579L55.8528 124.615C55.5836 124.615 55.3098 124.656 55.0361 124.67H54.5114H53.8498H53.2977L52.6818 124.638L52.1251 124.593L51.5229 124.524L50.9799 124.447L50.3411 124.337L49.8438 124.237C49.5883 124.182 49.3419 124.118 49.091 124.054L48.6803 123.945C48.2241 123.817 47.8043 123.671 47.3845 123.489C47.1792 123.406 46.9739 123.32 46.7732 123.228L46.4583 123.092C46.1526 122.946 45.8561 122.795 45.5732 122.635L5.60448 99.5726C3.52392 98.3682 2.35132 96.8352 2.09125 95.2658C2.05443 95.0426 2.03612 94.8167 2.0365 94.5905L2 97.1134C2 98.9383 3.18629 100.722 5.56342 102.096L45.5458 125.176C45.8287 125.341 46.1253 125.496 46.431 125.633L46.7458 125.77C46.9237 125.852 47.1017 125.934 47.2887 126.007H47.3572C47.7769 126.171 48.2104 126.312 48.653 126.463L48.7579 126.5L49.0682 126.577C49.3145 126.641 49.5655 126.705 49.8164 126.76L50.0172 126.81L50.3183 126.86L50.9571 126.969L51.2172 127.015L51.5 127.047L52.1023 127.115L52.3943 127.147H52.6635L53.2749 127.179H53.5852H54.8216H55.0133C55.287 127.179 55.5608 127.147 55.83 127.125H56.1585H56.2589C56.7151 127.074 57.1714 127.015 57.6277 126.933H57.6961L58.0885 126.851C58.3121 126.805 58.5448 126.76 58.7501 126.709L59.2063 126.582C59.4162 126.527 59.6215 126.468 59.8269 126.404L59.9592 126.367L60.1736 126.285C60.496 126.176 60.8124 126.055 61.1226 125.925L61.4648 125.779C61.8546 125.607 62.2353 125.415 62.6055 125.204L102.328 102.123L102.474 102.036C102.588 101.968 102.679 101.895 102.789 101.826C102.898 101.758 103.085 101.639 103.218 101.539C103.35 101.439 103.446 101.361 103.555 101.27C103.665 101.178 103.811 101.069 103.925 100.964L103.998 100.905C104.153 100.763 104.294 100.613 104.454 100.448L104.532 100.357C104.609 100.266 104.691 100.175 104.764 100.084C104.837 99.9923 104.819 100.001 104.846 99.9603C104.951 99.8234 105.043 99.682 105.129 99.5406C105.166 99.4813 105.216 99.422 105.248 99.3626C105.28 99.3033 105.275 99.2988 105.289 99.2714C105.357 99.1482 105.412 99.0205 105.467 98.8973C105.522 98.7741 105.54 98.7513 105.567 98.6783C105.595 98.6053 105.567 98.6281 105.567 98.6007C105.608 98.4821 105.64 98.3589 105.672 98.2403C105.704 98.1217 105.727 98.0806 105.741 97.9985C105.754 97.9164 105.741 97.9529 105.741 97.9346C105.763 97.8069 105.773 97.6791 105.782 97.556C105.791 97.4328 105.809 97.3917 105.809 97.3096C105.809 97.2275 105.809 97.2412 105.809 97.2047L105.9 94.6453C105.9 94.7822 105.882 94.8962 105.855 95.0148Z" fill="url(#paint6_linear_3430_524)"/>
<path d="M32 97.6353V69.9832L52.2306 79.4241V109.096L32 97.6353Z" fill="#DBE5FF"/>
<path d="M75.1583 69.9832L52.2302 79.4241V109.096L75.1583 99.6548V69.9832Z" fill="#AACAFF"/>
<path d="M52.2306 60.543L32 69.9839L52.2306 79.4249L75.1587 69.9839L52.2306 60.543Z" fill="#BAD4FF"/>
<path d="M64 97.5432V82.5432L66.7306 84.5427V99.0957L64 97.5432Z" fill="#DBE5FF"/>
<path d="M89.6583 73.9832L66.4998 84.0428L66.7302 99.0958L89.6583 87.5428V73.9832Z" fill="#BFD7FF"/>
<path d="M86.5 72.543L64 82.543L66.7306 84.4249L89.5 74.043L86.5 72.543Z" fill="#D5E5FF"/>
<path d="M362.733 85.682C367.46 88.4195 367.492 92.8449 362.793 95.5732L323.07 118.654C318.366 121.392 310.715 121.392 305.988 118.654L266.005 95.5732C261.274 92.8358 261.247 88.4103 265.951 85.6775L305.673 62.5965C310.373 59.8591 318.02 59.8591 322.751 62.5965L362.733 85.682Z" fill="url(#paint7_linear_3430_524)"/>
<path d="M366.254 91.0154C366.254 91.1431 366.254 91.2709 366.208 91.3986C366.162 91.5263 366.158 91.6039 366.13 91.7043C366.103 91.8047 366.071 91.9461 366.026 92.0647C365.98 92.1833 365.943 92.2609 365.902 92.3567C365.861 92.4525 365.793 92.6076 365.724 92.7354C365.656 92.8631 365.619 92.9133 365.565 93.0046C365.51 93.0958 365.387 93.2874 365.282 93.4243C365.177 93.5612 365.081 93.6889 364.967 93.8212L364.885 93.917C364.73 94.0858 364.556 94.2546 364.378 94.4143C364.2 94.574 364.132 94.6196 364.009 94.72C363.886 94.8204 363.79 94.8979 363.671 94.9846C363.553 95.0713 363.384 95.1808 363.215 95.2766C363.046 95.3724 362.918 95.4773 362.759 95.5686L323.036 118.65C322.666 118.86 322.285 119.052 321.896 119.224L321.549 119.37C321.245 119.501 320.928 119.621 320.6 119.731L320.253 119.849C320.048 119.913 319.838 119.968 319.633 120.027L319.176 120.155C318.957 120.21 318.72 120.251 318.506 120.297L318.049 120.388C317.593 120.465 317.137 120.529 316.681 120.579L316.252 120.616C315.983 120.616 315.709 120.657 315.435 120.671H314.91H314.249H313.697L313.081 120.639L312.524 120.593L311.922 120.525L311.379 120.447L310.74 120.338L310.243 120.237C309.987 120.182 309.741 120.119 309.49 120.055L309.079 119.945C308.623 119.818 308.203 119.672 307.783 119.489C307.578 119.407 307.373 119.32 307.172 119.229L306.857 119.092C306.552 118.946 306.255 118.796 305.972 118.636L266.003 95.5732C263.923 94.3687 262.75 92.8357 262.49 91.2663C262.453 91.0431 262.435 90.8173 262.435 90.5911L262.399 93.1139C262.399 94.9389 263.585 96.7228 265.962 98.096L305.945 121.177C306.228 121.341 306.524 121.496 306.83 121.633L307.145 121.77C307.323 121.852 307.501 121.934 307.688 122.007H307.756C308.176 122.172 308.609 122.313 309.052 122.464L309.157 122.5L309.467 122.578C309.713 122.641 309.964 122.705 310.215 122.76L310.416 122.81L310.717 122.86L311.356 122.97L311.616 123.016L311.899 123.048L312.501 123.116L312.793 123.148H313.062L313.674 123.18H313.984H315.221H315.412C315.686 123.18 315.96 123.148 316.229 123.125H316.557H316.658C317.114 123.075 317.57 123.016 318.027 122.933H318.095L318.487 122.851C318.711 122.806 318.944 122.76 319.149 122.71L319.605 122.582C319.815 122.527 320.02 122.468 320.226 122.404L320.358 122.368L320.573 122.286C320.895 122.176 321.211 122.056 321.522 121.925L321.864 121.779C322.253 121.607 322.634 121.415 323.004 121.204L362.727 98.1234L362.873 98.0367C362.987 97.9683 363.078 97.8953 363.188 97.8268C363.297 97.7584 363.484 97.6398 363.616 97.5394C363.749 97.439 363.845 97.3615 363.954 97.2702C364.064 97.179 364.21 97.0695 364.324 96.9646L364.397 96.9052C364.552 96.7638 364.693 96.6133 364.853 96.449L364.93 96.3578C365.008 96.2665 365.09 96.1753 365.163 96.084C365.236 95.9928 365.218 96.0019 365.245 95.9608C365.35 95.824 365.441 95.6825 365.528 95.5411C365.565 95.4818 365.615 95.4225 365.647 95.3632C365.679 95.3039 365.674 95.2993 365.688 95.2719C365.756 95.1487 365.811 95.021 365.866 94.8978C365.921 94.7746 365.939 94.7518 365.966 94.6788C365.994 94.6058 365.966 94.6286 365.966 94.6013C366.007 94.4826 366.039 94.3594 366.071 94.2408C366.103 94.1222 366.126 94.0811 366.14 93.999C366.153 93.9169 366.14 93.9534 366.14 93.9352C366.162 93.8074 366.172 93.6797 366.181 93.5565C366.19 93.4333 366.208 93.3922 366.208 93.3101C366.208 93.228 366.208 93.2417 366.208 93.2052L366.299 90.6458C366.299 90.7827 366.281 90.8967 366.254 91.0154Z" fill="url(#paint8_linear_3430_524)"/>
<path d="M315.686 80.0976V66.0256L327.953 72.9663V88.0177L315.686 80.0976Z" fill="#DBE5FF"/>
<path d="M330.432 71.6879L327.953 72.966V88.0174L330.462 86.7631L330.432 71.6879Z" fill="#AACAFF"/>
<path d="M318.081 64.5435L315.686 66.0266L327.953 72.9664L330.462 71.7121L318.081 64.5435Z" fill="#BAD4FF"/>
<path d="M290 90.8307V71.4232L318.241 85.5243V106.282L290 90.8307Z" fill="#DBE5FF"/>
<path d="M321.658 83.7617L318.24 85.5244V106.283L321.7 104.553L321.658 83.7617Z" fill="#AACAFF"/>
<path d="M293.304 69.3793L290 71.4248L318.241 85.5246L321.701 83.7947L293.304 69.3793Z" fill="#BAD4FF"/>
<path d="M108.581 161.67L81.3427 143.512C77.6726 141.065 77.8085 135.627 81.5962 133.367L139.468 98.8305" stroke="url(#paint9_linear_3430_524)"/>
<line x1="119.489" y1="168.697" x2="162.092" y2="194.259" stroke="url(#paint10_linear_3430_524)" stroke-dasharray="1 1"/>
<circle cx="111.244" cy="163.268" r="2.69524" stroke="#B6D1FD"/>
<path d="M261.952 114.807L289.19 132.966C292.861 135.413 292.725 140.85 288.937 143.11L231.065 177.647" stroke="url(#paint11_linear_3430_524)"/>
<line x1="251.044" y1="107.78" x2="208.441" y2="82.2183" stroke="url(#paint12_linear_3430_524)" stroke-dasharray="1 1"/>
<circle cx="259.29" cy="113.209" r="2.69524" transform="rotate(-180 259.29 113.209)" stroke="#B6D1FD"/>
</g>
<g clip-path="url(#clip1_3430_524)">
<path d="M239 46.4338V43.4507L240.945 44.3586V47.212L239 46.4338Z" fill="#C8DCFE"/>
<path d="M243.15 43.4507L240.946 44.3586V47.212L243.15 46.3041V43.4507Z" fill="#78ABF9"/>
<path d="M240.945 42.543L239 43.4509L240.945 44.3588L243.15 43.4509L240.945 42.543Z" fill="#91BAFB"/>
<path d="M118 59.3094V55.6551L120.383 56.7673V60.2627L118 59.3094Z" fill="#C8DCFE"/>
<path d="M123.084 55.6551L120.383 56.7673V60.2627L123.084 59.1505V55.6551Z" fill="#78ABF9"/>
<path d="M120.383 54.543L118 55.6551L120.383 56.7673L123.084 55.6551L120.383 54.543Z" fill="#91BAFB"/>
<g opacity="0.5">
<path d="M212 55.4339V52.4508L213.945 53.3587V56.2121L212 55.4339Z" fill="#C8DCFE"/>
<path d="M216.15 52.4508L213.945 53.3587V56.2121L216.15 55.3042V52.4508Z" fill="#78ABF9"/>
<path d="M213.945 51.543L212 52.4509L213.945 53.3588L216.15 52.4509L213.945 51.543Z" fill="#91BAFB"/>
</g>
<path d="M121 94.4339V91.4508L122.945 92.3587V95.2121L121 94.4339Z" fill="#C8DCFE"/>
<path d="M125.15 91.4508L122.945 92.3587V95.2121L125.15 94.3042V91.4508Z" fill="#78ABF9"/>
<path d="M122.945 90.543L121 91.4509L122.945 92.3588L125.15 91.4509L122.945 90.543Z" fill="#91BAFB"/>
<path d="M231 66.2121V62.6324L233.626 63.7219V67.1459L231 66.2121Z" fill="#C8DCFE"/>
<path d="M236.603 62.6324L233.626 63.7219V67.1459L236.603 66.0565V62.6324Z" fill="#78ABF9"/>
<path d="M233.626 61.543L231 62.6324L233.626 63.7219L236.603 62.6324L233.626 61.543Z" fill="#91BAFB"/>
<g opacity="0.6">
<path d="M133 71.4338V68.4508L134.945 69.3587V72.212L133 71.4338Z" fill="#C8DCFE"/>
<path d="M137.15 68.4508L134.945 69.3587V72.212L137.15 71.3041V68.4508Z" fill="#78ABF9"/>
<path d="M134.945 67.543L133 68.4509L134.945 69.3588L137.15 68.4509L134.945 67.543Z" fill="#91BAFB"/>
</g>
<g opacity="0.3">
<path d="M137 41.4338V38.4508L138.945 39.3587V42.212L137 41.4338Z" fill="#C8DCFE"/>
<path d="M141.15 38.4508L138.945 39.3587V42.212L141.15 41.3041V38.4508Z" fill="#78ABF9"/>
<path d="M138.945 37.543L137 38.4509L138.945 39.3588L141.15 38.4509L138.945 37.543Z" fill="#91BAFB"/>
</g>
<path d="M232 84.6646V82.2713L233.561 82.9997V85.2889L232 84.6646Z" fill="#79A5E5"/>
<path d="M235.33 82.2713L233.561 82.9997V85.2889L235.33 84.5605V82.2713Z" fill="#A5C5F5"/>
<path d="M233.561 81.543L232 82.2714L233.561 82.9997L235.33 82.2714L233.561 81.543Z" fill="#B4D2FA"/>
</g>
<path fill-rule="evenodd" clip-rule="evenodd" d="M211.807 67C222.408 85.7393 223.854 105.724 216.307 116.019L216.373 116.033C216.206 116.228 216.019 116.439 215.813 116.663C214.878 117.827 213.819 118.854 212.635 119.724C209.786 122.182 205.982 124.788 202.223 125.656C199.679 126.243 198.312 124.736 197.656 122.425C186.246 120.022 173.364 109.4 164.514 93.7553C155.867 78.4714 153.311 62.3592 156.757 51.351C154.844 49.8996 154.169 48.0555 156.376 45.8485C160.154 42.0711 164.387 40.0082 167.2 39.0672C180.307 33.7539 199.779 45.7393 211.807 67Z" fill="url(#paint13_linear_3430_524)"/>
<ellipse cx="182.5" cy="83.7738" rx="27.1684" ry="46.4126" transform="rotate(-29.4983 182.5 83.7738)" fill="url(#paint14_linear_3430_524)"/>
<path fill-rule="evenodd" clip-rule="evenodd" d="M185.809 64.5268V82.0138L205.298 106.376L199.995 110.619L179.761 85.3266C179.279 84.7244 179.017 83.9762 179.017 83.2051V61.1308L185.809 64.5268Z" fill="url(#paint15_linear_3430_524)"/>
<path fill-rule="evenodd" clip-rule="evenodd" d="M149.584 82.0742L143.924 85.4703L144.077 86.1565L139.396 88.8663L147.886 107.545L165.109 119.026L166.564 123.393L169.96 122.261L170.526 96.7904L154.852 85.9056L149.584 82.0742Z" fill="url(#paint16_linear_3430_524)"/>
<path d="M167.13 97.9222L166.564 123.392L144.49 108.676L136 89.9981L146.754 83.772L167.13 97.9222Z" fill="url(#paint17_linear_3430_524)"/>
<defs>
<linearGradient id="paint0_linear_3430_524" x1="117.153" y1="167.382" x2="247.306" y2="167.382" gradientUnits="userSpaceOnUse">
<stop stop-color="white"/>
<stop offset="0.33" stop-color="#F9F8FE"/>
<stop offset="0.81" stop-color="#E8EBF9"/>
<stop offset="1" stop-color="#F0F1FC"/>
</linearGradient>
<linearGradient id="paint1_linear_3430_524" x1="247.306" y1="129.665" x2="117.107" y2="129.665" gradientUnits="userSpaceOnUse">
<stop offset="0.12" stop-color="#E4E9F8"/>
<stop offset="0.56" stop-color="#EAECF9"/>
<stop offset="0.71" stop-color="#F1F3FC"/>
<stop offset="0.91" stop-color="#F3F3FC"/>
<stop offset="1" stop-color="#F3F3FC"/>
</linearGradient>
<linearGradient id="paint2_linear_3430_524" x1="242.258" y1="97.0355" x2="122.196" y2="97.0355" gradientUnits="userSpaceOnUse">
<stop offset="0.12" stop-color="#E8EEFD"/>
<stop offset="1" stop-color="#E4EBFD"/>
</linearGradient>
<linearGradient id="paint3_linear_3430_524" x1="206.109" y1="111.1" x2="158.708" y2="111.1" gradientUnits="userSpaceOnUse">
<stop offset="0.12" stop-color="#CDDAFB"/>
<stop offset="1" stop-color="#E4EBFD"/>
</linearGradient>
<linearGradient id="paint4_linear_3430_524" x1="206.109" y1="124.823" x2="158.694" y2="124.823" gradientUnits="userSpaceOnUse">
<stop offset="0.12" stop-color="#ACCBFC"/>
<stop offset="0.56" stop-color="#C8DCFE"/>
<stop offset="0.71" stop-color="#C8DCFE"/>
<stop offset="0.91" stop-color="#C8DCFE"/>
<stop offset="1" stop-color="#EBF1FF"/>
</linearGradient>
<linearGradient id="paint5_linear_3430_524" x1="105.899" y1="64.5416" x2="2.03583" y2="64.5416" gradientUnits="userSpaceOnUse">
<stop offset="0.12" stop-color="#E8EEFD"/>
<stop offset="1" stop-color="#F4F7FF"/>
</linearGradient>
<linearGradient id="paint6_linear_3430_524" x1="105.9" y1="94.6102" x2="2.00456" y2="94.6102" gradientUnits="userSpaceOnUse">
<stop offset="0.12" stop-color="#ACCBFC"/>
<stop offset="0.56" stop-color="#C8DCFE"/>
<stop offset="0.71" stop-color="#C8DCFE"/>
<stop offset="0.91" stop-color="#C8DCFE"/>
<stop offset="1" stop-color="#EBF1FF"/>
</linearGradient>
<linearGradient id="paint7_linear_3430_524" x1="366.298" y1="60.542" x2="262.435" y2="60.542" gradientUnits="userSpaceOnUse">
<stop offset="0.12" stop-color="#E8EEFD"/>
<stop offset="1" stop-color="#F4F7FF"/>
</linearGradient>
<linearGradient id="paint8_linear_3430_524" x1="366.299" y1="90.6107" x2="262.403" y2="90.6107" gradientUnits="userSpaceOnUse">
<stop offset="0.12" stop-color="#ACCBFC"/>
<stop offset="0.56" stop-color="#C8DCFE"/>
<stop offset="0.71" stop-color="#C8DCFE"/>
<stop offset="0.91" stop-color="#C8DCFE"/>
<stop offset="1" stop-color="#EBF1FF"/>
</linearGradient>
<linearGradient id="paint9_linear_3430_524" x1="77.6934" y1="133.978" x2="136.273" y2="98.2979" gradientUnits="userSpaceOnUse">
<stop stop-color="#B6D1FD"/>
<stop offset="1" stop-color="#B6D1FD" stop-opacity="0"/>
</linearGradient>
<linearGradient id="paint10_linear_3430_524" x1="140.49" y1="180.381" x2="160.099" y2="194.866" gradientUnits="userSpaceOnUse">
<stop stop-color="#B6D1FD"/>
<stop offset="1" stop-color="#B6D1FD" stop-opacity="0"/>
</linearGradient>
<linearGradient id="paint11_linear_3430_524" x1="292.84" y1="142.499" x2="234.26" y2="178.179" gradientUnits="userSpaceOnUse">
<stop stop-color="#B6D1FD"/>
<stop offset="1" stop-color="#B6D1FD" stop-opacity="0"/>
</linearGradient>
<linearGradient id="paint12_linear_3430_524" x1="230.043" y1="96.0964" x2="210.434" y2="81.6112" gradientUnits="userSpaceOnUse">
<stop stop-color="#B6D1FD"/>
<stop offset="1" stop-color="#B6D1FD" stop-opacity="0"/>
</linearGradient>
<linearGradient id="paint13_linear_3430_524" x1="155.767" y1="29.7273" x2="155.767" y2="125.874" gradientUnits="userSpaceOnUse">
<stop stop-color="#C7DBFD"/>
<stop offset="1" stop-color="#71A6F8"/>
</linearGradient>
<linearGradient id="paint14_linear_3430_524" x1="181.491" y1="62.39" x2="200.889" y2="108.767" gradientUnits="userSpaceOnUse">
<stop stop-color="#E6EFFF"/>
<stop offset="1" stop-color="#B6D2FF"/>
</linearGradient>
<linearGradient id="paint15_linear_3430_524" x1="179.323" y1="56.5824" x2="179.323" y2="110.67" gradientUnits="userSpaceOnUse">
<stop stop-color="#C7DBFD"/>
<stop offset="1" stop-color="#71A6F8"/>
</linearGradient>
<linearGradient id="paint16_linear_3430_524" x1="187.619" y1="118.82" x2="133.353" y2="113.027" gradientUnits="userSpaceOnUse">
<stop stop-color="#CADCFD"/>
<stop offset="1" stop-color="#8AB7FF"/>
</linearGradient>
<linearGradient id="paint17_linear_3430_524" x1="138.165" y1="87.6412" x2="166.173" y2="121.24" gradientUnits="userSpaceOnUse">
<stop stop-color="#DEEAFF"/>
<stop offset="1" stop-color="#B6D2FF"/>
</linearGradient>
<clipPath id="clip0_3430_524">
<rect width="364.299" height="134.144" fill="white" transform="translate(2 60.543)"/>
</clipPath>
<clipPath id="clip1_3430_524">
<rect width="125.15" height="57.6692" fill="white" transform="translate(118 37.543)"/>
</clipPath>
</defs>
</svg>
