<svg width="368" height="196" viewBox="0 0 368 196" fill="none" xmlns="http://www.w3.org/2000/svg">
<g opacity="0.8" clip-path="url(#clip0_3430_216)">
<path d="M242.134 124.253C248.058 127.684 248.098 133.23 242.209 136.649L192.43 165.573C186.535 169.003 176.946 169.003 171.023 165.573L120.918 136.649C114.989 133.218 114.954 127.672 120.849 124.248L170.628 95.3232C176.517 91.8927 186.1 91.8927 192.03 95.3232L242.134 124.253Z" fill="url(#paint0_linear_3430_216)"/>
<path d="M246.548 130.937C246.548 131.097 246.548 131.257 246.491 131.417C246.434 131.577 246.428 131.674 246.394 131.8C246.36 131.926 246.32 132.103 246.263 132.252C246.205 132.401 246.16 132.498 246.108 132.618C246.057 132.738 245.971 132.932 245.885 133.092C245.799 133.252 245.754 133.315 245.685 133.43C245.616 133.544 245.462 133.784 245.331 133.956C245.199 134.127 245.079 134.287 244.936 134.453L244.833 134.573C244.639 134.785 244.421 134.996 244.198 135.196C243.975 135.396 243.89 135.454 243.735 135.579C243.581 135.705 243.461 135.802 243.312 135.911C243.164 136.02 242.952 136.157 242.74 136.277C242.529 136.397 242.369 136.529 242.169 136.643L192.39 165.567C191.926 165.832 191.449 166.072 190.96 166.288L190.526 166.471C190.145 166.634 189.748 166.785 189.337 166.922L188.902 167.071C188.645 167.151 188.382 167.22 188.124 167.294L187.553 167.454C187.278 167.523 186.981 167.574 186.712 167.631L186.14 167.746C185.569 167.843 184.997 167.923 184.425 167.986L183.888 168.031C183.55 168.031 183.207 168.083 182.864 168.1H182.207H181.377H180.686L179.914 168.06L179.216 168.003L178.461 167.917L177.781 167.82L176.981 167.683L176.357 167.557C176.037 167.488 175.728 167.408 175.414 167.328L174.899 167.191C174.327 167.031 173.801 166.848 173.275 166.619C173.018 166.516 172.761 166.408 172.509 166.293L172.115 166.122C171.732 165.939 171.36 165.75 171.005 165.55L120.918 136.649C118.311 135.139 116.841 133.218 116.515 131.251C116.469 130.972 116.446 130.689 116.447 130.405L116.401 146.854C116.401 149.141 117.887 151.377 120.866 153.098L170.971 182.022C171.326 182.228 171.697 182.422 172.08 182.594L172.475 182.765C172.698 182.868 172.921 182.971 173.155 183.062H173.241C173.767 183.268 174.31 183.446 174.865 183.634L174.996 183.68L175.385 183.777C175.694 183.857 176.008 183.937 176.323 184.006L176.575 184.069L176.952 184.132L177.752 184.269L178.078 184.326L178.433 184.366L179.188 184.452L179.553 184.492H179.891L180.657 184.532H181.046H182.595H182.835C183.179 184.532 183.522 184.492 183.859 184.463H184.271H184.396C184.968 184.4 185.54 184.326 186.112 184.223H186.198L186.689 184.12C186.969 184.063 187.261 184.006 187.518 183.943L188.09 183.783C188.353 183.714 188.61 183.64 188.868 183.56L189.034 183.514L189.302 183.411C189.706 183.274 190.103 183.123 190.492 182.96L190.92 182.777C191.409 182.561 191.886 182.32 192.35 182.056L242.129 153.132L242.312 153.023C242.455 152.937 242.569 152.846 242.706 152.76C242.843 152.674 243.078 152.526 243.244 152.4C243.409 152.274 243.529 152.177 243.667 152.063C243.804 151.948 243.987 151.811 244.13 151.68L244.221 151.605C244.416 151.428 244.593 151.239 244.793 151.034L244.89 150.919C244.988 150.805 245.09 150.691 245.182 150.576C245.273 150.462 245.251 150.473 245.285 150.422C245.416 150.25 245.531 150.073 245.639 149.896C245.685 149.821 245.748 149.747 245.788 149.673C245.828 149.598 245.822 149.593 245.839 149.558C245.925 149.404 245.994 149.244 246.062 149.09C246.131 148.935 246.154 148.907 246.188 148.815C246.223 148.724 246.188 148.752 246.188 148.718C246.24 148.569 246.28 148.415 246.32 148.266C246.36 148.118 246.388 148.066 246.406 147.963C246.423 147.86 246.406 147.906 246.406 147.883C246.434 147.723 246.446 147.563 246.457 147.409C246.468 147.254 246.491 147.203 246.491 147.1C246.491 146.997 246.491 147.014 246.491 146.968L246.606 130.474C246.606 130.645 246.583 130.788 246.548 130.937Z" fill="url(#paint1_linear_3430_216)"/>
<path d="M246.548 138.937C246.548 139.097 246.548 139.257 246.491 139.417C246.434 139.577 246.428 139.674 246.394 139.8C246.36 139.926 246.32 140.103 246.263 140.252C246.205 140.401 246.16 140.498 246.108 140.618C246.057 140.738 245.971 140.932 245.885 141.092C245.799 141.252 245.754 141.315 245.685 141.43C245.616 141.544 245.462 141.784 245.331 141.956C245.199 142.127 245.079 142.287 244.936 142.453L244.833 142.573C244.639 142.785 244.421 142.996 244.198 143.196C243.975 143.396 243.89 143.454 243.735 143.579C243.581 143.705 243.461 143.802 243.312 143.911C243.164 144.02 242.952 144.157 242.74 144.277C242.529 144.397 242.369 144.529 242.169 144.643L192.39 173.567C191.926 173.832 191.449 174.072 190.96 174.288L190.526 174.471C190.145 174.634 189.748 174.785 189.337 174.922L188.902 175.071C188.645 175.151 188.382 175.22 188.124 175.294L187.553 175.454C187.278 175.523 186.981 175.574 186.712 175.631L186.14 175.746C185.569 175.843 184.997 175.923 184.425 175.986L183.888 176.031C183.55 176.031 183.207 176.083 182.864 176.1H182.207H181.377H180.686L179.914 176.06L179.216 176.003L178.461 175.917L177.781 175.82L176.981 175.683L176.357 175.557C176.037 175.488 175.728 175.408 175.414 175.328L174.899 175.191C174.327 175.031 173.801 174.848 173.275 174.619C173.018 174.516 172.761 174.408 172.509 174.293L172.115 174.122C171.732 173.939 171.36 173.75 171.005 173.55L120.918 144.649C118.311 143.139 116.841 141.218 116.515 139.251C116.469 138.972 116.446 138.689 116.447 138.405L116.401 139.854C116.401 142.141 117.887 144.377 120.866 146.098L170.971 175.022C171.326 175.228 171.697 175.422 172.08 175.594L172.475 175.765C172.698 175.868 172.921 175.971 173.155 176.062H173.241C173.767 176.268 174.31 176.446 174.865 176.634L174.996 176.68L175.385 176.777C175.694 176.857 176.008 176.937 176.323 177.006L176.575 177.069L176.952 177.132L177.752 177.269L178.078 177.326L178.433 177.366L179.188 177.452L179.553 177.492H179.891L180.657 177.532H181.046H182.595H182.835C183.179 177.532 183.522 177.492 183.859 177.463H184.271H184.396C184.968 177.4 185.54 177.326 186.112 177.223H186.198L186.689 177.12C186.969 177.063 187.261 177.006 187.518 176.943L188.09 176.783C188.353 176.714 188.61 176.64 188.868 176.56L189.034 176.514L189.302 176.411C189.706 176.274 190.103 176.123 190.492 175.96L190.92 175.777C191.409 175.561 191.886 175.32 192.35 175.056L242.129 146.132L242.312 146.023C242.455 145.937 242.569 145.846 242.706 145.76C242.843 145.674 243.078 145.526 243.244 145.4C243.409 145.274 243.529 145.177 243.667 145.063C243.804 144.948 243.987 144.811 244.13 144.68L244.221 144.605C244.416 144.428 244.593 144.239 244.793 144.034L244.89 143.919C244.988 143.805 245.09 143.691 245.182 143.576C245.273 143.462 245.251 143.473 245.285 143.422C245.416 143.25 245.531 143.073 245.639 142.896C245.685 142.821 245.748 142.747 245.788 142.673C245.828 142.598 245.822 142.593 245.839 142.558C245.925 142.404 245.994 142.244 246.062 142.09C246.131 141.935 246.154 141.907 246.188 141.815C246.223 141.724 246.188 141.752 246.188 141.718C246.24 141.569 246.28 141.415 246.32 141.266C246.36 141.118 246.388 141.066 246.406 140.963C246.423 140.86 246.406 140.906 246.406 140.883C246.434 140.723 246.446 140.563 246.457 140.409C246.468 140.254 246.491 140.203 246.491 140.1C246.491 139.997 246.491 140.014 246.491 139.968L246.606 138.474C246.606 138.645 246.583 138.788 246.548 138.937Z" fill="#7DACFA"/>
<path d="M181.744 163.097C178.616 163.097 175.631 162.411 173.55 161.205L123.445 132.275C121.959 131.417 121.501 130.611 121.501 130.417C121.501 130.222 121.947 129.445 123.388 128.61L173.167 99.6855C175.225 98.4906 178.193 97.8045 181.309 97.8045C184.425 97.8045 187.427 98.4963 189.508 99.6969L239.613 128.627C241.1 129.485 241.557 130.291 241.557 130.491C241.557 130.691 241.111 131.463 239.676 132.298L189.897 161.222C187.839 162.411 184.865 163.097 181.744 163.097Z" fill="url(#paint2_linear_3430_216)"/>
<path d="M203.781 123.341C205.939 124.59 205.953 126.61 203.808 127.855L185.68 138.389C183.533 139.638 180.041 139.638 177.884 138.389L159.637 127.855C157.478 126.606 157.466 124.586 159.612 123.339L177.741 112.805C179.885 111.556 183.375 111.556 185.534 112.805L203.781 123.341Z" fill="url(#paint3_linear_3430_216)"/>
<path d="M205.388 125.775C205.388 125.833 205.388 125.892 205.367 125.95C205.346 126.008 205.344 126.044 205.331 126.089C205.319 126.135 205.304 126.2 205.284 126.254C205.263 126.308 205.246 126.343 205.227 126.387C205.209 126.431 205.177 126.502 205.146 126.56C205.115 126.618 205.098 126.641 205.073 126.683C205.048 126.724 204.992 126.812 204.944 126.874C204.896 126.937 204.853 126.995 204.801 127.056L204.763 127.099C204.692 127.176 204.613 127.253 204.532 127.326C204.451 127.399 204.419 127.42 204.363 127.466C204.307 127.512 204.263 127.547 204.209 127.586C204.155 127.626 204.078 127.676 204.001 127.72C203.924 127.763 203.866 127.811 203.793 127.853L185.665 138.387C185.496 138.483 185.322 138.57 185.144 138.649L184.986 138.715C184.847 138.775 184.702 138.83 184.553 138.88L184.394 138.934C184.301 138.963 184.205 138.988 184.111 139.015L183.903 139.074C183.803 139.099 183.695 139.117 183.597 139.138L183.389 139.18C183.18 139.215 182.972 139.244 182.764 139.267L182.568 139.284C182.445 139.284 182.32 139.303 182.195 139.309H181.956H181.654H181.402L181.121 139.294L180.867 139.274L180.592 139.242L180.344 139.207L180.053 139.157L179.826 139.111C179.709 139.086 179.597 139.057 179.482 139.028L179.295 138.978C179.087 138.92 178.895 138.853 178.703 138.77C178.61 138.732 178.516 138.693 178.424 138.651L178.281 138.588C178.141 138.522 178.006 138.453 177.877 138.38L159.636 127.855C158.687 127.305 158.152 126.606 158.033 125.89C158.016 125.788 158.008 125.685 158.008 125.581L157.991 129.878C157.991 130.711 158.533 131.525 159.617 132.152L177.864 142.685C177.993 142.76 178.129 142.831 178.268 142.894L178.412 142.956C178.493 142.994 178.574 143.031 178.66 143.064H178.691C178.883 143.139 179.08 143.204 179.282 143.273L179.33 143.289L179.472 143.325C179.584 143.354 179.699 143.383 179.813 143.408L179.905 143.431L180.042 143.454L180.334 143.504L180.453 143.525L180.582 143.539L180.857 143.57L180.99 143.585H181.113L181.392 143.599H181.533H182.098H182.185C182.31 143.599 182.435 143.585 182.558 143.575H182.708H182.753C182.962 143.552 183.17 143.525 183.378 143.487H183.409L183.588 143.45C183.691 143.429 183.797 143.408 183.89 143.385L184.099 143.327C184.194 143.302 184.288 143.275 184.382 143.246L184.442 143.229L184.54 143.191C184.687 143.141 184.832 143.087 184.973 143.027L185.129 142.96C185.307 142.882 185.481 142.794 185.65 142.698L203.778 132.164L203.845 132.125C203.897 132.094 203.938 132.06 203.988 132.029C204.038 131.998 204.124 131.944 204.184 131.898C204.245 131.852 204.288 131.817 204.338 131.775C204.388 131.733 204.455 131.683 204.507 131.636L204.54 131.608C204.611 131.544 204.676 131.475 204.748 131.4L204.784 131.359C204.819 131.317 204.857 131.275 204.89 131.234C204.923 131.192 204.915 131.196 204.928 131.177C204.975 131.115 205.017 131.05 205.057 130.986C205.073 130.959 205.096 130.932 205.111 130.905C205.125 130.878 205.123 130.876 205.13 130.863C205.161 130.807 205.186 130.749 205.211 130.692C205.236 130.636 205.244 130.626 205.257 130.592C205.269 130.559 205.257 130.569 205.257 130.557C205.275 130.503 205.29 130.447 205.304 130.392C205.319 130.338 205.329 130.32 205.336 130.282C205.342 130.245 205.336 130.261 205.336 130.253C205.346 130.195 205.35 130.136 205.354 130.08C205.359 130.024 205.367 130.005 205.367 129.968C205.367 129.93 205.367 129.937 205.367 129.92L205.409 125.606C205.409 125.669 205.4 125.721 205.388 125.775Z" fill="url(#paint4_linear_3430_216)"/>
<path d="M102.334 90.0649C107.061 92.8023 107.093 97.2278 102.394 99.9561L62.6714 123.037C57.9674 125.774 50.3158 125.774 45.5889 123.037L5.60654 99.9561C0.875085 97.2186 0.847709 92.7932 5.55179 90.0603L45.2741 66.9794C49.9736 64.2419 57.6206 64.2419 62.352 66.9794L102.334 90.0649Z" fill="url(#paint5_linear_3430_216)"/>
<path d="M105.855 95.3982C105.855 95.5259 105.855 95.6536 105.809 95.7814C105.763 95.9091 105.759 95.9867 105.732 96.0871C105.704 96.1874 105.672 96.3289 105.627 96.4475C105.581 96.5661 105.544 96.6437 105.503 96.7395C105.462 96.8353 105.394 96.9904 105.325 97.1182C105.257 97.2459 105.221 97.2961 105.166 97.3873C105.111 97.4786 104.988 97.6702 104.883 97.8071C104.778 97.944 104.682 98.0717 104.568 98.204L104.486 98.2998C104.331 98.4686 104.157 98.6374 103.979 98.7971C103.802 98.9568 103.733 99.0024 103.61 99.1028C103.487 99.2032 103.391 99.2807 103.272 99.3674C103.154 99.4541 102.985 99.5636 102.816 99.6594C102.647 99.7552 102.519 99.8601 102.36 99.9514L62.6374 123.032C62.2673 123.243 61.8865 123.435 61.4968 123.607L61.15 123.753C60.8458 123.884 60.5295 124.004 60.201 124.114L59.8542 124.232C59.6489 124.296 59.439 124.351 59.2337 124.41L58.7774 124.538C58.5584 124.593 58.3212 124.634 58.1067 124.679L57.6505 124.771C57.1942 124.848 56.7379 124.912 56.2817 124.962L55.8528 124.999C55.5836 124.999 55.3098 125.04 55.0361 125.053H54.5114H53.8498H53.2977L52.6818 125.022L52.1251 124.976L51.5229 124.907L50.9799 124.83L50.3411 124.72L49.8438 124.62C49.5883 124.565 49.3419 124.501 49.091 124.438L48.6803 124.328C48.2241 124.2 47.8043 124.054 47.3845 123.872C47.1792 123.79 46.9739 123.703 46.7732 123.612L46.4583 123.475C46.1526 123.329 45.8561 123.178 45.5732 123.019L5.60448 99.9559C3.52392 98.7515 2.35132 97.2185 2.09125 95.6491C2.05443 95.4259 2.03612 95.2001 2.0365 94.9739L2 97.4967C2 99.3217 3.18629 101.106 5.56342 102.479L45.5458 125.56C45.8287 125.724 46.1253 125.879 46.431 126.016L46.7458 126.153C46.9237 126.235 47.1017 126.317 47.2887 126.39H47.3572C47.7769 126.554 48.2104 126.696 48.653 126.846L48.7579 126.883L49.0682 126.96C49.3145 127.024 49.5655 127.088 49.8164 127.143L50.0172 127.193L50.3183 127.243L50.9571 127.353L51.2172 127.398L51.5 127.43L52.1023 127.499L52.3943 127.531H52.6635L53.2749 127.563H53.5852H54.8216H55.0133C55.287 127.563 55.5608 127.531 55.83 127.508H56.1585H56.2589C56.7151 127.458 57.1714 127.398 57.6277 127.316H57.6961L58.0885 127.234C58.3121 127.189 58.5448 127.143 58.7501 127.093L59.2063 126.965C59.4162 126.91 59.6215 126.851 59.8269 126.787L59.9592 126.751L60.1736 126.668C60.496 126.559 60.8124 126.439 61.1226 126.308L61.4648 126.162C61.8546 125.99 62.2353 125.798 62.6055 125.587L102.328 102.506L102.474 102.42C102.588 102.351 102.679 102.278 102.789 102.21C102.898 102.141 103.085 102.023 103.218 101.922C103.35 101.822 103.446 101.744 103.555 101.653C103.665 101.562 103.811 101.452 103.925 101.347L103.998 101.288C104.153 101.147 104.294 100.996 104.454 100.832L104.532 100.741C104.609 100.649 104.691 100.558 104.764 100.467C104.837 100.376 104.819 100.385 104.846 100.344C104.951 100.207 105.043 100.065 105.129 99.9239C105.166 99.8646 105.216 99.8053 105.248 99.746C105.28 99.6867 105.275 99.6821 105.289 99.6547C105.357 99.5315 105.412 99.4038 105.467 99.2806C105.522 99.1574 105.54 99.1346 105.567 99.0616C105.595 98.9886 105.567 99.0114 105.567 98.984C105.608 98.8654 105.64 98.7422 105.672 98.6236C105.704 98.505 105.727 98.4639 105.741 98.3818C105.754 98.2997 105.741 98.3362 105.741 98.3179C105.763 98.1902 105.773 98.0625 105.782 97.9393C105.791 97.8161 105.809 97.775 105.809 97.6929C105.809 97.6108 105.809 97.6245 105.809 97.588L105.9 95.0286C105.9 95.1655 105.882 95.2795 105.855 95.3982Z" fill="url(#paint6_linear_3430_216)"/>
<path d="M40.2993 94.2747V82.142L49.1757 86.2843V99.3031L40.2993 94.2747Z" fill="#DBE5FF"/>
<path d="M59.2355 82.142L49.1755 86.2843V99.3031L59.1162 93.8062L59.2355 82.142Z" fill="#AACAFF"/>
<path d="M49.1757 78L40.2993 82.1423L49.1757 86.2847L59.2357 82.1423L49.1757 78Z" fill="#BAD4FF"/>
<path d="M49.6056 60L29.2993 71.9189L49.6056 82.955L69.4705 71.9189L49.6056 60Z" fill="url(#paint7_linear_3430_216)"/>
<path d="M29.2993 71.9189V97.0811L49.6056 109V82.955L29.2993 71.9189Z" fill="url(#paint8_linear_3430_216)"/>
<path d="M69.4706 97.0811V71.9189L49.6057 82.955V109L69.4706 97.0811Z" fill="url(#paint9_linear_3430_216)"/>
<path d="M362.033 86.4495C366.76 89.1869 366.792 93.6124 362.092 96.3407L322.37 119.422C317.666 122.159 310.014 122.159 305.287 119.422L265.305 96.3407C260.573 93.6033 260.546 89.1778 265.25 86.445L304.972 63.364C309.672 60.6266 317.319 60.6266 322.05 63.364L362.033 86.4495Z" fill="url(#paint10_linear_3430_216)"/>
<path d="M365.553 91.7828C365.553 91.9106 365.553 92.0383 365.507 92.1661C365.462 92.2938 365.457 92.3714 365.43 92.4718C365.402 92.5721 365.37 92.7136 365.325 92.8322C365.279 92.9508 365.243 93.0284 365.202 93.1242C365.161 93.22 365.092 93.3751 365.024 93.5028C364.955 93.6306 364.919 93.6808 364.864 93.772C364.809 93.8633 364.686 94.0549 364.581 94.1918C364.476 94.3286 364.38 94.4564 364.266 94.5887L364.184 94.6845C364.029 94.8533 363.856 95.0221 363.678 95.1818C363.5 95.3415 363.431 95.3871 363.308 95.4875C363.185 95.5878 363.089 95.6654 362.971 95.7521C362.852 95.8388 362.683 95.9483 362.514 96.0441C362.345 96.1399 362.218 96.2448 362.058 96.3361L322.336 119.417C321.965 119.628 321.585 119.82 321.195 119.992L320.848 120.138C320.544 120.269 320.228 120.389 319.899 120.498L319.552 120.617C319.347 120.681 319.137 120.736 318.932 120.795L318.476 120.923C318.257 120.977 318.019 121.018 317.805 121.064L317.349 121.155C316.892 121.233 316.436 121.297 315.98 121.347L315.551 121.383C315.282 121.383 315.008 121.424 314.734 121.438H314.21H313.548H312.996L312.38 121.406L311.823 121.361L311.221 121.292L310.678 121.215L310.039 121.105L309.542 121.005C309.287 120.95 309.04 120.886 308.789 120.822L308.379 120.713C307.922 120.585 307.503 120.439 307.083 120.256C306.877 120.174 306.672 120.088 306.471 119.996L306.157 119.86C305.851 119.714 305.554 119.563 305.271 119.403L265.303 96.3406C263.222 95.1362 262.05 93.6032 261.789 92.0338C261.753 91.8106 261.734 91.5847 261.735 91.3585L261.698 93.8814C261.698 95.7063 262.885 97.4902 265.262 98.8635L305.244 121.944C305.527 122.109 305.823 122.264 306.129 122.401L306.444 122.538C306.622 122.62 306.8 122.702 306.987 122.775H307.055C307.475 122.939 307.909 123.08 308.351 123.231L308.456 123.268L308.766 123.345C309.013 123.409 309.264 123.473 309.515 123.528L309.715 123.578L310.017 123.628L310.655 123.737L310.915 123.783L311.198 123.815L311.801 123.883L312.093 123.915H312.362L312.973 123.947H313.283H314.52H314.712C314.985 123.947 315.259 123.915 315.528 123.893H315.857H315.957C316.413 123.842 316.87 123.783 317.326 123.701H317.394L317.787 123.619C318.01 123.573 318.243 123.528 318.448 123.477L318.905 123.35C319.114 123.295 319.32 123.236 319.525 123.172L319.657 123.135L319.872 123.053C320.194 122.944 320.511 122.823 320.821 122.693L321.163 122.547C321.553 122.375 321.934 122.183 322.304 121.972L362.026 98.8909L362.172 98.8042C362.286 98.7357 362.377 98.6628 362.487 98.5943C362.596 98.5259 362.783 98.4073 362.916 98.3069C363.048 98.2065 363.144 98.129 363.253 98.0377C363.363 97.9465 363.509 97.837 363.623 97.732L363.696 97.6727C363.851 97.5313 363.993 97.3807 364.152 97.2165L364.23 97.1252C364.307 97.034 364.39 96.9427 364.463 96.8515C364.536 96.7602 364.517 96.7694 364.545 96.7283C364.65 96.5914 364.741 96.45 364.828 96.3086C364.864 96.2493 364.914 96.19 364.946 96.1306C364.978 96.0713 364.974 96.0668 364.987 96.0394C365.056 95.9162 365.11 95.7885 365.165 95.6653C365.22 95.5421 365.238 95.5193 365.266 95.4463C365.293 95.3733 365.266 95.3961 365.266 95.3687C365.307 95.2501 365.339 95.1269 365.37 95.0083C365.402 94.8897 365.425 94.8486 365.439 94.7665C365.453 94.6844 365.439 94.7209 365.439 94.7026C365.462 94.5749 365.471 94.4471 365.48 94.324C365.489 94.2008 365.507 94.1597 365.507 94.0776C365.507 93.9955 365.507 94.0092 365.507 93.9727L365.599 91.4133C365.599 91.5502 365.58 91.6642 365.553 91.7828Z" fill="url(#paint11_linear_3430_216)"/>
<path d="M362.033 86.5936C366.76 89.331 366.792 93.7565 362.092 96.4847L322.37 119.566C317.666 122.303 310.014 122.303 305.287 119.566L265.305 96.4847C260.573 93.7473 260.546 89.3219 265.25 86.589L304.972 63.5081C309.672 60.7706 317.319 60.7706 322.05 63.5081L362.033 86.5936Z" fill="url(#paint12_linear_3430_216)"/>
<path d="M365.553 91.9269C365.553 92.0546 365.553 92.1824 365.507 92.3101C365.462 92.4379 365.457 92.5154 365.43 92.6158C365.402 92.7162 365.37 92.8576 365.325 92.9762C365.279 93.0948 365.243 93.1724 365.202 93.2682C365.161 93.364 365.092 93.5191 365.024 93.6469C364.955 93.7746 364.919 93.8248 364.864 93.9161C364.809 94.0073 364.686 94.1989 364.581 94.3358C364.476 94.4727 364.38 94.6004 364.266 94.7327L364.184 94.8285C364.029 94.9973 363.856 95.1662 363.678 95.3258C363.5 95.4855 363.431 95.5311 363.308 95.6315C363.185 95.7319 363.089 95.8094 362.971 95.8961C362.852 95.9828 362.683 96.0923 362.514 96.1881C362.345 96.2839 362.218 96.3889 362.058 96.4801L322.336 119.561C321.965 119.772 321.585 119.964 321.195 120.136L320.848 120.282C320.544 120.413 320.228 120.533 319.899 120.642L319.552 120.761C319.347 120.825 319.137 120.88 318.932 120.939L318.476 121.067C318.257 121.121 318.019 121.162 317.805 121.208L317.349 121.299C316.892 121.377 316.436 121.441 315.98 121.491L315.551 121.527C315.282 121.527 315.008 121.569 314.734 121.582H314.21H313.548H312.996L312.38 121.55L311.823 121.505L311.221 121.436L310.678 121.359L310.039 121.249L309.542 121.149C309.287 121.094 309.04 121.03 308.789 120.966L308.379 120.857C307.922 120.729 307.503 120.583 307.083 120.401C306.877 120.318 306.672 120.232 306.471 120.14L306.157 120.004C305.851 119.858 305.554 119.707 305.271 119.547L265.303 96.4847C263.222 95.2802 262.05 93.7473 261.789 92.1778C261.753 91.9546 261.734 91.7288 261.735 91.5026L261.698 94.0254C261.698 95.8504 262.885 97.6343 265.262 99.0075L305.244 122.088C305.527 122.253 305.823 122.408 306.129 122.545L306.444 122.682C306.622 122.764 306.8 122.846 306.987 122.919H307.055C307.475 123.083 307.909 123.225 308.351 123.375L308.456 123.412L308.766 123.489C309.013 123.553 309.264 123.617 309.515 123.672L309.715 123.722L310.017 123.772L310.655 123.881L310.915 123.927L311.198 123.959L311.801 124.027L312.093 124.059H312.362L312.973 124.091H313.283H314.52H314.712C314.985 124.091 315.259 124.059 315.528 124.037H315.857H315.957C316.413 123.986 316.87 123.927 317.326 123.845H317.394L317.787 123.763C318.01 123.717 318.243 123.672 318.448 123.621L318.905 123.494C319.114 123.439 319.32 123.38 319.525 123.316L319.657 123.279L319.872 123.197C320.194 123.088 320.511 122.968 320.821 122.837L321.163 122.691C321.553 122.519 321.934 122.327 322.304 122.116L362.026 99.0349L362.172 98.9482C362.286 98.8798 362.377 98.8068 362.487 98.7384C362.596 98.6699 362.783 98.5513 362.916 98.4509C363.048 98.3506 363.144 98.273 363.253 98.1818C363.363 98.0905 363.509 97.981 363.623 97.8761L363.696 97.8168C363.851 97.6753 363.993 97.5248 364.152 97.3605L364.23 97.2693C364.307 97.178 364.39 97.0868 364.463 96.9955C364.536 96.9043 364.517 96.9134 364.545 96.8724C364.65 96.7355 364.741 96.5941 364.828 96.4526C364.864 96.3933 364.914 96.334 364.946 96.2747C364.978 96.2154 364.974 96.2108 364.987 96.1834C365.056 96.0603 365.11 95.9325 365.165 95.8093C365.22 95.6861 365.238 95.6633 365.266 95.5903C365.293 95.5173 365.266 95.5401 365.266 95.5128C365.307 95.3942 365.339 95.271 365.37 95.1523C365.402 95.0337 365.425 94.9927 365.439 94.9105C365.453 94.8284 365.439 94.8649 365.439 94.8467C365.462 94.7189 365.471 94.5912 365.48 94.468C365.489 94.3448 365.507 94.3038 365.507 94.2216C365.507 94.1395 365.507 94.1532 365.507 94.1167L365.599 91.5573C365.599 91.6942 365.58 91.8083 365.553 91.9269Z" fill="url(#paint13_linear_3430_216)"/>
<path d="M107.88 162.437L80.6423 144.279C76.9722 141.832 77.1081 136.395 80.8957 134.134L138.768 99.5976" stroke="url(#paint14_linear_3430_216)"/>
<line x1="118.788" y1="169.464" x2="161.392" y2="195.026" stroke="url(#paint15_linear_3430_216)" stroke-dasharray="1 1"/>
<circle cx="110.543" cy="164.035" r="2.69524" stroke="#B6D1FD"/>
<path d="M261.252 115.574L288.49 133.733C292.16 136.179 292.025 141.617 288.237 143.877L230.365 178.414" stroke="url(#paint16_linear_3430_216)"/>
<line x1="250.344" y1="108.547" x2="207.741" y2="82.9851" stroke="url(#paint17_linear_3430_216)" stroke-dasharray="1 1"/>
<circle cx="258.589" cy="113.976" r="2.69524" transform="rotate(-180 258.589 113.976)" stroke="#B6D1FD"/>
</g>
<g clip-path="url(#clip1_3430_216)">
<path d="M179.912 51L179.912 105.5" stroke="#8AB5FA"/>
<path d="M151.622 46.6946L204.5 99.5" stroke="#8AB5FA"/>
<path d="M201.5 75L162.5 77.4999" stroke="#8AB5FA"/>
<circle cx="180.883" cy="39.7647" r="11.7647" fill="url(#paint18_linear_3430_216)"/>
<circle cx="180.883" cy="78" r="11.7647" fill="url(#paint19_linear_3430_216)"/>
<circle cx="180.883" cy="116.235" r="11.7647" fill="url(#paint20_linear_3430_216)"/>
<circle cx="151.471" cy="78" r="11.7647" fill="url(#paint21_linear_3430_216)"/>
<circle cx="151.471" cy="44.1765" r="11.7647" fill="url(#paint22_linear_3430_216)"/>
<circle cx="213.235" cy="107.412" r="11.7647" fill="url(#paint23_linear_3430_216)"/>
<circle cx="213.235" cy="73.5882" r="11.7647" fill="url(#paint24_linear_3430_216)"/>
</g>
<g clip-path="url(#clip2_3430_216)">
<path d="M233 76.8909V73.9078L234.945 74.8157V77.669L233 76.8909Z" fill="#C8DCFE"/>
<path d="M237.15 73.9078L234.946 74.8157V77.669L237.15 76.7612V73.9078Z" fill="#78ABF9"/>
<path d="M234.945 73L233 73.9079L234.945 74.8158L237.15 73.9079L234.945 73Z" fill="#91BAFB"/>
<path d="M126 44.7664V41.1121L128.383 42.2243V45.7197L126 44.7664Z" fill="#C8DCFE"/>
<path d="M131.084 41.1121L128.383 42.2243V45.7197L131.084 44.6075V41.1121Z" fill="#78ABF9"/>
<path d="M128.383 40L126 41.1122L128.383 42.2243L131.084 41.1122L128.383 40Z" fill="#91BAFB"/>
<g opacity="0.5">
<path d="M140 20.8909V17.9079L141.945 18.8158V21.6691L140 20.8909Z" fill="#C8DCFE"/>
<path d="M144.15 17.9079L141.945 18.8158V21.6692L144.15 20.7613V17.9079Z" fill="#78ABF9"/>
<path d="M141.945 17L140 17.9079L141.945 18.8158L144.15 17.9079L141.945 17Z" fill="#91BAFB"/>
</g>
<path d="M125 69.8909V66.9079L126.945 67.8158V70.6691L125 69.8909Z" fill="#C8DCFE"/>
<path d="M129.15 66.9079L126.945 67.8158V70.6691L129.15 69.7612V66.9079Z" fill="#78ABF9"/>
<path d="M126.945 66L125 66.9079L126.945 67.8158L129.15 66.9079L126.945 66Z" fill="#91BAFB"/>
<path d="M242 55.6691V52.0895L244.626 53.1789V56.603L242 55.6691Z" fill="#C8DCFE"/>
<path d="M247.603 52.0895L244.626 53.1789V56.603L247.603 55.5135V52.0895Z" fill="#78ABF9"/>
<path d="M244.626 51L242 52.0895L244.626 53.1789L247.603 52.0895L244.626 51Z" fill="#91BAFB"/>
<g opacity="0.6">
<path d="M135 59.8909V56.9078L136.945 57.8157V60.6691L135 59.8909Z" fill="#C8DCFE"/>
<path d="M139.15 56.9078L136.945 57.8157V60.6691L139.15 59.7612V56.9078Z" fill="#78ABF9"/>
<path d="M136.945 56L135 56.9079L136.945 57.8158L139.15 56.9079L136.945 56Z" fill="#91BAFB"/>
</g>
<g opacity="0.3">
<path d="M225 60.8909V57.9078L226.945 58.8157V61.6691L225 60.8909Z" fill="#C8DCFE"/>
<path d="M229.15 57.9078L226.945 58.8157V61.6691L229.15 60.7612V57.9078Z" fill="#78ABF9"/>
<path d="M226.945 57L225 57.9079L226.945 58.8158L229.15 57.9079L226.945 57Z" fill="#91BAFB"/>
</g>
<path d="M230 93.1216V90.7283L231.561 91.4567V93.7459L230 93.1216Z" fill="#79A5E5"/>
<path d="M233.33 90.7283L231.561 91.4567V93.7459L233.33 93.0176V90.7283Z" fill="#A5C5F5"/>
<path d="M231.561 90L230 90.7284L231.561 91.4568L233.33 90.7284L231.561 90Z" fill="#B4D2FA"/>
</g>
<g clip-path="url(#clip3_3430_216)">
<path d="M306.438 79.1185V98.9998L298.252 95.4913V83.7964L306.438 79.1185Z" fill="#BAD4FF"/>
<path d="M325.5 67.4235L311.466 57.4829L298.252 83.7964L306.203 79.7032L306.438 98.9998L317.548 93.7371L317.314 72.1015L325.5 67.4235Z" fill="#AACAFF"/>
<path d="M311.466 57.4829L305.034 53.3896L291 80.288L298.252 83.7964L311.466 57.4829Z" fill="#DBE5FF"/>
</g>
<g clip-path="url(#clip4_3430_216)">
<path d="M319.712 91.1864V99.8305L316.153 98.3051V93.2203L319.712 91.1864Z" fill="#BAD4FF"/>
<path d="M328 86.1017L321.898 81.7797L316.153 93.2203L319.61 91.4407L319.712 99.8305L324.543 97.5424L324.441 88.1356L328 86.1017Z" fill="#AACAFF"/>
<path d="M321.898 81.7797L319.102 80L313 91.6949L316.153 93.2203L321.898 81.7797Z" fill="#DBE5FF"/>
</g>
<defs>
<linearGradient id="paint0_linear_3430_216" x1="116.452" y1="168.149" x2="246.606" y2="168.149" gradientUnits="userSpaceOnUse">
<stop stop-color="white"/>
<stop offset="0.33" stop-color="#F9F8FE"/>
<stop offset="0.81" stop-color="#E8EBF9"/>
<stop offset="1" stop-color="#F0F1FC"/>
</linearGradient>
<linearGradient id="paint1_linear_3430_216" x1="246.606" y1="130.432" x2="116.407" y2="130.432" gradientUnits="userSpaceOnUse">
<stop offset="0.12" stop-color="#E4E9F8"/>
<stop offset="0.56" stop-color="#EAECF9"/>
<stop offset="0.71" stop-color="#F1F3FC"/>
<stop offset="0.91" stop-color="#F3F3FC"/>
<stop offset="1" stop-color="#F3F3FC"/>
</linearGradient>
<linearGradient id="paint2_linear_3430_216" x1="241.557" y1="97.8029" x2="121.496" y2="97.8029" gradientUnits="userSpaceOnUse">
<stop offset="0.12" stop-color="#E8EEFD"/>
<stop offset="1" stop-color="#E4EBFD"/>
</linearGradient>
<linearGradient id="paint3_linear_3430_216" x1="205.408" y1="111.868" x2="158.008" y2="111.868" gradientUnits="userSpaceOnUse">
<stop offset="0.12" stop-color="#CDDAFB"/>
<stop offset="1" stop-color="#E4EBFD"/>
</linearGradient>
<linearGradient id="paint4_linear_3430_216" x1="205.409" y1="125.59" x2="157.993" y2="125.59" gradientUnits="userSpaceOnUse">
<stop offset="0.12" stop-color="#ACCBFC"/>
<stop offset="0.56" stop-color="#C8DCFE"/>
<stop offset="0.71" stop-color="#C8DCFE"/>
<stop offset="0.91" stop-color="#C8DCFE"/>
<stop offset="1" stop-color="#EBF1FF"/>
</linearGradient>
<linearGradient id="paint5_linear_3430_216" x1="105.899" y1="64.9249" x2="2.03583" y2="64.9249" gradientUnits="userSpaceOnUse">
<stop offset="0.12" stop-color="#E8EEFD"/>
<stop offset="1" stop-color="#F4F7FF"/>
</linearGradient>
<linearGradient id="paint6_linear_3430_216" x1="105.9" y1="94.9935" x2="2.00456" y2="94.9935" gradientUnits="userSpaceOnUse">
<stop offset="0.12" stop-color="#ACCBFC"/>
<stop offset="0.56" stop-color="#C8DCFE"/>
<stop offset="0.71" stop-color="#C8DCFE"/>
<stop offset="0.91" stop-color="#C8DCFE"/>
<stop offset="1" stop-color="#EBF1FF"/>
</linearGradient>
<linearGradient id="paint7_linear_3430_216" x1="49.3849" y1="60" x2="49.6056" y2="85.6036" gradientUnits="userSpaceOnUse">
<stop stop-color="#DEE7FD"/>
<stop offset="1" stop-color="#DEE7FD"/>
</linearGradient>
<linearGradient id="paint8_linear_3430_216" x1="41.2182" y1="106.793" x2="42.1011" y2="79.4234" gradientUnits="userSpaceOnUse">
<stop stop-color="#ADCCFD"/>
<stop offset="1" stop-color="#ADCCFD" stop-opacity="0.15"/>
</linearGradient>
<linearGradient id="paint9_linear_3430_216" x1="58.4345" y1="106.351" x2="59.3174" y2="77.6577" gradientUnits="userSpaceOnUse">
<stop stop-color="#CFDCFC"/>
<stop offset="1" stop-color="#CFDCFC" stop-opacity="0.15"/>
</linearGradient>
<linearGradient id="paint10_linear_3430_216" x1="365.597" y1="61.3095" x2="261.734" y2="61.3095" gradientUnits="userSpaceOnUse">
<stop offset="0.12" stop-color="#E8EEFD"/>
<stop offset="1" stop-color="#F4F7FF"/>
</linearGradient>
<linearGradient id="paint11_linear_3430_216" x1="365.599" y1="91.3782" x2="261.703" y2="91.3782" gradientUnits="userSpaceOnUse">
<stop offset="0.12" stop-color="#ACCBFC"/>
<stop offset="0.56" stop-color="#C8DCFE"/>
<stop offset="0.71" stop-color="#C8DCFE"/>
<stop offset="0.91" stop-color="#C8DCFE"/>
<stop offset="1" stop-color="#EBF1FF"/>
</linearGradient>
<linearGradient id="paint12_linear_3430_216" x1="365.597" y1="61.4536" x2="261.734" y2="61.4536" gradientUnits="userSpaceOnUse">
<stop offset="0.12" stop-color="#E8EEFD"/>
<stop offset="1" stop-color="#F4F7FF"/>
</linearGradient>
<linearGradient id="paint13_linear_3430_216" x1="365.599" y1="91.5222" x2="261.703" y2="91.5222" gradientUnits="userSpaceOnUse">
<stop offset="0.12" stop-color="#ACCBFC"/>
<stop offset="0.56" stop-color="#C8DCFE"/>
<stop offset="0.71" stop-color="#C8DCFE"/>
<stop offset="0.91" stop-color="#C8DCFE"/>
<stop offset="1" stop-color="#EBF1FF"/>
</linearGradient>
<linearGradient id="paint14_linear_3430_216" x1="76.993" y1="134.745" x2="135.572" y2="99.0651" gradientUnits="userSpaceOnUse">
<stop stop-color="#B6D1FD"/>
<stop offset="1" stop-color="#B6D1FD" stop-opacity="0"/>
</linearGradient>
<linearGradient id="paint15_linear_3430_216" x1="139.79" y1="181.148" x2="159.399" y2="195.633" gradientUnits="userSpaceOnUse">
<stop stop-color="#B6D1FD"/>
<stop offset="1" stop-color="#B6D1FD" stop-opacity="0"/>
</linearGradient>
<linearGradient id="paint16_linear_3430_216" x1="292.14" y1="143.266" x2="233.56" y2="178.946" gradientUnits="userSpaceOnUse">
<stop stop-color="#B6D1FD"/>
<stop offset="1" stop-color="#B6D1FD" stop-opacity="0"/>
</linearGradient>
<linearGradient id="paint17_linear_3430_216" x1="229.343" y1="96.8631" x2="209.733" y2="82.3779" gradientUnits="userSpaceOnUse">
<stop stop-color="#B6D1FD"/>
<stop offset="1" stop-color="#B6D1FD" stop-opacity="0"/>
</linearGradient>
<linearGradient id="paint18_linear_3430_216" x1="169.412" y1="27.7648" x2="185.412" y2="46.7648" gradientUnits="userSpaceOnUse">
<stop stop-color="#E4EEFF" stop-opacity="0"/>
<stop offset="1" stop-color="#B1CFFF"/>
</linearGradient>
<linearGradient id="paint19_linear_3430_216" x1="180.883" y1="66.2353" x2="180.883" y2="89.7647" gradientUnits="userSpaceOnUse">
<stop stop-color="#E4EEFF"/>
<stop offset="1" stop-color="#B1CFFF"/>
</linearGradient>
<linearGradient id="paint20_linear_3430_216" x1="172.912" y1="106.559" x2="189.912" y2="128.059" gradientUnits="userSpaceOnUse">
<stop stop-color="#EBF0FE"/>
<stop offset="1" stop-color="#4088F5"/>
</linearGradient>
<linearGradient id="paint21_linear_3430_216" x1="140" y1="66" x2="156" y2="85" gradientUnits="userSpaceOnUse">
<stop stop-color="#E4EEFF" stop-opacity="0"/>
<stop offset="1" stop-color="#B1CFFF"/>
</linearGradient>
<linearGradient id="paint22_linear_3430_216" x1="143.5" y1="34.5001" x2="160.5" y2="56.0001" gradientUnits="userSpaceOnUse">
<stop stop-color="#EBF0FE"/>
<stop offset="1" stop-color="#4088F5"/>
</linearGradient>
<linearGradient id="paint23_linear_3430_216" x1="201.765" y1="95.4119" x2="217.765" y2="114.412" gradientUnits="userSpaceOnUse">
<stop stop-color="#E4EEFF" stop-opacity="0"/>
<stop offset="1" stop-color="#B1CFFF"/>
</linearGradient>
<linearGradient id="paint24_linear_3430_216" x1="201.765" y1="61.5882" x2="217.765" y2="80.5882" gradientUnits="userSpaceOnUse">
<stop stop-color="#E4EEFF" stop-opacity="0"/>
<stop offset="1" stop-color="#B1CFFF"/>
</linearGradient>
<clipPath id="clip0_3430_216">
<rect width="363.599" height="135.455" fill="white" transform="translate(2 60)"/>
</clipPath>
<clipPath id="clip1_3430_216">
<rect width="85.2941" height="100" fill="white" transform="translate(139.706 28)"/>
</clipPath>
<clipPath id="clip2_3430_216">
<rect width="122.603" height="76.7459" fill="white" transform="translate(125 17)"/>
</clipPath>
<clipPath id="clip3_3430_216">
<rect width="34.5" height="45.6102" fill="white" transform="translate(291 53.3896)"/>
</clipPath>
<clipPath id="clip4_3430_216">
<rect width="15" height="19.8305" fill="white" transform="translate(313 80)"/>
</clipPath>
</defs>
</svg>
