<svg width="56" height="56" viewBox="0 0 56 56" fill="none" xmlns="http://www.w3.org/2000/svg">
<path opacity="0.3" d="M27.6703 27L12 36.3462L27.6703 45L43 36.3462L27.6703 27Z" fill="url(#paint0_linear_3430_1960)"/>
<path opacity="0.5" d="M27.6703 22L12 31.3462L27.6703 40L43 31.3462L27.6703 22Z" fill="url(#paint1_linear_3430_1960)"/>
<path opacity="0.5" d="M27.6703 17L12 26.3462L27.6703 35L43 26.3462L27.6703 17Z" fill="url(#paint2_linear_3430_1960)"/>
<path d="M5 13.5V42L28 55.5V26L5 13.5Z" fill="url(#paint3_linear_3430_1960)"/>
<path d="M50.5 42V13.5L28 26V55.5L50.5 42Z" fill="url(#paint4_linear_3430_1960)"/>
<path d="M28 0L5 13.5L28 26L50.5 13.5L28 0Z" fill="url(#paint5_linear_3430_1960)"/>
<defs>
<linearGradient id="paint0_linear_3430_1960" x1="27.5" y1="27" x2="27.5" y2="45" gradientUnits="userSpaceOnUse">
<stop stop-color="#C1D7FC"/>
<stop offset="1" stop-color="#4388F6"/>
</linearGradient>
<linearGradient id="paint1_linear_3430_1960" x1="27.5" y1="22" x2="27.5" y2="40" gradientUnits="userSpaceOnUse">
<stop stop-color="#C1D7FC"/>
<stop offset="1" stop-color="#4388F6"/>
</linearGradient>
<linearGradient id="paint2_linear_3430_1960" x1="27.5" y1="17" x2="27.5" y2="35" gradientUnits="userSpaceOnUse">
<stop stop-color="#C1D7FC"/>
<stop offset="1" stop-color="#4388F6"/>
</linearGradient>
<linearGradient id="paint3_linear_3430_1960" x1="27" y1="45" x2="7" y2="28.5" gradientUnits="userSpaceOnUse">
<stop stop-color="#D2E4FF"/>
<stop offset="1" stop-color="#D2E4FF" stop-opacity="0.15"/>
</linearGradient>
<linearGradient id="paint4_linear_3430_1960" x1="49.5217" y1="45" x2="29.6097" y2="28.9297" gradientUnits="userSpaceOnUse">
<stop stop-color="#CADEFF"/>
<stop offset="1" stop-color="#ADCCFD" stop-opacity="0.15"/>
</linearGradient>
<linearGradient id="paint5_linear_3430_1960" x1="27.75" y1="0" x2="27.75" y2="32.386" gradientUnits="userSpaceOnUse">
<stop stop-color="#F3F8FF"/>
<stop offset="1" stop-color="#C7DCFF" stop-opacity="0.69"/>
</linearGradient>
</defs>
</svg>
