<svg width="28" height="28" viewBox="0 0 28 28" fill="none" xmlns="http://www.w3.org/2000/svg">
<circle cx="14" cy="14" r="14" fill="#B9BECF"/>
<mask id="mask0_5160_639" style="mask-type:alpha" maskUnits="userSpaceOnUse" x="0" y="0" width="28" height="28">
<circle cx="14" cy="14" r="14" fill="#7DB4FF"/>
</mask>
<g mask="url(#mask0_5160_639)">
<path opacity="0.92" d="M12.5263 17.1294L6.29799 13.2738C5.41385 12.7265 5.41385 11.4404 6.29799 10.893L12.5263 7.03742C13.4293 6.47841 14.5709 6.47841 15.4739 7.03742L21.7022 10.893C22.5863 11.4404 22.5863 12.7265 21.7022 13.2738L15.4739 17.1294C14.5709 17.6884 13.4293 17.6884 12.5263 17.1294Z" fill="white"/>
<path opacity="0.4" fill-rule="evenodd" clip-rule="evenodd" d="M7.98438 14.3177L12.5263 17.1294C13.4293 17.6884 14.5709 17.6884 15.4739 17.1294L20.0158 14.3177L21.7022 15.3617C22.5863 15.909 22.5863 17.1951 21.7022 17.7424L15.4739 21.5981C14.5709 22.1571 13.4293 22.1571 12.5263 21.5981L6.29799 17.7424C5.41385 17.1951 5.41385 15.909 6.29799 15.3617L7.98438 14.3177Z" fill="white"/>
</g>
</svg>
