<svg width="24" height="24" viewBox="0 0 24 24" fill="none" xmlns="http://www.w3.org/2000/svg">
<path d="M19.376 11.9817L8.777 19.0477C8.70171 19.0979 8.61423 19.1266 8.52389 19.1309C8.43355 19.1352 8.34373 19.115 8.264 19.0723C8.18427 19.0296 8.1176 18.9661 8.07111 18.8885C8.02462 18.8109 8.00005 18.7222 8 18.6317V4.49974C8.00005 4.4093 8.02462 4.32056 8.07111 4.24299C8.1176 4.16541 8.18427 4.10189 8.264 4.0592C8.34373 4.01651 8.43355 3.99625 8.52389 4.00057C8.61423 4.00489 8.70171 4.03364 8.777 4.08374L19.376 11.1497C19.4445 11.1954 19.5006 11.2573 19.5395 11.3298C19.5783 11.4024 19.5986 11.4834 19.5986 11.5657C19.5986 11.6481 19.5783 11.7291 19.5395 11.8017C19.5006 11.8742 19.4445 11.9361 19.376 11.9817Z" fill="#747C94"/>
</svg>
