<svg width="24" height="24" viewBox="0 0 24 24" fill="none" xmlns="http://www.w3.org/2000/svg">
<path fill-rule="evenodd" clip-rule="evenodd" d="M12.6633 19.8486C10.7648 20.0327 8.8631 19.5816 7.29075 18.5825C6.12161 17.8396 5.19311 16.8315 4.57969 15.6686L8.66215 16.9714C9.24676 17.1579 9.87191 16.8353 10.0585 16.2507C10.245 15.6661 9.92235 15.0409 9.33775 14.8543L3.33775 12.9396C2.9981 12.8312 2.62706 12.8924 2.34019 13.1041C2.05332 13.3158 1.88546 13.6523 1.88889 14.0088L1.89486 14.6281C1.88584 14.7122 1.8864 14.7982 1.89733 14.8845L1.94669 20.0107C1.9526 20.6243 2.45483 21.1169 3.06845 21.111C3.68207 21.1051 4.17472 20.6029 4.16881 19.9893L4.15792 18.8586C4.72916 19.4634 5.38042 20.0015 6.09896 20.4581C8.09704 21.7277 10.4952 22.2915 12.8779 22.0604C15.2608 21.8293 17.4931 20.8159 19.1828 19.1827C20.6146 17.7987 21.5804 16.0426 21.9598 14.1381C22.0797 13.5363 21.689 12.9512 21.0871 12.8313C20.4853 12.7115 19.9003 13.1021 19.7804 13.704C19.4915 15.1541 18.7531 16.5074 17.6383 17.5849C16.3208 18.8584 14.5616 19.6644 12.6633 19.8486ZM22.0532 3.98928C22.0473 3.37566 21.5451 2.88301 20.9315 2.88892C20.3178 2.89483 19.8252 3.39706 19.8311 4.01068L19.842 5.14132C19.2707 4.53655 18.6195 3.99845 17.9009 3.54187C15.9028 2.27226 13.5047 1.70842 11.122 1.93955C8.73912 2.17071 6.5068 3.18403 4.81714 4.81726C3.40784 6.17949 2.44997 7.90226 2.05842 9.77227C1.93266 10.3729 2.31762 10.9617 2.91824 11.0875C3.51887 11.2133 4.10772 10.8283 4.23348 10.2277C4.53169 8.80344 5.26431 7.47569 6.36158 6.41506C7.67912 5.14153 9.43825 4.33554 11.3366 4.15139C13.2351 3.96723 15.1368 4.41839 16.7091 5.41748C17.8783 6.16037 18.8068 7.16845 19.4202 8.3314L15.3378 7.02859C14.7531 6.84202 14.128 7.1647 13.9414 7.7493C13.7549 8.33391 14.0775 8.95906 14.6622 9.14562L20.6622 11.0604C21.0018 11.1688 21.3728 11.1076 21.6597 10.8959C21.9466 10.6842 22.1144 10.3477 22.111 9.99116L22.105 9.37176C22.1141 9.2877 22.1135 9.20181 22.1026 9.11559L22.0532 3.98928Z" fill="#747C94"/>
</svg>
