<svg width="24" height="24" viewBox="0 0 24 24" fill="none" xmlns="http://www.w3.org/2000/svg">
<path d="M6.99995 13H8.99995V17H6.99995V13Z" fill="#747C94"/>
<path d="M2.80752 2.80764L1.39331 4.22186L2.99995 5.82849V21.008C3.00204 21.2706 3.10736 21.5219 3.29316 21.7075C3.47896 21.8931 3.73032 21.9982 3.99295 22H19.1715L19.7781 22.6066L20.5487 21.836C20.6076 21.7974 20.6623 21.7525 20.712 21.7022C20.7584 21.6551 20.7999 21.6037 20.836 21.5487L21.1923 21.1924L2.80752 2.80764ZM10.9999 17H12.9999V15.8285L17.1715 20H4.99995V7.82849L10.9999 13.8285V17Z" fill="#747C94"/>
<path d="M4.82827 2L6.82827 4H14.9999V8H18.9999V16.1717L20.9999 18.1717V7L15.9999 2H4.82827Z" fill="#747C94"/>
<path d="M16.9999 14.1717V11H14.9999V12.1717L16.9999 14.1717Z" fill="#747C94"/>
<path d="M12.9999 10.1717V7H10.9999V8.17167L12.9999 10.1717Z" fill="#747C94"/>
</svg>
