<svg width="24" height="24" viewBox="0 0 24 24" fill="none" xmlns="http://www.w3.org/2000/svg">
<path d="M1 3C1 2.44772 1.44772 2 2 2H22C22.5523 2 23 2.44772 23 3V5.66667H1V3Z" fill="#1673F6"/>
<path opacity="0.2" d="M1 5.6665H23V20.1665C23 21.2711 22.1046 22.1665 21 22.1665H3C1.89543 22.1665 1 21.2711 1 20.1665V5.6665Z" fill="#1673F6"/>
<path fill-rule="evenodd" clip-rule="evenodd" d="M17.5007 13.4941H12.4243V8.41724C15.228 8.41753 17.5007 10.6904 17.5007 13.4941Z" fill="#1673F6"/>
<path fill-rule="evenodd" clip-rule="evenodd" d="M11.5775 9.2627C11.5773 9.2627 11.5771 9.2627 11.5769 9.2627C8.77302 9.2627 6.5 11.5357 6.5 14.3396C6.5 17.1435 8.77302 19.4165 11.5769 19.4165C14.3808 19.4165 16.6538 17.1435 16.6538 14.3396C16.6538 14.3395 16.6538 14.3394 16.6538 14.3394H11.5775V9.2627Z" fill="#1673F6"/>
</svg>
