<svg width="24" height="24" viewBox="0 0 24 24" fill="none" xmlns="http://www.w3.org/2000/svg">
<path d="M9 3V5H4V19H20V10H22V20C22 20.2652 21.8946 20.5196 21.7071 20.7071C21.5196 20.8946 21.2652 21 21 21H3C2.73478 21 2.48043 20.8946 2.29289 20.7071C2.10536 20.5196 2 20.2652 2 20V4C2 3.73478 2.10536 3.48043 2.29289 3.29289C2.48043 3.10536 2.73478 3 3 3H9ZM16 5V1L23 7H14C13.4696 7 12.9609 7.21071 12.5858 7.58579C12.2107 7.96086 12 8.46957 12 9V15H10V9C10 7.93913 10.4214 6.92172 11.1716 6.17157C11.9217 5.42143 12.9391 5 14 5H16Z" fill="#747C94"/>
</svg>
