<svg width="24" height="24" viewBox="0 0 24 24" fill="none" xmlns="http://www.w3.org/2000/svg">
<path d="M12 1L20.217 2.826C20.4391 2.87536 20.6377 2.99897 20.78 3.17641C20.9224 3.35385 21 3.57452 21 3.802V13.789C20.9999 14.7767 20.756 15.7492 20.2899 16.62C19.8238 17.4908 19.1499 18.2331 18.328 18.781L12 23L5.672 18.781C4.85015 18.2334 4.17624 17.4913 3.71011 16.6206C3.24398 15.7499 3.00006 14.7776 3 13.79V3.802C3.00004 3.57452 3.07764 3.35385 3.21999 3.17641C3.36234 2.99897 3.56094 2.87536 3.783 2.826L12 1ZM12 3.049L5 4.604V13.789C5.00001 14.4475 5.16257 15.0957 5.47326 15.6763C5.78395 16.2568 6.23315 16.7517 6.781 17.117L12 20.597L17.219 17.117C17.7668 16.7519 18.216 16.2573 18.5267 15.6769C18.8374 15.0965 19 14.4483 19 13.79V4.604L12 3.05V3.049ZM16.452 8.222L17.867 9.636L11.503 16L7.26 11.757L8.674 10.343L11.502 13.171L16.452 8.221V8.222Z" fill="#747C94"/>
</svg>
