<svg width="24" height="24" viewBox="0 0 24 24" fill="none" xmlns="http://www.w3.org/2000/svg">
<path d="M18 2C18.5523 2 19 2.44772 19 3V18.1716L20.8787 16.2929C21.2692 15.9024 21.9024 15.9024 22.2929 16.2929C22.6834 16.6834 22.6834 17.3166 22.2929 17.7071L18.7071 21.2929C18.3166 21.6834 17.6834 21.6834 17.2929 21.2929L13.7071 17.7071C13.3166 17.3166 13.3166 16.6834 13.7071 16.2929C14.0976 15.9024 14.7308 15.9024 15.1213 16.2929L17 18.1716L17 3C17 2.44772 17.4477 2 18 2Z" fill="#747C94"/>
<path d="M2 4C2 3.44772 2.44772 3 3 3H14C14.5523 3 15 3.44772 15 4C15 4.55228 14.5523 5 14 5H3C2.44772 5 2 4.55228 2 4Z" fill="#747C94"/>
<path d="M3 8C2.44772 8 2 8.44772 2 9C2 9.55228 2.44772 10 3 10H12C12.5523 10 13 9.55228 13 9C13 8.44772 12.5523 8 12 8H3Z" fill="#747C94"/>
<path d="M2 14C2 13.4477 2.44772 13 3 13H10C10.5523 13 11 13.4477 11 14C11 14.5523 10.5523 15 10 15H3C2.44772 15 2 14.5523 2 14Z" fill="#747C94"/>
<path d="M3 18C2.44772 18 2 18.4477 2 19C2 19.5523 2.44772 20 3 20H8C8.55228 20 9 19.5523 9 19C9 18.4477 8.55228 18 8 18H3Z" fill="#747C94"/>
</svg>
