<svg width="24" height="24" viewBox="0 0 24 24" fill="none" xmlns="http://www.w3.org/2000/svg">
<path d="M17 21C17 21.5523 17.4477 22 18 22C18.5523 22 19 21.5523 19 21L19 5.82849L20.8786 7.70708C21.2691 8.0976 21.9023 8.0976 22.2928 7.70708C22.6833 7.31655 22.6833 6.68339 22.2928 6.29286L18.7187 2.71876C18.7149 2.71484 18.7111 2.71095 18.7072 2.70708C18.5119 2.51179 18.256 2.41416 18 2.41418C17.744 2.41416 17.4881 2.51179 17.2928 2.70708C17.2889 2.71095 17.2851 2.71484 17.2813 2.71875L13.7072 6.29286C13.3167 6.68339 13.3167 7.31655 13.7072 7.70708C14.0977 8.0976 14.7309 8.0976 15.1214 7.70708L17 5.82849L17 21Z" fill="#747C94"/>
<path d="M15 20C15 20.5523 14.5523 21 14 21H3C2.44772 21 2 20.5523 2 20C2 19.4477 2.44772 19 3 19H14C14.5523 19 15 19.4477 15 20Z" fill="#747C94"/>
<path d="M9 5C9 5.55228 8.55228 6 8 6L3 6C2.44772 6 2 5.55228 2 5C2 4.44772 2.44772 4 3 4L8 4C8.55228 4 9 4.44771 9 5Z" fill="#747C94"/>
<path d="M12 16C12.5523 16 13 15.5523 13 15C13 14.4477 12.5523 14 12 14H3C2.44772 14 2 14.4477 2 15C2 15.5523 2.44772 16 3 16H12Z" fill="#747C94"/>
<path d="M11 10C11 10.5523 10.5523 11 10 11H3C2.44772 11 2 10.5523 2 10C2 9.44772 2.44772 9 3 9L10 9C10.5523 9 11 9.44771 11 10Z" fill="#747C94"/>
</svg>
