<svg width="24" height="24" viewBox="0 0 24 24" fill="none" xmlns="http://www.w3.org/2000/svg">
<path fill-rule="evenodd" clip-rule="evenodd" d="M6.7359 2L10 10H8.61128L7.81602 7.93838H4.17211L3.37685 10H2L5.26409 2H6.7359ZM7.42433 6.92997L6.02374 3.31092H5.97626L4.5638 6.92997H7.42433Z" fill="#747C94"/>
<path d="M18 2C18.5523 2 19 2.44772 19 3V18.1715L20.8786 16.2929C21.2691 15.9024 21.9023 15.9024 22.2928 16.2929C22.6833 16.6834 22.6833 17.3166 22.2928 17.7071L18.7187 21.2813L18.7072 21.2929C18.5119 21.4882 18.256 21.5858 18 21.5858C17.744 21.5858 17.4881 21.4882 17.2928 21.2929L17.2813 21.2812L13.7072 17.7071C13.3167 17.3166 13.3167 16.6834 13.7072 16.2929C14.0977 15.9024 14.7309 15.9024 15.1214 16.2929L17 18.1715L17 3C17 2.44772 17.4477 2 18 2Z" fill="#747C94"/>
<path d="M9.21282 13H2.85897V14.1723H7.52564L2.5 20.916V22H9.5V20.8277H4.19915L9.21282 14.0966V13Z" fill="#747C94"/>
</svg>
