<svg width="24" height="24" viewBox="0 0 24 24" fill="none" xmlns="http://www.w3.org/2000/svg">
<path fill-rule="evenodd" clip-rule="evenodd" d="M6.7359 2L10 10H8.61128L7.81602 7.93838H4.17211L3.37685 10H2L5.26409 2H6.7359ZM7.42433 6.92997L6.02374 3.31092H5.97626L4.5638 6.92997H7.42433ZM15.1214 7.70708C14.7309 8.0976 14.0977 8.0976 13.7072 7.70708C13.3167 7.31655 13.3167 6.68339 13.7072 6.29286L17.2813 2.71874L17.2928 2.70708C17.4873 2.51256 17.742 2.41493 17.997 2.41419C18.254 2.4134 18.5112 2.51103 18.7072 2.70708L18.7187 2.71875L22.2928 6.29286C22.6833 6.68339 22.6833 7.31655 22.2928 7.70708C21.9023 8.0976 21.2691 8.0976 20.8786 7.70708L19 5.82849L19 21C19 21.5523 18.5523 22 18 22C17.4477 22 17 21.5523 17 21L17 5.82849L15.1214 7.70708ZM9.21282 13H2.85897V14.1723H7.52564L2.5 20.916V22H9.5V20.8277H4.19915L9.21282 14.0966V13Z" fill="#747C94"/>
</svg>
