<svg width="24" height="24" viewBox="0 0 24 24" fill="none" xmlns="http://www.w3.org/2000/svg">
<path d="M11.4999 1.2887C11.8093 1.11007 12.1905 1.11007 12.4999 1.2887L21.0262 6.21135C21.3356 6.38998 21.5262 6.72011 21.5262 7.07737V16.9227C21.5262 17.2799 21.3356 17.6101 21.0262 17.7887L12.4999 22.7113C12.1905 22.89 11.8093 22.89 11.4999 22.7113L2.97363 17.7887C2.66423 17.6101 2.47363 17.2799 2.47363 16.9227V7.07737C2.47363 6.72011 2.66423 6.38998 2.97363 6.21135L11.4999 1.2887ZM5.53929 7.03947L11.9999 10.8398L18.4605 7.03947L11.9999 3.30942L5.53929 7.03947ZM4.47363 8.73298V16.3453L11.9999 20.6906L19.5262 16.3453V8.73298L11.9999 13.1602L4.47363 8.73298Z" fill="#747C94"/>
</svg>
