<svg width="24" height="24" viewBox="0 0 24 24" fill="none" xmlns="http://www.w3.org/2000/svg">
<path d="M17 11H7V13H17V11Z" fill="#747C94"/>
<path fill-rule="evenodd" clip-rule="evenodd" d="M20 3H4C3.73478 3 3.48043 3.10536 3.29289 3.29289C3.10536 3.48043 3 3.73478 3 4V20C3 20.2652 3.10536 20.5196 3.29289 20.7071C3.48043 20.8946 3.73478 21 4 21H20C20.2652 21 20.5196 20.8946 20.7071 20.7071C20.8946 20.5196 21 20.2652 21 20V4C21 3.73478 20.8946 3.48043 20.7071 3.29289C20.5196 3.10536 20.2652 3 20 3ZM5 19V5H19V19H5Z" fill="#747C94"/>
</svg>
