<svg width="24" height="24" viewBox="0 0 24 24" fill="none" xmlns="http://www.w3.org/2000/svg">
<path d="M5 5H8V7H5V5Z" fill="#747C94"/>
<path d="M17.16 9.634L16.004 10.025V10.026C15.594 9.656 15.106 9.37 14.57 9.196L14.33 8H12.33L12.091 9.195C11.554 9.37 11.066 9.655 10.656 10.025L9.5 9.634L8.5 11.366L9.416 12.171C9.3007 12.7177 9.3007 13.2823 9.416 13.829L8.5 14.634L9.5 16.366L10.656 15.974C11.0708 16.3478 11.5593 16.6306 12.09 16.804L12.33 18H14.33L14.569 16.805C15.106 16.63 15.594 16.345 16.004 15.975L17.16 16.366L18.16 14.634L17.244 13.829C17.3593 13.2823 17.3593 12.7177 17.244 12.171L18.16 11.366L17.16 9.634ZM15.33 13C15.33 14.1046 14.4345 15 13.33 15C12.2254 15 11.33 14.1046 11.33 13C11.33 11.8954 12.2254 11 13.33 11C14.4345 11 15.33 11.8954 15.33 13Z" fill="#747C94"/>
<path d="M3 2H21C21.5523 2 22 2.44772 22 3V21C22 21.5523 21.5523 22 21 22H3C2.44772 22 2 21.5523 2 21V3C2 2.44772 2.44772 2 3 2ZM4 4V20H20V4H4Z" fill="#747C94"/>
</svg>
