<svg width="24" height="24" viewBox="0 0 24 24" fill="none" xmlns="http://www.w3.org/2000/svg">
<path d="M22 3H2V6H22V3Z" fill="#747C94"/>
<path d="M8 8H2V11H8V8Z" fill="#747C94"/>
<path d="M2 13H8V16H2V13Z" fill="#747C94"/>
<path d="M8 18H2V21H8V18Z" fill="#747C94"/>
<path d="M10 8H15V11H10V8Z" fill="#747C94"/>
<path d="M15 13H10V16H15V13Z" fill="#747C94"/>
<path d="M10 18H15V21H10V18Z" fill="#747C94"/>
<path d="M22 8H17V11H22V8Z" fill="#747C94"/>
<path d="M17 13H22V16H17V13Z" fill="#747C94"/>
<path d="M22 18H17V21H22V18Z" fill="#747C94"/>
</svg>
