<svg width="24" height="24" viewBox="0 0 24 24" fill="none" xmlns="http://www.w3.org/2000/svg">
<path d="M5.70994 1.5H7.09328V2.92334H5.70994V1.5Z" fill="#747C94"/>
<path fill-rule="evenodd" clip-rule="evenodd" d="M7.83671 3.24543H9.99168V5.0912C10.5894 4.91206 14.3652 3.90948 16.83 6.34297C16.83 6.34297 18.501 7.81483 18.2894 10.0962C18.2894 10.0962 18.2894 10.2552 18.3715 10.3531C18.4535 10.4511 20.0309 12.4136 20.0309 12.4136C20.0309 12.4136 20.3487 12.684 20.2188 12.8683C20.0898 13.0515 19.16 13.3948 19.16 13.3948C19.16 13.3948 18.7678 13.6362 19.1209 14.0529C19.44 14.4305 19.381 14.4868 19.2218 14.6388C19.2048 14.6549 19.1867 14.6722 19.1678 14.6911C18.9716 14.8877 18.9797 14.9856 19.1209 15.1167C19.1431 15.1373 19.1655 15.1566 19.187 15.1751C19.3018 15.2736 19.3906 15.3499 19.2868 15.4895C19.2581 15.5279 19.2238 15.5612 19.1895 15.5945C19.0757 15.705 18.961 15.8164 19.0423 16.1182C19.0774 16.2477 19.138 16.3827 19.1996 16.5196C19.3242 16.7969 19.4523 17.0819 19.3777 17.3447C19.2656 17.7367 18.7362 18.1415 17.9676 18.264C17.1987 18.3872 15.8411 18.6565 16.0768 20.0549C16.0768 20.0549 16.2536 20.8644 16.9474 21.0729C16.9474 21.0729 12.8606 23.4482 8.21644 20.5374C8.21644 20.5374 9.39296 19.7356 9.20479 18.1415C9.01637 16.547 7.60469 15.4927 7.60469 15.4927C7.60469 15.4927 5.58051 14.6173 5.95711 10.0059L5.95752 10.0041H4.63831V8.26595H6.32626V9.46596H7.86333V7.82466H6.26805V5.60418H8.42302V7.32412H10.1305V5.36181H9.99168V5.46591H7.83671V3.24543ZM12.4839 8.92683H10.6328V6.96453H12.4839V8.92683ZM9.81301 12.0299H7.96134V10.0676H9.81301V12.0299Z" fill="#747C94"/>
<path d="M4.30313 4.42348H5.99108V6.16088H4.30313V4.42348Z" fill="#747C94"/>
<path d="M3.302 8.97524H2.25V7.88773H3.302V8.97524Z" fill="#747C94"/>
</svg>
