<svg width="24" height="24" viewBox="0 0 24 24" fill="none" xmlns="http://www.w3.org/2000/svg">
<path fill-rule="evenodd" clip-rule="evenodd" d="M17 16.245V18C17 18.2652 16.8946 18.5196 16.7071 18.7071C16.5196 18.8946 16.2652 19 16 19H8C7.73478 19 7.48043 18.8946 7.29289 18.7071C7.10536 18.5196 7 18.2652 7 18V16.245C5.70615 15.2091 4.76599 13.7969 4.30946 12.2035C3.85293 10.6102 3.90256 8.91438 4.45149 7.35047C5.00043 5.78655 6.02156 4.43175 7.37378 3.47328C8.726 2.51481 10.3425 2 12 2C13.6575 2 15.274 2.51481 16.6262 3.47328C17.9784 4.43175 18.9996 5.78655 19.5485 7.35047C20.0974 8.91438 20.1471 10.6102 19.6905 12.2035C19.234 13.7969 18.2939 15.2091 17 16.245ZM15 15.285L15.75 14.685C16.7206 13.9082 17.426 12.8491 17.7686 11.654C18.1113 10.459 18.0742 9.18699 17.6626 8.0139C17.251 6.84082 16.4851 5.82456 15.4709 5.10559C14.4567 4.38662 13.2442 4.00045 12.001 4.00045C10.7578 4.00045 9.54529 4.38662 8.53108 5.10559C7.51686 5.82456 6.75102 6.84082 6.33941 8.0139C5.92779 9.18699 5.89074 10.459 6.23336 11.654C6.57598 12.8491 7.28136 13.9082 8.252 14.685L9 15.285V17H15V15.285ZM9 10C9 9.20435 9.31607 8.44129 9.87868 7.87868C10.4413 7.31607 11.2044 7 12 7V5C11.3434 5 10.6932 5.12933 10.0866 5.3806C9.47996 5.63188 8.92876 6.00017 8.46447 6.46447C8.00017 6.92876 7.63188 7.47995 7.3806 8.08658C7.12933 8.69321 7 9.34339 7 10H9ZM16 22V20H8V22H16Z" fill="#747C94"/>
</svg>
