<svg width="24" height="24" viewBox="0 0 24 24" fill="none" xmlns="http://www.w3.org/2000/svg">
<path d="M13 1H11V17H13V1Z" fill="#747C94"/>
<path d="M4 6C4 4.89543 4.89543 4 6 4C7.10457 4 8 4.89543 8 6C8 7.10457 7.10457 8 6 8C4.89543 8 4 7.10457 4 6Z" fill="#747C94"/>
<path d="M18 9C16.8954 9 16 9.89543 16 11C16 12.1046 16.8954 13 18 13C19.1046 13 20 12.1046 20 11C20 9.89543 19.1046 9 18 9Z" fill="#747C94"/>
<path d="M7 13V9H5V13H7Z" fill="#747C94"/>
<path d="M19 4H17V8H19V4Z" fill="#747C94"/>
<path d="M0.741699 13.5V16.9226C0.741699 17.2799 0.932299 17.61 1.2417 17.7887L11.5 23.7113C11.8094 23.89 12.1906 23.89 12.5 23.7113L22.7584 17.7887C23.0678 17.61 23.2584 17.2799 23.2584 16.9226V13.5L12 20L0.741699 13.5Z" fill="#747C94"/>
</svg>
