<svg width="16" height="16" viewBox="0 0 16 16" fill="none" xmlns="http://www.w3.org/2000/svg">
<path d="M8.27174 5.25C8.27174 6.76878 7.04511 8 5.53199 8C4.01886 8 2.79223 6.76878 2.79223 5.25C2.79223 3.73122 4.01886 2.5 5.53199 2.5C7.04511 2.5 8.27174 3.73122 8.27174 5.25ZM7.24869 5.25C7.24869 4.29834 6.4801 3.52688 5.53199 3.52688C4.58388 3.52688 3.81528 4.29834 3.81528 5.25C3.81528 6.20166 4.58388 6.97312 5.53199 6.97312C6.4801 6.97312 7.24869 6.20166 7.24869 5.25Z" fill="#747C94"/>
<path d="M1.39148 11.3703C1.39148 10.2324 2.31047 9.31 3.44411 9.31H7.45054C8.58418 9.31 9.50318 10.2324 9.50318 11.3703V13.5H1.39148V11.3703ZM3.44411 10.3402C2.87729 10.3402 2.41779 10.8014 2.41779 11.3703V12.4698H8.47686V11.3703C8.47686 10.8014 8.01736 10.3402 7.45054 10.3402H3.44411Z" fill="#747C94"/>
<path d="M14.3915 3.78011H10.2862V2.74996H14.3915V3.78011Z" fill="#747C94"/>
<path d="M10.2862 6.97569H14.3915V5.94554H10.2862V6.97569Z" fill="#747C94"/>
</svg>
