<svg width="16" height="16" viewBox="0 0 16 16" fill="none" xmlns="http://www.w3.org/2000/svg">
<path d="M14 2.2C14 2.08954 13.9105 2 13.8 2H7.2C7.08954 2 7 2.08954 7 2.2V3H6V2C6 1.44772 6.44772 1 7 1H14C14.5523 1 15 1.44772 15 2V10.4648C15 10.7992 14.8329 11.1114 14.5547 11.2969L11.0547 13.6302C11.0367 13.6422 11.0185 13.6535 11 13.6642V12.4648L14 10.4648V2.2Z" fill="#747C94"/>
<path d="M6.5 12C6.5 12.5523 6.05228 13 5.5 13C4.94772 13 4.5 12.5523 4.5 12C4.5 11.4477 4.94772 11 5.5 11C6.05228 11 6.5 11.4477 6.5 12Z" fill="#747C94"/>
<path d="M2 4C1.44772 4 1 4.44772 1 5V12.4648C1 12.7992 1.1671 13.1114 1.4453 13.2969L4.9453 15.6302C5.2812 15.8541 5.7188 15.8541 6.0547 15.6302L9.5547 13.2969C9.8329 13.1114 10 12.7992 10 12.4648V5C10 4.44772 9.55228 4 9 4H2ZM9 5.2V12.4648L5.61094 14.7242C5.54376 14.769 5.45624 14.769 5.38906 14.7242L2 12.4648V5.2C2 5.08954 2.08954 5 2.2 5H8.8C8.91046 5 9 5.08954 9 5.2Z" fill="#747C94"/>
</svg>
