<svg width="24" height="24" viewBox="0 0 24 24" fill="none" xmlns="http://www.w3.org/2000/svg">
<path d="M18 18.2857L20.9923 16.5758C21.6154 16.2198 22 15.5571 22 14.8394V2C22 1.44772 21.5523 1 21 1H9C8.44772 1 8 1.44772 8 2V3H17C17.5523 3 18 3.44772 18 4V18.2857Z" fill="#747C94"/>
<path d="M7 11V9H11V11H7Z" fill="#747C94"/>
<path fill-rule="evenodd" clip-rule="evenodd" d="M15 5H3C2.44772 5 2 5.44772 2 6V18.8394C2 19.5571 2.38457 20.2198 3.00772 20.5758L8.00772 23.433C8.62259 23.7843 9.37741 23.7843 9.99228 23.433L14.9923 20.5758C15.6154 20.2198 16 19.5571 16 18.8394V6C16 5.44772 15.5523 5 15 5ZM4 18.8394V7H14V18.8394L9 21.6965L4 18.8394Z" fill="#747C94"/>
</svg>
