<svg width="24" height="24" viewBox="0 0 24 24" fill="none" xmlns="http://www.w3.org/2000/svg">
<path d="M4.22171 5.63605L5.63593 4.22184L7.75725 6.34316L6.34303 7.75737L4.22171 5.63605Z" fill="#747C94"/>
<path d="M5.63593 9.87869L4.22171 11.2929C1.87857 13.6361 1.87857 17.435 4.22171 19.7782C6.56486 22.1213 10.3639 22.1213 12.707 19.7782L14.1212 18.364L12.707 16.9498L11.2928 18.364C9.73069 19.9261 7.19803 19.9261 5.63593 18.364C4.07383 16.8019 4.07383 14.2692 5.63593 12.7071L7.05014 11.2929L5.63593 9.87869Z" fill="#747C94"/>
<path d="M16.9496 12.7071L18.3638 11.2929C19.9259 9.73081 19.9259 7.19815 18.3638 5.63605C16.8018 4.07395 14.2691 4.07395 12.707 5.63605L11.2928 7.05026L9.87857 5.63605L11.2928 4.22184C13.6359 1.87869 17.4349 1.87869 19.7781 4.22184C22.1212 6.56498 22.1212 10.364 19.7781 12.7071L18.3638 14.1213L16.9496 12.7071Z" fill="#747C94"/>
<path d="M17.6567 16.2427L16.2425 17.6569L18.3638 19.7782L19.7781 18.364L17.6567 16.2427Z" fill="#747C94"/>
</svg>
