<svg width="24" height="24" viewBox="0 0 24 24" fill="none" xmlns="http://www.w3.org/2000/svg">
<path d="M6.80828 7.61359L11.2303 3.32039C11.2345 3.31226 11.2416 3.30697 11.2475 3.30254C11.2501 3.30061 11.2525 3.29885 11.2543 3.29709C11.4163 3.13981 11.6263 3.04078 11.8363 3.01165C11.8453 3.01165 11.8543 3.01019 11.8633 3.00874C11.8723 3.00728 11.8813 3.00583 11.8903 3.00583C11.9263 3 11.9623 3 11.9983 3L12.1003 3.00583C12.1093 3.00583 12.1183 3.00728 12.1273 3.00874C12.1363 3.01019 12.1453 3.01165 12.1543 3.01165C12.3703 3.04078 12.5743 3.13981 12.7363 3.29709L17.1823 7.61359C17.3863 7.81165 17.4883 8.07379 17.4883 8.33592C17.4883 8.59806 17.3863 8.86019 17.1823 9.05825C16.7743 9.45437 16.1083 9.45437 15.6943 9.05825L13.0363 6.47767L13.0363 15.932C13.0363 16.4913 12.5623 16.9515 11.9863 16.9515C11.6983 16.9515 11.4343 16.835 11.2423 16.6544C11.0503 16.468 10.9363 16.2175 10.9363 15.932L10.9363 6.47767L8.27828 9.05825C7.87028 9.45437 7.20428 9.45437 6.79028 9.05825C6.40028 8.65631 6.40028 8.00971 6.80828 7.61359Z" fill="#747C94"/>
<path d="M21.5277 16.8563V20.9514C21.5277 21.033 21.5157 21.1087 21.4977 21.1786C21.4137 21.5805 21.0477 21.8835 20.6157 21.8835H3.37768C2.91568 21.8835 2.53168 21.5398 2.48368 21.1029C2.47168 21.0504 2.47168 21.0038 2.47168 20.9456V16.8504C2.47168 16.367 2.87968 15.9767 3.37168 15.9767C3.61768 15.9767 3.84568 16.0757 4.00768 16.233C4.16968 16.3903 4.27168 16.6116 4.27168 16.8504V20.1301H19.7337V16.8504C19.7337 16.367 20.1417 15.9767 20.6337 15.9767C20.8797 15.9767 21.1077 16.0757 21.2697 16.233C21.4257 16.3961 21.5277 16.6174 21.5277 16.8563Z" fill="#747C94"/>
</svg>
