<svg width="24" height="24" viewBox="0 0 24 24" fill="none" xmlns="http://www.w3.org/2000/svg">
<path d="M12 1L15 6H13V13.381L16 11.882L15.999 11H15V7H19V11H17.999L18 13.118L13 15.618V17.171C14.166 17.583 15 18.694 15 20C15 21.657 13.657 23 12 23C10.343 23 9 21.657 9 20C9 18.813 9.69 17.787 10.69 17.3L6 14L5.999 11.732C5.402 11.386 5 10.74 5 10C5 8.895 5.895 8 7 8C8.105 8 9 8.895 9 10C9 10.74 8.598 11.387 8 11.732V13L11 15.086V6H9L12 1ZM12 19C11.448 19 11 19.448 11 20C11 20.552 11.448 21 12 21C12.552 21 13 20.552 13 20C13 19.448 12.552 19 12 19Z" fill="#747C94"/>
</svg>
