<svg width="24" height="24" viewBox="0 0 24 24" fill="none" xmlns="http://www.w3.org/2000/svg">
<path d="M21.5763 1H8.35146C7.90571 1 7.47673 1.17436 7.15499 1.48205L5.97192 2.61367C5.77753 2.79828 5.90154 3.12991 6.1663 3.13675L9.49766 3.24273C9.99703 3.25982 10.4729 3.46837 10.8248 3.83076C10.8248 3.83076 20.41 13.6119 20.4268 13.6324H21.5964C22.3706 13.6324 23.0007 12.9931 23.0007 12.2V2.45299C23.0007 1.65299 22.3639 1 21.5763 1Z" fill="#202241"/>
<path d="M18.9978 13.6291L10.4951 4.95567C10.1801 4.63431 9.75781 4.44969 9.31206 4.4326L2.49184 4.21379C1.66067 4.18644 0.980326 4.88046 1.00043 5.72832L1.18141 12.5488C1.19482 13.0616 1.39926 13.5505 1.75786 13.9129L10.2538 22.5795C10.8035 23.1402 11.6916 23.1402 12.2379 22.5795L18.9978 15.6838C19.5541 15.1163 19.5541 14.1967 18.9978 13.6291ZM4.65353 9.06848C4.03686 9.06848 3.53749 8.55908 3.53749 7.93002C3.53749 7.30096 4.03686 6.79156 4.65353 6.79156C5.2702 6.79156 5.76957 7.30096 5.76957 7.93002C5.76957 8.55908 5.2702 9.06848 4.65353 9.06848Z" fill="#0A1032" fill-opacity="0.3"/>
</svg>
