<svg width="24" height="24" viewBox="0 0 24 24" fill="none" xmlns="http://www.w3.org/2000/svg">
<path d="M18.1 2C19.2046 2 20.1 2.89543 20.1 4V15.1271C20.1 15.4471 19.9469 15.7477 19.6882 15.9359L17 17.8909V15.4179L18.1 14.6179V4H10.1V5H8.1V4C8.1 2.89543 8.99543 2 10.1 2H18.1Z" fill="#747C94"/>
<path d="M11.5 16C11.5 16.8284 10.8284 17.5 10 17.5C9.17157 17.5 8.5 16.8284 8.5 16C8.5 15.1716 9.17157 14.5 10 14.5C10.8284 14.5 11.5 15.1716 11.5 16Z" fill="#747C94"/>
<path d="M16 7.80145C16 6.80653 15.1046 6 14 6H6C4.89543 6 4 6.80653 4 7.80145V17.8239C4 18.1121 4.15308 18.3829 4.41183 18.5524L9.41183 21.8277C9.76248 22.0574 10.2375 22.0574 10.5882 21.8277L15.5882 18.5524C15.8469 18.3829 16 18.1121 16 17.8239V7.80145ZM6 7.8H14V17.2978L10 19.9L6 17.2979V7.8Z" fill="#747C94"/>
</svg>
