<svg width="24" height="24" viewBox="0 0 24 24" fill="none" xmlns="http://www.w3.org/2000/svg">
<g clip-path="url(#clip0_3240_50)">
<path d="M23.9071 16.6775L23.9053 16.674L23.9019 16.6706C22.7201 14.1715 20.8899 12.8851 18.4543 12.8851C16.0187 12.8851 14.1868 14.1732 13.0033 16.6706V16.674C12.9316 16.8268 12.8945 16.9934 12.8945 17.162C12.8945 17.3307 12.9316 17.4973 13.0033 17.65C14.1868 20.1474 16.0169 21.4338 18.4543 21.4338C20.8899 21.4338 22.7201 20.144 23.9053 17.6466C23.9765 17.495 24.0136 17.3298 24.0142 17.1624C24.0148 16.995 23.9788 16.8295 23.9088 16.6775H23.9071ZM18.4526 19.7186C16.7888 19.7186 15.5761 18.9142 14.6722 17.1595C15.5727 15.403 16.7888 14.6003 18.4543 14.6003C20.1181 14.6003 21.3325 15.403 22.2347 17.1595C21.3376 18.9124 20.1198 19.7186 18.456 19.7186H18.4526ZM16.9672 17.1732C16.9672 17.5712 17.1253 17.953 17.4068 18.2344C17.6882 18.5159 18.07 18.674 18.468 18.674C18.8661 18.674 19.2478 18.5159 19.5293 18.2344C19.8107 17.953 19.9689 17.5712 19.9689 17.1732C19.9689 16.7751 19.8107 16.3934 19.5293 16.1119C19.2478 15.8305 18.8661 15.6723 18.468 15.6723C18.07 15.6723 17.6882 15.8305 17.4068 16.1119C17.1253 16.3934 16.9672 16.7751 16.9672 17.1732ZM2.93136 4.49581H20.799V11.2762H22.7287V3.42378C22.7287 3.19633 22.6383 2.97819 22.4775 2.81735C22.3167 2.65652 22.0985 2.56616 21.8711 2.56616H1.85933C1.63188 2.56616 1.41374 2.65652 1.2529 2.81735C1.09207 2.97819 1.00171 3.19633 1.00171 3.42378V17.3601C1.00171 17.5876 1.09207 17.8057 1.2529 17.9666C1.41374 18.1274 1.63188 18.2178 1.85933 18.2178H10.2932V16.2881H2.93136V4.49581ZM17.715 7.33968L16.7288 6.35342C16.7088 6.33345 16.6852 6.31761 16.6591 6.3068C16.6331 6.29599 16.6052 6.29043 16.577 6.29043C16.5488 6.29043 16.5208 6.29599 16.4948 6.3068C16.4687 6.31761 16.4451 6.33345 16.4252 6.35342L11.499 11.2847L9.1937 8.97431C9.17378 8.95435 9.15012 8.9385 9.12407 8.9277C9.09803 8.91689 9.0701 8.91132 9.0419 8.91132C9.0137 8.91132 8.98577 8.91689 8.95973 8.9277C8.93368 8.9385 8.91002 8.95435 8.8901 8.97431L5.02223 12.8405C4.98242 12.8806 4.96009 12.9349 4.96009 12.9914C4.96009 13.048 4.98242 13.1022 5.02223 13.1424L6.00849 14.1286C6.04865 14.1684 6.1029 14.1908 6.15943 14.1908C6.21597 14.1908 6.27022 14.1684 6.31037 14.1286L9.03761 11.4014L11.3463 13.7101C11.3662 13.7301 11.3899 13.7459 11.416 13.7567C11.442 13.7675 11.4699 13.7731 11.4981 13.7731C11.5263 13.7731 11.5543 13.7675 11.5803 13.7567C11.6064 13.7459 11.63 13.7301 11.6499 13.7101L17.715 7.63985C17.7352 7.6202 17.7511 7.59672 17.7621 7.5708C17.773 7.54488 17.7786 7.51704 17.7786 7.48891C17.7786 7.46078 17.773 7.43294 17.7621 7.40702C17.7511 7.3811 17.7352 7.35762 17.715 7.33797V7.33968Z" fill="#747C94"/>
</g>
<defs>
<clipPath id="clip0_3240_50">
<rect width="24" height="24" fill="white"/>
</clipPath>
</defs>
</svg>
