<svg width="24" height="24" viewBox="0 0 24 24" fill="none" xmlns="http://www.w3.org/2000/svg">
<path d="M3 13V20C3 20.2652 3.10536 20.5195 3.29289 20.7071C3.48043 20.8946 3.73478 21 4 21H20C20.2652 21 20.5196 20.8946 20.7071 20.7071C20.8946 20.5195 21 20.2652 21 20V3.99998C21 3.73476 20.8946 3.48041 20.7071 3.29287C20.5196 3.10533 20.2652 2.99998 20 2.99998H7V4.99998H19V19H5V13H3Z" fill="#747C94"/>
<path d="M11 1.38446L9.58835 0L5 4.5L9.58835 9L11 7.61554L7.82329 4.5L11 1.38446Z" fill="#747C94"/>
</svg>
